G04 DipTrace 4.1.1.0*
G04 BottomSilk.gbr*
%MOIN*%
G04 #@! TF.FileFunction,Legend,Bot*
G04 #@! TF.Part,Single*
%ADD17C,0.01*%
%ADD27C,0.003*%
%FSLAX26Y26*%
G04*
G70*
G90*
G75*
G01*
G04 BotSilk*
%LPD*%
G36*
X2905087Y852290D2*
D1*
D1*
D1*
D1*
D1*
D1*
D1*
D1*
D1*
D1*
D1*
D1*
D1*
D1*
D1*
D1*
D1*
D1*
D1*
D1*
D1*
D1*
D1*
D1*
D1*
D1*
D1*
D1*
D1*
D1*
D1*
D1*
D1*
D1*
D1*
G37*
X2611445Y857614D2*
D27*
Y901104D1*
X2602698D1*
Y896459D1*
X2602538D1*
G03X2597668Y900318I-10348J-8059D01*
G01*
G03X2591217Y901606I-6179J-14141D01*
G01*
G03X2586555Y900766I12J-13422D01*
G01*
G03X2582129Y898247I5924J-15555D01*
G01*
X2588442Y890707D1*
G02X2591320Y892323I6924J-8964D01*
G01*
G02X2594232Y892858I2934J-7771D01*
G01*
G02X2600076Y890699I11J-8960D01*
G01*
G02X2602043Y887881I-4242J-5056D01*
G01*
G02X2602698Y883751I-11128J-3881D01*
G01*
Y857614D1*
X2611445D1*
X2741526Y892858D2*
G02X2744314Y892596I152J-13316D01*
G01*
G02X2746480Y891801I-1466J-7342D01*
G01*
G02X2748954Y888629I-2524J-4519D01*
G01*
G02X2750192Y879409I-31554J-8928D01*
G01*
G02X2748954Y870050I-33232J-368D01*
G01*
G02X2746480Y866877I-4996J1344D01*
G01*
G02X2744314Y866081I-3632J6547D01*
G01*
G02X2741526Y865819I-2635J13053D01*
G01*
G02X2738785Y866093I-150J12343D01*
G01*
G02X2736647Y866917I1539J7178D01*
G01*
G02X2734198Y870222I2797J4632D01*
G01*
G02X2732961Y879409I32653J9075D01*
G01*
G02X2734198Y888455I33398J39D01*
G01*
G02X2736647Y891760I5245J-1328D01*
G01*
G02X2738785Y892584I3677J-6354D01*
G01*
G02X2741526Y892858I2592J-12069D01*
G01*
D3*
X2678979Y857614D2*
X2688088Y888034D1*
X2688249D1*
X2697336Y857614D1*
X2705056D1*
X2718949Y901104D1*
X2709699D1*
X2701357Y870644D1*
X2701196D1*
X2691345Y901104D1*
X2684969D1*
X2675139Y870644D1*
X2674958D1*
X2666635Y901104D1*
X2657367D1*
X2671278Y857614D1*
X2678979D1*
X2797961Y945262D2*
X2825045D1*
G02X2824316Y940567I-13769J-268D01*
G01*
G02X2822129Y937213I-7820J2710D01*
G01*
G02X2818812Y935199I-6550J7052D01*
G01*
G02X2814690Y934528I-3972J11385D01*
G01*
G02X2809600Y935577I-79J12485D01*
G01*
G02X2805139Y938730I5937J13134D01*
G01*
X2798808Y933322D1*
G03X2802244Y930085I15853J13389D01*
G01*
G03X2806084Y927933I10151J13609D01*
G01*
G03X2814530Y926325I8379J21029D01*
G01*
G03X2821119Y927407I-8J20663D01*
G01*
G03X2827508Y930656I-8283J24190D01*
G01*
G03X2830256Y933390I-6387J9169D01*
G01*
G03X2832220Y937259I-12648J8856D01*
G01*
G03X2833396Y942262I-24445J8384D01*
G01*
G03X2833790Y948399I-43499J5872D01*
G01*
G03X2833427Y954262I-43460J249D01*
G01*
G03X2832341Y959143I-26634J-3362D01*
G01*
G03X2830528Y963043I-16442J-5274D01*
G01*
G03X2827991Y965962I-10664J-6707D01*
G01*
G03X2822056Y969604I-14321J-16680D01*
G01*
G03X2815857Y970818I-6223J-15343D01*
G01*
G03X2809147Y969576I-134J-18032D01*
G01*
G03X2803328Y965852I7044J-17413D01*
G01*
G03X2799304Y960022I10821J-11772D01*
G01*
G03X2797961Y952461I18893J-7258D01*
G01*
Y945262D1*
X2918937Y948621D2*
G03X2918660Y954727I-59844J346D01*
G01*
G03X2917840Y959046I-21900J-1922D01*
G01*
G03X2914231Y965249I-16008J-5161D01*
G01*
G03X2912096Y967176I-11634J-10748D01*
G01*
G03X2909273Y969017I-15012J-19930D01*
G01*
G03X2905625Y970367I-6224J-11211D01*
G01*
G03X2901001Y970818I-4407J-21296D01*
G01*
G03X2896436Y970367I-218J-21169D01*
G01*
G03X2892789Y969017I2629J-12699D01*
G01*
G03X2889946Y967176I12332J-22153D01*
G01*
G03X2887791Y965249I9474J-12765D01*
G01*
G03X2884193Y959046I12309J-11285D01*
G01*
G03X2883379Y954727I21463J-6279D01*
G01*
G03X2883109Y948621I59069J-5674D01*
G01*
G03X2883379Y942412I61251J-443D01*
G01*
G03X2884193Y938055I22633J1972D01*
G01*
G03X2887791Y931854I15897J5081D01*
G01*
G03X2889946Y929906I11274J10300D01*
G01*
G03X2892789Y928083I14028J18748D01*
G01*
G03X2896436Y926764I6274J11646D01*
G01*
G03X2901001Y926325I4372J21545D01*
G01*
G03X2905625Y926764I239J22080D01*
G01*
G03X2909273Y928083I-2571J12818D01*
G01*
G03X2912096Y929906I-11060J20224D01*
G01*
G03X2914231Y931854I-9156J12176D01*
G01*
G03X2917840Y938055I-12388J11361D01*
G01*
G03X2918660Y942412I-21176J6242D01*
G01*
G03X2918937Y948621I-60474J5808D01*
G01*
D3*
X2688806D2*
G03X2688534Y954727I-59838J397D01*
G01*
G03X2687711Y959046I-22159J-1984D01*
G01*
G03X2684104Y965249I-15984J-5145D01*
G01*
G03X2681969Y967176I-11927J-11072D01*
G01*
G03X2679144Y969017I-14931J-19816D01*
G01*
G03X2675493Y970367I-6214J-11191D01*
G01*
G03X2670873Y970818I-4400J-21227D01*
G01*
G03X2666306Y970367I-217J-21192D01*
G01*
G03X2662661Y969017I2641J-12721D01*
G01*
G03X2659819Y967176I12332J-22153D01*
G01*
G03X2657664Y965249I9474J-12765D01*
G01*
G03X2654063Y959046I12310J-11293D01*
G01*
G03X2653249Y954727I20951J-6183D01*
G01*
G03X2652976Y948621I59069J-5700D01*
G01*
G03X2653249Y942412I61253J-417D01*
G01*
G03X2654063Y938055I22113J1875D01*
G01*
G03X2657664Y931854I15901J5088D01*
G01*
G03X2659819Y929906I11145J10158D01*
G01*
G03X2662661Y928083I14028J18748D01*
G01*
G03X2666306Y926764I6284J11668D01*
G01*
G03X2670873Y926325I4372J21546D01*
G01*
G03X2675493Y926764I243J22011D01*
G01*
G03X2679144Y928083I-2587J12873D01*
G01*
G03X2681969Y929906I-11437J20819D01*
G01*
G03X2684104Y931854I-9156J12176D01*
G01*
G03X2687711Y938055I-12366J11344D01*
G01*
G03X2688534Y942412I-21431J6304D01*
G01*
G03X2688806Y948621I-61493J5801D01*
G01*
D3*
X2807425Y857453D2*
Y861295D1*
X2807608D1*
G03X2811248Y858038I6209J3277D01*
G01*
G03X2814240Y857223I4883J12027D01*
G01*
G03X2818041Y856950I3667J24458D01*
G01*
G03X2824361Y857991I-126J20477D01*
G01*
G03X2828917Y860793I-3819J11317D01*
G01*
G03X2831936Y864999I-8146J9032D01*
G01*
G03X2832941Y870222I-12227J5062D01*
G01*
G03X2832071Y875231I-14014J146D01*
G01*
G03X2829462Y879369I-11621J-4436D01*
G01*
G03X2825169Y882148I-7924J-7533D01*
G01*
G03X2819207Y883129I-5850J-16959D01*
G01*
X2807425D1*
Y887732D1*
G02X2807955Y890256I5461J170D01*
G01*
G02X2809576Y892034I4024J-2040D01*
G01*
G02X2812295Y893071I4088J-6637D01*
G01*
G02X2816112Y893361I3232J-17269D01*
G01*
G02X2818877Y893192I163J-20004D01*
G01*
G02X2821139Y892680I-1543J-12076D01*
G01*
G02X2824114Y889963I-2461J-5683D01*
G01*
X2830810Y895231D1*
G03X2824810Y900063I-12105J-8890D01*
G01*
G03X2820955Y901230I-6857J-15702D01*
G01*
G03X2816535Y901566I-3909J-22183D01*
G01*
G03X2809387Y900831I-609J-29206D01*
G01*
G03X2803787Y898470I3933J-17151D01*
G01*
G03X2800218Y894000I5904J-8375D01*
G01*
G03X2799301Y890904I13488J-5681D01*
G01*
G03X2798962Y887230I21571J-3841D01*
G01*
Y857453D1*
X2807425D1*
X2825045Y952461D2*
X2806689D1*
G02X2807479Y956791I14274J-367D01*
G01*
G02X2809451Y959971I8334J-2968D01*
G01*
G02X2812336Y961924I6150J-5977D01*
G01*
G02X2815857Y962575I3423J-8667D01*
G01*
G02X2819424Y961924I101J-9546D01*
G01*
G02X2822331Y959971I-3221J-7935D01*
G01*
G02X2824297Y956791I-6189J-6024D01*
G01*
G02X2825045Y952461I-13170J-4505D01*
G01*
D3*
X2807425Y872735D2*
Y875932D1*
X2817621D1*
G02X2820875Y875517I-226J-14752D01*
G01*
G02X2823188Y874499I-1545J-6641D01*
G01*
G02X2824558Y872873I-2321J-3346D01*
G01*
G02X2824979Y870644I-4580J-2020D01*
G01*
G02X2824501Y868613I-4393J-39D01*
G01*
G02X2823067Y866864I-4948J2594D01*
G01*
G02X2820621Y865583I-3846J4368D01*
G01*
G02X2816978Y865155I-3375J13017D01*
G01*
G02X2812419Y865441I-730J24838D01*
G01*
G02X2809437Y866462I1125J8151D01*
G01*
G02X2808556Y867366I1903J2734D01*
G01*
G02X2807929Y868714I4595J2959D01*
G01*
G02X2807425Y872735I13056J3678D01*
G01*
D3*
X2542992Y939614D2*
X2536538Y933824D1*
G03X2543314Y928436I18106J15813D01*
G01*
G03X2547491Y926853I8096J15065D01*
G01*
G03X2552180Y926325I4558J19411D01*
G01*
G03X2559357Y927605I98J20218D01*
G01*
G03X2565812Y931451I-7964J20705D01*
G01*
G03X2568476Y934440I-9089J10784D01*
G01*
G03X2570381Y938282I-14381J9520D01*
G01*
G03X2571522Y942975I-23431J8186D01*
G01*
G03X2571904Y948520I-37090J5340D01*
G01*
G03X2571522Y954068I-37475J208D01*
G01*
G03X2570381Y958773I-24722J-3509D01*
G01*
G03X2568476Y962629I-16729J-5864D01*
G01*
G03X2565812Y965640I-11881J-7825D01*
G01*
G03X2559357Y969524I-14475J-16755D01*
G01*
G03X2552180Y970818I-7085J-18746D01*
G01*
G03X2547491Y970285I-87J-20130D01*
G01*
G03X2543314Y968688I3955J-16607D01*
G01*
G03X2536538Y963278I11530J-21390D01*
G01*
X2542992Y957529D1*
G02X2547054Y960936I10117J-7937D01*
G01*
G02X2551837Y962072I4711J-9192D01*
G01*
G02X2556791Y961224I276J-13285D01*
G01*
G02X2560328Y958684I-3161J-8132D01*
G01*
G02X2562449Y954450I-8687J-6999D01*
G01*
G02X2563159Y948520I-21669J-5602D01*
G01*
G02X2562449Y942618I-22148J-329D01*
G01*
G02X2560328Y938403I-10754J2769D01*
G01*
G02X2556791Y935874I-6739J5687D01*
G01*
G02X2551837Y935030I-4673J12472D01*
G01*
G02X2547033Y936176I-79J10314D01*
G01*
G02X2542992Y939614I6012J11159D01*
G01*
D3*
X2891814Y948520D2*
G02X2891934Y952562I57666J300D01*
G01*
G02X2892297Y955197I15890J-842D01*
G01*
G02X2893965Y958874I11043J-2792D01*
G01*
G02X2896870Y961273I5846J-4122D01*
G01*
G02X2901001Y962072I3910J-9133D01*
G01*
G02X2905163Y961273I244J-9965D01*
G01*
G02X2908038Y958874I-2823J-6307D01*
G01*
G02X2909727Y955197I-8354J-6064D01*
G01*
G02X2910058Y952588I-17314J-3520D01*
G01*
G02X2910169Y948621I-63657J-3775D01*
G01*
G02X2910058Y944545I-67355J-196D01*
G01*
G02X2909727Y941886I-17397J814D01*
G01*
G02X2908038Y938227I-9618J2221D01*
G01*
G02X2905163Y935829I-5721J3938D01*
G01*
G02X2901001Y935030I-3928J9221D01*
G01*
G02X2896870Y935829I-232J9877D01*
G01*
G02X2893965Y938227I2947J6530D01*
G01*
G02X2892297Y941866I9069J6359D01*
G01*
G02X2891934Y944495I15425J3465D01*
G01*
G02X2891814Y948520I57092J3727D01*
G01*
D3*
X2661681D2*
G02X2661806Y952562I58756J211D01*
G01*
G02X2662165Y955197I16264J-877D01*
G01*
G02X2663836Y958874I11186J-2864D01*
G01*
G02X2666740Y961273I5867J-4145D01*
G01*
G02X2670873Y962072I3910J-9134D01*
G01*
G02X2675034Y961273I244J-9965D01*
G01*
G02X2677909Y958874I-2867J-6359D01*
G01*
G02X2679598Y955197I-8298J-6038D01*
G01*
G02X2679930Y952588I-17085J-3500D01*
G01*
G02X2680041Y948621I-59839J-3648D01*
G01*
G02X2679930Y944545I-63319J-327D01*
G01*
G02X2679598Y941886I-18079J907D01*
G01*
G02X2677909Y938227I-9618J2221D01*
G01*
G02X2675034Y935829I-5765J3991D01*
G01*
G02X2670873Y935030I-3928J9221D01*
G01*
G02X2666740Y935829I-233J9878D01*
G01*
G02X2663836Y938227I2969J6554D01*
G01*
G02X2662165Y941866I9071J6367D01*
G01*
G02X2661806Y944495I15799J3500D01*
G01*
G02X2661681Y948520I58171J3816D01*
G01*
D3*
X2790315Y926828D2*
Y970315D1*
X2781570D1*
Y965671D1*
X2781408D1*
G03X2776538Y969531I-10315J-8010D01*
G01*
G03X2770089Y970818I-6181J-14184D01*
G01*
G03X2765112Y969854I8J-13382D01*
G01*
G03X2760308Y966967I6806J-16762D01*
G01*
G03X2756773Y962235I7546J-9325D01*
G01*
G03X2755888Y959207I13310J-5532D01*
G01*
G03X2755594Y955738I19251J-3378D01*
G01*
Y926828D1*
X2764340D1*
Y952722D1*
G02X2764953Y956644I11635J191D01*
G01*
G02X2766793Y959600I7450J-2588D01*
G01*
G02X2769547Y961454I5882J-5765D01*
G01*
G02X2772904Y962072I3263J-8298D01*
G01*
G02X2776337Y961454I124J-9154D01*
G01*
G02X2779117Y959600I-3047J-7577D01*
G01*
G02X2780957Y956644I-5611J-5543D01*
G01*
G02X2781570Y952722I-11022J-3731D01*
G01*
Y926828D1*
X2790315D1*
X2630196Y857453D2*
Y861295D1*
X2630377D1*
G03X2634016Y858038I6222J3289D01*
G01*
G03X2637010Y857223I4874J12002D01*
G01*
G03X2640811Y856950I3660J24364D01*
G01*
G03X2647130Y857991I-127J20478D01*
G01*
G03X2651689Y860793I-3821J11327D01*
G01*
G03X2654705Y864999I-8144J9023D01*
G01*
G03X2655710Y870222I-12227J5062D01*
G01*
G03X2654839Y875231I-14132J122D01*
G01*
G03X2652230Y879369I-11573J-4406D01*
G01*
G03X2647938Y882148I-7929J-7539D01*
G01*
G03X2641976Y883129I-5853J-16974D01*
G01*
X2630196D1*
Y887732D1*
G02X2630723Y890256I5459J176D01*
G01*
G02X2632346Y892034I3988J-2011D01*
G01*
G02X2635066Y893071I4078J-6613D01*
G01*
G02X2638881Y893361I3230J-17249D01*
G01*
G02X2641646Y893192I163J-20004D01*
G01*
G02X2643907Y892680I-1549J-12093D01*
G01*
G02X2646885Y889963I-2462J-5689D01*
G01*
X2653579Y895231D1*
G03X2647576Y900063I-12109J-8898D01*
G01*
G03X2643724Y901230I-6836J-15628D01*
G01*
G03X2639303Y901566I-3911J-22206D01*
G01*
G03X2632154Y900831I-608J-29226D01*
G01*
G03X2626556Y898470I3919J-17106D01*
G01*
G03X2622987Y894000I5945J-8408D01*
G01*
G03X2622071Y890904I13010J-5533D01*
G01*
G03X2621730Y887230I21211J-3823D01*
G01*
Y857453D1*
X2630196D1*
X2545745Y876051D2*
X2572827D1*
G02X2572098Y871356I-13942J-242D01*
G01*
G02X2569913Y867999I-7909J2758D01*
G01*
G02X2566594Y865987I-6611J7162D01*
G01*
G02X2562475Y865316I-3947J11258D01*
G01*
G02X2557382Y866366I-76J12509D01*
G01*
G02X2552924Y869518I5959J13157D01*
G01*
X2546591Y864108D1*
G03X2550028Y860873I15953J13506D01*
G01*
G03X2553867Y858722I10141J13601D01*
G01*
G03X2562311Y857112I8383J21016D01*
G01*
G03X2568904Y858196I-33J20795D01*
G01*
G03X2575291Y861445I-8269J24157D01*
G01*
G03X2578039Y864178I-6387J9169D01*
G01*
G03X2580003Y868047I-13025J9042D01*
G01*
G03X2581180Y873051I-24571J8421D01*
G01*
G03X2581571Y879188I-43465J5851D01*
G01*
G03X2581211Y885050I-43743J259D01*
G01*
G03X2580122Y889930I-26850J-3431D01*
G01*
G03X2578312Y893831I-16503J-5287D01*
G01*
G03X2575773Y896751I-10760J-6793D01*
G01*
G03X2569839Y900392I-14414J-16833D01*
G01*
G03X2563638Y901606I-6220J-15329D01*
G01*
G03X2556929Y900365I-132J-18032D01*
G01*
G03X2551114Y896640I7007J-17342D01*
G01*
G03X2547087Y890808I10790J-11758D01*
G01*
G03X2545745Y883249I18937J-7259D01*
G01*
Y876051D1*
X2788811Y857614D2*
Y901104D1*
X2780066D1*
Y896459D1*
X2779904D1*
G02X2782633Y887546I-10321J-8033D01*
G01*
X2775034Y900318D2*
G03X2768585Y901606I-6177J-14129D01*
G01*
G03X2763921Y900766I9J-13422D01*
G01*
G03X2759499Y898247I5880J-15461D01*
G01*
X2765811Y890707D1*
G02X2768686Y892323I6979J-9054D01*
G01*
G02X2771601Y892858I2931J-7757D01*
G01*
G02X2777441Y890699I14J-8940D01*
G01*
G02X2779411Y887881I-4243J-5063D01*
G01*
G02X2780066Y883751I-11048J-3869D01*
G01*
Y857614D1*
X2788811D1*
X2572827Y883249D2*
X2554471D1*
G02X2555262Y887579I14311J-379D01*
G01*
G02X2557236Y890760I8225J-2900D01*
G01*
G02X2560117Y892710I6096J-5902D01*
G01*
G02X2563638Y893361I3413J-8612D01*
G01*
G02X2567207Y892710I126J-9422D01*
G01*
G02X2570113Y890760I-3222J-7940D01*
G01*
G02X2572077Y887579I-6226J-6042D01*
G01*
G02X2572827Y883249I-13120J-4500D01*
G01*
D3*
X2630196Y872735D2*
Y875932D1*
X2640388D1*
G02X2643644Y875517I-228J-14777D01*
G01*
G02X2645958Y874499I-1564J-6690D01*
G01*
G02X2647327Y872873I-2377J-3390D01*
G01*
G02X2647745Y870644I-4532J-2005D01*
G01*
G02X2647270Y868613I-4391J-45D01*
G01*
G02X2645837Y866864I-5003J2637D01*
G01*
G02X2643387Y865583I-3866J4411D01*
G01*
G02X2639745Y865155I-3375J13015D01*
G01*
G02X2635185Y865441I-732J24823D01*
G01*
G02X2632206Y866462I1125J8138D01*
G01*
G02X2631327Y867366I1884J2711D01*
G01*
G02X2630698Y868714I4428J2886D01*
G01*
G02X2630196Y872735I12999J3667D01*
G01*
D3*
X2645013Y941403D2*
Y970315D1*
X2636268D1*
Y944378D1*
G02X2635656Y940434I-11799J-189D01*
G01*
G02X2633818Y937483I-7379J2548D01*
G01*
G02X2631037Y935644I-5779J5718D01*
G01*
G02X2627604Y935030I-3320J8654D01*
G01*
G02X2624247Y935644I-98J8947D01*
G01*
G02X2621491Y937483I3030J7527D01*
G01*
G02X2619651Y940434I5560J5515D01*
G01*
G02X2619038Y944378I11143J3751D01*
G01*
Y970315D1*
X2610293D1*
Y926828D1*
X2619038D1*
Y931432D1*
X2619219D1*
G03X2624054Y927601I10275J8002D01*
G01*
G03X2630438Y926325I6116J13997D01*
G01*
G03X2635488Y927282I0J13806D01*
G01*
G03X2640308Y930154I-6641J16629D01*
G01*
G03X2643839Y934882I-7514J9292D01*
G01*
G03X2644719Y937917I-13193J5473D01*
G01*
G03X2645013Y941403I-19129J3368D01*
G01*
D3*
X2600362Y926828D2*
Y970315D1*
X2591617D1*
Y965671D1*
X2591457D1*
G03X2586585Y969531I-10326J-8025D01*
G01*
G03X2580138Y970818I-6183J-14195D01*
G01*
G03X2575472Y969978I-6J-13342D01*
G01*
G03X2571051Y967461I5808J-15343D01*
G01*
X2577364Y959921D1*
G02X2580239Y961534I7021J-9148D01*
G01*
G02X2583154Y962072I2954J-7836D01*
G01*
G02X2588993Y959911I1J-8967D01*
G01*
G02X2590962Y957092I-4212J-5038D01*
G01*
G02X2591617Y952963I-10968J-3856D01*
G01*
Y926828D1*
X2600362D1*
X2732961Y857614D2*
Y862139D1*
G03X2738063Y858369I11523J10257D01*
G01*
G03X2744201Y857112I5988J13625D01*
G01*
G03X2747940Y857504I115J16911D01*
G01*
G03X2751117Y858680I-2682J12128D01*
G01*
G03X2755841Y862720I-6635J12541D01*
G01*
G03X2758316Y868190I-9814J7736D01*
G01*
G03X2758781Y872573I-32405J5651D01*
G01*
G03X2758937Y879409I-125306J6282D01*
G01*
G03X2758781Y886160I-122313J548D01*
G01*
G03X2758316Y890487I-32069J-1255D01*
G01*
G03X2755841Y895957I-12570J-2393D01*
G01*
G03X2751117Y899997I-11828J-9047D01*
G01*
G03X2747940Y901202I-5886J-10731D01*
G01*
G03X2744201Y901606I-3644J-16210D01*
G01*
G03X2738121Y900178I-174J-12918D01*
G01*
G03X2732961Y896459I10978J-20670D01*
G01*
Y918655D1*
X2724214D1*
Y857614D1*
X2732961D1*
X2857747Y935030D2*
G02X2854969Y935295I-120J13435D01*
G01*
G02X2852807Y936088I1489J7404D01*
G01*
G02X2850333Y939261I2549J4538D01*
G01*
G02X2849100Y948520I31892J8961D01*
G01*
G02X2850333Y957808I33312J302D01*
G01*
G02X2852807Y961007I5050J-1350D01*
G01*
G02X2854969Y961804I3586J-6387D01*
G01*
G02X2857747Y962072I2626J-12705D01*
G01*
G02X2860513Y961795I119J-12773D01*
G01*
G02X2862664Y960971I-1477J-7073D01*
G01*
G02X2865114Y957668I-2765J-4611D01*
G01*
G02X2866331Y948520I-33083J-9054D01*
G01*
G02X2865114Y939413I-33993J-93D01*
G01*
G02X2862664Y936125I-5181J1303D01*
G01*
G02X2860513Y935304I-3666J6383D01*
G01*
G02X2857747Y935030I-2614J12281D01*
G01*
D3*
X2498143Y945262D2*
X2525222D1*
G02X2524495Y940567I-13811J-266D01*
G01*
G02X2522310Y937213I-7816J2703D01*
G01*
G02X2518992Y935199I-6544J7043D01*
G01*
G02X2514867Y934528I-3974J11400D01*
G01*
G02X2509781Y935577I-80J12461D01*
G01*
G02X2505320Y938730I5937J13134D01*
G01*
X2498987Y933322D1*
G03X2502425Y930085I15860J13406D01*
G01*
G03X2506265Y927933I10077J13478D01*
G01*
G03X2514710Y926325I8379J21029D01*
G01*
G03X2521301Y927407I-6J20663D01*
G01*
G03X2527686Y930656I-8254J24120D01*
G01*
G03X2530436Y933390I-6324J9110D01*
G01*
G03X2532399Y937259I-12700J8877D01*
G01*
G03X2533579Y942262I-24573J8435D01*
G01*
G03X2533970Y948399I-44038J5887D01*
G01*
G03X2533608Y954262I-43175J276D01*
G01*
G03X2532520Y959143I-27227J-3508D01*
G01*
G03X2530705Y963043I-16375J-5248D01*
G01*
G03X2528169Y965962I-10568J-6620D01*
G01*
G03X2522235Y969604I-14321J-16680D01*
G01*
G03X2516037Y970818I-6220J-15329D01*
G01*
G03X2509324Y969576I-129J-18071D01*
G01*
G03X2503509Y965852I7074J-17447D01*
G01*
G03X2499486Y960022I10785J-11747D01*
G01*
G03X2498143Y952461I18858J-7248D01*
G01*
Y945262D1*
X2731377Y934066D2*
X2725265Y940117D1*
G02X2718983Y935924I-13738J13780D01*
G01*
G02X2711556Y934528I-7246J18092D01*
G01*
G02X2708156Y934881I-130J15298D01*
G01*
G02X2705403Y935936I2110J9626D01*
G01*
G02X2703576Y937684I2317J4249D01*
G01*
G02X2702970Y940117I4153J2327D01*
G01*
G02X2703303Y941808I4073J76D01*
G01*
G02X2704303Y943083I3100J-1404D01*
G01*
G02X2705966Y943940I3125J-4022D01*
G01*
G02X2708298Y944378I3069J-9907D01*
G01*
X2715997Y945102D1*
G03X2720942Y946192I-1097J16750D01*
G01*
G03X2724962Y948652I-4914J12540D01*
G01*
G03X2727635Y952415I-6560J7492D01*
G01*
G03X2728524Y957408I-12368J4776D01*
G01*
G03X2727362Y963218I-13732J276D01*
G01*
G03X2723878Y967420I-9756J-4544D01*
G01*
G03X2718667Y969969I-9847J-13534D01*
G01*
G03X2712320Y970818I-6115J-21560D01*
G01*
G03X2707031Y970416I-181J-32644D01*
G01*
G03X2702556Y969210I3509J-21925D01*
G01*
G03X2695269Y964907I9602J-24583D01*
G01*
X2700677Y958534D1*
G02X2706034Y961438I16549J-24133D01*
G01*
G02X2712320Y962575I6012J-15300D01*
G01*
G02X2715865Y962202I279J-14384D01*
G01*
G02X2718139Y961088I-1118J-5161D01*
G01*
G02X2719777Y957328I-3229J-3643D01*
G01*
G02X2719474Y955953I-3181J-20D01*
G01*
G02X2718560Y954684I-4014J1926D01*
G01*
G02X2716820Y953710I-2886J3116D01*
G01*
G02X2714028Y953224I-3477J11723D01*
G01*
X2706829Y952722D1*
G03X2703690Y952287I1283J-20834D01*
G01*
G03X2701031Y951448I2934J-13916D01*
G01*
G03X2697147Y948551I3728J-9054D01*
G01*
G03X2694955Y944483I10447J-8252D01*
G01*
G03X2694222Y939694I14547J-4679D01*
G01*
G03X2695534Y934014I12038J-210D01*
G01*
G03X2699461Y929803I10147J5524D01*
G01*
G03X2705274Y927194I10931J16575D01*
G01*
G03X2712238Y926325I6705J25398D01*
G01*
G03X2722450Y928260I179J26982D01*
G01*
G03X2731377Y934066I-11035J26732D01*
G01*
D3*
X2525222Y952461D2*
X2506867D1*
G02X2507660Y956791I14277J-375D01*
G01*
G02X2509633Y959971I8292J-2942D01*
G01*
G02X2512516Y961924I6158J-5987D01*
G01*
G02X2516037Y962575I3423J-8667D01*
G01*
G02X2519605Y961924I97J-9572D01*
G01*
G02X2522510Y959971I-3250J-7973D01*
G01*
G02X2524476Y956791I-6189J-6024D01*
G01*
G02X2525222Y952461I-13273J-4514D01*
G01*
D3*
X2875076Y857614D2*
Y970315D1*
X2866331D1*
Y965752D1*
G03X2861239Y969551I-11519J-10127D01*
G01*
G03X2855091Y970818I-6004J-13589D01*
G01*
G03X2851385Y970416I-130J-16099D01*
G01*
G03X2848224Y969210I2744J-11934D01*
G01*
G03X2843450Y965168I7463J-13655D01*
G01*
G03X2840997Y959698I10504J-7995D01*
G01*
G03X2840514Y955346I30846J-5626D01*
G01*
G03X2840354Y948520I123193J-6304D01*
G01*
G03X2840514Y941736I121754J-520D01*
G01*
G03X2840997Y937383I31259J1265D01*
G01*
G03X2843450Y931934I12695J2438D01*
G01*
G03X2848224Y927894I11741J9032D01*
G01*
G03X2851385Y926717I5788J10708D01*
G01*
G03X2855091Y926325I3593J16298D01*
G01*
G03X2861193Y927701I223J13236D01*
G01*
G03X2866331Y931432I-9902J19038D01*
G01*
Y896459D1*
X2866167D1*
G03X2861299Y900318I-10362J-8073D01*
G01*
G03X2854849Y901606I-6179J-14141D01*
G01*
G03X2849871Y900642I23J-13445D01*
G01*
G03X2845070Y897755I6839J-16811D01*
G01*
G03X2841533Y893022I7554J-9333D01*
G01*
G03X2840651Y889995I12917J-5405D01*
G01*
G03X2840354Y886526I18616J-3339D01*
G01*
Y857614D1*
X2849100D1*
Y883510D1*
G02X2849711Y887430I11663J188D01*
G01*
G02X2851552Y890386I7472J-2604D01*
G01*
G02X2854306Y892240I5832J-5687D01*
G01*
G02X2857664Y892858I3241J-8176D01*
G01*
G02X2861098Y892240I118J-9192D01*
G01*
G02X2863877Y890386I-2980J-7473D01*
G01*
G02X2865718Y887430I-5631J-5559D01*
G01*
G02X2866331Y883510I-11095J-3743D01*
G01*
Y857614D1*
X2875076D1*
X2689642Y1094215D2*
D17*
G02X2752472Y1121315I19235J41791D01*
G01*
X2728112Y1094215D2*
G03X2727045Y1091509I876J-1909D01*
G01*
X2754622Y1023962D1*
G03X2757374Y1022814I1948J797D01*
G01*
X2772353Y1029020D1*
G02X2774339Y1028819I806J-1946D01*
G01*
X2807286Y1006529D1*
G03X2809950Y1006782I1179J1736D01*
G01*
X2838100Y1034932D1*
G03X2838353Y1037597I-1484J1486D01*
G01*
X2816063Y1070542D1*
G02X2815862Y1072525I1762J1180D01*
G01*
X2829415Y1105241D1*
G02X2830958Y1106503I1943J-803D01*
G01*
X2870014Y1114037D1*
G03X2871719Y1116100I-394J2062D01*
G01*
Y1155909D1*
G03X2870014Y1157975I-2099J4D01*
G01*
X2830958Y1165509D1*
G02X2829415Y1166769I395J2059D01*
G01*
X2815862Y1199484D1*
G02X2816063Y1201467I1963J803D01*
G01*
X2838353Y1234415D1*
G03X2838100Y1237080I-1738J1180D01*
G01*
X2809950Y1265230D1*
G03X2807286Y1265483I-1485J-1483D01*
G01*
X2774339Y1243193D1*
G02X2772353Y1242992I-1179J1746D01*
G01*
X2739640Y1256545D1*
G02X2738381Y1258088I799J1939D01*
G01*
X2730845Y1297146D1*
G03X2728781Y1298850I-2067J-401D01*
G01*
X2688972D1*
G03X2686908Y1297146I1J-2103D01*
G01*
X2679373Y1258088D1*
G02X2678113Y1256545I-2059J395D01*
G01*
X2645395Y1242992D1*
G02X2643415Y1243193I-804J1937D01*
G01*
X2610467Y1265483D1*
G03X2607801Y1265230I-1180J-1741D01*
G01*
X2579654Y1237080D1*
G03X2579399Y1234415I1481J-1486D01*
G01*
X2601689Y1201467D1*
G02X2601890Y1199484I-1740J-1178D01*
G01*
X2588340Y1166769D1*
G02X2586793Y1165509I-1945J808D01*
G01*
X2547736Y1157975D1*
G03X2546031Y1155909I401J-2067D01*
G01*
Y1116100D1*
G03X2547736Y1114037I2106J4D01*
G01*
X2586793Y1106503D1*
G02X2588340Y1105241I-402J-2073D01*
G01*
X2601890Y1072525D1*
G02X2601689Y1070542I-1941J-805D01*
G01*
X2579399Y1037597D1*
G03X2579654Y1034932I1736J-1179D01*
G01*
X2607801Y1006782D1*
G03X2610467Y1006529I1487J1488D01*
G01*
X2643415Y1028819D1*
G02X2645395Y1029020I1176J-1736D01*
G01*
X2660378Y1022814D1*
G03X2663129Y1023962I803J1944D01*
G01*
X2690706Y1091509D1*
G03X2689642Y1094215I-1941J799D01*
G01*
G36*
X3720104Y3299788D2*
Y3299132D1*
X3720761Y3297819D1*
X3723385Y3293882D1*
X3724041Y3292570D1*
X3726666Y3288633D1*
X3727322Y3287321D1*
X3729947Y3283384D1*
X3730603Y3282071D1*
X3733228Y3278134D1*
X3733884Y3276822D1*
X3735196Y3274853D1*
X3736509Y3273541D1*
X3735196Y3272229D1*
X3734540Y3270916D1*
X3733228Y3268948D1*
X3732572Y3267636D1*
X3729947Y3263699D1*
X3729291Y3262386D1*
X3727978Y3260418D1*
X3727322Y3259105D1*
X3726010Y3257137D1*
X3725354Y3255825D1*
X3724041Y3253856D1*
X3723385Y3252544D1*
X3720761Y3248607D1*
X3720104Y3247294D1*
X3727322D1*
X3728635Y3248607D1*
X3729291Y3249919D1*
X3730603Y3251888D1*
X3731259Y3253200D1*
X3732572Y3255168D1*
X3733228Y3256481D1*
X3734540Y3258449D1*
X3735196Y3259762D1*
X3736509Y3261730D1*
X3737165Y3263042D1*
X3738477Y3265011D1*
X3739133Y3266323D1*
X3739269Y3266768D1*
X3739863Y3267356D1*
X3740446Y3267636D1*
X3741758Y3266323D1*
Y3265667D1*
X3742414Y3264355D1*
X3745039Y3260418D1*
X3745695Y3259105D1*
X3747007Y3257137D1*
X3747663Y3255825D1*
X3748976Y3253856D1*
X3749632Y3252544D1*
X3752257Y3248607D1*
X3752913Y3247294D1*
X3760131D1*
X3759475Y3248607D1*
X3755538Y3254512D1*
X3754881Y3255825D1*
X3752257Y3259762D1*
X3751601Y3261074D1*
X3748976Y3265011D1*
X3748320Y3266323D1*
X3745695Y3270260D1*
X3745039Y3271573D1*
X3743726Y3272885D1*
Y3273541D1*
X3745039Y3274853D1*
X3745695Y3276166D1*
X3747007Y3278134D1*
X3747663Y3279447D1*
X3750288Y3283384D1*
X3750944Y3284696D1*
X3752257Y3286664D1*
X3752913Y3287977D1*
X3754225Y3289945D1*
X3754881Y3291258D1*
X3757506Y3295195D1*
X3758162Y3296507D1*
X3759475Y3298475D1*
X3760131Y3299788D1*
X3752913D1*
X3751601Y3298475D1*
X3750944Y3297163D1*
X3749632Y3295195D1*
X3748976Y3293882D1*
X3747663Y3291914D1*
X3747007Y3290601D1*
X3745695Y3288633D1*
X3745039Y3287321D1*
X3743726Y3285352D1*
X3743070Y3284040D1*
X3741758Y3282071D1*
X3740771Y3280101D1*
X3740390Y3279416D1*
X3739749Y3278732D1*
X3739411Y3278840D1*
X3739133Y3279447D1*
X3738477Y3280759D1*
X3737165Y3282727D1*
X3736509Y3284040D1*
X3735196Y3286008D1*
X3734540Y3287321D1*
X3731915Y3291258D1*
X3731259Y3292570D1*
X3729947Y3294538D1*
X3729291Y3295851D1*
X3726666Y3299788D1*
X3720104D1*
G37*
G36*
X3792939D2*
Y3247294D1*
X3798845D1*
Y3293226D1*
X3822467Y3293882D1*
Y3299788D1*
X3792939D1*
G37*
G36*
X3827060D2*
Y3295195D1*
X3833622Y3294538D1*
Y3252544D1*
X3827060Y3251888D1*
Y3247294D1*
X3846745D1*
Y3251888D1*
X3840183Y3252544D1*
Y3294538D1*
X3846745Y3295195D1*
Y3299788D1*
X3827060D1*
G37*
G36*
X3855931D2*
Y3247294D1*
X3865118D1*
X3866430Y3249919D1*
X3867086Y3251888D1*
X3869055Y3255825D1*
X3869711Y3257793D1*
X3871679Y3261730D1*
X3872335Y3263699D1*
X3874960Y3268948D1*
X3875616Y3270916D1*
X3877585Y3274853D1*
Y3276166D1*
X3878075Y3276587D1*
X3878415Y3276549D1*
X3878866Y3276100D1*
X3879218Y3275497D1*
X3880209Y3273541D1*
X3880866Y3271573D1*
X3882178Y3268948D1*
X3882834Y3266979D1*
X3884146Y3264355D1*
X3884803Y3262386D1*
X3886115Y3259762D1*
X3886771Y3257793D1*
X3888083Y3255168D1*
X3888740Y3253200D1*
X3890052Y3250575D1*
X3890708Y3248607D1*
X3891364Y3247294D1*
X3900551D1*
Y3299788D1*
X3894645D1*
Y3255168D1*
X3893949Y3254456D1*
X3893611Y3254561D1*
X3893190Y3255283D1*
X3893333Y3255825D1*
X3892020Y3258449D1*
X3891364Y3260418D1*
X3889396Y3264355D1*
X3888740Y3266323D1*
X3886771Y3270260D1*
X3886115Y3272229D1*
X3884146Y3276166D1*
X3883490Y3278134D1*
X3881522Y3282071D1*
X3880866Y3284040D1*
X3880209Y3285352D1*
X3876272D1*
X3875616Y3284696D1*
X3874960Y3282727D1*
X3872992Y3278790D1*
X3872335Y3276822D1*
X3870367Y3272885D1*
X3869711Y3270916D1*
X3868398Y3268292D1*
X3867742Y3266323D1*
X3865774Y3262386D1*
X3865118Y3260418D1*
X3863149Y3256481D1*
Y3255168D1*
X3862453Y3254456D1*
X3862114Y3254562D1*
X3861837Y3255168D1*
Y3299788D1*
X3855931D1*
G37*
G36*
X3764724Y3280103D2*
Y3274197D1*
X3783753D1*
Y3280103D1*
X3764724D1*
G37*
G36*
X3292283Y3299788D2*
Y3276822D1*
X3291627Y3276166D1*
X3290971Y3274853D1*
X3289658Y3272885D1*
X3288346Y3270260D1*
X3287034Y3268292D1*
X3286377Y3266979D1*
X3285065Y3265011D1*
X3284409Y3263699D1*
X3283097Y3261730D1*
X3281784Y3259105D1*
X3280472Y3257137D1*
X3279816Y3255825D1*
X3278503Y3253856D1*
X3277847Y3252544D1*
X3276535Y3250575D1*
X3275879Y3249263D1*
X3274566Y3247294D1*
X3281784D1*
X3282440Y3247951D1*
X3283753Y3249919D1*
X3285065Y3252544D1*
X3286377Y3254512D1*
X3287034Y3255825D1*
X3288346Y3257793D1*
X3289658Y3260418D1*
X3290971Y3262386D1*
X3291627Y3263699D1*
X3292939Y3265667D1*
X3294251Y3268292D1*
Y3268948D1*
X3295564Y3270260D1*
X3296162Y3270009D1*
X3296735Y3269370D1*
X3296876Y3268948D1*
X3297532Y3267636D1*
X3298845Y3265667D1*
X3299501Y3264355D1*
X3300813Y3262386D1*
X3301469Y3261074D1*
X3302782Y3259105D1*
X3304094Y3256481D1*
X3305406Y3254512D1*
X3306062Y3253200D1*
X3307375Y3251231D1*
X3308031Y3249919D1*
X3309343Y3247951D1*
X3309999Y3247294D1*
X3316561D1*
X3315249Y3249919D1*
X3313936Y3251888D1*
X3313280Y3253200D1*
X3311968Y3255168D1*
X3311312Y3256481D1*
X3309999Y3258449D1*
X3309343Y3259762D1*
X3308031Y3261730D1*
X3307375Y3263042D1*
X3304750Y3266979D1*
X3304094Y3268292D1*
X3302782Y3270260D1*
X3302125Y3271573D1*
X3300813Y3273541D1*
X3300157Y3274853D1*
X3298845Y3276166D1*
Y3299788D1*
X3292283D1*
G37*
G36*
X3348713D2*
Y3247294D1*
X3354619D1*
Y3293226D1*
X3378241Y3293882D1*
Y3299788D1*
X3348713D1*
G37*
G36*
X3382834D2*
Y3295195D1*
X3389396Y3294538D1*
Y3252544D1*
X3382834Y3251888D1*
Y3247294D1*
X3402519D1*
Y3251888D1*
X3395957Y3252544D1*
Y3294538D1*
X3402519Y3295195D1*
Y3299788D1*
X3382834D1*
G37*
G36*
X3411705D2*
Y3247294D1*
X3420892D1*
X3422204Y3249919D1*
X3422860Y3251888D1*
X3424829Y3255825D1*
X3425485Y3257793D1*
X3427454Y3261730D1*
X3428110Y3263699D1*
X3430734Y3268948D1*
X3431391Y3270916D1*
X3433359Y3274853D1*
Y3276166D1*
X3433849Y3276587D1*
X3434189Y3276549D1*
X3434640Y3276100D1*
X3434992Y3275497D1*
X3435984Y3273541D1*
X3436640Y3271573D1*
X3437952Y3268948D1*
X3438608Y3266979D1*
X3439921Y3264355D1*
X3440577Y3262386D1*
X3441889Y3259762D1*
X3442545Y3257793D1*
X3443858Y3255168D1*
X3444514Y3253200D1*
X3445826Y3250575D1*
X3446482Y3248607D1*
X3447139Y3247294D1*
X3456325D1*
Y3299788D1*
X3450419D1*
Y3255168D1*
X3449724Y3254456D1*
X3449385Y3254561D1*
X3448964Y3255283D1*
X3449107Y3255825D1*
X3447795Y3258449D1*
X3447139Y3260418D1*
X3445170Y3264355D1*
X3444514Y3266323D1*
X3442545Y3270260D1*
X3441889Y3272229D1*
X3439921Y3276166D1*
X3439265Y3278134D1*
X3437296Y3282071D1*
X3436640Y3284040D1*
X3435984Y3285352D1*
X3432047D1*
X3431391Y3284696D1*
X3430734Y3282727D1*
X3428766Y3278790D1*
X3428110Y3276822D1*
X3426141Y3272885D1*
X3425485Y3270916D1*
X3424173Y3268292D1*
X3423517Y3266323D1*
X3421548Y3262386D1*
X3420892Y3260418D1*
X3418923Y3256481D1*
Y3255168D1*
X3418228Y3254456D1*
X3417888Y3254562D1*
X3417611Y3255168D1*
Y3299788D1*
X3411705D1*
G37*
G36*
X3320498Y3280103D2*
Y3274197D1*
X3339527D1*
Y3280103D1*
X3320498D1*
G37*
G36*
X2820498Y3299788D2*
Y3293226D1*
X2821154Y3291914D1*
X2823123Y3289289D1*
X2824435Y3287321D1*
X2826404Y3284696D1*
X2827716Y3282727D1*
X2829684Y3280103D1*
X2830997Y3278134D1*
X2832965Y3275510D1*
X2834278Y3273541D1*
X2836246Y3270916D1*
X2837559Y3268948D1*
X2839527Y3266323D1*
X2840839Y3264355D1*
X2842808Y3261730D1*
X2844120Y3259762D1*
X2846089Y3257137D1*
X2847401Y3255168D1*
X2848713Y3253856D1*
X2821810Y3253200D1*
Y3247294D1*
X2855931D1*
Y3253856D1*
X2853307Y3257793D1*
X2851338Y3260418D1*
X2850026Y3262386D1*
X2848057Y3265011D1*
X2846745Y3266979D1*
X2842808Y3272229D1*
X2841496Y3274197D1*
X2839527Y3276822D1*
X2838215Y3278790D1*
X2836246Y3281415D1*
X2834934Y3283384D1*
X2832965Y3286008D1*
X2831653Y3287977D1*
X2829684Y3290601D1*
X2828372Y3292570D1*
X2856587Y3293882D1*
Y3299788D1*
X2820498D1*
G37*
G36*
X2890708D2*
Y3247294D1*
X2896614D1*
Y3293226D1*
X2920236Y3293882D1*
Y3299788D1*
X2890708D1*
G37*
G36*
X2924829D2*
Y3295195D1*
X2931391Y3294538D1*
Y3252544D1*
X2924829Y3251888D1*
Y3247294D1*
X2944514D1*
Y3251888D1*
X2937952Y3252544D1*
Y3294538D1*
X2944514Y3295195D1*
Y3299788D1*
X2924829D1*
G37*
G36*
X2953700D2*
Y3247294D1*
X2962887D1*
X2964199Y3249919D1*
X2964855Y3251888D1*
X2966824Y3255825D1*
X2967480Y3257793D1*
X2969448Y3261730D1*
X2970104Y3263699D1*
X2972729Y3268948D1*
X2973385Y3270916D1*
X2975354Y3274853D1*
Y3276166D1*
X2975844Y3276587D1*
X2976184Y3276549D1*
X2976635Y3276100D1*
X2976987Y3275497D1*
X2977978Y3273541D1*
X2978635Y3271573D1*
X2979947Y3268948D1*
X2980603Y3266979D1*
X2981915Y3264355D1*
X2982572Y3262386D1*
X2983884Y3259762D1*
X2984540Y3257793D1*
X2985852Y3255168D1*
X2986509Y3253200D1*
X2987821Y3250575D1*
X2988477Y3248607D1*
X2989133Y3247294D1*
X2998320D1*
Y3299788D1*
X2992414D1*
Y3255168D1*
X2991718Y3254456D1*
X2991380Y3254561D1*
X2990959Y3255283D1*
X2991102Y3255825D1*
X2989789Y3258449D1*
X2989133Y3260418D1*
X2987165Y3264355D1*
X2986509Y3266323D1*
X2984540Y3270260D1*
X2983884Y3272229D1*
X2981915Y3276166D1*
X2981259Y3278134D1*
X2979291Y3282071D1*
X2978635Y3284040D1*
X2977978Y3285352D1*
X2974041D1*
X2973385Y3284696D1*
X2972729Y3282727D1*
X2970761Y3278790D1*
X2970104Y3276822D1*
X2968136Y3272885D1*
X2967480Y3270916D1*
X2966167Y3268292D1*
X2965511Y3266323D1*
X2963543Y3262386D1*
X2962887Y3260418D1*
X2960918Y3256481D1*
Y3255168D1*
X2960222Y3254456D1*
X2959883Y3254562D1*
X2959606Y3255168D1*
Y3299788D1*
X2953700D1*
G37*
G36*
X2862493Y3280103D2*
Y3274197D1*
X2881522D1*
Y3280103D1*
X2862493D1*
G37*
G36*
X2463543Y3295195D2*
X2460918Y3292570D1*
X2459606Y3290601D1*
X2458293Y3287977D1*
X2456981Y3284040D1*
X2456325Y3281415D1*
X2455669Y3276166D1*
Y3270916D1*
X2456325Y3265667D1*
X2456981Y3263042D1*
X2458293Y3259105D1*
X2459606Y3256481D1*
X2460918Y3254512D1*
X2466167Y3249263D1*
X2470104Y3247294D1*
X2472073Y3246638D1*
X2475354Y3245982D1*
X2483228D1*
X2485852Y3246638D1*
X2487821Y3247294D1*
X2491758Y3249263D1*
X2493726Y3250575D1*
X2496351Y3253200D1*
X2498976Y3257137D1*
X2499632Y3258449D1*
X2501601Y3264355D1*
X2502257Y3268292D1*
Y3278790D1*
X2501601Y3282727D1*
X2499632Y3288633D1*
X2498976Y3289945D1*
X2496351Y3293882D1*
X2493726Y3296507D1*
X2491758Y3297819D1*
X2487821Y3299788D1*
X2485852Y3300444D1*
X2482572Y3301100D1*
X2475354D1*
X2472073Y3300444D1*
X2470104Y3299788D1*
X2466167Y3297819D1*
X2463543Y3295195D1*
X2475354D1*
X2477978Y3295851D1*
X2480603D1*
X2483228Y3295195D1*
X2485196Y3294538D1*
X2487821Y3293226D1*
X2492414Y3288633D1*
Y3287977D1*
X2493070Y3286664D1*
X2494383Y3282727D1*
X2495039Y3279447D1*
X2495695Y3278790D1*
Y3268292D1*
X2495039Y3267636D1*
X2494383Y3264355D1*
X2493070Y3260418D1*
X2492414Y3259105D1*
X2490446Y3256481D1*
X2490230Y3255685D1*
X2489789Y3255168D1*
X2488477Y3254512D1*
X2487821Y3253856D1*
X2485196Y3252544D1*
X2483228Y3251888D1*
X2480603Y3251231D1*
X2477978D1*
X2472729Y3252544D1*
X2470104Y3253856D1*
X2466167Y3257793D1*
Y3258449D1*
X2464855Y3261074D1*
X2464199Y3263042D1*
X2463543Y3265667D1*
X2462887Y3270260D1*
X2462230Y3270916D1*
Y3276166D1*
X2462887Y3276822D1*
X2463543Y3282071D1*
X2464855Y3286008D1*
X2466167Y3288633D1*
Y3289289D1*
X2469448Y3292570D1*
X2470761Y3293226D1*
X2471417Y3293882D1*
X2472729Y3294538D1*
X2475354Y3295195D1*
X2463543D1*
G37*
G36*
X2373648Y3274197D2*
Y3247294D1*
X2391364D1*
X2394645Y3247951D1*
X2396614Y3248607D1*
X2400551Y3250575D1*
X2403175Y3253200D1*
X2404488Y3255168D1*
X2405144Y3256481D1*
X2405800Y3258449D1*
X2406456Y3262386D1*
Y3263699D1*
X2405800Y3267636D1*
X2405144Y3269604D1*
X2403831Y3272229D1*
X2402519Y3274197D1*
X2401207Y3275510D1*
X2398582Y3277478D1*
X2395957Y3278790D1*
X2393989Y3279447D1*
X2390708Y3280103D1*
X2379553Y3280759D1*
Y3299788D1*
X2373648D1*
Y3274197D1*
X2379553D1*
X2383272Y3274853D1*
X2386990D1*
X2390708Y3274197D1*
X2393333Y3273541D1*
X2394645Y3272885D1*
X2398582Y3268948D1*
Y3267636D1*
X2399238Y3264355D1*
X2399735Y3263472D1*
X2399669Y3262881D1*
X2399238Y3262386D1*
X2398582Y3258449D1*
Y3257793D1*
X2395301Y3254512D1*
X2393989Y3253856D1*
X2391364Y3253200D1*
X2387427Y3252544D1*
X2383490D1*
X2379553Y3253200D1*
Y3274197D1*
X2373648D1*
G37*
G36*
X2413674Y3272885D2*
Y3247294D1*
X2432703D1*
X2435984Y3247951D1*
X2437952Y3248607D1*
X2439265Y3249263D1*
X2441233Y3250575D1*
X2443858Y3253200D1*
X2445826Y3257137D1*
Y3265667D1*
X2445170Y3267636D1*
X2443858Y3270260D1*
X2442545Y3272229D1*
X2440577Y3274197D1*
X2438608Y3275510D1*
X2435984Y3276822D1*
X2435328Y3277478D1*
X2437296Y3279447D1*
X2439921Y3282727D1*
X2443202Y3286664D1*
X2445826Y3289945D1*
X2452388Y3297819D1*
X2453700Y3299788D1*
X2445170D1*
X2444514Y3299132D1*
X2431391Y3282727D1*
Y3282071D1*
X2428766Y3279447D1*
X2425922Y3278790D1*
X2423079D1*
X2420236Y3279447D1*
Y3299788D1*
X2413674D1*
Y3272885D1*
X2420236D1*
X2423954Y3273541D1*
X2427672D1*
X2431391Y3272885D1*
X2434015Y3272229D1*
X2435328Y3271573D1*
X2437952Y3268948D1*
Y3268292D1*
X2438608Y3266323D1*
X2439265Y3265667D1*
Y3258449D1*
X2438608Y3257793D1*
Y3257137D1*
X2435984Y3254512D1*
X2434671Y3253856D1*
X2432047Y3253200D1*
X2428110Y3252544D1*
X2424173D1*
X2420236Y3253200D1*
Y3272885D1*
X2413674D1*
G37*
G36*
X2510787Y3268292D2*
Y3247294D1*
X2531784D1*
X2535065Y3247951D1*
X2537034Y3248607D1*
X2539002Y3249919D1*
X2541627Y3252544D1*
X2542939Y3255168D1*
Y3262386D1*
X2542283Y3264355D1*
X2540971Y3266323D1*
X2538346Y3268948D1*
X2535721Y3270260D1*
X2536377Y3270916D1*
X2538346Y3271573D1*
X2539658Y3272229D1*
X2541627Y3273541D1*
X2542939Y3274853D1*
X2544251Y3276822D1*
X2544908Y3278134D1*
X2545564Y3280103D1*
Y3287321D1*
X2544251Y3291258D1*
X2542939Y3293226D1*
X2540314Y3295851D1*
X2538346Y3297163D1*
X2535721Y3298475D1*
X2533753Y3299132D1*
X2530472Y3299788D1*
X2510787D1*
Y3293882D1*
X2516692D1*
X2521067Y3294538D1*
X2525441D1*
X2529816Y3293882D1*
X2533097Y3293226D1*
X2534409Y3292570D1*
X2535065Y3291914D1*
X2536377Y3291258D1*
X2537690Y3289945D1*
Y3289289D1*
X2538346Y3287977D1*
X2539002Y3287321D1*
Y3280759D1*
X2538346Y3280103D1*
Y3278790D1*
X2536377Y3276822D1*
X2533753Y3275510D1*
X2531784Y3274853D1*
X2526754Y3274197D1*
X2521723D1*
X2516692Y3274853D1*
Y3293882D1*
X2510787D1*
Y3268292D1*
X2516692D1*
X2521286Y3268948D1*
X2525879D1*
X2530472Y3268292D1*
X2532440Y3267636D1*
X2533753Y3266979D1*
X2535721Y3265011D1*
Y3264355D1*
X2536377Y3263699D1*
Y3257137D1*
X2535721Y3256481D1*
Y3255825D1*
X2534409Y3254512D1*
X2533097Y3253856D1*
X2531128Y3253200D1*
X2526316Y3252544D1*
X2521504D1*
X2516692Y3253200D1*
Y3268292D1*
X2510787D1*
G37*
G36*
X2553438Y3299788D2*
Y3247294D1*
X2585590D1*
Y3253200D1*
X2559343Y3253856D1*
Y3267636D1*
X2583622Y3268292D1*
Y3274197D1*
X2559343Y3274853D1*
Y3293226D1*
X2585590Y3293882D1*
Y3299788D1*
X2553438D1*
G37*
G36*
X823123Y462517D2*
X820498Y459893D1*
X819186Y457924D1*
X817873Y455300D1*
X816561Y451363D1*
X815905Y448738D1*
X815249Y444145D1*
Y437583D1*
X815905Y432990D1*
X816561Y430365D1*
X817873Y426428D1*
X819186Y423804D1*
X820498Y421835D1*
X825747Y416586D1*
X829684Y414617D1*
X831653Y413961D1*
X834934Y413305D1*
X842808D1*
X845433Y413961D1*
X847401Y414617D1*
X851338Y416586D1*
X853307Y417898D1*
X855931Y420523D1*
X858556Y424460D1*
X859212Y425772D1*
X861181Y431678D1*
X861837Y435615D1*
Y446113D1*
X861181Y450050D1*
X859212Y455956D1*
X858556Y457268D1*
X855931Y461205D1*
X853307Y463830D1*
X851338Y465142D1*
X847401Y467111D1*
X845433Y467767D1*
X842808Y468423D1*
X834934D1*
X831653Y467767D1*
X829684Y467111D1*
X827060Y465798D1*
X825091Y464486D1*
X823123Y462517D1*
X834934D1*
X837559Y463174D1*
X840183D1*
X842808Y462517D1*
X844776Y461861D1*
X847401Y460549D1*
X848057Y459893D1*
X849370Y459237D1*
X849898Y458389D1*
X850026Y457924D1*
X851994Y455300D1*
X852650Y453987D1*
X853963Y450050D1*
X854619Y446113D1*
X855275Y445457D1*
Y436271D1*
X854619Y435615D1*
X853963Y431678D1*
X852650Y427741D1*
X851994Y426428D1*
Y425772D1*
X847401Y421179D1*
X844776Y419867D1*
X842808Y419210D1*
X840183Y418554D1*
X837559D1*
X832309Y419867D1*
X830997Y420523D1*
X830341Y421179D1*
X829028Y421835D1*
X825747Y425116D1*
Y425772D1*
X824435Y428397D1*
X823123Y432334D1*
X822467Y437583D1*
X821810Y438239D1*
Y443489D1*
X822467Y444145D1*
X823123Y449394D1*
X824435Y453331D1*
X825747Y455956D1*
Y456612D1*
X829684Y460549D1*
X832309Y461861D1*
X834934Y462517D1*
X823123D1*
G37*
G36*
X917611D2*
X914986Y459893D1*
X913674Y457924D1*
X912362Y455300D1*
X911049Y451363D1*
X910393Y448738D1*
X909737Y444145D1*
Y437583D1*
X910393Y432990D1*
X911049Y430365D1*
X912362Y426428D1*
X913674Y423804D1*
X914986Y421835D1*
X920236Y416586D1*
X924173Y414617D1*
X926141Y413961D1*
X929422Y413305D1*
X937296D1*
X939921Y413961D1*
X941889Y414617D1*
X945826Y416586D1*
X947795Y417898D1*
X950419Y420523D1*
X953044Y424460D1*
X953700Y425772D1*
X955669Y431678D1*
X956325Y435615D1*
Y446113D1*
X955669Y450050D1*
X953700Y455956D1*
X953044Y457268D1*
X950419Y461205D1*
X947795Y463830D1*
X945826Y465142D1*
X941889Y467111D1*
X939921Y467767D1*
X937296Y468423D1*
X929422D1*
X926141Y467767D1*
X924173Y467111D1*
X921548Y465798D1*
X919580Y464486D1*
X917611Y462517D1*
X929422D1*
X932047Y463174D1*
X934671D1*
X937296Y462517D1*
X939265Y461861D1*
X941889Y460549D1*
X942545Y459893D1*
X943858Y459237D1*
X944386Y458389D1*
X944514Y457924D1*
X946482Y455300D1*
X947139Y453987D1*
X948451Y450050D1*
X949107Y446113D1*
X949763Y445457D1*
Y436271D1*
X949107Y435615D1*
X948451Y431678D1*
X947139Y427741D1*
X946482Y426428D1*
Y425772D1*
X941889Y421179D1*
X939265Y419867D1*
X937296Y419210D1*
X934671Y418554D1*
X932047D1*
X926797Y419867D1*
X925485Y420523D1*
X924829Y421179D1*
X923517Y421835D1*
X920236Y425116D1*
Y425772D1*
X918923Y428397D1*
X917611Y432334D1*
X916955Y437583D1*
X916299Y438239D1*
Y443489D1*
X916955Y444145D1*
X917611Y449394D1*
X918923Y453331D1*
X920236Y455956D1*
Y456612D1*
X924173Y460549D1*
X926797Y461861D1*
X929422Y462517D1*
X917611D1*
G37*
G36*
X777191Y461205D2*
X775879Y459893D1*
X775223Y458580D1*
X774566Y455956D1*
Y449394D1*
X775879Y445457D1*
X776535Y444145D1*
X781128Y439552D1*
X783097Y438239D1*
X785065Y437583D1*
X784849Y436787D1*
X784409Y436271D1*
X781784Y432990D1*
X778503Y429053D1*
X775879Y425772D1*
X769317Y417898D1*
X766692Y414617D1*
X775223D1*
X777191Y416586D1*
X790314Y432990D1*
Y433646D1*
X791627Y434958D1*
X794689Y435615D1*
X797751D1*
X800813Y434958D1*
Y414617D1*
X806719D1*
Y467111D1*
X787690D1*
X784409Y466454D1*
X782440Y465798D1*
X781128Y465142D1*
X779160Y463830D1*
X777191Y461861D1*
Y461205D1*
X788346D1*
X792502Y461861D1*
X796657D1*
X800813Y461205D1*
Y441520D1*
X796876Y440864D1*
X792939D1*
X789002Y441520D1*
X787034Y442176D1*
X784409Y443489D1*
X783097Y444801D1*
Y445457D1*
X782440Y446769D1*
X781784Y448738D1*
X781128Y449394D1*
Y454643D1*
X781784Y455300D1*
X782440Y457268D1*
Y457924D1*
X783753Y459237D1*
X786377Y460549D1*
X788346Y461205D1*
X777191D1*
G37*
G36*
X865118Y467111D2*
Y461205D1*
X882834Y460549D1*
Y414617D1*
X888740D1*
Y460549D1*
X907112Y461205D1*
Y467111D1*
X865118D1*
G37*
G36*
X964855D2*
Y414617D1*
X971417D1*
Y458580D1*
X971907Y459002D1*
X972239Y458947D1*
X972612Y458404D1*
X972729Y457924D1*
X973385Y455956D1*
X975354Y452019D1*
X976010Y450050D1*
X977978Y446113D1*
X978635Y444145D1*
X980603Y440208D1*
X981259Y438239D1*
X983228Y434302D1*
X983884Y432334D1*
X985196Y429709D1*
X985852Y429053D1*
X989133D1*
X989789Y429709D1*
X991758Y433646D1*
X992414Y435615D1*
X994383Y439552D1*
X995039Y441520D1*
X996351Y444145D1*
X997007Y446113D1*
X998976Y450050D1*
X999632Y452019D1*
X1001601Y455956D1*
X1002257Y457924D1*
X1002364Y458432D1*
X1002766Y458970D1*
X1003090Y458954D1*
X1003569Y458580D1*
Y414617D1*
X1009475D1*
Y467111D1*
X1000944D1*
X1000288Y466454D1*
X998320Y462517D1*
X997663Y460549D1*
X995695Y456612D1*
X995039Y454643D1*
X992414Y449394D1*
X991758Y447426D1*
X989789Y443489D1*
X989133Y441520D1*
X987821Y438895D1*
X987654Y438121D1*
X987127Y437523D1*
X986788Y437632D1*
X986365Y438354D1*
X986509Y438895D1*
X985196Y441520D1*
X984540Y443489D1*
X983228Y446113D1*
X982572Y448082D1*
X980603Y452019D1*
X979947Y453987D1*
X978635Y456612D1*
X977978Y458580D1*
X976666Y461205D1*
X976010Y463174D1*
X974041Y467111D1*
X964855D1*
G37*
G36*
X1042939D2*
Y466454D1*
X1043595Y465142D1*
X1046220Y461205D1*
X1046876Y459893D1*
X1050813Y453987D1*
X1051469Y452675D1*
X1054094Y448738D1*
X1054750Y447426D1*
X1057375Y443489D1*
X1058031Y442176D1*
X1058527Y441294D1*
X1058462Y440703D1*
X1058031Y440208D1*
X1057375Y438895D1*
X1054750Y434958D1*
X1054094Y433646D1*
X1052782Y431678D1*
X1052125Y430365D1*
X1050813Y428397D1*
X1050157Y427084D1*
X1047532Y423147D1*
X1046876Y421835D1*
X1045564Y419867D1*
X1044908Y418554D1*
X1043595Y416586D1*
X1042939Y415273D1*
Y414617D1*
X1050157D1*
X1050813Y415930D1*
X1052125Y417898D1*
X1052782Y419210D1*
X1054094Y421179D1*
X1054750Y422491D1*
X1056062Y424460D1*
X1056719Y425772D1*
X1058031Y427741D1*
X1058687Y429053D1*
X1059999Y431021D1*
X1060656Y432334D1*
X1061968Y434302D1*
X1062075Y434810D1*
X1062478Y435348D1*
X1062801Y435332D1*
X1063280Y434958D1*
X1065905Y431021D1*
X1066561Y429709D1*
X1067873Y427741D1*
X1068530Y426428D1*
X1069842Y424460D1*
X1070498Y423147D1*
X1073123Y419210D1*
X1073779Y417898D1*
X1075091Y415930D1*
X1075747Y414617D1*
X1082965D1*
X1082309Y415930D1*
X1079684Y419867D1*
X1079028Y421179D1*
X1076404Y425116D1*
X1075747Y426428D1*
X1071810Y432334D1*
X1071154Y433646D1*
X1068530Y437583D1*
X1067873Y438895D1*
X1066561Y440208D1*
Y441520D1*
X1067873Y442832D1*
X1068530Y444145D1*
X1069842Y446113D1*
X1070498Y447426D1*
X1071810Y449394D1*
X1072467Y450706D1*
X1075091Y454643D1*
X1075747Y455956D1*
X1077060Y457924D1*
X1077716Y459237D1*
X1079028Y461205D1*
X1079684Y462517D1*
X1080997Y464486D1*
X1082309Y467111D1*
X1075091D1*
X1074435Y466454D1*
X1073779Y465142D1*
X1072467Y463174D1*
X1071810Y461861D1*
X1070498Y459893D1*
X1069842Y458580D1*
X1068530Y456612D1*
X1067873Y455300D1*
X1066561Y453331D1*
X1065905Y452019D1*
X1064593Y450050D1*
X1063936Y448738D1*
Y448082D1*
X1062624Y446769D1*
X1061658Y446836D1*
X1061114Y447575D1*
X1061312Y448082D1*
X1059999Y450050D1*
X1059343Y451363D1*
X1058031Y453331D1*
X1057375Y454643D1*
X1056062Y456612D1*
X1055406Y457924D1*
X1052782Y461861D1*
X1052125Y463174D1*
X1050813Y465142D1*
X1050157Y466454D1*
X1049501Y467111D1*
X1042939D1*
G37*
G36*
X1018661Y440208D2*
Y434302D1*
X1038346D1*
Y440208D1*
X1018661D1*
G37*
G36*
X1443202Y462517D2*
X1440577Y459893D1*
X1439265Y457924D1*
X1437952Y455300D1*
X1436640Y451363D1*
X1435984Y448738D1*
X1435328Y444145D1*
Y437583D1*
X1435984Y432990D1*
X1436640Y430365D1*
X1437952Y426428D1*
X1439265Y423804D1*
X1440577Y421835D1*
X1445826Y416586D1*
X1449763Y414617D1*
X1451732Y413961D1*
X1455013Y413305D1*
X1462887D1*
X1465511Y413961D1*
X1467480Y414617D1*
X1471417Y416586D1*
X1473385Y417898D1*
X1476010Y420523D1*
X1478635Y424460D1*
X1479291Y425772D1*
X1481259Y431678D1*
X1481915Y435615D1*
Y446113D1*
X1481259Y450050D1*
X1479291Y455956D1*
X1478635Y457268D1*
X1476010Y461205D1*
X1473385Y463830D1*
X1471417Y465142D1*
X1467480Y467111D1*
X1465511Y467767D1*
X1462887Y468423D1*
X1455013D1*
X1451732Y467767D1*
X1449763Y467111D1*
X1447139Y465798D1*
X1445170Y464486D1*
X1443202Y462517D1*
X1455013D1*
X1457637Y463174D1*
X1460262D1*
X1462887Y462517D1*
X1464855Y461861D1*
X1467480Y460549D1*
X1468136Y459893D1*
X1469448Y459237D1*
X1469977Y458389D1*
X1470104Y457924D1*
X1472073Y455300D1*
X1472729Y453987D1*
X1474041Y450050D1*
X1474698Y446113D1*
X1475354Y445457D1*
Y436271D1*
X1474698Y435615D1*
X1474041Y431678D1*
X1472729Y427741D1*
X1472073Y426428D1*
Y425772D1*
X1467480Y421179D1*
X1464855Y419867D1*
X1462887Y419210D1*
X1460262Y418554D1*
X1457637D1*
X1452388Y419867D1*
X1451076Y420523D1*
X1450419Y421179D1*
X1449107Y421835D1*
X1445826Y425116D1*
Y425772D1*
X1444514Y428397D1*
X1443202Y432334D1*
X1442545Y437583D1*
X1441889Y438239D1*
Y443489D1*
X1442545Y444145D1*
X1443202Y449394D1*
X1444514Y453331D1*
X1445826Y455956D1*
Y456612D1*
X1449763Y460549D1*
X1452388Y461861D1*
X1455013Y462517D1*
X1443202D1*
G37*
G36*
X1537690D2*
X1535065Y459893D1*
X1533753Y457924D1*
X1532440Y455300D1*
X1531128Y451363D1*
X1530472Y448738D1*
X1529816Y444145D1*
Y437583D1*
X1530472Y432990D1*
X1531128Y430365D1*
X1532440Y426428D1*
X1533753Y423804D1*
X1535065Y421835D1*
X1540314Y416586D1*
X1544251Y414617D1*
X1546220Y413961D1*
X1549501Y413305D1*
X1557375D1*
X1559999Y413961D1*
X1561968Y414617D1*
X1565905Y416586D1*
X1567873Y417898D1*
X1570498Y420523D1*
X1573123Y424460D1*
X1573779Y425772D1*
X1575747Y431678D1*
X1576404Y435615D1*
Y446113D1*
X1575747Y450050D1*
X1573779Y455956D1*
X1573123Y457268D1*
X1570498Y461205D1*
X1567873Y463830D1*
X1565905Y465142D1*
X1561968Y467111D1*
X1559999Y467767D1*
X1557375Y468423D1*
X1549501D1*
X1546220Y467767D1*
X1544251Y467111D1*
X1541627Y465798D1*
X1539658Y464486D1*
X1537690Y462517D1*
X1549501D1*
X1552125Y463174D1*
X1554750D1*
X1557375Y462517D1*
X1559343Y461861D1*
X1561968Y460549D1*
X1562624Y459893D1*
X1563936Y459237D1*
X1564465Y458389D1*
X1564593Y457924D1*
X1566561Y455300D1*
X1567217Y453987D1*
X1568530Y450050D1*
X1569186Y446113D1*
X1569842Y445457D1*
Y436271D1*
X1569186Y435615D1*
X1568530Y431678D1*
X1567217Y427741D1*
X1566561Y426428D1*
Y425772D1*
X1561968Y421179D1*
X1559343Y419867D1*
X1557375Y419210D1*
X1554750Y418554D1*
X1552125D1*
X1546876Y419867D1*
X1545564Y420523D1*
X1544908Y421179D1*
X1543595Y421835D1*
X1540314Y425116D1*
Y425772D1*
X1539002Y428397D1*
X1537690Y432334D1*
X1537034Y437583D1*
X1536377Y438239D1*
Y443489D1*
X1537034Y444145D1*
X1537690Y449394D1*
X1539002Y453331D1*
X1540314Y455956D1*
Y456612D1*
X1544251Y460549D1*
X1546876Y461861D1*
X1549501Y462517D1*
X1537690D1*
G37*
G36*
X1397270Y461205D2*
X1395957Y459893D1*
X1395301Y458580D1*
X1394645Y455956D1*
Y449394D1*
X1395957Y445457D1*
X1396614Y444145D1*
X1401207Y439552D1*
X1403175Y438239D1*
X1405144Y437583D1*
X1404928Y436787D1*
X1404488Y436271D1*
X1401863Y432990D1*
X1398582Y429053D1*
X1395957Y425772D1*
X1389396Y417898D1*
X1386771Y414617D1*
X1395301D1*
X1397270Y416586D1*
X1410393Y432990D1*
Y433646D1*
X1411705Y434958D1*
X1414768Y435615D1*
X1417830D1*
X1420892Y434958D1*
Y414617D1*
X1426797D1*
Y467111D1*
X1407768D1*
X1404488Y466454D1*
X1402519Y465798D1*
X1401207Y465142D1*
X1399238Y463830D1*
X1397270Y461861D1*
Y461205D1*
X1408425D1*
X1412580Y461861D1*
X1416736D1*
X1420892Y461205D1*
Y441520D1*
X1416955Y440864D1*
X1413018D1*
X1409081Y441520D1*
X1407112Y442176D1*
X1404488Y443489D1*
X1403175Y444801D1*
Y445457D1*
X1402519Y446769D1*
X1401863Y448738D1*
X1401207Y449394D1*
Y454643D1*
X1401863Y455300D1*
X1402519Y457268D1*
Y457924D1*
X1403831Y459237D1*
X1406456Y460549D1*
X1408425Y461205D1*
X1397270D1*
G37*
G36*
X1485196Y467111D2*
Y461205D1*
X1502913Y460549D1*
Y414617D1*
X1508818D1*
Y460549D1*
X1527191Y461205D1*
Y467111D1*
X1485196D1*
G37*
G36*
X1584934D2*
Y414617D1*
X1591496D1*
Y458580D1*
X1591986Y459002D1*
X1592317Y458947D1*
X1592691Y458404D1*
X1592808Y457924D1*
X1593464Y455956D1*
X1595433Y452019D1*
X1596089Y450050D1*
X1598057Y446113D1*
X1598713Y444145D1*
X1600682Y440208D1*
X1601338Y438239D1*
X1603307Y434302D1*
X1603963Y432334D1*
X1605275Y429709D1*
X1605931Y429053D1*
X1609212D1*
X1609868Y429709D1*
X1611837Y433646D1*
X1612493Y435615D1*
X1614461Y439552D1*
X1615118Y441520D1*
X1616430Y444145D1*
X1617086Y446113D1*
X1619055Y450050D1*
X1619711Y452019D1*
X1621679Y455956D1*
X1622335Y457924D1*
X1622443Y458432D1*
X1622845Y458970D1*
X1623168Y458954D1*
X1623648Y458580D1*
Y414617D1*
X1629553D1*
Y467111D1*
X1621023D1*
X1620367Y466454D1*
X1618398Y462517D1*
X1617742Y460549D1*
X1615774Y456612D1*
X1615118Y454643D1*
X1612493Y449394D1*
X1611837Y447426D1*
X1609868Y443489D1*
X1609212Y441520D1*
X1607900Y438895D1*
X1607733Y438121D1*
X1607205Y437523D1*
X1606867Y437632D1*
X1606444Y438354D1*
X1606587Y438895D1*
X1605275Y441520D1*
X1604619Y443489D1*
X1603307Y446113D1*
X1602650Y448082D1*
X1600682Y452019D1*
X1600026Y453987D1*
X1598713Y456612D1*
X1598057Y458580D1*
X1596745Y461205D1*
X1596089Y463174D1*
X1594120Y467111D1*
X1584934D1*
G37*
G36*
X1661705D2*
X1663018Y465798D1*
Y465142D1*
X1663674Y463830D1*
X1664986Y461861D1*
X1665643Y460549D1*
X1666955Y458580D1*
X1667611Y457268D1*
X1668923Y455300D1*
X1669580Y453987D1*
X1670892Y452019D1*
X1671548Y450706D1*
X1672860Y448738D1*
X1673517Y447426D1*
X1674829Y445457D1*
X1675485Y444145D1*
X1676797Y442176D1*
X1677454Y440864D1*
X1678766Y438895D1*
X1679422Y414617D1*
X1685984D1*
Y437583D1*
X1687296Y438895D1*
X1688608Y441520D1*
X1689921Y443489D1*
X1690577Y444801D1*
X1691889Y446769D1*
X1692545Y448082D1*
X1693858Y450050D1*
X1695170Y452675D1*
X1696482Y454643D1*
X1697139Y455956D1*
X1698451Y457924D1*
X1699107Y459237D1*
X1700419Y461205D1*
X1701732Y463830D1*
X1703044Y465798D1*
X1703700Y467111D1*
X1696482D1*
X1695170Y465142D1*
X1694514Y463830D1*
X1693202Y461861D1*
X1691889Y459237D1*
X1690577Y457268D1*
X1689921Y455956D1*
X1688608Y453987D1*
X1687296Y451363D1*
X1685984Y449394D1*
X1685328Y448082D1*
X1684015Y446113D1*
X1683684Y445455D1*
X1683303Y444770D1*
X1682662Y444087D1*
X1682324Y444195D1*
X1682047Y444801D1*
X1680734Y446769D1*
X1679422Y449394D1*
X1678110Y451363D1*
X1677454Y452675D1*
X1676141Y454643D1*
X1675485Y455956D1*
X1674173Y457924D1*
X1673517Y459237D1*
X1672204Y461205D1*
X1670892Y463830D1*
X1669580Y465798D1*
X1668923Y467111D1*
X1661705D1*
G37*
G36*
X1638740Y440208D2*
Y434302D1*
X1658425D1*
Y440208D1*
X1638740D1*
G37*
G36*
X2008162Y462517D2*
X2005538Y459893D1*
X2004225Y457924D1*
X2002913Y455300D1*
X2001601Y451363D1*
X2000944Y448738D1*
X2000288Y444145D1*
Y437583D1*
X2000944Y432990D1*
X2001601Y430365D1*
X2002913Y426428D1*
X2004225Y423804D1*
X2005538Y421835D1*
X2010787Y416586D1*
X2014724Y414617D1*
X2016692Y413961D1*
X2019973Y413305D1*
X2027847D1*
X2030472Y413961D1*
X2032440Y414617D1*
X2036377Y416586D1*
X2038346Y417898D1*
X2040971Y420523D1*
X2043595Y424460D1*
X2044251Y425772D1*
X2046220Y431678D1*
X2046876Y435615D1*
Y446113D1*
X2046220Y450050D1*
X2044251Y455956D1*
X2043595Y457268D1*
X2040971Y461205D1*
X2038346Y463830D1*
X2036377Y465142D1*
X2032440Y467111D1*
X2030472Y467767D1*
X2027847Y468423D1*
X2019973D1*
X2016692Y467767D1*
X2014724Y467111D1*
X2012099Y465798D1*
X2010131Y464486D1*
X2008162Y462517D1*
X2019973D1*
X2022598Y463174D1*
X2025223D1*
X2027847Y462517D1*
X2029816Y461861D1*
X2032440Y460549D1*
X2033097Y459893D1*
X2034409Y459237D1*
X2034937Y458389D1*
X2035065Y457924D1*
X2037034Y455300D1*
X2037690Y453987D1*
X2039002Y450050D1*
X2039658Y446113D1*
X2040314Y445457D1*
Y436271D1*
X2039658Y435615D1*
X2039002Y431678D1*
X2037690Y427741D1*
X2037034Y426428D1*
Y425772D1*
X2032440Y421179D1*
X2029816Y419867D1*
X2027847Y419210D1*
X2025223Y418554D1*
X2022598D1*
X2017349Y419867D1*
X2016036Y420523D1*
X2015380Y421179D1*
X2014068Y421835D1*
X2010787Y425116D1*
Y425772D1*
X2009475Y428397D1*
X2008162Y432334D1*
X2007506Y437583D1*
X2006850Y438239D1*
Y443489D1*
X2007506Y444145D1*
X2008162Y449394D1*
X2009475Y453331D1*
X2010787Y455956D1*
Y456612D1*
X2014724Y460549D1*
X2017349Y461861D1*
X2019973Y462517D1*
X2008162D1*
G37*
G36*
X2102650D2*
X2100026Y459893D1*
X2098713Y457924D1*
X2097401Y455300D1*
X2096089Y451363D1*
X2095433Y448738D1*
X2094776Y444145D1*
Y437583D1*
X2095433Y432990D1*
X2096089Y430365D1*
X2097401Y426428D1*
X2098713Y423804D1*
X2100026Y421835D1*
X2105275Y416586D1*
X2109212Y414617D1*
X2111181Y413961D1*
X2114461Y413305D1*
X2122335D1*
X2124960Y413961D1*
X2126929Y414617D1*
X2130866Y416586D1*
X2132834Y417898D1*
X2135459Y420523D1*
X2138083Y424460D1*
X2138740Y425772D1*
X2140708Y431678D1*
X2141364Y435615D1*
Y446113D1*
X2140708Y450050D1*
X2138740Y455956D1*
X2138083Y457268D1*
X2135459Y461205D1*
X2132834Y463830D1*
X2130866Y465142D1*
X2126929Y467111D1*
X2124960Y467767D1*
X2122335Y468423D1*
X2114461D1*
X2111181Y467767D1*
X2109212Y467111D1*
X2106587Y465798D1*
X2104619Y464486D1*
X2102650Y462517D1*
X2114461D1*
X2117086Y463174D1*
X2119711D1*
X2122335Y462517D1*
X2124304Y461861D1*
X2126929Y460549D1*
X2127585Y459893D1*
X2128897Y459237D1*
X2129426Y458389D1*
X2129553Y457924D1*
X2131522Y455300D1*
X2132178Y453987D1*
X2133490Y450050D1*
X2134146Y446113D1*
X2134803Y445457D1*
Y436271D1*
X2134146Y435615D1*
X2133490Y431678D1*
X2132178Y427741D1*
X2131522Y426428D1*
Y425772D1*
X2126929Y421179D1*
X2124304Y419867D1*
X2122335Y419210D1*
X2119711Y418554D1*
X2117086D1*
X2111837Y419867D1*
X2110524Y420523D1*
X2109868Y421179D1*
X2108556Y421835D1*
X2105275Y425116D1*
Y425772D1*
X2103963Y428397D1*
X2102650Y432334D1*
X2101994Y437583D1*
X2101338Y438239D1*
Y443489D1*
X2101994Y444145D1*
X2102650Y449394D1*
X2103963Y453331D1*
X2105275Y455956D1*
Y456612D1*
X2109212Y460549D1*
X2111837Y461861D1*
X2114461Y462517D1*
X2102650D1*
G37*
G36*
X1962230Y461205D2*
X1960918Y459893D1*
X1960262Y458580D1*
X1959606Y455956D1*
Y449394D1*
X1960918Y445457D1*
X1961574Y444145D1*
X1966167Y439552D1*
X1968136Y438239D1*
X1970104Y437583D1*
X1969889Y436787D1*
X1969448Y436271D1*
X1966824Y432990D1*
X1963543Y429053D1*
X1960918Y425772D1*
X1954356Y417898D1*
X1951732Y414617D1*
X1960262D1*
X1962230Y416586D1*
X1975354Y432990D1*
Y433646D1*
X1976666Y434958D1*
X1979728Y435615D1*
X1982790D1*
X1985852Y434958D1*
Y414617D1*
X1991758D1*
Y467111D1*
X1972729D1*
X1969448Y466454D1*
X1967480Y465798D1*
X1966167Y465142D1*
X1964199Y463830D1*
X1962230Y461861D1*
Y461205D1*
X1973385D1*
X1977541Y461861D1*
X1981697D1*
X1985852Y461205D1*
Y441520D1*
X1981915Y440864D1*
X1977978D1*
X1974041Y441520D1*
X1972073Y442176D1*
X1969448Y443489D1*
X1968136Y444801D1*
Y445457D1*
X1967480Y446769D1*
X1966824Y448738D1*
X1966167Y449394D1*
Y454643D1*
X1966824Y455300D1*
X1967480Y457268D1*
Y457924D1*
X1968792Y459237D1*
X1971417Y460549D1*
X1973385Y461205D1*
X1962230D1*
G37*
G36*
X2050157Y467111D2*
Y461205D1*
X2067873Y460549D1*
Y414617D1*
X2073779D1*
Y460549D1*
X2092152Y461205D1*
Y467111D1*
X2050157D1*
G37*
G36*
X2149894D2*
Y414617D1*
X2156456D1*
Y458580D1*
X2156946Y459002D1*
X2157278Y458947D1*
X2157651Y458404D1*
X2157768Y457924D1*
X2158425Y455956D1*
X2160393Y452019D1*
X2161049Y450050D1*
X2163018Y446113D1*
X2163674Y444145D1*
X2165643Y440208D1*
X2166299Y438239D1*
X2168267Y434302D1*
X2168923Y432334D1*
X2170236Y429709D1*
X2170892Y429053D1*
X2174173D1*
X2174829Y429709D1*
X2176797Y433646D1*
X2177454Y435615D1*
X2179422Y439552D1*
X2180078Y441520D1*
X2181391Y444145D1*
X2182047Y446113D1*
X2184015Y450050D1*
X2184671Y452019D1*
X2186640Y455956D1*
X2187296Y457924D1*
X2187403Y458432D1*
X2187806Y458970D1*
X2188129Y458954D1*
X2188608Y458580D1*
Y414617D1*
X2194514D1*
Y467111D1*
X2185984D1*
X2185328Y466454D1*
X2183359Y462517D1*
X2182703Y460549D1*
X2180734Y456612D1*
X2180078Y454643D1*
X2177454Y449394D1*
X2176797Y447426D1*
X2174829Y443489D1*
X2174173Y441520D1*
X2172860Y438895D1*
X2172694Y438121D1*
X2172166Y437523D1*
X2171828Y437632D1*
X2171405Y438354D1*
X2171548Y438895D1*
X2170236Y441520D1*
X2169580Y443489D1*
X2168267Y446113D1*
X2167611Y448082D1*
X2165643Y452019D1*
X2164986Y453987D1*
X2163674Y456612D1*
X2163018Y458580D1*
X2161705Y461205D1*
X2161049Y463174D1*
X2159081Y467111D1*
X2149894D1*
G37*
G36*
X2229291D2*
Y460549D1*
X2233228Y455300D1*
X2234540Y453331D1*
X2236509Y450706D1*
X2237821Y448738D1*
X2239789Y446113D1*
X2241102Y444145D1*
X2243070Y441520D1*
X2244383Y439552D1*
X2246351Y436927D1*
X2247663Y434958D1*
X2249632Y432334D1*
X2250944Y430365D1*
X2252913Y427741D1*
X2254225Y425772D1*
X2256194Y423147D1*
X2257506Y421835D1*
Y421179D1*
X2228635Y420523D1*
Y414617D1*
X2264724D1*
Y421835D1*
X2262755Y424460D1*
X2261443Y426428D1*
X2259475Y429053D1*
X2258162Y431021D1*
X2256194Y433646D1*
X2254881Y435615D1*
X2252913Y438239D1*
X2251601Y440208D1*
X2249632Y442832D1*
X2247007Y446769D1*
X2245039Y449394D1*
X2243726Y451363D1*
X2241758Y453987D1*
X2240446Y455956D1*
X2238477Y458580D1*
X2237165Y459893D1*
Y460549D1*
X2263412Y461205D1*
Y467111D1*
X2229291D1*
G37*
G36*
X2203700Y440208D2*
Y434302D1*
X2223385D1*
Y440208D1*
X2203700D1*
G37*
G36*
X2604619Y462517D2*
X2601994Y459893D1*
X2600682Y457924D1*
X2599370Y455300D1*
X2598057Y451363D1*
X2597401Y448738D1*
X2596745Y444145D1*
Y437583D1*
X2597401Y432990D1*
X2598057Y430365D1*
X2599370Y426428D1*
X2600682Y423804D1*
X2601994Y421835D1*
X2607244Y416586D1*
X2611181Y414617D1*
X2613149Y413961D1*
X2616430Y413305D1*
X2624304D1*
X2626929Y413961D1*
X2628897Y414617D1*
X2632834Y416586D1*
X2634803Y417898D1*
X2637427Y420523D1*
X2640052Y424460D1*
X2640708Y425772D1*
X2642677Y431678D1*
X2643333Y435615D1*
Y446113D1*
X2642677Y450050D1*
X2640708Y455956D1*
X2640052Y457268D1*
X2637427Y461205D1*
X2634803Y463830D1*
X2632834Y465142D1*
X2628897Y467111D1*
X2626929Y467767D1*
X2624304Y468423D1*
X2616430D1*
X2613149Y467767D1*
X2611181Y467111D1*
X2608556Y465798D1*
X2606587Y464486D1*
X2604619Y462517D1*
X2616430D1*
X2619055Y463174D1*
X2621679D1*
X2624304Y462517D1*
X2626272Y461861D1*
X2628897Y460549D1*
X2629553Y459893D1*
X2630866Y459237D1*
X2631394Y458389D1*
X2631522Y457924D1*
X2633490Y455300D1*
X2634146Y453987D1*
X2635459Y450050D1*
X2636115Y446113D1*
X2636771Y445457D1*
Y436271D1*
X2636115Y435615D1*
X2635459Y431678D1*
X2634146Y427741D1*
X2633490Y426428D1*
Y425772D1*
X2628897Y421179D1*
X2626272Y419867D1*
X2624304Y419210D1*
X2621679Y418554D1*
X2619055D1*
X2613805Y419867D1*
X2612493Y420523D1*
X2611837Y421179D1*
X2610524Y421835D1*
X2607244Y425116D1*
Y425772D1*
X2605931Y428397D1*
X2604619Y432334D1*
X2603963Y437583D1*
X2603307Y438239D1*
Y443489D1*
X2603963Y444145D1*
X2604619Y449394D1*
X2605931Y453331D1*
X2607244Y455956D1*
Y456612D1*
X2611181Y460549D1*
X2613805Y461861D1*
X2616430Y462517D1*
X2604619D1*
G37*
G36*
X2699107D2*
X2696482Y459893D1*
X2695170Y457924D1*
X2693858Y455300D1*
X2692545Y451363D1*
X2691889Y448738D1*
X2691233Y444145D1*
Y437583D1*
X2691889Y432990D1*
X2692545Y430365D1*
X2693858Y426428D1*
X2695170Y423804D1*
X2696482Y421835D1*
X2701732Y416586D1*
X2705669Y414617D1*
X2707637Y413961D1*
X2710918Y413305D1*
X2718792D1*
X2721417Y413961D1*
X2723385Y414617D1*
X2727322Y416586D1*
X2729291Y417898D1*
X2731915Y420523D1*
X2734540Y424460D1*
X2735196Y425772D1*
X2737165Y431678D1*
X2737821Y435615D1*
Y446113D1*
X2737165Y450050D1*
X2735196Y455956D1*
X2734540Y457268D1*
X2731915Y461205D1*
X2729291Y463830D1*
X2727322Y465142D1*
X2723385Y467111D1*
X2721417Y467767D1*
X2718792Y468423D1*
X2710918D1*
X2707637Y467767D1*
X2705669Y467111D1*
X2703044Y465798D1*
X2701076Y464486D1*
X2699107Y462517D1*
X2710918D1*
X2713543Y463174D1*
X2716167D1*
X2718792Y462517D1*
X2720761Y461861D1*
X2723385Y460549D1*
X2724041Y459893D1*
X2725354Y459237D1*
X2725882Y458389D1*
X2726010Y457924D1*
X2727978Y455300D1*
X2728635Y453987D1*
X2729947Y450050D1*
X2730603Y446113D1*
X2731259Y445457D1*
Y436271D1*
X2730603Y435615D1*
X2729947Y431678D1*
X2728635Y427741D1*
X2727978Y426428D1*
Y425772D1*
X2723385Y421179D1*
X2720761Y419867D1*
X2718792Y419210D1*
X2716167Y418554D1*
X2713543D1*
X2708293Y419867D1*
X2706981Y420523D1*
X2706325Y421179D1*
X2705013Y421835D1*
X2701732Y425116D1*
Y425772D1*
X2700419Y428397D1*
X2699107Y432334D1*
X2698451Y437583D1*
X2697795Y438239D1*
Y443489D1*
X2698451Y444145D1*
X2699107Y449394D1*
X2700419Y453331D1*
X2701732Y455956D1*
Y456612D1*
X2705669Y460549D1*
X2708293Y461861D1*
X2710918Y462517D1*
X2699107D1*
G37*
G36*
X2558687Y461205D2*
X2557375Y459893D1*
X2556719Y458580D1*
X2556062Y455956D1*
Y449394D1*
X2557375Y445457D1*
X2558031Y444145D1*
X2562624Y439552D1*
X2564593Y438239D1*
X2566561Y437583D1*
X2566345Y436787D1*
X2565905Y436271D1*
X2563280Y432990D1*
X2559999Y429053D1*
X2557375Y425772D1*
X2550813Y417898D1*
X2548188Y414617D1*
X2556719D1*
X2558687Y416586D1*
X2571810Y432990D1*
Y433646D1*
X2573123Y434958D1*
X2576185Y435615D1*
X2579247D1*
X2582309Y434958D1*
Y414617D1*
X2588215D1*
Y467111D1*
X2569186D1*
X2565905Y466454D1*
X2563936Y465798D1*
X2562624Y465142D1*
X2560656Y463830D1*
X2558687Y461861D1*
Y461205D1*
X2569842D1*
X2573998Y461861D1*
X2578153D1*
X2582309Y461205D1*
Y441520D1*
X2578372Y440864D1*
X2574435D1*
X2570498Y441520D1*
X2568530Y442176D1*
X2565905Y443489D1*
X2564593Y444801D1*
Y445457D1*
X2563936Y446769D1*
X2563280Y448738D1*
X2562624Y449394D1*
Y454643D1*
X2563280Y455300D1*
X2563936Y457268D1*
Y457924D1*
X2565249Y459237D1*
X2567873Y460549D1*
X2569842Y461205D1*
X2558687D1*
G37*
G36*
X2646614Y467111D2*
Y461205D1*
X2664330Y460549D1*
Y414617D1*
X2670236D1*
Y460549D1*
X2688608Y461205D1*
Y467111D1*
X2646614D1*
G37*
G36*
X2746351D2*
Y414617D1*
X2752913D1*
Y458580D1*
X2753403Y459002D1*
X2753735Y458947D1*
X2754108Y458404D1*
X2754225Y457924D1*
X2754881Y455956D1*
X2756850Y452019D1*
X2757506Y450050D1*
X2759475Y446113D1*
X2760131Y444145D1*
X2762099Y440208D1*
X2762755Y438239D1*
X2764724Y434302D1*
X2765380Y432334D1*
X2766692Y429709D1*
X2767349Y429053D1*
X2770629D1*
X2771286Y429709D1*
X2773254Y433646D1*
X2773910Y435615D1*
X2775879Y439552D1*
X2776535Y441520D1*
X2777847Y444145D1*
X2778503Y446113D1*
X2780472Y450050D1*
X2781128Y452019D1*
X2783097Y455956D1*
X2783753Y457924D1*
X2783860Y458432D1*
X2784262Y458970D1*
X2784586Y458954D1*
X2785065Y458580D1*
Y414617D1*
X2790971D1*
Y467111D1*
X2782440D1*
X2781784Y466454D1*
X2779816Y462517D1*
X2779160Y460549D1*
X2777191Y456612D1*
X2776535Y454643D1*
X2773910Y449394D1*
X2773254Y447426D1*
X2771286Y443489D1*
X2770629Y441520D1*
X2769317Y438895D1*
X2769150Y438121D1*
X2768623Y437523D1*
X2768284Y437632D1*
X2767861Y438354D1*
X2768005Y438895D1*
X2766692Y441520D1*
X2766036Y443489D1*
X2764724Y446113D1*
X2764068Y448082D1*
X2762099Y452019D1*
X2761443Y453987D1*
X2760131Y456612D1*
X2759475Y458580D1*
X2758162Y461205D1*
X2757506Y463174D1*
X2755538Y467111D1*
X2746351D1*
G37*
G36*
X2838215Y459237D2*
Y457924D1*
X2837559Y457268D1*
X2829684Y433646D1*
X2829028Y432334D1*
X2823123Y414617D1*
X2830341D1*
X2830997Y416586D1*
X2831653Y419210D1*
X2834278Y427084D1*
Y428397D1*
X2834934Y429053D1*
X2841933Y429709D1*
X2848932D1*
X2855931Y429053D1*
Y428397D1*
X2860524Y414617D1*
X2867086D1*
Y415273D1*
X2861181Y432990D1*
X2860524Y434302D1*
X2850026Y465798D1*
X2849370Y467111D1*
X2840839D1*
X2838215Y459237D1*
X2844776D1*
X2845266Y459658D1*
X2845598Y459603D1*
X2845972Y459060D1*
X2846089Y458580D1*
X2852650Y438895D1*
X2853307Y436271D1*
X2853963Y435615D1*
X2848276Y434958D1*
X2842589D1*
X2836902Y435615D1*
X2837030Y436080D1*
X2837559Y436927D1*
X2843464Y454643D1*
X2844120Y457268D1*
X2844776Y459237D1*
X2838215D1*
G37*
G36*
X2800157Y440208D2*
Y434302D1*
X2819842D1*
Y440208D1*
X2800157D1*
G37*
G36*
X2634015Y1527478D2*
Y1478790D1*
X2642283D1*
Y1482465D1*
X2643265Y1483078D1*
X2644120Y1483384D1*
X2646876Y1480628D1*
X2652388Y1477872D1*
X2655144Y1476953D1*
X2663412D1*
X2666167Y1477872D1*
X2669842Y1479709D1*
X2673517Y1483384D1*
X2675354Y1486140D1*
X2677191Y1489814D1*
X2678110Y1492570D1*
X2679028Y1496245D1*
X2679947Y1505431D1*
Y1506349D1*
X2679028Y1514617D1*
X2678110Y1518292D1*
X2677191Y1521048D1*
X2675354Y1524722D1*
X2672598Y1528397D1*
X2669842Y1531153D1*
X2667086Y1532990D1*
X2663412Y1534827D1*
X2660656Y1535746D1*
X2652388D1*
X2648713Y1534827D1*
X2645957Y1533909D1*
X2644120Y1532990D1*
X2643146Y1531992D1*
X2642670Y1532141D1*
X2642283Y1532990D1*
Y1555956D1*
X2634015D1*
Y1527478D1*
X2649632D1*
X2653000Y1528397D1*
X2656369D1*
X2659737Y1527478D1*
X2663412Y1525641D1*
X2668005Y1521048D1*
Y1520129D1*
X2668923Y1518292D1*
X2669842Y1514617D1*
X2670761Y1513699D1*
Y1499000D1*
X2669842Y1498082D1*
X2668923Y1494407D1*
X2668005Y1491651D1*
Y1490733D1*
X2665249Y1487977D1*
X2661574Y1486140D1*
X2658512Y1485221D1*
X2655450D1*
X2652388Y1486140D1*
X2649632Y1487058D1*
X2645957Y1488895D1*
X2645039Y1489814D1*
X2643202Y1490733D1*
X2642283Y1491651D1*
Y1524722D1*
X2644120Y1525641D1*
X2649632Y1527478D1*
X2634015D1*
G37*
G36*
X2611049Y1555037D2*
Y1478790D1*
X2619317D1*
Y1555037D1*
X2611049D1*
G37*
G36*
X2690052D2*
Y1478790D1*
X2698320D1*
Y1555037D1*
X2690052D1*
G37*
G36*
X2792939Y1526559D2*
X2792637Y1525445D1*
X2792020Y1524722D1*
X2791102Y1522885D1*
X2789265Y1515536D1*
Y1499919D1*
X2790183Y1495326D1*
X2791102Y1492570D1*
X2793858Y1487058D1*
X2796614Y1483384D1*
X2798451Y1481546D1*
X2801207Y1479709D1*
X2804881Y1477872D1*
X2807637Y1476953D1*
X2815905D1*
X2819580Y1477872D1*
X2823254Y1479709D1*
X2824479Y1480628D1*
X2825704D1*
X2826929Y1479709D1*
Y1478790D1*
X2834278D1*
Y1555037D1*
X2826010D1*
Y1530234D1*
X2824890Y1529275D1*
X2824173Y1529315D1*
X2821417Y1532071D1*
X2815905Y1534827D1*
X2813149Y1535746D1*
X2804881D1*
X2802125Y1534827D1*
X2798451Y1532990D1*
X2794776Y1529315D1*
X2792939Y1526559D1*
X2806719D1*
X2809781Y1527478D1*
X2812843D1*
X2815905Y1526559D1*
X2818661Y1525641D1*
X2822335Y1523804D1*
X2823254Y1522885D1*
X2825091Y1521966D1*
X2826010Y1521048D1*
Y1487977D1*
X2822335Y1486140D1*
X2818661Y1485221D1*
X2815293Y1484302D1*
X2811924D1*
X2808556Y1485221D1*
X2804881Y1487058D1*
X2800288Y1491651D1*
Y1492570D1*
X2799370Y1495326D1*
X2798451Y1499919D1*
X2797532Y1500838D1*
Y1511861D1*
X2798451Y1512780D1*
X2799370Y1517373D1*
X2800288Y1520129D1*
X2801207Y1521966D1*
Y1522885D1*
X2803044Y1524722D1*
X2806719Y1526559D1*
X2792939D1*
G37*
G36*
X2904094Y1493489D2*
X2905013Y1494407D1*
X2906850Y1498082D1*
X2907768Y1501756D1*
Y1517373D1*
X2906850Y1521048D1*
X2904094Y1526559D1*
X2898582Y1532071D1*
X2894908Y1533909D1*
X2892152Y1534827D1*
X2884803D1*
X2882047Y1533909D1*
X2880209Y1532990D1*
X2879089Y1532031D1*
X2878024Y1532149D1*
X2877154Y1533213D1*
X2877454Y1533909D1*
X2870104D1*
Y1491651D1*
X2865817Y1490733D1*
X2861531D1*
X2857244Y1491651D1*
Y1493489D1*
X2856325Y1496245D1*
X2855406Y1500838D1*
X2854488Y1501756D1*
Y1519210D1*
X2855406Y1520129D1*
X2856325Y1524722D1*
X2857244Y1528397D1*
X2859999Y1533909D1*
X2861837Y1536664D1*
Y1537583D1*
X2866430Y1542176D1*
X2868267Y1543095D1*
X2869186Y1544014D1*
X2872860Y1545851D1*
X2875616Y1546769D1*
X2880209Y1547688D1*
X2884496Y1548607D1*
X2888783D1*
X2893070Y1547688D1*
X2899501Y1545851D1*
X2902257Y1544932D1*
X2904094Y1544014D1*
X2905013Y1543095D1*
X2906850Y1542176D1*
X2914199Y1534827D1*
Y1533909D1*
X2916036Y1531153D1*
X2917873Y1527478D1*
X2919711Y1521966D1*
X2920629Y1516454D1*
X2921548Y1515536D1*
Y1506349D1*
X2920629Y1505431D1*
X2919711Y1499000D1*
X2917873Y1493489D1*
X2916036Y1489814D1*
X2914199Y1487058D1*
Y1486140D1*
X2908687Y1480628D1*
X2906850Y1479709D1*
X2905931Y1478790D1*
X2900419Y1476035D1*
X2897663Y1475116D1*
X2893989Y1474197D1*
X2888477Y1473279D1*
X2882965D1*
X2871942Y1475116D1*
X2871023D1*
Y1469604D1*
X2871942Y1468685D1*
X2878372Y1467767D1*
X2893070D1*
X2897663Y1468685D1*
X2903175Y1470523D1*
X2908687Y1473279D1*
X2911443Y1475116D1*
X2918792Y1482465D1*
X2922467Y1487977D1*
X2923385Y1489814D1*
X2924304Y1492570D1*
X2925223Y1494407D1*
X2926141Y1497163D1*
X2927060Y1501756D1*
Y1520129D1*
X2926141Y1523804D1*
X2924304Y1529315D1*
X2922467Y1532990D1*
X2918792Y1538502D1*
X2910524Y1546769D1*
X2907768Y1548607D1*
X2900419Y1552281D1*
X2896745Y1553200D1*
X2892152Y1554119D1*
X2881128D1*
X2876535Y1553200D1*
X2872860Y1552281D1*
X2865511Y1548607D1*
X2862755Y1546769D1*
X2858162Y1542176D1*
X2855406Y1538502D1*
X2850813Y1529315D1*
X2848976Y1521966D1*
X2848057Y1513699D1*
Y1509105D1*
X2848976Y1501756D1*
X2849894Y1498082D1*
X2851732Y1492570D1*
X2854488Y1487058D1*
X2855406Y1486140D1*
X2875616D1*
X2876535Y1487977D1*
Y1490733D1*
X2877516Y1491346D1*
X2878372Y1491651D1*
X2881128Y1488895D1*
X2883884Y1487058D1*
X2887559Y1486140D1*
X2894908D1*
X2897663Y1487058D1*
X2900419Y1488895D1*
X2904094Y1492570D1*
Y1493489D1*
X2893070D1*
X2890621Y1492570D1*
X2888171D1*
X2885721Y1493489D1*
X2882965Y1494407D1*
X2881128Y1495326D1*
X2880209Y1496245D1*
X2878372Y1497163D1*
X2877454Y1498082D1*
Y1524722D1*
X2878372Y1525641D1*
X2880209Y1526559D1*
X2882965Y1527478D1*
X2886027Y1528397D1*
X2889090D1*
X2892152Y1527478D1*
X2893989Y1526559D1*
X2898582Y1521966D1*
Y1521048D1*
X2899501Y1518292D1*
X2900419Y1517373D1*
Y1502675D1*
X2899501Y1501756D1*
X2898582Y1499000D1*
X2897663Y1497163D1*
X2897362Y1496049D1*
X2896745Y1495326D1*
X2893070Y1493489D1*
X2904094D1*
G37*
G36*
X2712099Y1552281D2*
Y1543095D1*
X2722204D1*
Y1552281D1*
X2712099D1*
G37*
G36*
X2499894Y1527478D2*
Y1477872D1*
X2500813Y1473279D1*
X2501732Y1470523D1*
X2503569Y1466848D1*
X2506325Y1463174D1*
X2509999Y1460418D1*
X2511837Y1459499D1*
X2514593Y1458580D1*
X2519186Y1457662D1*
X2531128D1*
X2535721Y1458580D1*
X2539396Y1459499D1*
X2540314Y1460418D1*
Y1468685D1*
X2539396D1*
X2529291Y1465930D1*
X2525616Y1465011D1*
X2521942D1*
X2518267Y1465930D1*
X2515511Y1466848D1*
X2511837Y1468685D1*
X2510747Y1469718D1*
X2510918Y1470523D1*
X2509999Y1472360D1*
X2509081Y1475116D1*
X2508162Y1476035D1*
Y1485221D1*
X2508848Y1485811D1*
X2509324Y1485757D1*
X2509999Y1485221D1*
X2511837Y1483384D1*
X2517349Y1480628D1*
X2520104Y1479709D1*
X2529291D1*
X2532047Y1480628D1*
X2535721Y1482465D1*
X2541233Y1487977D1*
X2543070Y1491651D1*
X2544908Y1497163D1*
X2545826Y1506349D1*
Y1507268D1*
X2544908Y1515536D1*
X2543070Y1521048D1*
X2541233Y1524722D1*
X2539396Y1527478D1*
X2534803Y1532071D1*
X2529291Y1534827D1*
X2526535Y1535746D1*
X2518267D1*
X2514593Y1534827D1*
X2510918Y1532990D1*
X2509798Y1532031D1*
X2508733Y1532149D1*
X2507862Y1533213D1*
X2508162Y1533909D1*
X2499894D1*
Y1527478D1*
X2515511D1*
X2518880Y1528397D1*
X2522248D1*
X2525616Y1527478D1*
X2528372Y1526559D1*
X2529291Y1525641D1*
X2531128Y1524722D1*
X2531868Y1523536D1*
X2532047Y1522885D1*
X2533884Y1520129D1*
X2534803Y1518292D1*
X2535721Y1514617D1*
X2536640Y1513699D1*
Y1499919D1*
X2535721Y1499000D1*
X2534803Y1495326D1*
X2533884Y1493489D1*
Y1492570D1*
X2530209Y1488895D1*
X2527454Y1487977D1*
X2524391Y1487058D1*
X2521329D1*
X2518267Y1487977D1*
X2515511Y1488895D1*
X2509999Y1491651D1*
X2508162Y1493489D1*
Y1524722D1*
X2509999Y1525641D1*
X2515511Y1527478D1*
X2499894D1*
G37*
G36*
X2557768D2*
Y1526559D1*
X2555931Y1524722D1*
X2554094Y1521048D1*
X2553175Y1518292D1*
X2552257Y1513699D1*
Y1499000D1*
X2553175Y1494407D1*
X2554094Y1491651D1*
X2555931Y1487977D1*
X2557768Y1485221D1*
X2561443Y1481546D1*
X2564199Y1479709D1*
X2567873Y1477872D1*
X2571548Y1476953D1*
X2580734D1*
X2584409Y1477872D1*
X2589921Y1480628D1*
X2595433Y1486140D1*
X2599107Y1493489D1*
X2600026Y1497163D1*
Y1515536D1*
X2599107Y1519210D1*
X2595433Y1526559D1*
X2589921Y1532071D1*
X2584409Y1534827D1*
X2580734Y1535746D1*
X2571548D1*
X2567873Y1534827D1*
X2564199Y1532990D1*
X2561443Y1531153D1*
X2557768Y1527478D1*
X2571548D1*
X2574610Y1528397D1*
X2577672D1*
X2580734Y1527478D1*
X2583490Y1526559D1*
X2585328Y1525641D1*
X2588083Y1522885D1*
Y1521966D1*
X2589921Y1518292D1*
X2590839Y1514617D1*
X2591758Y1513699D1*
Y1499000D1*
X2590839Y1498082D1*
X2589921Y1494407D1*
X2588083Y1490733D1*
Y1489814D1*
X2586246Y1487977D1*
X2584409Y1487058D1*
X2583490Y1486140D1*
X2580734Y1485221D1*
X2577672Y1484302D1*
X2574610D1*
X2571548Y1485221D1*
X2567873Y1487058D1*
X2563280Y1491651D1*
Y1492570D1*
X2562362Y1495326D1*
X2561443Y1500838D1*
X2560524Y1501756D1*
Y1510943D1*
X2561443Y1511861D1*
X2562362Y1517373D1*
X2563280Y1520129D1*
Y1521048D1*
X2568792Y1526559D1*
X2571548Y1527478D1*
X2557768D1*
G37*
G36*
X2713018Y1533909D2*
Y1478790D1*
X2721286D1*
Y1533909D1*
X2713018D1*
G37*
G36*
X2735984D2*
Y1478790D1*
X2744251D1*
Y1483384D1*
X2744937Y1483974D1*
X2745414Y1483920D1*
X2746089Y1483384D1*
X2749763Y1480628D1*
X2755275Y1477872D1*
X2758031Y1476953D1*
X2765380D1*
X2768136Y1477872D1*
X2771810Y1479709D1*
X2775485Y1483384D1*
X2777322Y1487058D1*
X2778241Y1489814D1*
X2779160Y1495326D1*
Y1533909D1*
X2770892D1*
X2769973Y1497163D1*
X2769055Y1491651D1*
Y1489814D1*
X2766299Y1487058D1*
X2764461Y1486140D1*
X2761399Y1485221D1*
X2758337D1*
X2755275Y1486140D1*
X2752519Y1487058D1*
X2748845Y1488895D1*
X2747926Y1489814D1*
X2746089Y1490733D1*
X2744251Y1492570D1*
Y1533909D1*
X2735984D1*
G37*
G36*
X2951863Y1426428D2*
X2948188Y1422754D1*
X2942677Y1414486D1*
X2937165Y1403462D1*
X2935328Y1397951D1*
X2934409Y1394276D1*
X2933490Y1388764D1*
Y1367636D1*
X2934409Y1362124D1*
X2935328Y1358449D1*
X2937165Y1352937D1*
X2942677Y1341914D1*
X2944514Y1339158D1*
X2945433Y1337321D1*
X2948188Y1333646D1*
X2951863Y1329972D1*
X2961968D1*
X2956456Y1336402D1*
X2952782Y1340995D1*
X2950944Y1343751D1*
X2946351Y1352937D1*
X2943595Y1361205D1*
X2942677Y1364880D1*
X2941758Y1371310D1*
X2940839Y1372229D1*
Y1384171D1*
X2941758Y1385090D1*
X2942677Y1391520D1*
X2943595Y1395195D1*
X2946351Y1403462D1*
X2950944Y1412649D1*
X2956456Y1419998D1*
X2961968Y1426428D1*
X2951863D1*
G37*
G36*
X3017086D2*
X3024435Y1419079D1*
Y1418161D1*
X3027191Y1414486D1*
X3028110Y1412649D1*
X3029947Y1409893D1*
X3032703Y1404381D1*
X3035459Y1396113D1*
X3036377Y1392439D1*
X3037296Y1387846D1*
X3038215Y1386927D1*
Y1369473D1*
X3037296Y1368554D1*
X3036377Y1363961D1*
X3035459Y1360287D1*
X3032703Y1352019D1*
X3029947Y1346507D1*
X3028110Y1343751D1*
X3027191Y1341914D1*
X3024435Y1338239D1*
X3017086Y1329972D1*
X3028110D1*
X3029028Y1330890D1*
X3034540Y1338239D1*
X3035459Y1340077D1*
X3037296Y1342832D1*
X3041889Y1352019D1*
X3043726Y1357531D1*
X3044645Y1361205D1*
X3045564Y1365798D1*
X3046482Y1374985D1*
Y1381415D1*
X3045564Y1390601D1*
X3044645Y1395195D1*
X3043726Y1398869D1*
X3041889Y1404381D1*
X3037296Y1413567D1*
X3035459Y1416323D1*
X3034540Y1418161D1*
X3029028Y1425510D1*
X3028110Y1426428D1*
X3017086D1*
G37*
G36*
X2441102Y1417242D2*
X2440800Y1416127D1*
X2440183Y1415405D1*
X2437427Y1409893D1*
X2436509Y1406218D1*
X2435590Y1401625D1*
X2434671Y1393357D1*
Y1380496D1*
X2435590Y1372229D1*
X2436509Y1367636D1*
X2437427Y1363961D1*
X2438346Y1361205D1*
X2440183Y1357531D1*
X2446614Y1351100D1*
X2450288Y1349263D1*
X2453963Y1348344D1*
X2462230D1*
X2465905Y1349263D1*
X2471417Y1352019D1*
X2474173Y1354775D1*
X2476010Y1357531D1*
X2478766Y1363042D1*
X2480603Y1370391D1*
X2481522Y1376822D1*
Y1397032D1*
X2480603Y1403462D1*
X2479684Y1408056D1*
X2478766Y1410811D1*
X2476010Y1416323D1*
X2474173Y1419079D1*
X2471417Y1421835D1*
X2465905Y1424591D1*
X2462230Y1425510D1*
X2453963D1*
X2450288Y1424591D1*
X2446614Y1422754D1*
X2441102Y1417242D1*
X2453963D1*
X2456719Y1418161D1*
X2459475D1*
X2464986Y1416323D1*
X2468661Y1412649D1*
Y1411730D1*
X2469580Y1409893D1*
X2470498Y1407137D1*
X2471417Y1401625D1*
X2472335Y1400706D1*
Y1373147D1*
X2471417Y1372229D1*
X2470498Y1366717D1*
X2469580Y1363961D1*
X2468661Y1362124D1*
Y1361205D1*
X2464986Y1357531D1*
X2459475Y1355693D1*
X2456719D1*
X2453963Y1356612D1*
X2450288Y1358449D1*
X2448451Y1360287D1*
Y1361205D1*
X2446614Y1364880D1*
X2445695Y1368554D1*
X2444776Y1375903D1*
X2443858Y1376822D1*
Y1397032D1*
X2444776Y1397951D1*
X2445695Y1405300D1*
X2446614Y1408974D1*
X2448451Y1412649D1*
Y1413567D1*
X2450288Y1415405D1*
X2453963Y1417242D1*
X2441102D1*
G37*
G36*
X2547663Y1425510D2*
X2543989Y1424591D1*
X2538477Y1421835D1*
X2534803Y1418161D1*
X2532965Y1415405D1*
X2531128Y1409893D1*
Y1400706D1*
X2532047Y1397032D1*
X2532965Y1394276D1*
X2535721Y1388764D1*
X2537559Y1386008D1*
X2540314Y1382334D1*
X2564199Y1358449D1*
X2528372Y1357531D1*
Y1350182D1*
X2573385D1*
Y1359368D1*
X2554094Y1379578D1*
X2549501Y1385090D1*
X2545826Y1389683D1*
X2543989Y1392439D1*
X2542152Y1396113D1*
X2541233Y1399788D1*
X2540314Y1400706D1*
Y1408974D1*
X2541233Y1409893D1*
Y1411730D1*
X2544908Y1415405D1*
X2548582Y1417242D1*
X2551950Y1418161D1*
X2555319D1*
X2558687Y1417242D1*
X2562362Y1416323D1*
X2565118Y1415405D1*
X2568792Y1413567D1*
X2569711Y1412649D1*
X2571548Y1411730D1*
Y1420916D1*
X2570629Y1421835D1*
X2568792Y1422754D1*
X2566036Y1423672D1*
X2562362Y1424591D1*
X2557768Y1425510D1*
X2547663D1*
G37*
G36*
X2682703Y1417242D2*
X2682401Y1416127D1*
X2681784Y1415405D1*
X2679028Y1409893D1*
X2678110Y1406218D1*
X2677191Y1401625D1*
X2676272Y1393357D1*
Y1380496D1*
X2677191Y1372229D1*
X2678110Y1367636D1*
X2679028Y1363961D1*
X2679947Y1361205D1*
X2681784Y1357531D1*
X2688215Y1351100D1*
X2691889Y1349263D1*
X2695564Y1348344D1*
X2703831D1*
X2707506Y1349263D1*
X2713018Y1352019D1*
X2715774Y1354775D1*
X2717611Y1357531D1*
X2720367Y1363042D1*
X2722204Y1370391D1*
X2723123Y1376822D1*
Y1397032D1*
X2722204Y1403462D1*
X2721286Y1408056D1*
X2720367Y1410811D1*
X2717611Y1416323D1*
X2715774Y1419079D1*
X2713018Y1421835D1*
X2707506Y1424591D1*
X2703831Y1425510D1*
X2695564D1*
X2691889Y1424591D1*
X2688215Y1422754D1*
X2682703Y1417242D1*
X2695564D1*
X2698320Y1418161D1*
X2701076D1*
X2706587Y1416323D1*
X2710262Y1412649D1*
Y1411730D1*
X2711181Y1409893D1*
X2712099Y1407137D1*
X2713018Y1401625D1*
X2713936Y1400706D1*
Y1373147D1*
X2713018Y1372229D1*
X2712099Y1366717D1*
X2711181Y1363961D1*
X2710262Y1362124D1*
Y1361205D1*
X2706587Y1357531D1*
X2701076Y1355693D1*
X2698320D1*
X2695564Y1356612D1*
X2691889Y1358449D1*
X2690052Y1360287D1*
Y1361205D1*
X2688215Y1364880D1*
X2687296Y1368554D1*
X2686377Y1375903D1*
X2685459Y1376822D1*
Y1397032D1*
X2686377Y1397951D1*
X2687296Y1405300D1*
X2688215Y1408974D1*
X2690052Y1412649D1*
Y1413567D1*
X2691889Y1415405D1*
X2695564Y1417242D1*
X2682703D1*
G37*
G36*
X2752519Y1425510D2*
X2748845Y1424591D1*
X2743333Y1421835D1*
X2739658Y1418161D1*
X2737821Y1415405D1*
X2735984Y1409893D1*
Y1400706D1*
X2736902Y1397032D1*
X2737821Y1394276D1*
X2740577Y1388764D1*
X2742414Y1386008D1*
X2745170Y1382334D1*
X2769055Y1358449D1*
X2733228Y1357531D1*
Y1350182D1*
X2778241D1*
Y1359368D1*
X2758950Y1379578D1*
X2754356Y1385090D1*
X2750682Y1389683D1*
X2748845Y1392439D1*
X2747007Y1396113D1*
X2746089Y1399788D1*
X2745170Y1400706D1*
Y1408974D1*
X2746089Y1409893D1*
Y1411730D1*
X2749763Y1415405D1*
X2753438Y1417242D1*
X2756806Y1418161D1*
X2760174D1*
X2763543Y1417242D1*
X2767217Y1416323D1*
X2769973Y1415405D1*
X2773648Y1413567D1*
X2774566Y1412649D1*
X2776404Y1411730D1*
Y1420916D1*
X2775485Y1421835D1*
X2773648Y1422754D1*
X2770892Y1423672D1*
X2767217Y1424591D1*
X2762624Y1425510D1*
X2752519D1*
G37*
G36*
X2794776Y1417242D2*
X2794474Y1416127D1*
X2793858Y1415405D1*
X2791102Y1409893D1*
X2790183Y1406218D1*
X2789265Y1401625D1*
X2788346Y1393357D1*
Y1380496D1*
X2789265Y1372229D1*
X2790183Y1367636D1*
X2791102Y1363961D1*
X2792020Y1361205D1*
X2793858Y1357531D1*
X2800288Y1351100D1*
X2803963Y1349263D1*
X2807637Y1348344D1*
X2815905D1*
X2819580Y1349263D1*
X2825091Y1352019D1*
X2827847Y1354775D1*
X2829684Y1357531D1*
X2832440Y1363042D1*
X2834278Y1370391D1*
X2835196Y1376822D1*
Y1397032D1*
X2834278Y1403462D1*
X2833359Y1408056D1*
X2832440Y1410811D1*
X2829684Y1416323D1*
X2827847Y1419079D1*
X2825091Y1421835D1*
X2819580Y1424591D1*
X2815905Y1425510D1*
X2807637D1*
X2803963Y1424591D1*
X2800288Y1422754D1*
X2794776Y1417242D1*
X2807637D1*
X2810393Y1418161D1*
X2813149D1*
X2818661Y1416323D1*
X2822335Y1412649D1*
Y1411730D1*
X2823254Y1409893D1*
X2824173Y1407137D1*
X2825091Y1401625D1*
X2826010Y1400706D1*
Y1373147D1*
X2825091Y1372229D1*
X2824173Y1366717D1*
X2823254Y1363961D1*
X2822335Y1362124D1*
Y1361205D1*
X2818661Y1357531D1*
X2813149Y1355693D1*
X2810393D1*
X2807637Y1356612D1*
X2803963Y1358449D1*
X2802125Y1360287D1*
Y1361205D1*
X2800288Y1364880D1*
X2799370Y1368554D1*
X2798451Y1375903D1*
X2797532Y1376822D1*
Y1397032D1*
X2798451Y1397951D1*
X2799370Y1405300D1*
X2800288Y1408974D1*
X2802125Y1412649D1*
Y1413567D1*
X2803963Y1415405D1*
X2807637Y1417242D1*
X2794776D1*
G37*
G36*
X2864593Y1425510D2*
X2860918Y1424591D1*
X2855406Y1421835D1*
X2851732Y1418161D1*
X2849894Y1415405D1*
X2848057Y1409893D1*
Y1400706D1*
X2848976Y1397032D1*
X2849894Y1394276D1*
X2852650Y1388764D1*
X2854488Y1386008D1*
X2857244Y1382334D1*
X2881128Y1358449D1*
X2845301Y1357531D1*
Y1350182D1*
X2890314D1*
Y1359368D1*
X2871023Y1379578D1*
X2866430Y1385090D1*
X2862755Y1389683D1*
X2860918Y1392439D1*
X2859081Y1396113D1*
X2858162Y1399788D1*
X2857244Y1400706D1*
Y1408974D1*
X2858162Y1409893D1*
Y1411730D1*
X2861837Y1415405D1*
X2865511Y1417242D1*
X2868880Y1418161D1*
X2872248D1*
X2875616Y1417242D1*
X2879291Y1416323D1*
X2882047Y1415405D1*
X2885721Y1413567D1*
X2886640Y1412649D1*
X2888477Y1411730D1*
Y1420916D1*
X2887559Y1421835D1*
X2885721Y1422754D1*
X2882965Y1423672D1*
X2879291Y1424591D1*
X2874698Y1425510D1*
X2864593D1*
G37*
G36*
X2396089Y1423672D2*
Y1357531D1*
X2383228Y1356612D1*
Y1350182D1*
X2418136D1*
Y1356612D1*
X2405275Y1357531D1*
Y1407137D1*
X2418136Y1408056D1*
Y1413567D1*
X2411705Y1414486D1*
X2408950Y1415405D1*
X2405275Y1417242D1*
Y1418161D1*
X2403438Y1423672D1*
X2396089D1*
G37*
G36*
X2600944D2*
Y1357531D1*
X2588083Y1356612D1*
Y1350182D1*
X2622992D1*
Y1356612D1*
X2610131Y1357531D1*
Y1407137D1*
X2622992Y1408056D1*
Y1413567D1*
X2616561Y1414486D1*
X2613805Y1415405D1*
X2610131Y1417242D1*
Y1418161D1*
X2608293Y1423672D1*
X2600944D1*
G37*
G36*
X2980341Y1407137D2*
X2976666Y1406218D1*
X2971154Y1404381D1*
X2969317Y1403462D1*
Y1393357D1*
X2972073Y1395195D1*
X2972992Y1396113D1*
X2974829Y1397032D1*
X2980341Y1398869D1*
X2983403Y1399788D1*
X2986465D1*
X2989527Y1398869D1*
X2992283Y1397951D1*
X2994120Y1397032D1*
X2997795Y1393357D1*
Y1392439D1*
X2999632Y1388764D1*
X3000551Y1385090D1*
X3001469Y1384171D1*
Y1371310D1*
X3000551Y1370391D1*
X2998713Y1364880D1*
Y1363961D1*
X2994120Y1359368D1*
X2992283Y1358449D1*
X2989527Y1357531D1*
X2986159Y1356612D1*
X2982790D1*
X2979422Y1357531D1*
X2976666Y1358449D1*
X2971154Y1361205D1*
X2969317Y1363042D1*
Y1352937D1*
X2971154Y1352019D1*
X2976666Y1350182D1*
X2980341Y1349263D1*
X2989527D1*
X2993202Y1350182D1*
X2995957Y1351100D1*
X2999632Y1352937D1*
X3005144Y1358449D1*
X3006981Y1361205D1*
X3007900Y1363042D1*
X3008818Y1365798D1*
X3009737Y1369473D1*
Y1386927D1*
X3007900Y1392439D1*
X3006062Y1396113D1*
X3004225Y1398869D1*
X3000551Y1402544D1*
X2997795Y1404381D1*
X2995957Y1405300D1*
X2993202Y1406218D1*
X2989527Y1407137D1*
X2980341D1*
G37*
G36*
X2490708Y1386008D2*
Y1377741D1*
X2518267D1*
Y1386008D1*
X2490708D1*
G37*
G36*
X2639527D2*
Y1377741D1*
X2667086D1*
Y1386008D1*
X2639527D1*
G37*
G36*
X4191627Y1164289D2*
Y1160090D1*
X4190577Y1159040D1*
X4189527Y1153790D1*
X4188477Y1151691D1*
X4188132Y1150417D1*
X4187427Y1149591D1*
X4183228Y1147491D1*
X4180078Y1146441D1*
Y1139092D1*
X4256719Y1138042D1*
Y1123344D1*
X4263018D1*
X4264068Y1124394D1*
Y1164289D1*
X4256719D1*
Y1149591D1*
X4237121Y1148541D1*
X4217524D1*
X4197926Y1149591D1*
Y1164289D1*
X4191627D1*
G37*
G36*
X4252519Y1106546D2*
X4231522Y1085549D1*
X4229422Y1084499D1*
X4223123Y1079250D1*
X4218923Y1076100D1*
X4217873Y1075050D1*
X4211574Y1071901D1*
X4208425Y1070851D1*
X4203875Y1069801D1*
X4199326D1*
X4194776Y1070851D1*
X4190577Y1072951D1*
X4188477Y1075050D1*
Y1076100D1*
X4187427Y1078200D1*
X4186377Y1079250D1*
Y1090798D1*
X4187427Y1091848D1*
X4189527Y1098147D1*
X4190577Y1100247D1*
X4192677Y1103397D1*
Y1104447D1*
X4182178D1*
X4181128Y1102347D1*
X4179028Y1096048D1*
X4177978Y1090798D1*
Y1076100D1*
X4179028Y1072951D1*
X4181128Y1068751D1*
X4183228Y1065601D1*
X4185328Y1063502D1*
X4188477Y1061402D1*
X4190577Y1060352D1*
X4193726Y1059302D1*
X4208425D1*
X4214724Y1061402D1*
X4218923Y1063502D1*
X4222073Y1065601D1*
X4226272Y1068751D1*
X4235721Y1077150D1*
X4247270Y1088699D1*
Y1089748D1*
X4253569Y1096048D1*
X4254547Y1095699D1*
X4255669Y1094998D1*
Y1055103D1*
X4264068D1*
Y1106546D1*
X4252519D1*
G37*
G36*
X4223123Y1043554D2*
Y1013108D1*
X4232572D1*
Y1043554D1*
X4223123D1*
G37*
G36*
X4252519Y1000510D2*
X4231522Y979512D1*
X4229422Y978462D1*
X4223123Y973213D1*
X4218923Y970063D1*
X4217873Y969014D1*
X4211574Y965864D1*
X4208425Y964814D1*
X4203875Y963764D1*
X4199326D1*
X4194776Y964814D1*
X4190577Y966914D1*
X4188477Y969014D1*
Y970063D1*
X4187427Y972163D1*
X4186377Y973213D1*
Y984762D1*
X4187427Y985811D1*
X4189527Y992111D1*
X4190577Y994210D1*
X4192677Y997360D1*
Y998410D1*
X4182178D1*
X4181128Y996310D1*
X4179028Y990011D1*
X4177978Y984762D1*
Y970063D1*
X4179028Y966914D1*
X4181128Y962714D1*
X4183228Y959565D1*
X4185328Y957465D1*
X4188477Y955365D1*
X4190577Y954315D1*
X4193726Y953266D1*
X4208425D1*
X4214724Y955365D1*
X4218923Y957465D1*
X4222073Y959565D1*
X4226272Y962714D1*
X4235721Y971113D1*
X4247270Y982662D1*
Y983712D1*
X4253569Y990011D1*
X4254547Y989662D1*
X4255669Y988961D1*
Y949066D1*
X4264068D1*
Y1000510D1*
X4252519D1*
G37*
G36*
X4211574Y931218D2*
X4205275Y924919D1*
X4203175Y923869D1*
X4194776Y916520D1*
X4187427Y910221D1*
X4180078Y902872D1*
Y893423D1*
X4226272Y892373D1*
Y882924D1*
X4234671D1*
Y892373D1*
X4264068Y893423D1*
Y902872D1*
X4234671Y903922D1*
Y940667D1*
X4223123D1*
X4219973Y938567D1*
X4211574Y931218D1*
X4224173D1*
X4224957Y931892D1*
X4225501Y931831D1*
X4226272Y931218D1*
Y903922D1*
X4215074Y902872D1*
X4203875D1*
X4192677Y903922D1*
X4197926Y909171D1*
X4200026Y910221D1*
X4207375Y916520D1*
X4215774Y923869D1*
X4223123Y930168D1*
X4224173Y931218D1*
X4211574D1*
G37*
G36*
X4180078Y878725D2*
Y868226D1*
X4181128Y867176D1*
X4247270Y845129D1*
X4249370Y844079D1*
X4247270Y843029D1*
X4181128Y820982D1*
X4180078Y819932D1*
Y810483D1*
X4182178D1*
X4197926Y815733D1*
X4234671Y828331D1*
X4261968Y837780D1*
X4264068Y838830D1*
Y850378D1*
X4243070Y857727D1*
X4206325Y870326D1*
X4181128Y878725D1*
X4180078D1*
G37*
G36*
Y789486D2*
Y769538D1*
X4181128Y763239D1*
X4182178Y760090D1*
X4183228Y757990D1*
X4184278Y754840D1*
X4188477Y748541D1*
X4192677Y744342D1*
X4196876Y741192D1*
X4203175Y738042D1*
X4206325Y736993D1*
X4210524Y735943D1*
X4216824Y734893D1*
X4226272D1*
X4232572Y735943D1*
X4236771Y736993D1*
X4239921Y738042D1*
X4244120Y740142D1*
X4250419Y744342D1*
X4255669Y749591D1*
X4257768Y752741D1*
X4260918Y759040D1*
X4261968Y762189D1*
X4263018Y766389D1*
X4264068Y777937D1*
Y801035D1*
X4180078D1*
Y789486D1*
X4188477D1*
X4210874Y790536D1*
X4233272D1*
X4255669Y789486D1*
Y775838D1*
X4254619Y774788D1*
X4253569Y767439D1*
X4251469Y761140D1*
X4249370Y757990D1*
Y756940D1*
X4245170Y752741D1*
X4243070Y751691D1*
X4242020Y750641D1*
X4239921Y749591D1*
X4233622Y747491D1*
X4225223Y746441D1*
X4222773Y745391D1*
X4220323D1*
X4217873Y746441D1*
X4210524Y747491D1*
X4206325Y748541D1*
X4200026Y751691D1*
X4193726Y757990D1*
Y759040D1*
X4191627Y762189D1*
X4190577Y765339D1*
X4189527Y769538D1*
X4188477Y789486D1*
X4180078D1*
G37*
G36*
X4210524Y726494D2*
X4202125Y724394D1*
X4193726Y720195D1*
X4190577Y718095D1*
X4185328Y712846D1*
X4182178Y708646D1*
X4180078Y704447D1*
X4179028Y701297D1*
X4177978Y697098D1*
Y681349D1*
X4179028Y676100D1*
X4180078Y672951D1*
X4181128Y670851D1*
X4182178Y667701D1*
X4183228Y665601D1*
X4185328Y663502D1*
X4197926D1*
X4193726Y668751D1*
X4189527Y675050D1*
X4188477Y677150D1*
X4187427Y680300D1*
X4186377Y681349D1*
Y696048D1*
X4187427Y697098D1*
X4189527Y701297D1*
X4191627Y704447D1*
X4191831Y705191D1*
X4192677Y706546D1*
X4194776Y707596D1*
X4196876Y709696D1*
X4203175Y712846D1*
X4206325Y713895D1*
X4211574Y714945D1*
X4218573Y715995D1*
X4225573D1*
X4232572Y714945D1*
X4236771Y713895D1*
X4239921Y712846D1*
X4248320Y708646D1*
X4253569Y703397D1*
Y702347D1*
X4255669Y698147D1*
X4256719Y693948D1*
X4257768Y692898D1*
Y685549D1*
X4256719Y684499D1*
X4255669Y679250D1*
X4254619Y677150D1*
X4253569Y674000D1*
X4251469Y670851D1*
X4246220Y664552D1*
Y663502D1*
X4258818D1*
X4261968Y669801D1*
X4265118Y679250D1*
X4266167Y686599D1*
Y691848D1*
X4265118Y699197D1*
X4263018Y705496D1*
X4260918Y709696D1*
X4257768Y713895D1*
X4254619Y717045D1*
X4250419Y720195D1*
X4244120Y723344D1*
X4237821Y725444D1*
X4232572Y726494D1*
X4210524D1*
G37*
G36*
X4045170Y638042D2*
Y597098D1*
X4001076Y595523D1*
Y582924D1*
X4045170Y581349D1*
Y540405D1*
X4057768D1*
Y581349D1*
X4100288Y582924D1*
Y595523D1*
X4057768Y597098D1*
Y638042D1*
X4045170D1*
G37*
G36*
X4048320Y1201822D2*
Y1156153D1*
X4062493D1*
Y1201822D1*
X4048320D1*
G37*
G36*
X1005013Y2842964D2*
Y2780365D1*
X1015643D1*
Y2785090D1*
X1016905Y2785878D1*
X1018005Y2786271D1*
X1021548Y2782727D1*
X1028635Y2779184D1*
X1032178Y2778003D1*
X1042808D1*
X1046351Y2779184D1*
X1051076Y2781546D1*
X1055800Y2786271D1*
X1058162Y2789814D1*
X1060524Y2794538D1*
X1061705Y2798082D1*
X1062887Y2802806D1*
X1064068Y2814617D1*
Y2815798D1*
X1062887Y2826428D1*
X1061705Y2831153D1*
X1060524Y2834696D1*
X1058162Y2839420D1*
X1054619Y2844145D1*
X1051076Y2847688D1*
X1047532Y2850050D1*
X1042808Y2852412D1*
X1039265Y2853594D1*
X1028635D1*
X1023910Y2852412D1*
X1020367Y2851231D1*
X1018005Y2850050D1*
X1016752Y2848767D1*
X1016141Y2848959D1*
X1015643Y2850050D1*
Y2879578D1*
X1005013D1*
Y2842964D1*
X1025091D1*
X1029422Y2844145D1*
X1033753D1*
X1038083Y2842964D1*
X1042808Y2840601D1*
X1048713Y2834696D1*
Y2833515D1*
X1049894Y2831153D1*
X1051076Y2826428D1*
X1052257Y2825247D1*
Y2806349D1*
X1051076Y2805168D1*
X1049894Y2800444D1*
X1048713Y2796901D1*
Y2795720D1*
X1045170Y2792176D1*
X1040446Y2789814D1*
X1036509Y2788633D1*
X1032572D1*
X1028635Y2789814D1*
X1025091Y2790995D1*
X1020367Y2793357D1*
X1019186Y2794538D1*
X1016824Y2795720D1*
X1015643Y2796901D1*
Y2839420D1*
X1018005Y2840601D1*
X1025091Y2842964D1*
X1005013D1*
G37*
G36*
X975485Y2878397D2*
Y2780365D1*
X986115D1*
Y2878397D1*
X975485D1*
G37*
G36*
X1077060D2*
Y2780365D1*
X1087690D1*
Y2878397D1*
X1077060D1*
G37*
G36*
X1209343Y2841783D2*
X1208955Y2840350D1*
X1208162Y2839420D1*
X1206981Y2837058D1*
X1204619Y2827609D1*
Y2807531D1*
X1205800Y2801625D1*
X1206981Y2798082D1*
X1210524Y2790995D1*
X1214068Y2786271D1*
X1216430Y2783909D1*
X1219973Y2781546D1*
X1224698Y2779184D1*
X1228241Y2778003D1*
X1238871D1*
X1243595Y2779184D1*
X1248320Y2781546D1*
X1249894Y2782727D1*
X1251469D1*
X1253044Y2781546D1*
Y2780365D1*
X1262493D1*
Y2878397D1*
X1251863D1*
Y2846507D1*
X1250423Y2845274D1*
X1249501Y2845326D1*
X1245957Y2848869D1*
X1238871Y2852412D1*
X1235328Y2853594D1*
X1224698D1*
X1221154Y2852412D1*
X1216430Y2850050D1*
X1211705Y2845326D1*
X1209343Y2841783D1*
X1227060D1*
X1230997Y2842964D1*
X1234934D1*
X1238871Y2841783D1*
X1242414Y2840601D1*
X1247139Y2838239D1*
X1248320Y2837058D1*
X1250682Y2835877D1*
X1251863Y2834696D1*
Y2792176D1*
X1247139Y2789814D1*
X1242414Y2788633D1*
X1238083Y2787452D1*
X1233753D1*
X1229422Y2788633D1*
X1224698Y2790995D1*
X1218792Y2796901D1*
Y2798082D1*
X1217611Y2801625D1*
X1216430Y2807531D1*
X1215249Y2808712D1*
Y2822885D1*
X1216430Y2824066D1*
X1217611Y2829972D1*
X1218792Y2833515D1*
X1219973Y2835877D1*
Y2837058D1*
X1222335Y2839420D1*
X1227060Y2841783D1*
X1209343D1*
G37*
G36*
X1352257Y2799263D2*
X1353438Y2800444D1*
X1355800Y2805168D1*
X1356981Y2809893D1*
Y2829972D1*
X1355800Y2834696D1*
X1352257Y2841783D1*
X1345170Y2848869D1*
X1340446Y2851231D1*
X1336902Y2852412D1*
X1327454D1*
X1323910Y2851231D1*
X1321548Y2850050D1*
X1320108Y2848818D1*
X1318739Y2848969D1*
X1317619Y2850337D1*
X1318005Y2851231D1*
X1308556D1*
Y2796901D1*
X1303044Y2795720D1*
X1297532D1*
X1292020Y2796901D1*
Y2799263D1*
X1290839Y2802806D1*
X1289658Y2808712D1*
X1288477Y2809893D1*
Y2832334D1*
X1289658Y2833515D1*
X1290839Y2839420D1*
X1292020Y2844145D1*
X1295564Y2851231D1*
X1297926Y2854775D1*
Y2855956D1*
X1303831Y2861861D1*
X1306194Y2863042D1*
X1307375Y2864224D1*
X1312099Y2866586D1*
X1315643Y2867767D1*
X1321548Y2868948D1*
X1327060Y2870129D1*
X1332572D1*
X1338083Y2868948D1*
X1346351Y2866586D1*
X1349894Y2865405D1*
X1352257Y2864224D1*
X1353438Y2863042D1*
X1355800Y2861861D1*
X1365249Y2852412D1*
Y2851231D1*
X1367611Y2847688D1*
X1369973Y2842964D1*
X1372335Y2835877D1*
X1373517Y2828790D1*
X1374698Y2827609D1*
Y2815798D1*
X1373517Y2814617D1*
X1372335Y2806349D1*
X1369973Y2799263D1*
X1367611Y2794538D1*
X1365249Y2790995D1*
Y2789814D1*
X1358162Y2782727D1*
X1355800Y2781546D1*
X1354619Y2780365D1*
X1347532Y2776822D1*
X1343989Y2775641D1*
X1339265Y2774460D1*
X1332178Y2773279D1*
X1325091D1*
X1310918Y2775641D1*
X1309737D1*
Y2768554D1*
X1310918Y2767373D1*
X1319186Y2766192D1*
X1338083D1*
X1343989Y2767373D1*
X1351076Y2769735D1*
X1358162Y2773279D1*
X1361705Y2775641D1*
X1371154Y2785090D1*
X1375879Y2792176D1*
X1377060Y2794538D1*
X1378241Y2798082D1*
X1379422Y2800444D1*
X1380603Y2803987D1*
X1381784Y2809893D1*
Y2833515D1*
X1380603Y2838239D1*
X1378241Y2845326D1*
X1375879Y2850050D1*
X1371154Y2857137D1*
X1360524Y2867767D1*
X1356981Y2870129D1*
X1347532Y2874853D1*
X1342808Y2876035D1*
X1336902Y2877216D1*
X1322729D1*
X1316824Y2876035D1*
X1312099Y2874853D1*
X1302650Y2870129D1*
X1299107Y2867767D1*
X1293202Y2861861D1*
X1289658Y2857137D1*
X1283753Y2845326D1*
X1281391Y2835877D1*
X1280209Y2825247D1*
Y2819342D1*
X1281391Y2809893D1*
X1282572Y2805168D1*
X1284934Y2798082D1*
X1288477Y2790995D1*
X1289658Y2789814D1*
X1315643D1*
X1316824Y2792176D1*
Y2795720D1*
X1318086Y2796508D1*
X1319186Y2796901D1*
X1322729Y2793357D1*
X1326272Y2790995D1*
X1330997Y2789814D1*
X1340446D1*
X1343989Y2790995D1*
X1347532Y2793357D1*
X1352257Y2798082D1*
Y2799263D1*
X1338083D1*
X1334934Y2798082D1*
X1331784D1*
X1328635Y2799263D1*
X1325091Y2800444D1*
X1322729Y2801625D1*
X1321548Y2802806D1*
X1319186Y2803987D1*
X1318005Y2805168D1*
Y2839420D1*
X1319186Y2840601D1*
X1321548Y2841783D1*
X1325091Y2842964D1*
X1329028Y2844145D1*
X1332965D1*
X1336902Y2842964D1*
X1339265Y2841783D1*
X1345170Y2835877D1*
Y2834696D1*
X1346351Y2831153D1*
X1347532Y2829972D1*
Y2811074D1*
X1346351Y2809893D1*
X1345170Y2806349D1*
X1343989Y2803987D1*
X1343601Y2802554D1*
X1342808Y2801625D1*
X1338083Y2799263D1*
X1352257D1*
G37*
G36*
X1105406Y2874853D2*
Y2863042D1*
X1118398D1*
Y2874853D1*
X1105406D1*
G37*
G36*
X832572Y2842964D2*
Y2779184D1*
X833753Y2773279D1*
X834934Y2769735D1*
X837296Y2765011D1*
X840839Y2760287D1*
X845564Y2756743D1*
X847926Y2755562D1*
X851469Y2754381D1*
X857375Y2753200D1*
X872729D1*
X878635Y2754381D1*
X883359Y2755562D1*
X884540Y2756743D1*
Y2767373D1*
X883359D1*
X870367Y2763830D1*
X865643Y2762649D1*
X860918D1*
X856194Y2763830D1*
X852650Y2765011D1*
X847926Y2767373D1*
X846525Y2768701D1*
X846745Y2769735D1*
X845564Y2772098D1*
X844383Y2775641D1*
X843202Y2776822D1*
Y2788633D1*
X844084Y2789391D1*
X844696Y2789322D1*
X845564Y2788633D1*
X847926Y2786271D1*
X855013Y2782727D1*
X858556Y2781546D1*
X870367D1*
X873910Y2782727D1*
X878635Y2785090D1*
X885721Y2792176D1*
X888083Y2796901D1*
X890446Y2803987D1*
X891627Y2815798D1*
Y2816979D1*
X890446Y2827609D1*
X888083Y2834696D1*
X885721Y2839420D1*
X883359Y2842964D1*
X877454Y2848869D1*
X870367Y2852412D1*
X866824Y2853594D1*
X856194D1*
X851469Y2852412D1*
X846745Y2850050D1*
X845305Y2848818D1*
X843935Y2848969D1*
X842816Y2850337D1*
X843202Y2851231D1*
X832572D1*
Y2842964D1*
X852650D1*
X856981Y2844145D1*
X861312D1*
X865643Y2842964D1*
X869186Y2841783D1*
X870367Y2840601D1*
X872729Y2839420D1*
X873681Y2837895D1*
X873910Y2837058D1*
X876272Y2833515D1*
X877454Y2831153D1*
X878635Y2826428D1*
X879816Y2825247D1*
Y2807531D1*
X878635Y2806349D1*
X877454Y2801625D1*
X876272Y2799263D1*
Y2798082D1*
X871548Y2793357D1*
X868005Y2792176D1*
X864068Y2790995D1*
X860131D1*
X856194Y2792176D1*
X852650Y2793357D1*
X845564Y2796901D1*
X843202Y2799263D1*
Y2839420D1*
X845564Y2840601D1*
X852650Y2842964D1*
X832572D1*
G37*
G36*
X906981D2*
Y2841783D1*
X904619Y2839420D1*
X902257Y2834696D1*
X901076Y2831153D1*
X899894Y2825247D1*
Y2806349D1*
X901076Y2800444D1*
X902257Y2796901D1*
X904619Y2792176D1*
X906981Y2788633D1*
X911705Y2783909D1*
X915249Y2781546D1*
X919973Y2779184D1*
X924698Y2778003D1*
X936509D1*
X941233Y2779184D1*
X948320Y2782727D1*
X955406Y2789814D1*
X960131Y2799263D1*
X961312Y2803987D1*
Y2827609D1*
X960131Y2832334D1*
X955406Y2841783D1*
X948320Y2848869D1*
X941233Y2852412D1*
X936509Y2853594D1*
X924698D1*
X919973Y2852412D1*
X915249Y2850050D1*
X911705Y2847688D1*
X906981Y2842964D1*
X924698D1*
X928635Y2844145D1*
X932572D1*
X936509Y2842964D1*
X940052Y2841783D1*
X942414Y2840601D1*
X945957Y2837058D1*
Y2835877D1*
X948320Y2831153D1*
X949501Y2826428D1*
X950682Y2825247D1*
Y2806349D1*
X949501Y2805168D1*
X948320Y2800444D1*
X945957Y2795720D1*
Y2794538D1*
X943595Y2792176D1*
X941233Y2790995D1*
X940052Y2789814D1*
X936509Y2788633D1*
X932572Y2787452D1*
X928635D1*
X924698Y2788633D1*
X919973Y2790995D1*
X914068Y2796901D1*
Y2798082D1*
X912887Y2801625D1*
X911705Y2808712D1*
X910524Y2809893D1*
Y2821704D1*
X911705Y2822885D1*
X912887Y2829972D1*
X914068Y2833515D1*
Y2834696D1*
X921154Y2841783D1*
X924698Y2842964D1*
X906981D1*
G37*
G36*
X1106587Y2851231D2*
Y2780365D1*
X1117217D1*
Y2851231D1*
X1106587D1*
G37*
G36*
X1136115D2*
Y2780365D1*
X1146745D1*
Y2786271D1*
X1147627Y2787029D1*
X1148239Y2786960D1*
X1149107Y2786271D1*
X1153831Y2782727D1*
X1160918Y2779184D1*
X1164461Y2778003D1*
X1173910D1*
X1177454Y2779184D1*
X1182178Y2781546D1*
X1186902Y2786271D1*
X1189265Y2790995D1*
X1190446Y2794538D1*
X1191627Y2801625D1*
Y2851231D1*
X1180997D1*
X1179816Y2803987D1*
X1178635Y2796901D1*
Y2794538D1*
X1175091Y2790995D1*
X1172729Y2789814D1*
X1168792Y2788633D1*
X1164855D1*
X1160918Y2789814D1*
X1157375Y2790995D1*
X1152650Y2793357D1*
X1151469Y2794538D1*
X1149107Y2795720D1*
X1146745Y2798082D1*
Y2851231D1*
X1136115D1*
G37*
G36*
X1413674Y2713042D2*
X1408950Y2708318D1*
X1401863Y2697688D1*
X1394776Y2683515D1*
X1392414Y2676428D1*
X1391233Y2671704D1*
X1390052Y2664617D1*
Y2637452D1*
X1391233Y2630365D1*
X1392414Y2625641D1*
X1394776Y2618554D1*
X1401863Y2604381D1*
X1404225Y2600838D1*
X1405406Y2598475D1*
X1408950Y2593751D1*
X1413674Y2589027D1*
X1426666D1*
X1419580Y2597294D1*
X1414855Y2603200D1*
X1412493Y2606743D1*
X1406587Y2618554D1*
X1403044Y2629184D1*
X1401863Y2633909D1*
X1400682Y2642176D1*
X1399501Y2643357D1*
Y2658712D1*
X1400682Y2659893D1*
X1401863Y2668161D1*
X1403044Y2672885D1*
X1406587Y2683515D1*
X1412493Y2695326D1*
X1419580Y2704775D1*
X1426666Y2713042D1*
X1413674D1*
G37*
G36*
X1497532D2*
X1506981Y2703594D1*
Y2702412D1*
X1510524Y2697688D1*
X1511705Y2695326D1*
X1514068Y2691783D1*
X1517611Y2684696D1*
X1521154Y2674066D1*
X1522335Y2669342D1*
X1523517Y2663436D1*
X1524698Y2662255D1*
Y2639814D1*
X1523517Y2638633D1*
X1522335Y2632727D1*
X1521154Y2628003D1*
X1517611Y2617373D1*
X1514068Y2610287D1*
X1511705Y2606743D1*
X1510524Y2604381D1*
X1506981Y2599657D1*
X1497532Y2589027D1*
X1511705D1*
X1512887Y2590208D1*
X1519973Y2599657D1*
X1521154Y2602019D1*
X1523517Y2605562D1*
X1529422Y2617373D1*
X1531784Y2624460D1*
X1532965Y2629184D1*
X1534146Y2635090D1*
X1535328Y2646901D1*
Y2655168D1*
X1534146Y2666979D1*
X1532965Y2672885D1*
X1531784Y2677609D1*
X1529422Y2684696D1*
X1523517Y2696507D1*
X1521154Y2700050D1*
X1519973Y2702412D1*
X1512887Y2711861D1*
X1511705Y2713042D1*
X1497532D1*
G37*
G36*
X756981Y2701231D2*
X756593Y2699798D1*
X755800Y2698869D1*
X752257Y2691783D1*
X751076Y2687058D1*
X749894Y2681153D1*
X748713Y2670523D1*
Y2653987D1*
X749894Y2643357D1*
X751076Y2637452D1*
X752257Y2632727D1*
X753438Y2629184D1*
X755800Y2624460D1*
X764068Y2616192D1*
X768792Y2613830D1*
X773517Y2612649D1*
X784146D1*
X788871Y2613830D1*
X795957Y2617373D1*
X799501Y2620916D1*
X801863Y2624460D1*
X805406Y2631546D1*
X807768Y2640995D1*
X808950Y2649263D1*
Y2675247D1*
X807768Y2683515D1*
X806587Y2689420D1*
X805406Y2692964D1*
X801863Y2700050D1*
X799501Y2703594D1*
X795957Y2707137D1*
X788871Y2710680D1*
X784146Y2711861D1*
X773517D1*
X768792Y2710680D1*
X764068Y2708318D1*
X756981Y2701231D1*
X773517D1*
X777060Y2702412D1*
X780603D1*
X787690Y2700050D1*
X792414Y2695326D1*
Y2694145D1*
X793595Y2691783D1*
X794776Y2688239D1*
X795957Y2681153D1*
X797139Y2679972D1*
Y2644538D1*
X795957Y2643357D1*
X794776Y2636271D1*
X793595Y2632727D1*
X792414Y2630365D1*
Y2629184D1*
X787690Y2624460D1*
X780603Y2622098D1*
X777060D1*
X773517Y2623279D1*
X768792Y2625641D1*
X766430Y2628003D1*
Y2629184D1*
X764068Y2633909D1*
X762887Y2638633D1*
X761705Y2648082D1*
X760524Y2649263D1*
Y2675247D1*
X761705Y2676428D1*
X762887Y2685877D1*
X764068Y2690601D1*
X766430Y2695326D1*
Y2696507D1*
X768792Y2698869D1*
X773517Y2701231D1*
X756981D1*
G37*
G36*
X893989Y2711861D2*
X889265Y2710680D1*
X882178Y2707137D1*
X877454Y2702412D1*
X875091Y2698869D1*
X872729Y2691783D1*
Y2679972D1*
X873910Y2675247D1*
X875091Y2671704D1*
X878635Y2664617D1*
X880997Y2661074D1*
X884540Y2656349D1*
X915249Y2625641D1*
X869186Y2624460D1*
Y2615011D1*
X927060D1*
Y2626822D1*
X902257Y2652806D1*
X896351Y2659893D1*
X891627Y2665798D1*
X889265Y2669342D1*
X886902Y2674066D1*
X885721Y2678790D1*
X884540Y2679972D1*
Y2690601D1*
X885721Y2691783D1*
Y2694145D1*
X890446Y2698869D1*
X895170Y2701231D1*
X899501Y2702412D1*
X903831D1*
X908162Y2701231D1*
X912887Y2700050D1*
X916430Y2698869D1*
X921154Y2696507D1*
X922335Y2695326D1*
X924698Y2694145D1*
Y2705956D1*
X923517Y2707137D1*
X921154Y2708318D1*
X917611Y2709499D1*
X912887Y2710680D1*
X906981Y2711861D1*
X893989D1*
G37*
G36*
X1067611Y2701231D2*
X1067223Y2699798D1*
X1066430Y2698869D1*
X1062887Y2691783D1*
X1061705Y2687058D1*
X1060524Y2681153D1*
X1059343Y2670523D1*
Y2653987D1*
X1060524Y2643357D1*
X1061705Y2637452D1*
X1062887Y2632727D1*
X1064068Y2629184D1*
X1066430Y2624460D1*
X1074698Y2616192D1*
X1079422Y2613830D1*
X1084146Y2612649D1*
X1094776D1*
X1099501Y2613830D1*
X1106587Y2617373D1*
X1110131Y2620916D1*
X1112493Y2624460D1*
X1116036Y2631546D1*
X1118398Y2640995D1*
X1119580Y2649263D1*
Y2675247D1*
X1118398Y2683515D1*
X1117217Y2689420D1*
X1116036Y2692964D1*
X1112493Y2700050D1*
X1110131Y2703594D1*
X1106587Y2707137D1*
X1099501Y2710680D1*
X1094776Y2711861D1*
X1084146D1*
X1079422Y2710680D1*
X1074698Y2708318D1*
X1067611Y2701231D1*
X1084146D1*
X1087690Y2702412D1*
X1091233D1*
X1098320Y2700050D1*
X1103044Y2695326D1*
Y2694145D1*
X1104225Y2691783D1*
X1105406Y2688239D1*
X1106587Y2681153D1*
X1107768Y2679972D1*
Y2644538D1*
X1106587Y2643357D1*
X1105406Y2636271D1*
X1104225Y2632727D1*
X1103044Y2630365D1*
Y2629184D1*
X1098320Y2624460D1*
X1091233Y2622098D1*
X1087690D1*
X1084146Y2623279D1*
X1079422Y2625641D1*
X1077060Y2628003D1*
Y2629184D1*
X1074698Y2633909D1*
X1073517Y2638633D1*
X1072335Y2648082D1*
X1071154Y2649263D1*
Y2675247D1*
X1072335Y2676428D1*
X1073517Y2685877D1*
X1074698Y2690601D1*
X1077060Y2695326D1*
Y2696507D1*
X1079422Y2698869D1*
X1084146Y2701231D1*
X1067611D1*
G37*
G36*
X1157375Y2711861D2*
X1152650Y2710680D1*
X1145564Y2707137D1*
X1140839Y2702412D1*
X1138477Y2698869D1*
X1136115Y2691783D1*
Y2679972D1*
X1137296Y2675247D1*
X1138477Y2671704D1*
X1142020Y2664617D1*
X1144383Y2661074D1*
X1147926Y2656349D1*
X1178635Y2625641D1*
X1132572Y2624460D1*
Y2615011D1*
X1190446D1*
Y2626822D1*
X1165643Y2652806D1*
X1159737Y2659893D1*
X1155013Y2665798D1*
X1152650Y2669342D1*
X1150288Y2674066D1*
X1149107Y2678790D1*
X1147926Y2679972D1*
Y2690601D1*
X1149107Y2691783D1*
Y2694145D1*
X1153831Y2698869D1*
X1158556Y2701231D1*
X1162887Y2702412D1*
X1167217D1*
X1171548Y2701231D1*
X1176272Y2700050D1*
X1179816Y2698869D1*
X1184540Y2696507D1*
X1185721Y2695326D1*
X1188083Y2694145D1*
Y2705956D1*
X1186902Y2707137D1*
X1184540Y2708318D1*
X1180997Y2709499D1*
X1176272Y2710680D1*
X1170367Y2711861D1*
X1157375D1*
G37*
G36*
X1211705Y2701231D2*
X1211317Y2699798D1*
X1210524Y2698869D1*
X1206981Y2691783D1*
X1205800Y2687058D1*
X1204619Y2681153D1*
X1203438Y2670523D1*
Y2653987D1*
X1204619Y2643357D1*
X1205800Y2637452D1*
X1206981Y2632727D1*
X1208162Y2629184D1*
X1210524Y2624460D1*
X1218792Y2616192D1*
X1223517Y2613830D1*
X1228241Y2612649D1*
X1238871D1*
X1243595Y2613830D1*
X1250682Y2617373D1*
X1254225Y2620916D1*
X1256587Y2624460D1*
X1260131Y2631546D1*
X1262493Y2640995D1*
X1263674Y2649263D1*
Y2675247D1*
X1262493Y2683515D1*
X1261312Y2689420D1*
X1260131Y2692964D1*
X1256587Y2700050D1*
X1254225Y2703594D1*
X1250682Y2707137D1*
X1243595Y2710680D1*
X1238871Y2711861D1*
X1228241D1*
X1223517Y2710680D1*
X1218792Y2708318D1*
X1211705Y2701231D1*
X1228241D1*
X1231784Y2702412D1*
X1235328D1*
X1242414Y2700050D1*
X1247139Y2695326D1*
Y2694145D1*
X1248320Y2691783D1*
X1249501Y2688239D1*
X1250682Y2681153D1*
X1251863Y2679972D1*
Y2644538D1*
X1250682Y2643357D1*
X1249501Y2636271D1*
X1248320Y2632727D1*
X1247139Y2630365D1*
Y2629184D1*
X1242414Y2624460D1*
X1235328Y2622098D1*
X1231784D1*
X1228241Y2623279D1*
X1223517Y2625641D1*
X1221154Y2628003D1*
Y2629184D1*
X1218792Y2633909D1*
X1217611Y2638633D1*
X1216430Y2648082D1*
X1215249Y2649263D1*
Y2675247D1*
X1216430Y2676428D1*
X1217611Y2685877D1*
X1218792Y2690601D1*
X1221154Y2695326D1*
Y2696507D1*
X1223517Y2698869D1*
X1228241Y2701231D1*
X1211705D1*
G37*
G36*
X1301469Y2711861D2*
X1296745Y2710680D1*
X1289658Y2707137D1*
X1284934Y2702412D1*
X1282572Y2698869D1*
X1280209Y2691783D1*
Y2679972D1*
X1281391Y2675247D1*
X1282572Y2671704D1*
X1286115Y2664617D1*
X1288477Y2661074D1*
X1292020Y2656349D1*
X1322729Y2625641D1*
X1276666Y2624460D1*
Y2615011D1*
X1334540D1*
Y2626822D1*
X1309737Y2652806D1*
X1303831Y2659893D1*
X1299107Y2665798D1*
X1296745Y2669342D1*
X1294383Y2674066D1*
X1293202Y2678790D1*
X1292020Y2679972D1*
Y2690601D1*
X1293202Y2691783D1*
Y2694145D1*
X1297926Y2698869D1*
X1302650Y2701231D1*
X1306981Y2702412D1*
X1311312D1*
X1315643Y2701231D1*
X1320367Y2700050D1*
X1323910Y2698869D1*
X1328635Y2696507D1*
X1329816Y2695326D1*
X1332178Y2694145D1*
Y2705956D1*
X1330997Y2707137D1*
X1328635Y2708318D1*
X1325091Y2709499D1*
X1320367Y2710680D1*
X1314461Y2711861D1*
X1301469D1*
G37*
G36*
X699107Y2709499D2*
Y2624460D1*
X682572Y2623279D1*
Y2615011D1*
X727454D1*
Y2623279D1*
X710918Y2624460D1*
Y2688239D1*
X727454Y2689420D1*
Y2696507D1*
X719186Y2697688D1*
X715643Y2698869D1*
X710918Y2701231D1*
Y2702412D1*
X708556Y2709499D1*
X699107D1*
G37*
G36*
X962493D2*
Y2624460D1*
X945957Y2623279D1*
Y2615011D1*
X990839D1*
Y2623279D1*
X974304Y2624460D1*
Y2688239D1*
X990839Y2689420D1*
Y2696507D1*
X982572Y2697688D1*
X979028Y2698869D1*
X974304Y2701231D1*
Y2702412D1*
X971942Y2709499D1*
X962493D1*
G37*
G36*
X1450288Y2688239D2*
X1445564Y2687058D1*
X1438477Y2684696D1*
X1436115Y2683515D1*
Y2670523D1*
X1439658Y2672885D1*
X1440839Y2674066D1*
X1443202Y2675247D1*
X1450288Y2677609D1*
X1454225Y2678790D1*
X1458162D1*
X1462099Y2677609D1*
X1465643Y2676428D1*
X1468005Y2675247D1*
X1472729Y2670523D1*
Y2669342D1*
X1475091Y2664617D1*
X1476272Y2659893D1*
X1477454Y2658712D1*
Y2642176D1*
X1476272Y2640995D1*
X1473910Y2633909D1*
Y2632727D1*
X1468005Y2626822D1*
X1465643Y2625641D1*
X1462099Y2624460D1*
X1457768Y2623279D1*
X1453438D1*
X1449107Y2624460D1*
X1445564Y2625641D1*
X1438477Y2629184D1*
X1436115Y2631546D1*
Y2618554D1*
X1438477Y2617373D1*
X1445564Y2615011D1*
X1450288Y2613830D1*
X1462099D1*
X1466824Y2615011D1*
X1470367Y2616192D1*
X1475091Y2618554D1*
X1482178Y2625641D1*
X1484540Y2629184D1*
X1485721Y2631546D1*
X1486902Y2635090D1*
X1488083Y2639814D1*
Y2662255D1*
X1485721Y2669342D1*
X1483359Y2674066D1*
X1480997Y2677609D1*
X1476272Y2682334D1*
X1472729Y2684696D1*
X1470367Y2685877D1*
X1466824Y2687058D1*
X1462099Y2688239D1*
X1450288D1*
G37*
G36*
X820761Y2661074D2*
Y2650444D1*
X856194D1*
Y2661074D1*
X820761D1*
G37*
G36*
X1012099D2*
Y2650444D1*
X1047532D1*
Y2661074D1*
X1012099D1*
G37*
G36*
X1968792Y1464617D2*
Y1402019D1*
X1979422D1*
Y1406743D1*
X1980684Y1407532D1*
X1981784Y1407924D1*
X1985328Y1404381D1*
X1992414Y1400838D1*
X1995957Y1399657D1*
X2006587D1*
X2010131Y1400838D1*
X2014855Y1403200D1*
X2019580Y1407924D1*
X2021942Y1411468D1*
X2024304Y1416192D1*
X2025485Y1419735D1*
X2026666Y1424460D1*
X2027847Y1436271D1*
Y1437452D1*
X2026666Y1448082D1*
X2025485Y1452806D1*
X2024304Y1456349D1*
X2021942Y1461074D1*
X2018398Y1465798D1*
X2014855Y1469342D1*
X2011312Y1471704D1*
X2006587Y1474066D1*
X2003044Y1475247D1*
X1992414D1*
X1987690Y1474066D1*
X1984146Y1472885D1*
X1981784Y1471704D1*
X1980532Y1470421D1*
X1979920Y1470613D1*
X1979422Y1471704D1*
Y1501231D1*
X1968792D1*
Y1464617D1*
X1988871D1*
X1993202Y1465798D1*
X1997532D1*
X2001863Y1464617D1*
X2006587Y1462255D1*
X2012493Y1456349D1*
Y1455168D1*
X2013674Y1452806D1*
X2014855Y1448082D1*
X2016036Y1446901D1*
Y1428003D1*
X2014855Y1426822D1*
X2013674Y1422098D1*
X2012493Y1418554D1*
Y1417373D1*
X2008950Y1413830D1*
X2004225Y1411468D1*
X2000288Y1410287D1*
X1996351D1*
X1992414Y1411468D1*
X1988871Y1412649D1*
X1984146Y1415011D1*
X1982965Y1416192D1*
X1980603Y1417373D1*
X1979422Y1418554D1*
Y1461074D1*
X1981784Y1462255D1*
X1988871Y1464617D1*
X1968792D1*
G37*
G36*
X1153831Y1500050D2*
Y1402019D1*
X1164461D1*
Y1500050D1*
X1153831D1*
G37*
G36*
X1183359D2*
Y1402019D1*
X1193989D1*
Y1500050D1*
X1183359D1*
G37*
G36*
X869186Y1498869D2*
X864461Y1497688D1*
X857375Y1494145D1*
X852650Y1489420D1*
X850288Y1485877D1*
X847926Y1478790D1*
Y1466979D1*
X849107Y1462255D1*
X850288Y1458712D1*
X853831Y1451625D1*
X856194Y1448082D1*
X859737Y1443357D1*
X890446Y1412649D1*
X844383Y1411468D1*
Y1402019D1*
X902257D1*
Y1413830D1*
X877454Y1439814D1*
X871548Y1446901D1*
X866824Y1452806D1*
X864461Y1456349D1*
X862099Y1461074D1*
X860918Y1465798D1*
X859737Y1466979D1*
Y1477609D1*
X860918Y1478790D1*
Y1481153D1*
X865643Y1485877D1*
X870367Y1488239D1*
X874698Y1489420D1*
X879028D1*
X883359Y1488239D1*
X888083Y1487058D1*
X891627Y1485877D1*
X896351Y1483515D1*
X897532Y1482334D1*
X899894Y1481153D1*
Y1492964D1*
X898713Y1494145D1*
X896351Y1495326D1*
X892808Y1496507D1*
X888083Y1497688D1*
X882178Y1498869D1*
X869186D1*
G37*
G36*
X1534146D2*
X1528241Y1497688D1*
X1523517Y1496507D1*
X1517611Y1494145D1*
X1512887Y1491783D1*
Y1476428D1*
X1519973Y1482334D1*
X1521154Y1483515D1*
X1525879Y1485877D1*
X1529422Y1487058D1*
X1538871Y1489420D1*
X1543595D1*
X1548320Y1488239D1*
X1551863Y1487058D1*
X1556587Y1484696D1*
X1557768Y1483515D1*
X1560131Y1482334D1*
X1563674Y1478790D1*
Y1477609D1*
X1566036Y1474066D1*
X1567217Y1471704D1*
X1569580Y1464617D1*
X1570761Y1458712D1*
X1571942Y1457531D1*
Y1440995D1*
X1570761Y1439814D1*
X1569580Y1433909D1*
X1568398Y1429184D1*
X1566036Y1424460D1*
X1563674Y1420916D1*
Y1419735D1*
X1558950Y1415011D1*
X1551863Y1411468D1*
X1548320Y1410287D1*
X1543595Y1409105D1*
X1538871D1*
X1529422Y1411468D1*
X1525879Y1412649D1*
X1521154Y1415011D1*
X1519973Y1416192D1*
X1512887Y1422098D1*
Y1407924D1*
X1514068Y1406743D1*
X1521154Y1403200D1*
X1528241Y1400838D1*
X1534146Y1399657D1*
X1548320D1*
X1554225Y1400838D1*
X1557768Y1402019D1*
X1564855Y1405562D1*
X1569580Y1409105D1*
X1571942Y1411468D1*
X1575485Y1416192D1*
X1577847Y1419735D1*
X1579028Y1423279D1*
X1580209Y1425641D1*
X1582572Y1432727D1*
X1583753Y1439814D1*
Y1458712D1*
X1582572Y1464617D1*
X1581391Y1469342D1*
X1580209Y1472885D1*
X1576666Y1479972D1*
X1574304Y1483515D1*
X1566036Y1491783D1*
X1562493Y1494145D1*
X1560131Y1495326D1*
X1553044Y1497688D1*
X1548320Y1498869D1*
X1534146D1*
G37*
G36*
X1643989Y1488239D2*
X1643601Y1486806D1*
X1642808Y1485877D1*
X1639265Y1478790D1*
X1638083Y1475247D1*
X1636902Y1470523D1*
X1635721Y1459893D1*
Y1450444D1*
X1636902Y1439814D1*
X1638083Y1433909D1*
X1639265Y1429184D1*
X1640446Y1425641D1*
X1645170Y1416192D1*
X1648713Y1411468D1*
X1652257Y1407924D1*
X1659343Y1403200D1*
X1661705Y1402019D1*
X1665249Y1400838D1*
X1671154Y1399657D1*
X1685328D1*
X1688871Y1400838D1*
Y1411468D1*
X1687690D1*
X1684146Y1410287D1*
X1679422Y1409105D1*
X1674698D1*
X1665249Y1411468D1*
X1662887Y1412649D1*
X1661705Y1413830D1*
X1659343Y1415011D1*
X1654619Y1419735D1*
Y1420916D1*
X1651076Y1428003D1*
X1649894Y1432727D1*
X1648713Y1433909D1*
Y1440995D1*
X1649975Y1441784D1*
X1651076Y1442176D1*
X1653438Y1439814D1*
X1655800Y1438633D1*
X1662887Y1436271D1*
X1674698D1*
X1679422Y1437452D1*
X1686509Y1440995D1*
X1692414Y1446901D1*
X1694776Y1451625D1*
X1695957Y1455168D1*
X1697139Y1459893D1*
Y1471704D1*
X1695957Y1476428D1*
X1694776Y1479972D1*
X1691233Y1487058D1*
X1684146Y1494145D1*
X1677060Y1497688D1*
X1672335Y1498869D1*
X1661705D1*
X1656981Y1497688D1*
X1649894Y1494145D1*
X1643989Y1488239D1*
X1661705D1*
X1665643Y1489420D1*
X1669580D1*
X1673517Y1488239D1*
X1678241Y1485877D1*
X1681784Y1482334D1*
Y1481153D1*
X1682965Y1478790D1*
X1684146Y1474066D1*
X1685328Y1472885D1*
Y1459893D1*
X1684146Y1458712D1*
X1682965Y1455168D1*
Y1453987D1*
X1678241Y1449263D1*
X1673517Y1446901D1*
X1668792Y1445720D1*
X1664068D1*
X1659343Y1446901D1*
X1652257Y1449263D1*
X1649894Y1450444D1*
X1647532Y1452806D1*
Y1464617D1*
X1648713Y1465798D1*
X1649894Y1472885D1*
X1651076Y1476428D1*
X1653438Y1481153D1*
Y1482334D1*
X1656981Y1485877D1*
X1661705Y1488239D1*
X1643989D1*
G37*
G36*
X1716036D2*
X1715648Y1486806D1*
X1714855Y1485877D1*
X1711312Y1478790D1*
X1710131Y1474066D1*
X1708950Y1468161D1*
X1707768Y1457531D1*
Y1440995D1*
X1708950Y1430365D1*
X1710131Y1424460D1*
X1711312Y1419735D1*
X1712493Y1416192D1*
X1714855Y1411468D1*
X1723123Y1403200D1*
X1727847Y1400838D1*
X1732572Y1399657D1*
X1743202D1*
X1747926Y1400838D1*
X1755013Y1404381D1*
X1758556Y1407924D1*
X1760918Y1411468D1*
X1764461Y1418554D1*
X1766824Y1428003D1*
X1768005Y1436271D1*
Y1462255D1*
X1766824Y1470523D1*
X1765643Y1476428D1*
X1764461Y1479972D1*
X1760918Y1487058D1*
X1758556Y1490601D1*
X1755013Y1494145D1*
X1747926Y1497688D1*
X1743202Y1498869D1*
X1732572D1*
X1727847Y1497688D1*
X1723123Y1495326D1*
X1716036Y1488239D1*
X1732572D1*
X1736115Y1489420D1*
X1739658D1*
X1746745Y1487058D1*
X1751469Y1482334D1*
Y1481153D1*
X1752650Y1478790D1*
X1753831Y1475247D1*
X1755013Y1468161D1*
X1756194Y1466979D1*
Y1431546D1*
X1755013Y1430365D1*
X1753831Y1423279D1*
X1752650Y1419735D1*
X1751469Y1417373D1*
Y1416192D1*
X1746745Y1411468D1*
X1739658Y1409105D1*
X1736115D1*
X1732572Y1410287D1*
X1727847Y1412649D1*
X1725485Y1415011D1*
Y1416192D1*
X1723123Y1420916D1*
X1721942Y1425641D1*
X1720761Y1435090D1*
X1719580Y1436271D1*
Y1462255D1*
X1720761Y1463436D1*
X1721942Y1472885D1*
X1723123Y1477609D1*
X1725485Y1482334D1*
Y1483515D1*
X1727847Y1485877D1*
X1732572Y1488239D1*
X1716036D1*
G37*
G36*
X1805800Y1498869D2*
X1801076Y1497688D1*
X1793989Y1494145D1*
X1789265Y1489420D1*
X1786902Y1485877D1*
X1784540Y1478790D1*
Y1466979D1*
X1785721Y1462255D1*
X1786902Y1458712D1*
X1790446Y1451625D1*
X1792808Y1448082D1*
X1796351Y1443357D1*
X1827060Y1412649D1*
X1780997Y1411468D1*
Y1402019D1*
X1838871D1*
Y1413830D1*
X1814068Y1439814D1*
X1808162Y1446901D1*
X1803438Y1452806D1*
X1801076Y1456349D1*
X1798713Y1461074D1*
X1797532Y1465798D1*
X1796351Y1466979D1*
Y1477609D1*
X1797532Y1478790D1*
Y1481153D1*
X1802257Y1485877D1*
X1806981Y1488239D1*
X1811312Y1489420D1*
X1815643D1*
X1819973Y1488239D1*
X1824698Y1487058D1*
X1828241Y1485877D1*
X1832965Y1483515D1*
X1834146Y1482334D1*
X1836509Y1481153D1*
Y1492964D1*
X1835328Y1494145D1*
X1832965Y1495326D1*
X1829422Y1496507D1*
X1824698Y1497688D1*
X1818792Y1498869D1*
X1805800D1*
G37*
G36*
X1877847D2*
X1873123Y1497688D1*
X1866036Y1494145D1*
X1861312Y1489420D1*
X1858950Y1485877D1*
X1856587Y1478790D1*
Y1466979D1*
X1857768Y1462255D1*
X1858950Y1458712D1*
X1862493Y1451625D1*
X1864855Y1448082D1*
X1868398Y1443357D1*
X1899107Y1412649D1*
X1853044Y1411468D1*
Y1402019D1*
X1910918D1*
Y1413830D1*
X1886115Y1439814D1*
X1880209Y1446901D1*
X1875485Y1452806D1*
X1873123Y1456349D1*
X1870761Y1461074D1*
X1869580Y1465798D1*
X1868398Y1466979D1*
Y1477609D1*
X1869580Y1478790D1*
Y1481153D1*
X1874304Y1485877D1*
X1879028Y1488239D1*
X1883359Y1489420D1*
X1887690D1*
X1892020Y1488239D1*
X1896745Y1487058D1*
X1900288Y1485877D1*
X1905013Y1483515D1*
X1906194Y1482334D1*
X1908556Y1481153D1*
Y1492964D1*
X1907375Y1494145D1*
X1905013Y1495326D1*
X1901469Y1496507D1*
X1896745Y1497688D1*
X1890839Y1498869D1*
X1877847D1*
G37*
G36*
X2192020Y1488239D2*
X2187296Y1483515D1*
X2184934Y1479972D1*
X2182572Y1475247D1*
X2180209Y1468161D1*
X2179028Y1463436D1*
X2177847Y1455168D1*
Y1443357D1*
X2179028Y1435090D1*
X2180209Y1430365D1*
X2182572Y1423279D1*
X2184934Y1418554D1*
X2187296Y1415011D1*
X2195564Y1406743D1*
X2199107Y1404381D1*
X2201469Y1403200D1*
X2205013Y1402019D1*
Y1397294D1*
X2203831Y1396113D1*
X2202650Y1392570D1*
X2202262Y1391137D1*
X2201469Y1390208D1*
X2196745Y1387846D1*
X2192414Y1386664D1*
X2188083D1*
X2183753Y1387846D1*
X2180209Y1389027D1*
X2177847D1*
Y1378397D1*
X2183753Y1377216D1*
X2197926D1*
X2205013Y1379578D1*
X2208556Y1381940D1*
X2212099Y1385483D1*
X2214461Y1389027D1*
X2215643Y1392570D1*
Y1397294D1*
X2216824Y1398475D1*
X2227454Y1399657D1*
X2232178Y1400838D1*
X2235721Y1402019D1*
X2242808Y1405562D1*
X2246351Y1407924D1*
X2251076Y1412649D1*
X2255800Y1419735D1*
X2256981Y1422098D1*
X2260524Y1432727D1*
X2261705Y1439814D1*
Y1458712D1*
X2260524Y1465798D1*
X2258162Y1472885D1*
X2256981Y1475247D1*
X2255800Y1478790D1*
X2251076Y1485877D1*
X2246351Y1490601D1*
X2242808Y1492964D1*
X2235721Y1496507D1*
X2232178Y1497688D1*
X2227454Y1498869D1*
X2213280D1*
X2207375Y1497688D1*
X2203831Y1496507D1*
X2199107Y1494145D1*
X2195564Y1491783D1*
X2192020Y1488239D1*
X2213280D1*
X2218005Y1489420D1*
X2222729D1*
X2227454Y1488239D1*
X2230997Y1487058D1*
X2235721Y1484696D1*
X2236902Y1483515D1*
X2239265Y1482334D1*
X2240216Y1480809D1*
X2240446Y1479972D1*
X2243989Y1475247D1*
X2245170Y1472885D1*
X2247532Y1465798D1*
X2248713Y1458712D1*
X2249894Y1457531D1*
Y1440995D1*
X2248713Y1439814D1*
X2247532Y1432727D1*
X2245170Y1425641D1*
X2243989Y1423279D1*
Y1422098D1*
X2235721Y1413830D1*
X2230997Y1411468D1*
X2227454Y1410287D1*
X2222729Y1409105D1*
X2218005D1*
X2208556Y1411468D1*
X2206194Y1412649D1*
X2205013Y1413830D1*
X2202650Y1415011D1*
X2196745Y1420916D1*
Y1422098D1*
X2194383Y1426822D1*
X2192020Y1433909D1*
X2190839Y1443357D1*
X2189658Y1444538D1*
Y1453987D1*
X2190839Y1455168D1*
X2192020Y1464617D1*
X2194383Y1471704D1*
X2196745Y1476428D1*
Y1477609D1*
X2203831Y1484696D1*
X2208556Y1487058D1*
X2213280Y1488239D1*
X2192020D1*
G37*
G36*
X753438Y1496507D2*
Y1411468D1*
X736902Y1410287D1*
Y1402019D1*
X781784D1*
Y1410287D1*
X765249Y1411468D1*
Y1475247D1*
X781784Y1476428D1*
Y1483515D1*
X773517Y1484696D1*
X769973Y1485877D1*
X765249Y1488239D1*
Y1489420D1*
X762887Y1496507D1*
X753438D1*
G37*
G36*
X909343D2*
X910524Y1495326D1*
Y1492964D1*
X911705Y1490601D1*
X927060Y1444538D1*
X928241Y1442176D1*
X941233Y1403200D1*
X942414Y1402019D1*
X955406D1*
X969580Y1444538D1*
X970761Y1446901D1*
X986115Y1492964D1*
X987296Y1495326D1*
Y1496507D1*
X974304D1*
X954225Y1436271D1*
X953044Y1431546D1*
X949501Y1420916D1*
X949201Y1419523D1*
X948251Y1418445D1*
X947639Y1418644D1*
X947139Y1419735D1*
X940052Y1440995D1*
X938871Y1445720D1*
X922335Y1495326D1*
X921154Y1496507D1*
X909343D1*
G37*
G36*
X1345170Y1492964D2*
Y1474066D1*
X1322729Y1472885D1*
Y1463436D1*
X1345170Y1462255D1*
Y1422098D1*
X1343989Y1420916D1*
Y1416192D1*
X1340446Y1412649D1*
X1338083Y1411468D1*
X1334146Y1410287D1*
X1330209D1*
X1326272Y1411468D1*
X1322729Y1412649D1*
Y1403200D1*
X1323910Y1402019D1*
X1329816Y1400838D1*
X1340446D1*
X1343989Y1402019D1*
X1348713Y1404381D1*
X1351076Y1406743D1*
X1353438Y1410287D1*
X1354619Y1413830D1*
X1355800Y1419735D1*
Y1462255D1*
X1364068Y1463436D1*
Y1472885D1*
X1355800Y1474066D1*
Y1492964D1*
X1345170D1*
G37*
G36*
X1086509Y1465798D2*
X1084146Y1463436D1*
X1082965Y1461074D1*
X1080603Y1453987D1*
Y1437452D1*
X1129028Y1436271D1*
Y1428003D1*
X1127847Y1426822D1*
X1126666Y1423279D1*
X1125485Y1420916D1*
Y1419735D1*
X1120761Y1415011D1*
X1116036Y1412649D1*
X1112493Y1411468D1*
X1107768Y1410287D1*
X1103044D1*
X1093595Y1412649D1*
X1090052Y1413830D1*
X1082965Y1417373D1*
X1081784Y1418554D1*
Y1406743D1*
X1082965Y1405562D1*
X1088871Y1403200D1*
X1098320Y1400838D1*
X1112493D1*
X1117217Y1402019D1*
X1120761Y1403200D1*
X1125485Y1405562D1*
X1129028Y1407924D1*
X1133753Y1412649D1*
X1138477Y1422098D1*
X1139658Y1426822D1*
X1140839Y1436271D1*
Y1438633D1*
X1139658Y1449263D1*
X1137296Y1456349D1*
X1134934Y1461074D1*
X1131391Y1465798D1*
X1129028Y1468161D1*
X1121942Y1472885D1*
X1118398Y1474066D1*
X1113674Y1475247D1*
X1101863D1*
X1097139Y1474066D1*
X1092414Y1471704D1*
X1086509Y1465798D1*
X1101863D1*
X1106194Y1466979D1*
X1110524D1*
X1114855Y1465798D1*
X1118398Y1464617D1*
X1120761Y1463436D1*
X1125485Y1458712D1*
Y1457531D1*
X1127847Y1452806D1*
X1129028Y1451625D1*
Y1446901D1*
X1116036Y1445720D1*
X1103044D1*
X1090052Y1446901D1*
X1090282Y1447738D1*
X1091233Y1449263D1*
X1092414Y1456349D1*
X1093595Y1458712D1*
Y1459893D1*
X1097139Y1463436D1*
X1101863Y1465798D1*
X1086509D1*
G37*
G36*
X1215249Y1464617D2*
Y1463436D1*
X1212887Y1461074D1*
X1210524Y1456349D1*
X1209343Y1452806D1*
X1208162Y1446901D1*
Y1428003D1*
X1209343Y1422098D1*
X1210524Y1418554D1*
X1212887Y1413830D1*
X1215249Y1410287D1*
X1219973Y1405562D1*
X1223517Y1403200D1*
X1228241Y1400838D1*
X1232965Y1399657D1*
X1244776D1*
X1249501Y1400838D1*
X1256587Y1404381D1*
X1263674Y1411468D1*
X1268398Y1420916D1*
X1269580Y1425641D1*
Y1449263D1*
X1268398Y1453987D1*
X1263674Y1463436D1*
X1256587Y1470523D1*
X1249501Y1474066D1*
X1244776Y1475247D1*
X1232965D1*
X1228241Y1474066D1*
X1223517Y1471704D1*
X1219973Y1469342D1*
X1215249Y1464617D1*
X1232965D1*
X1236902Y1465798D1*
X1240839D1*
X1244776Y1464617D1*
X1248320Y1463436D1*
X1250682Y1462255D1*
X1254225Y1458712D1*
Y1457531D1*
X1256587Y1452806D1*
X1257768Y1448082D1*
X1258950Y1446901D1*
Y1428003D1*
X1257768Y1426822D1*
X1256587Y1422098D1*
X1254225Y1417373D1*
Y1416192D1*
X1251863Y1413830D1*
X1249501Y1412649D1*
X1248320Y1411468D1*
X1244776Y1410287D1*
X1240839Y1409105D1*
X1236902D1*
X1232965Y1410287D1*
X1228241Y1412649D1*
X1222335Y1418554D1*
Y1419735D1*
X1221154Y1423279D1*
X1219973Y1430365D1*
X1218792Y1431546D1*
Y1443357D1*
X1219973Y1444538D1*
X1221154Y1451625D1*
X1222335Y1455168D1*
Y1456349D1*
X1229422Y1463436D1*
X1232965Y1464617D1*
X1215249D1*
G37*
G36*
X1391233Y1475247D2*
X1387690Y1474066D1*
X1382965Y1471704D1*
X1379422Y1468161D1*
X1377060Y1464617D1*
X1374698Y1457531D1*
Y1402019D1*
X1385328D1*
X1386509Y1455168D1*
X1387690Y1458712D1*
X1387919Y1459549D1*
X1388871Y1461074D1*
X1393595Y1463436D1*
X1397139Y1464617D1*
X1400682D1*
X1407768Y1462255D1*
X1412493Y1459893D1*
X1413674Y1458712D1*
X1416036Y1457531D1*
X1418398Y1455168D1*
Y1402019D1*
X1429028D1*
Y1472885D1*
X1418398D1*
Y1466979D1*
X1417146Y1465697D1*
X1416535Y1465888D1*
X1416036Y1466979D1*
X1414855Y1468161D1*
X1407768Y1472885D1*
X1400682Y1475247D1*
X1391233D1*
G37*
G36*
X1450288Y1464617D2*
Y1463436D1*
X1447926Y1461074D1*
X1445564Y1456349D1*
X1444383Y1452806D1*
X1443202Y1446901D1*
Y1428003D1*
X1444383Y1422098D1*
X1445564Y1418554D1*
X1447926Y1413830D1*
X1450288Y1410287D1*
X1455013Y1405562D1*
X1458556Y1403200D1*
X1463280Y1400838D1*
X1468005Y1399657D1*
X1479816D1*
X1484540Y1400838D1*
X1491627Y1404381D1*
X1498713Y1411468D1*
X1503438Y1420916D1*
X1504619Y1425641D1*
Y1449263D1*
X1503438Y1453987D1*
X1498713Y1463436D1*
X1491627Y1470523D1*
X1484540Y1474066D1*
X1479816Y1475247D1*
X1468005D1*
X1463280Y1474066D1*
X1458556Y1471704D1*
X1455013Y1469342D1*
X1450288Y1464617D1*
X1468005D1*
X1471942Y1465798D1*
X1475879D1*
X1479816Y1464617D1*
X1483359Y1463436D1*
X1485721Y1462255D1*
X1489265Y1458712D1*
Y1457531D1*
X1491627Y1452806D1*
X1492808Y1448082D1*
X1493989Y1446901D1*
Y1428003D1*
X1492808Y1426822D1*
X1491627Y1422098D1*
X1489265Y1417373D1*
Y1416192D1*
X1486902Y1413830D1*
X1484540Y1412649D1*
X1483359Y1411468D1*
X1479816Y1410287D1*
X1475879Y1409105D1*
X1471942D1*
X1468005Y1410287D1*
X1463280Y1412649D1*
X1457375Y1418554D1*
Y1419735D1*
X1456194Y1423279D1*
X1455013Y1430365D1*
X1453831Y1431546D1*
Y1443357D1*
X1455013Y1444538D1*
X1456194Y1451625D1*
X1457375Y1455168D1*
Y1456349D1*
X1464461Y1463436D1*
X1468005Y1464617D1*
X1450288D1*
G37*
G36*
X2040839Y1438633D2*
Y1402019D1*
X2051469D1*
Y1407924D1*
X2052351Y1408683D1*
X2052963Y1408614D1*
X2053831Y1407924D1*
X2056194Y1405562D1*
X2059737Y1403200D1*
X2064461Y1400838D1*
X2069186Y1399657D1*
X2078635D1*
X2082178Y1400838D1*
X2086902Y1403200D1*
X2091627Y1407924D1*
X2093989Y1411468D1*
X2095170Y1415011D1*
Y1430365D1*
X2092808Y1435090D1*
X2086902Y1440995D1*
X2079816Y1444538D1*
X2075091Y1445720D1*
X2069186Y1446901D1*
X2059737Y1448082D1*
X2051469Y1449263D1*
Y1457531D1*
X2052650Y1458712D1*
Y1459893D1*
X2055013Y1462255D1*
X2057375Y1463436D1*
X2060918Y1464617D1*
X2066036Y1465798D1*
X2071154D1*
X2076272Y1464617D1*
X2089265Y1461074D1*
X2090446D1*
Y1471704D1*
X2089265Y1472885D1*
X2083359Y1474066D1*
X2076272Y1475247D1*
X2060918D1*
X2055013Y1474066D1*
X2047926Y1470523D1*
X2044383Y1466979D1*
X2040839Y1459893D1*
Y1438633D1*
X2051469D1*
X2053831Y1439814D1*
X2056194D1*
X2058556Y1438633D1*
X2068005Y1437452D1*
X2073910Y1436271D1*
X2078635Y1433909D1*
X2083359Y1429184D1*
Y1428003D1*
X2084540Y1426822D1*
Y1417373D1*
X2083359Y1416192D1*
Y1415011D1*
X2079816Y1411468D1*
X2076272Y1410287D1*
X2072335Y1409105D1*
X2068398D1*
X2064461Y1410287D1*
X2060918Y1411468D1*
X2058556Y1412649D1*
X2057375Y1413830D1*
X2055013Y1415011D1*
X2051469Y1418554D1*
Y1438633D1*
X2040839D1*
G37*
G36*
X1029816Y1472885D2*
Y1461074D1*
X1042808Y1459893D1*
X1046351Y1458712D1*
X1051076Y1456349D1*
X1053438Y1453987D1*
X1055800Y1452806D1*
Y1402019D1*
X1066430D1*
Y1472885D1*
X1055800D1*
Y1463436D1*
X1054548Y1462153D1*
X1053936Y1462345D1*
X1053438Y1463436D1*
X1049894Y1466979D1*
X1046351Y1469342D1*
X1041627Y1471704D1*
X1038083Y1472885D1*
X1029816D1*
G37*
G36*
X1275485D2*
Y1461074D1*
X1288477Y1459893D1*
X1292020Y1458712D1*
X1296745Y1456349D1*
X1299107Y1453987D1*
X1301469Y1452806D1*
Y1402019D1*
X1312099D1*
Y1472885D1*
X1301469D1*
Y1463436D1*
X1300217Y1462153D1*
X1299605Y1462345D1*
X1299107Y1463436D1*
X1295564Y1466979D1*
X1292020Y1469342D1*
X1287296Y1471704D1*
X1283753Y1472885D1*
X1275485D1*
G37*
G36*
X2109343D2*
Y1402019D1*
X2119973D1*
Y1407924D1*
X2120855Y1408683D1*
X2121467Y1408614D1*
X2122335Y1407924D1*
X2127060Y1404381D1*
X2134146Y1400838D1*
X2137690Y1399657D1*
X2147139D1*
X2150682Y1400838D1*
X2155406Y1403200D1*
X2160131Y1407924D1*
X2162493Y1412649D1*
X2163674Y1416192D1*
X2164855Y1423279D1*
Y1472885D1*
X2154225D1*
X2153044Y1425641D1*
X2151863Y1418554D1*
Y1416192D1*
X2148320Y1412649D1*
X2145957Y1411468D1*
X2142020Y1410287D1*
X2138083D1*
X2134146Y1411468D1*
X2130603Y1412649D1*
X2125879Y1415011D1*
X2124698Y1416192D1*
X2122335Y1417373D1*
X2119973Y1419735D1*
Y1472885D1*
X2109343D1*
G37*
G36*
X810131Y1418554D2*
Y1402019D1*
X824304D1*
Y1418554D1*
X810131D1*
G37*
G36*
X1747926Y1350050D2*
Y1252019D1*
X1758556D1*
Y1350050D1*
X1747926D1*
G37*
G36*
X1777454Y1313436D2*
X1777065Y1312003D1*
X1776272Y1311074D1*
X1775091Y1308712D1*
X1772729Y1299263D1*
Y1279184D1*
X1773910Y1273279D1*
X1775091Y1269735D1*
X1778635Y1262649D1*
X1782178Y1257924D1*
X1784540Y1255562D1*
X1788083Y1253200D1*
X1792808Y1250838D1*
X1796351Y1249657D1*
X1806981D1*
X1811705Y1250838D1*
X1816430Y1253200D1*
X1818005Y1254381D1*
X1819580D1*
X1821154Y1253200D1*
Y1252019D1*
X1830603D1*
Y1350050D1*
X1819973D1*
Y1318161D1*
X1818533Y1316928D1*
X1817611Y1316979D1*
X1814068Y1320523D1*
X1806981Y1324066D1*
X1803438Y1325247D1*
X1792808D1*
X1789265Y1324066D1*
X1784540Y1321704D1*
X1779816Y1316979D1*
X1777454Y1313436D1*
X1795170D1*
X1799107Y1314617D1*
X1803044D1*
X1806981Y1313436D1*
X1810524Y1312255D1*
X1815249Y1309893D1*
X1816430Y1308712D1*
X1818792Y1307531D1*
X1819973Y1306349D1*
Y1263830D1*
X1815249Y1261468D1*
X1810524Y1260287D1*
X1806194Y1259105D1*
X1801863D1*
X1797532Y1260287D1*
X1792808Y1262649D1*
X1786902Y1268554D1*
Y1269735D1*
X1785721Y1273279D1*
X1784540Y1279184D1*
X1783359Y1280365D1*
Y1294538D1*
X1784540Y1295720D1*
X1785721Y1301625D1*
X1786902Y1305168D1*
X1788083Y1307531D1*
Y1308712D1*
X1790446Y1311074D1*
X1795170Y1313436D1*
X1777454D1*
G37*
G36*
X1041627Y1348869D2*
X1035721Y1347688D1*
X1030997Y1346507D1*
X1025091Y1344145D1*
X1020367Y1341783D1*
Y1326428D1*
X1027454Y1332334D1*
X1028635Y1333515D1*
X1033359Y1335877D1*
X1036902Y1337058D1*
X1046351Y1339420D1*
X1051076D1*
X1055800Y1338239D1*
X1059343Y1337058D1*
X1064068Y1334696D1*
X1065249Y1333515D1*
X1067611Y1332334D1*
X1071154Y1328790D1*
Y1327609D1*
X1073517Y1324066D1*
X1074698Y1321704D1*
X1077060Y1314617D1*
X1078241Y1308712D1*
X1079422Y1307531D1*
Y1290995D1*
X1078241Y1289814D1*
X1077060Y1283909D1*
X1075879Y1279184D1*
X1073517Y1274460D1*
X1071154Y1270916D1*
Y1269735D1*
X1066430Y1265011D1*
X1059343Y1261468D1*
X1055800Y1260287D1*
X1051076Y1259105D1*
X1046351D1*
X1036902Y1261468D1*
X1033359Y1262649D1*
X1028635Y1265011D1*
X1027454Y1266192D1*
X1020367Y1272098D1*
Y1257924D1*
X1021548Y1256743D1*
X1028635Y1253200D1*
X1035721Y1250838D1*
X1041627Y1249657D1*
X1055800D1*
X1061705Y1250838D1*
X1065249Y1252019D1*
X1072335Y1255562D1*
X1077060Y1259105D1*
X1079422Y1261468D1*
X1082965Y1266192D1*
X1085328Y1269735D1*
X1086509Y1273279D1*
X1087690Y1275641D1*
X1090052Y1282727D1*
X1091233Y1289814D1*
Y1308712D1*
X1090052Y1314617D1*
X1088871Y1319342D1*
X1087690Y1322885D1*
X1084146Y1329972D1*
X1081784Y1333515D1*
X1073517Y1341783D1*
X1069973Y1344145D1*
X1067611Y1345326D1*
X1060524Y1347688D1*
X1055800Y1348869D1*
X1041627D1*
G37*
G36*
X1208162D2*
X1202257Y1347688D1*
X1197532Y1346507D1*
X1191627Y1344145D1*
X1186902Y1341783D1*
Y1326428D1*
X1193989Y1332334D1*
X1195170Y1333515D1*
X1199894Y1335877D1*
X1203438Y1337058D1*
X1212887Y1339420D1*
X1217611D1*
X1222335Y1338239D1*
X1225879Y1337058D1*
X1230603Y1334696D1*
X1231784Y1333515D1*
X1234146Y1332334D1*
X1237690Y1328790D1*
Y1327609D1*
X1240052Y1324066D1*
X1241233Y1321704D1*
X1243595Y1314617D1*
X1244776Y1308712D1*
X1245957Y1307531D1*
Y1290995D1*
X1244776Y1289814D1*
X1243595Y1283909D1*
X1242414Y1279184D1*
X1240052Y1274460D1*
X1237690Y1270916D1*
Y1269735D1*
X1232965Y1265011D1*
X1225879Y1261468D1*
X1222335Y1260287D1*
X1217611Y1259105D1*
X1212887D1*
X1203438Y1261468D1*
X1199894Y1262649D1*
X1195170Y1265011D1*
X1193989Y1266192D1*
X1186902Y1272098D1*
Y1257924D1*
X1188083Y1256743D1*
X1195170Y1253200D1*
X1202257Y1250838D1*
X1208162Y1249657D1*
X1222335D1*
X1228241Y1250838D1*
X1231784Y1252019D1*
X1238871Y1255562D1*
X1243595Y1259105D1*
X1245957Y1261468D1*
X1249501Y1266192D1*
X1251863Y1269735D1*
X1253044Y1273279D1*
X1254225Y1275641D1*
X1256587Y1282727D1*
X1257768Y1289814D1*
Y1308712D1*
X1256587Y1314617D1*
X1255406Y1319342D1*
X1254225Y1322885D1*
X1250682Y1329972D1*
X1248320Y1333515D1*
X1240052Y1341783D1*
X1236509Y1344145D1*
X1234146Y1345326D1*
X1227060Y1347688D1*
X1222335Y1348869D1*
X1208162D1*
G37*
G36*
X1335721D2*
X1330997Y1347688D1*
X1323910Y1344145D1*
X1319186Y1339420D1*
X1316824Y1335877D1*
X1314461Y1328790D1*
Y1316979D1*
X1315643Y1312255D1*
X1316824Y1308712D1*
X1320367Y1301625D1*
X1322729Y1298082D1*
X1326272Y1293357D1*
X1356981Y1262649D1*
X1310918Y1261468D1*
Y1252019D1*
X1368792D1*
Y1263830D1*
X1343989Y1289814D1*
X1338083Y1296901D1*
X1333359Y1302806D1*
X1330997Y1306349D1*
X1328635Y1311074D1*
X1327454Y1315798D1*
X1326272Y1316979D1*
Y1327609D1*
X1327454Y1328790D1*
Y1331153D1*
X1332178Y1335877D1*
X1336902Y1338239D1*
X1341233Y1339420D1*
X1345564D1*
X1349894Y1338239D1*
X1354619Y1337058D1*
X1358162Y1335877D1*
X1362887Y1333515D1*
X1364068Y1332334D1*
X1366430Y1331153D1*
Y1342964D1*
X1365249Y1344145D1*
X1362887Y1345326D1*
X1359343Y1346507D1*
X1354619Y1347688D1*
X1348713Y1348869D1*
X1335721D1*
G37*
G36*
X1406587D2*
X1401863Y1347688D1*
X1394776Y1344145D1*
X1388871Y1338239D1*
X1387690Y1335877D1*
X1386509Y1332334D1*
Y1320523D1*
X1387690Y1316979D1*
X1388871Y1314617D1*
X1395957Y1307531D1*
X1400682Y1305168D1*
X1404225Y1303987D1*
X1401863Y1302806D1*
X1398320Y1301625D1*
X1393595Y1299263D1*
X1387690Y1293357D1*
X1385328Y1288633D1*
X1384146Y1285090D1*
Y1274460D1*
X1385328Y1269735D1*
X1386509Y1266192D1*
X1391233Y1259105D1*
X1393595Y1256743D1*
X1398320Y1253200D1*
X1400682Y1252019D1*
X1404225Y1250838D1*
X1408950Y1249657D1*
X1423123D1*
X1429028Y1250838D1*
X1433753Y1252019D1*
X1440839Y1254381D1*
Y1267373D1*
X1431391Y1262649D1*
X1424304Y1260287D1*
X1419580Y1259105D1*
X1414855D1*
X1410131Y1260287D1*
X1406587Y1261468D1*
X1404225Y1262649D1*
X1398320Y1268554D1*
Y1269735D1*
X1397139Y1273279D1*
X1395957Y1274460D1*
Y1285090D1*
X1397139Y1286271D1*
X1398320Y1289814D1*
Y1290995D1*
X1401863Y1294538D1*
X1404225Y1295720D1*
X1408950Y1296901D1*
X1421942Y1298082D1*
Y1307531D1*
X1411312Y1308712D1*
X1407768Y1309893D1*
X1403044Y1312255D1*
X1400682Y1314617D1*
Y1315798D1*
X1399501Y1318161D1*
X1398320Y1319342D1*
Y1329972D1*
X1399501Y1331153D1*
Y1332334D1*
X1403044Y1335877D1*
X1405406Y1337058D1*
X1408950Y1338239D1*
X1413280Y1339420D1*
X1417611D1*
X1421942Y1338239D1*
X1432572Y1334696D1*
X1434934Y1333515D1*
X1436115Y1332334D1*
X1438477Y1331153D1*
Y1342964D1*
X1437296Y1344145D1*
X1434934Y1345326D1*
X1431391Y1346507D1*
X1426666Y1347688D1*
X1420761Y1348869D1*
X1406587D1*
G37*
G36*
X1547139D2*
X1540052Y1347688D1*
X1529422Y1344145D1*
X1528241Y1342964D1*
Y1328790D1*
X1535328Y1333515D1*
X1542414Y1337058D1*
X1551863Y1339420D1*
X1556587D1*
X1566036Y1337058D1*
X1568398Y1335877D1*
X1573123Y1331153D1*
Y1329972D1*
X1574304Y1327609D1*
X1575485Y1326428D1*
Y1320523D1*
X1574304Y1319342D1*
X1573123Y1315798D1*
Y1314617D1*
X1569580Y1311074D1*
X1564855Y1308712D1*
X1561312Y1307531D1*
X1547139Y1303987D1*
X1536509Y1300444D1*
X1532965Y1298082D1*
X1528241Y1293357D1*
X1525879Y1289814D1*
X1524698Y1286271D1*
X1523517Y1279184D1*
Y1278003D1*
X1524698Y1270916D1*
X1525879Y1267373D1*
X1528241Y1262649D1*
X1535328Y1255562D1*
X1538871Y1253200D1*
X1541233Y1252019D1*
X1544776Y1250838D1*
X1549501Y1249657D1*
X1566036D1*
X1571942Y1250838D1*
X1576666Y1252019D1*
X1580209Y1253200D1*
X1586115Y1255562D1*
X1587296Y1256743D1*
Y1272098D1*
X1581391Y1267373D1*
X1580209Y1266192D1*
X1573123Y1262649D1*
X1569580Y1261468D1*
X1560131Y1259105D1*
X1555406D1*
X1545957Y1261468D1*
X1541233Y1263830D1*
X1538871Y1266192D1*
Y1267373D1*
X1537690Y1269735D1*
X1536509Y1270916D1*
Y1282727D1*
X1537690Y1283909D1*
Y1285090D1*
X1540052Y1287452D1*
X1542414Y1288633D1*
X1543595Y1289814D1*
X1550682Y1292176D1*
X1569580Y1296901D1*
X1576666Y1300444D1*
X1583753Y1307531D1*
X1586115Y1312255D1*
X1587296Y1316979D1*
Y1325247D1*
X1586115Y1329972D1*
X1582572Y1337058D1*
X1576666Y1342964D1*
X1573123Y1345326D1*
X1567217Y1347688D1*
X1562493Y1348869D1*
X1547139D1*
G37*
G36*
X1918005D2*
X1912099Y1347688D1*
X1907375Y1346507D1*
X1903831Y1345326D1*
X1897926Y1342964D1*
X1895564Y1341783D1*
X1894383Y1340601D1*
Y1326428D1*
X1895564D1*
X1901469Y1331153D1*
X1902650Y1332334D1*
X1909737Y1335877D1*
X1913280Y1337058D1*
X1918005Y1338239D1*
X1923123Y1339420D1*
X1928241D1*
X1933359Y1338239D1*
X1938083Y1337058D1*
X1942808Y1334696D1*
X1945170Y1332334D1*
X1947532Y1331153D1*
X1948484Y1329628D1*
X1948713Y1328790D1*
X1952257Y1324066D1*
X1954619Y1319342D1*
X1956981Y1309893D1*
X1958162Y1308712D1*
Y1290995D1*
X1956981Y1289814D1*
X1955800Y1283909D1*
X1953438Y1276822D1*
X1952257Y1274460D1*
X1948713Y1269735D1*
X1948325Y1268302D1*
X1947532Y1267373D1*
X1945170Y1266192D1*
X1942808Y1263830D1*
X1940446Y1262649D1*
X1933359Y1260287D1*
X1927454Y1259105D1*
X1921548D1*
X1909737Y1261468D1*
X1906194Y1262649D1*
X1905013Y1263830D1*
Y1287452D1*
X1927454Y1288633D1*
Y1299263D1*
X1894383D1*
Y1257924D1*
X1895564Y1256743D1*
X1901469Y1254381D1*
X1912099Y1250838D1*
X1918005Y1249657D1*
X1933359D1*
X1939265Y1250838D1*
X1942808Y1252019D1*
X1952257Y1256743D1*
X1961705Y1266192D1*
X1966430Y1275641D1*
X1968792Y1282727D1*
X1969973Y1289814D1*
Y1308712D1*
X1968792Y1314617D1*
X1967611Y1319342D1*
X1966430Y1322885D1*
X1964068Y1327609D1*
X1959343Y1334696D1*
X1954619Y1339420D1*
X1947532Y1344145D1*
X1945170Y1345326D1*
X1938083Y1347688D1*
X1932178Y1348869D1*
X1918005D1*
G37*
G36*
X1106587Y1346507D2*
Y1252019D1*
X1119580D1*
X1120761Y1253200D1*
X1149107Y1309893D1*
X1151469Y1313436D1*
X1160332Y1331145D1*
X1160972Y1332236D1*
X1161810Y1333073D1*
X1162414Y1333018D1*
X1163280Y1332334D1*
Y1252019D1*
X1172729D1*
Y1346507D1*
X1156194D1*
X1149107Y1332334D1*
X1146745Y1328790D1*
X1119580Y1274460D1*
X1119280Y1273066D1*
X1118329Y1271989D1*
X1117718Y1272188D1*
X1117217Y1273279D1*
Y1346507D1*
X1106587D1*
G37*
G36*
X1457375Y1335877D2*
X1455013Y1333515D1*
X1452650Y1328790D1*
X1451469Y1325247D1*
Y1311074D1*
X1452650Y1307531D1*
X1456194Y1300444D1*
X1463280Y1293357D1*
X1470367Y1289814D1*
X1473910Y1288633D1*
X1478635Y1287452D1*
X1498713Y1286271D1*
Y1252019D1*
X1509343D1*
Y1346507D1*
X1477454D1*
X1471548Y1345326D1*
X1468005Y1344145D1*
X1463280Y1341783D1*
X1458556Y1338239D1*
X1457375Y1337058D1*
Y1335877D1*
X1477454D1*
X1484540Y1337058D1*
X1491627D1*
X1498713Y1335877D1*
Y1298082D1*
X1492414Y1296901D1*
X1486115D1*
X1479816Y1298082D1*
X1475091Y1299263D1*
X1471548Y1300444D1*
X1465643Y1306349D1*
Y1307531D1*
X1464461Y1311074D1*
X1463280Y1312255D1*
Y1324066D1*
X1464461Y1325247D1*
X1465643Y1327609D1*
Y1328790D1*
X1469186Y1332334D1*
X1473910Y1334696D1*
X1477454Y1335877D1*
X1457375D1*
G37*
G36*
X1597926Y1346507D2*
Y1335877D1*
X1645170Y1334696D1*
Y1309893D1*
X1601469Y1308712D1*
Y1298082D1*
X1645170Y1296901D1*
Y1263830D1*
X1597926Y1262649D1*
Y1252019D1*
X1655800D1*
Y1346507D1*
X1597926D1*
G37*
G36*
X1841233Y1322885D2*
Y1311074D1*
X1854225Y1309893D1*
X1857768Y1308712D1*
X1862493Y1306349D1*
X1864855Y1303987D1*
X1867217Y1302806D1*
Y1252019D1*
X1877847D1*
Y1322885D1*
X1867217D1*
Y1313436D1*
X1865965Y1312153D1*
X1865353Y1312345D1*
X1864855Y1313436D1*
X1861312Y1316979D1*
X1857768Y1319342D1*
X1853044Y1321704D1*
X1849501Y1322885D1*
X1841233D1*
G37*
G36*
X1666430Y1240208D2*
Y1233121D1*
X1738477D1*
Y1240208D1*
X1666430D1*
G37*
G36*
X1796876Y3310287D2*
X1793595Y3309630D1*
X1790971Y3308974D1*
X1787034Y3307006D1*
X1785065Y3305693D1*
X1781128Y3301756D1*
X1779816Y3299788D1*
X1778503Y3297163D1*
X1777191Y3293226D1*
X1776535Y3290601D1*
X1775879Y3286008D1*
Y3279447D1*
X1776535Y3274853D1*
X1777191Y3272229D1*
X1777847Y3270260D1*
X1779816Y3266323D1*
X1781128Y3264355D1*
X1786377Y3259105D1*
X1791627Y3256481D1*
X1793595Y3255825D1*
X1796876Y3255168D1*
X1805406D1*
X1808687Y3255825D1*
X1814593Y3257793D1*
X1817217Y3259105D1*
X1817873Y3259762D1*
Y3267636D1*
X1815905Y3266323D1*
X1814593Y3265011D1*
X1809343Y3262386D1*
X1807375Y3261730D1*
X1804750Y3261074D1*
X1801907Y3260418D1*
X1799063D1*
X1796220Y3261074D1*
X1792283Y3262386D1*
X1791627Y3263042D1*
X1790314Y3263699D1*
X1786377Y3267636D1*
Y3268292D1*
X1784409Y3272229D1*
X1783753Y3274853D1*
X1783097Y3278790D1*
X1782440Y3279447D1*
Y3285352D1*
X1783097Y3286008D1*
X1783753Y3290601D1*
X1784409Y3293226D1*
X1786377Y3297163D1*
Y3297819D1*
X1790314Y3301756D1*
X1794251Y3303725D1*
X1796220Y3304381D1*
X1799501Y3305037D1*
X1802782D1*
X1806062Y3304381D1*
X1809999Y3303725D1*
X1811312Y3303069D1*
X1811968Y3302412D1*
Y3289289D1*
X1799501Y3288633D1*
Y3282727D1*
X1817873D1*
Y3305693D1*
X1817217Y3306349D1*
X1815905Y3307006D1*
X1812624Y3308318D1*
X1808031Y3309630D1*
X1804750Y3310287D1*
X1796876D1*
G37*
G36*
X1899238Y3304381D2*
X1896614Y3301756D1*
X1895301Y3299788D1*
X1893989Y3297163D1*
X1892677Y3293226D1*
X1892020Y3290601D1*
X1891364Y3285352D1*
Y3280103D1*
X1892020Y3274853D1*
X1892677Y3272229D1*
X1893989Y3268292D1*
X1895301Y3265667D1*
X1896614Y3263699D1*
X1901863Y3258449D1*
X1905800Y3256481D1*
X1907768Y3255825D1*
X1911049Y3255168D1*
X1918923D1*
X1921548Y3255825D1*
X1923517Y3256481D1*
X1927454Y3258449D1*
X1929422Y3259762D1*
X1932047Y3262386D1*
X1934671Y3266323D1*
X1935328Y3267636D1*
X1937296Y3273541D1*
X1937952Y3277478D1*
Y3287977D1*
X1937296Y3291914D1*
X1935328Y3297819D1*
X1934671Y3299132D1*
X1932047Y3303069D1*
X1929422Y3305693D1*
X1927454Y3307006D1*
X1923517Y3308974D1*
X1921548Y3309630D1*
X1918267Y3310287D1*
X1911049D1*
X1907768Y3309630D1*
X1905800Y3308974D1*
X1901863Y3307006D1*
X1899238Y3304381D1*
X1911049D1*
X1913674Y3305037D1*
X1916299D1*
X1918923Y3304381D1*
X1920892Y3303725D1*
X1923517Y3302412D1*
X1928110Y3297819D1*
Y3297163D1*
X1928766Y3295851D1*
X1930078Y3291914D1*
X1930734Y3288633D1*
X1931391Y3287977D1*
Y3277478D1*
X1930734Y3276822D1*
X1930078Y3273541D1*
X1928766Y3269604D1*
X1928110Y3268292D1*
X1926141Y3265667D1*
X1925925Y3264871D1*
X1925485Y3264355D1*
X1924173Y3263699D1*
X1923517Y3263042D1*
X1920892Y3261730D1*
X1918923Y3261074D1*
X1916299Y3260418D1*
X1913674D1*
X1908425Y3261730D1*
X1905800Y3263042D1*
X1901863Y3266979D1*
Y3267636D1*
X1900551Y3270260D1*
X1899894Y3272229D1*
X1899238Y3274853D1*
X1898582Y3279447D1*
X1897926Y3280103D1*
Y3285352D1*
X1898582Y3286008D1*
X1899238Y3291258D1*
X1900551Y3295195D1*
X1901863Y3297819D1*
Y3298475D1*
X1905144Y3301756D1*
X1906456Y3302412D1*
X1907112Y3303069D1*
X1908425Y3303725D1*
X1911049Y3304381D1*
X1899238D1*
G37*
G36*
X1827716Y3283384D2*
Y3256481D1*
X1845433D1*
X1848713Y3257137D1*
X1850682Y3257793D1*
X1854619Y3259762D1*
X1857244Y3262386D1*
X1858556Y3264355D1*
X1859212Y3265667D1*
X1859868Y3267636D1*
X1860524Y3271573D1*
Y3272885D1*
X1859868Y3276822D1*
X1859212Y3278790D1*
X1857900Y3281415D1*
X1856587Y3283384D1*
X1855275Y3284696D1*
X1852650Y3286664D1*
X1850026Y3287977D1*
X1848057Y3288633D1*
X1844776Y3289289D1*
X1833622Y3289945D1*
Y3308974D1*
X1827716D1*
Y3283384D1*
X1833622D1*
X1837340Y3284040D1*
X1841058D1*
X1844776Y3283384D1*
X1847401Y3282727D1*
X1848713Y3282071D1*
X1852650Y3278134D1*
Y3276822D1*
X1853307Y3273541D1*
X1853803Y3272659D1*
X1853737Y3272067D1*
X1853307Y3271573D1*
X1852650Y3267636D1*
Y3266979D1*
X1849370Y3263699D1*
X1848057Y3263042D1*
X1845433Y3262386D1*
X1841496Y3261730D1*
X1837559D1*
X1833622Y3262386D1*
Y3283384D1*
X1827716D1*
G37*
G36*
X1865774Y3308974D2*
Y3304381D1*
X1872335Y3303725D1*
Y3261730D1*
X1865774Y3261074D1*
Y3256481D1*
X1885459D1*
Y3261074D1*
X1878897Y3261730D1*
Y3303725D1*
X1885459Y3304381D1*
Y3308974D1*
X1865774D1*
G37*
G36*
X1949107D2*
Y3304381D1*
X1958950Y3303725D1*
Y3268292D1*
X1949107Y3267636D1*
Y3263699D1*
X1953700Y3263042D1*
X1956325Y3262386D1*
X1957637Y3261730D1*
X1958950Y3260418D1*
Y3259762D1*
X1959606Y3257793D1*
X1960262Y3256481D1*
X1964855D1*
Y3303725D1*
X1974041Y3304381D1*
Y3308974D1*
X1949107D1*
G37*
G36*
X1985196D2*
Y3301756D1*
X1999632Y3286664D1*
X2002913Y3282727D1*
X2004881Y3280103D1*
X2007506Y3274853D1*
X2008162Y3274197D1*
Y3266323D1*
X2007506Y3265667D1*
X2006850Y3264355D1*
X2006634Y3263559D1*
X2006194Y3263042D1*
X2004881Y3262386D1*
X2004225Y3261730D1*
X2002257Y3261074D1*
X1999851Y3260418D1*
X1997445D1*
X1995039Y3261074D1*
X1991102Y3262386D1*
X1987165Y3264355D1*
X1986509Y3265011D1*
X1985852D1*
Y3258449D1*
X1986509Y3257793D1*
X1987821Y3257137D1*
X1992414Y3255825D1*
X1995695Y3255168D1*
X2002913D1*
X2005538Y3255825D1*
X2007506Y3256481D1*
X2009475Y3257793D1*
X2012755Y3261074D1*
X2014068Y3263699D1*
X2014724Y3265667D1*
Y3274197D1*
X2013412Y3278134D1*
X2012099Y3280759D1*
X2009475Y3284696D1*
X2004881Y3289945D1*
X1995695Y3299132D1*
X1994383Y3299788D1*
X1991102Y3303069D1*
X2017349Y3303725D1*
Y3308974D1*
X1985196D1*
G37*
G36*
X1403175Y3310287D2*
X1399894Y3309630D1*
X1397270Y3308974D1*
X1393333Y3307006D1*
X1391364Y3305693D1*
X1387427Y3301756D1*
X1386115Y3299788D1*
X1384803Y3297163D1*
X1383490Y3293226D1*
X1382834Y3290601D1*
X1382178Y3286008D1*
Y3279447D1*
X1382834Y3274853D1*
X1383490Y3272229D1*
X1384146Y3270260D1*
X1386115Y3266323D1*
X1387427Y3264355D1*
X1392677Y3259105D1*
X1397926Y3256481D1*
X1399894Y3255825D1*
X1403175Y3255168D1*
X1411705D1*
X1414986Y3255825D1*
X1420892Y3257793D1*
X1423517Y3259105D1*
X1424173Y3259762D1*
Y3267636D1*
X1422204Y3266323D1*
X1420892Y3265011D1*
X1415643Y3262386D1*
X1413674Y3261730D1*
X1411049Y3261074D1*
X1408206Y3260418D1*
X1405363D1*
X1402519Y3261074D1*
X1398582Y3262386D1*
X1397926Y3263042D1*
X1396614Y3263699D1*
X1392677Y3267636D1*
Y3268292D1*
X1390708Y3272229D1*
X1390052Y3274853D1*
X1389396Y3278790D1*
X1388740Y3279447D1*
Y3285352D1*
X1389396Y3286008D1*
X1390052Y3290601D1*
X1390708Y3293226D1*
X1392677Y3297163D1*
Y3297819D1*
X1396614Y3301756D1*
X1400551Y3303725D1*
X1402519Y3304381D1*
X1405800Y3305037D1*
X1409081D1*
X1412362Y3304381D1*
X1416299Y3303725D1*
X1417611Y3303069D1*
X1418267Y3302412D1*
Y3289289D1*
X1405800Y3288633D1*
Y3282727D1*
X1424173D1*
Y3305693D1*
X1423517Y3306349D1*
X1422204Y3307006D1*
X1418923Y3308318D1*
X1414330Y3309630D1*
X1411049Y3310287D1*
X1403175D1*
G37*
G36*
X1505538Y3304381D2*
X1502913Y3301756D1*
X1501601Y3299788D1*
X1500288Y3297163D1*
X1498976Y3293226D1*
X1498320Y3290601D1*
X1497663Y3285352D1*
Y3280103D1*
X1498320Y3274853D1*
X1498976Y3272229D1*
X1500288Y3268292D1*
X1501601Y3265667D1*
X1502913Y3263699D1*
X1508162Y3258449D1*
X1512099Y3256481D1*
X1514068Y3255825D1*
X1517349Y3255168D1*
X1525223D1*
X1527847Y3255825D1*
X1529816Y3256481D1*
X1533753Y3258449D1*
X1535721Y3259762D1*
X1538346Y3262386D1*
X1540971Y3266323D1*
X1541627Y3267636D1*
X1543595Y3273541D1*
X1544251Y3277478D1*
Y3287977D1*
X1543595Y3291914D1*
X1541627Y3297819D1*
X1540971Y3299132D1*
X1538346Y3303069D1*
X1535721Y3305693D1*
X1533753Y3307006D1*
X1529816Y3308974D1*
X1527847Y3309630D1*
X1524566Y3310287D1*
X1517349D1*
X1514068Y3309630D1*
X1512099Y3308974D1*
X1508162Y3307006D1*
X1505538Y3304381D1*
X1517349D1*
X1519973Y3305037D1*
X1522598D1*
X1525223Y3304381D1*
X1527191Y3303725D1*
X1529816Y3302412D1*
X1534409Y3297819D1*
Y3297163D1*
X1535065Y3295851D1*
X1536377Y3291914D1*
X1537034Y3288633D1*
X1537690Y3287977D1*
Y3277478D1*
X1537034Y3276822D1*
X1536377Y3273541D1*
X1535065Y3269604D1*
X1534409Y3268292D1*
X1532440Y3265667D1*
X1532225Y3264871D1*
X1531784Y3264355D1*
X1530472Y3263699D1*
X1529816Y3263042D1*
X1527191Y3261730D1*
X1525223Y3261074D1*
X1522598Y3260418D1*
X1519973D1*
X1514724Y3261730D1*
X1512099Y3263042D1*
X1508162Y3266979D1*
Y3267636D1*
X1506850Y3270260D1*
X1506194Y3272229D1*
X1505538Y3274853D1*
X1504881Y3279447D1*
X1504225Y3280103D1*
Y3285352D1*
X1504881Y3286008D1*
X1505538Y3291258D1*
X1506850Y3295195D1*
X1508162Y3297819D1*
Y3298475D1*
X1511443Y3301756D1*
X1512755Y3302412D1*
X1513412Y3303069D1*
X1514724Y3303725D1*
X1517349Y3304381D1*
X1505538D1*
G37*
G36*
X1434015Y3283384D2*
Y3256481D1*
X1451732D1*
X1455013Y3257137D1*
X1456981Y3257793D1*
X1460918Y3259762D1*
X1463543Y3262386D1*
X1464855Y3264355D1*
X1465511Y3265667D1*
X1466167Y3267636D1*
X1466824Y3271573D1*
Y3272885D1*
X1466167Y3276822D1*
X1465511Y3278790D1*
X1464199Y3281415D1*
X1462887Y3283384D1*
X1461574Y3284696D1*
X1458950Y3286664D1*
X1456325Y3287977D1*
X1454356Y3288633D1*
X1451076Y3289289D1*
X1439921Y3289945D1*
Y3308974D1*
X1434015D1*
Y3283384D1*
X1439921D1*
X1443639Y3284040D1*
X1447357D1*
X1451076Y3283384D1*
X1453700Y3282727D1*
X1455013Y3282071D1*
X1458950Y3278134D1*
Y3276822D1*
X1459606Y3273541D1*
X1460102Y3272659D1*
X1460037Y3272067D1*
X1459606Y3271573D1*
X1458950Y3267636D1*
Y3266979D1*
X1455669Y3263699D1*
X1454356Y3263042D1*
X1451732Y3262386D1*
X1447795Y3261730D1*
X1443858D1*
X1439921Y3262386D1*
Y3283384D1*
X1434015D1*
G37*
G36*
X1472073Y3308974D2*
Y3304381D1*
X1478635Y3303725D1*
Y3261730D1*
X1472073Y3261074D1*
Y3256481D1*
X1491758D1*
Y3261074D1*
X1485196Y3261730D1*
Y3303725D1*
X1491758Y3304381D1*
Y3308974D1*
X1472073D1*
G37*
G36*
X1555406D2*
Y3304381D1*
X1565249Y3303725D1*
Y3268292D1*
X1555406Y3267636D1*
Y3263699D1*
X1559999Y3263042D1*
X1562624Y3262386D1*
X1563936Y3261730D1*
X1565249Y3260418D1*
Y3259762D1*
X1565905Y3257793D1*
X1566561Y3256481D1*
X1571154D1*
Y3303725D1*
X1580341Y3304381D1*
Y3308974D1*
X1555406D1*
G37*
G36*
X1594120D2*
X1594649Y3308127D1*
X1594776Y3307662D1*
X1602650Y3291914D1*
X1603963Y3289945D1*
X1614461Y3268948D1*
X1615774Y3266979D1*
X1617742Y3263042D1*
X1590839Y3261730D1*
Y3256481D1*
X1623648D1*
Y3264355D1*
X1602650Y3306349D1*
X1601338Y3308318D1*
X1600682Y3308974D1*
X1594120D1*
G37*
G36*
X1059343Y3310287D2*
X1056062Y3309630D1*
X1053438Y3308974D1*
X1049501Y3307006D1*
X1047532Y3305693D1*
X1043595Y3301756D1*
X1042283Y3299788D1*
X1040971Y3297163D1*
X1039658Y3293226D1*
X1039002Y3290601D1*
X1038346Y3286008D1*
Y3279447D1*
X1039002Y3274853D1*
X1039658Y3272229D1*
X1040314Y3270260D1*
X1042283Y3266323D1*
X1043595Y3264355D1*
X1048845Y3259105D1*
X1054094Y3256481D1*
X1056062Y3255825D1*
X1059343Y3255168D1*
X1067873D1*
X1071154Y3255825D1*
X1077060Y3257793D1*
X1079684Y3259105D1*
X1080341Y3259762D1*
Y3267636D1*
X1078372Y3266323D1*
X1077060Y3265011D1*
X1071810Y3262386D1*
X1069842Y3261730D1*
X1067217Y3261074D1*
X1064374Y3260418D1*
X1061531D1*
X1058687Y3261074D1*
X1054750Y3262386D1*
X1054094Y3263042D1*
X1052782Y3263699D1*
X1048845Y3267636D1*
Y3268292D1*
X1046876Y3272229D1*
X1046220Y3274853D1*
X1045564Y3278790D1*
X1044908Y3279447D1*
Y3285352D1*
X1045564Y3286008D1*
X1046220Y3290601D1*
X1046876Y3293226D1*
X1048845Y3297163D1*
Y3297819D1*
X1052782Y3301756D1*
X1056719Y3303725D1*
X1058687Y3304381D1*
X1061968Y3305037D1*
X1065249D1*
X1068530Y3304381D1*
X1072467Y3303725D1*
X1073779Y3303069D1*
X1074435Y3302412D1*
Y3289289D1*
X1061968Y3288633D1*
Y3282727D1*
X1080341D1*
Y3305693D1*
X1079684Y3306349D1*
X1078372Y3307006D1*
X1075091Y3308318D1*
X1070498Y3309630D1*
X1067217Y3310287D1*
X1059343D1*
G37*
G36*
X1161705Y3304381D2*
X1159081Y3301756D1*
X1157768Y3299788D1*
X1156456Y3297163D1*
X1155144Y3293226D1*
X1154488Y3290601D1*
X1153831Y3285352D1*
Y3280103D1*
X1154488Y3274853D1*
X1155144Y3272229D1*
X1156456Y3268292D1*
X1157768Y3265667D1*
X1159081Y3263699D1*
X1164330Y3258449D1*
X1168267Y3256481D1*
X1170236Y3255825D1*
X1173517Y3255168D1*
X1181391D1*
X1184015Y3255825D1*
X1185984Y3256481D1*
X1189921Y3258449D1*
X1191889Y3259762D1*
X1194514Y3262386D1*
X1197139Y3266323D1*
X1197795Y3267636D1*
X1199763Y3273541D1*
X1200419Y3277478D1*
Y3287977D1*
X1199763Y3291914D1*
X1197795Y3297819D1*
X1197139Y3299132D1*
X1194514Y3303069D1*
X1191889Y3305693D1*
X1189921Y3307006D1*
X1185984Y3308974D1*
X1184015Y3309630D1*
X1180734Y3310287D1*
X1173517D1*
X1170236Y3309630D1*
X1168267Y3308974D1*
X1164330Y3307006D1*
X1161705Y3304381D1*
X1173517D1*
X1176141Y3305037D1*
X1178766D1*
X1181391Y3304381D1*
X1183359Y3303725D1*
X1185984Y3302412D1*
X1190577Y3297819D1*
Y3297163D1*
X1191233Y3295851D1*
X1192545Y3291914D1*
X1193202Y3288633D1*
X1193858Y3287977D1*
Y3277478D1*
X1193202Y3276822D1*
X1192545Y3273541D1*
X1191233Y3269604D1*
X1190577Y3268292D1*
X1188608Y3265667D1*
X1188393Y3264871D1*
X1187952Y3264355D1*
X1186640Y3263699D1*
X1185984Y3263042D1*
X1183359Y3261730D1*
X1181391Y3261074D1*
X1178766Y3260418D1*
X1176141D1*
X1170892Y3261730D1*
X1168267Y3263042D1*
X1164330Y3266979D1*
Y3267636D1*
X1163018Y3270260D1*
X1162362Y3272229D1*
X1161705Y3274853D1*
X1161049Y3279447D1*
X1160393Y3280103D1*
Y3285352D1*
X1161049Y3286008D1*
X1161705Y3291258D1*
X1163018Y3295195D1*
X1164330Y3297819D1*
Y3298475D1*
X1167611Y3301756D1*
X1168923Y3302412D1*
X1169580Y3303069D1*
X1170892Y3303725D1*
X1173517Y3304381D1*
X1161705D1*
G37*
G36*
X1256850Y3310287D2*
X1253569Y3309630D1*
X1250944Y3308974D1*
X1248976Y3308318D1*
X1247663Y3307662D1*
X1247007Y3307006D1*
Y3300444D1*
X1252257Y3303069D1*
X1254225Y3303725D1*
X1256850Y3304381D1*
X1259256Y3305037D1*
X1261662D1*
X1264068Y3304381D1*
X1266036Y3303725D1*
X1268661Y3302412D1*
X1269973Y3301100D1*
Y3300444D1*
X1271286Y3297819D1*
X1271942Y3297163D1*
Y3289289D1*
X1271286Y3288633D1*
Y3287977D1*
X1268661Y3285352D1*
X1267349Y3284696D1*
X1265380Y3284040D1*
X1258162Y3283384D1*
Y3278134D1*
X1263412Y3277478D1*
X1266036Y3276822D1*
X1267349Y3276166D1*
X1269973Y3273541D1*
Y3272885D1*
X1270629Y3270916D1*
X1271286Y3270260D1*
Y3266979D1*
X1270629Y3266323D1*
X1269317Y3263699D1*
X1267349Y3261730D1*
X1265380Y3261074D1*
X1262755Y3260418D1*
X1260131D1*
X1257506Y3261074D1*
X1253569Y3262386D1*
X1249632Y3264355D1*
X1248976Y3265011D1*
X1248320D1*
Y3258449D1*
X1248976Y3257793D1*
X1250288Y3257137D1*
X1252257Y3256481D1*
X1254881Y3255825D1*
X1258162Y3255168D1*
X1266036D1*
X1268661Y3255825D1*
X1270629Y3256481D1*
X1271942Y3257137D1*
X1274566Y3259105D1*
X1276535Y3261730D1*
X1277191Y3263699D1*
X1277847Y3266323D1*
Y3268948D1*
X1277191Y3271573D1*
X1276535Y3273541D1*
X1274566Y3276166D1*
X1273910Y3276822D1*
X1271286Y3278790D1*
X1269317Y3279447D1*
X1268005Y3280103D1*
X1268661Y3280759D1*
X1272598Y3282071D1*
X1274566Y3283384D1*
X1275879Y3284696D1*
X1277191Y3286664D1*
X1277847Y3287977D1*
X1278503Y3289945D1*
Y3297819D1*
X1277847Y3299788D1*
X1275879Y3303725D1*
X1272598Y3307006D1*
X1270629Y3308318D1*
X1269317Y3308974D1*
X1267349Y3309630D1*
X1264724Y3310287D1*
X1256850D1*
G37*
G36*
X1090183Y3283384D2*
Y3256481D1*
X1107900D1*
X1111181Y3257137D1*
X1113149Y3257793D1*
X1117086Y3259762D1*
X1119711Y3262386D1*
X1121023Y3264355D1*
X1121679Y3265667D1*
X1122335Y3267636D1*
X1122992Y3271573D1*
Y3272885D1*
X1122335Y3276822D1*
X1121679Y3278790D1*
X1120367Y3281415D1*
X1119055Y3283384D1*
X1117742Y3284696D1*
X1115118Y3286664D1*
X1112493Y3287977D1*
X1110524Y3288633D1*
X1107244Y3289289D1*
X1096089Y3289945D1*
Y3308974D1*
X1090183D1*
Y3283384D1*
X1096089D1*
X1099807Y3284040D1*
X1103525D1*
X1107244Y3283384D1*
X1109868Y3282727D1*
X1111181Y3282071D1*
X1115118Y3278134D1*
Y3276822D1*
X1115774Y3273541D1*
X1116270Y3272659D1*
X1116205Y3272067D1*
X1115774Y3271573D1*
X1115118Y3267636D1*
Y3266979D1*
X1111837Y3263699D1*
X1110524Y3263042D1*
X1107900Y3262386D1*
X1103963Y3261730D1*
X1100026D1*
X1096089Y3262386D1*
Y3283384D1*
X1090183D1*
G37*
G36*
X1128241Y3308974D2*
Y3304381D1*
X1134803Y3303725D1*
Y3261730D1*
X1128241Y3261074D1*
Y3256481D1*
X1147926D1*
Y3261074D1*
X1141364Y3261730D1*
Y3303725D1*
X1147926Y3304381D1*
Y3308974D1*
X1128241D1*
G37*
G36*
X1211574D2*
Y3304381D1*
X1221417Y3303725D1*
Y3268292D1*
X1211574Y3267636D1*
Y3263699D1*
X1216167Y3263042D1*
X1218792Y3262386D1*
X1220104Y3261730D1*
X1221417Y3260418D1*
Y3259762D1*
X1222073Y3257793D1*
X1222729Y3256481D1*
X1227322D1*
Y3303725D1*
X1236509Y3304381D1*
Y3308974D1*
X1211574D1*
G37*
G36*
X741102Y3310287D2*
X737821Y3309630D1*
X735196Y3308974D1*
X731259Y3307006D1*
X729291Y3305693D1*
X725354Y3301756D1*
X724041Y3299788D1*
X722729Y3297163D1*
X721417Y3293226D1*
X720761Y3290601D1*
X720104Y3286008D1*
Y3279447D1*
X720761Y3274853D1*
X721417Y3272229D1*
X722073Y3270260D1*
X724041Y3266323D1*
X725354Y3264355D1*
X730603Y3259105D1*
X735852Y3256481D1*
X737821Y3255825D1*
X741102Y3255168D1*
X749632D1*
X752913Y3255825D1*
X758818Y3257793D1*
X761443Y3259105D1*
X762099Y3259762D1*
Y3267636D1*
X760131Y3266323D1*
X758818Y3265011D1*
X753569Y3262386D1*
X751601Y3261730D1*
X748976Y3261074D1*
X746132Y3260418D1*
X743289D1*
X740446Y3261074D1*
X736509Y3262386D1*
X735852Y3263042D1*
X734540Y3263699D1*
X730603Y3267636D1*
Y3268292D1*
X728635Y3272229D1*
X727978Y3274853D1*
X727322Y3278790D1*
X726666Y3279447D1*
Y3285352D1*
X727322Y3286008D1*
X727978Y3290601D1*
X728635Y3293226D1*
X730603Y3297163D1*
Y3297819D1*
X734540Y3301756D1*
X738477Y3303725D1*
X740446Y3304381D1*
X743726Y3305037D1*
X747007D1*
X750288Y3304381D1*
X754225Y3303725D1*
X755538Y3303069D1*
X756194Y3302412D1*
Y3289289D1*
X743726Y3288633D1*
Y3282727D1*
X762099D1*
Y3305693D1*
X761443Y3306349D1*
X760131Y3307006D1*
X756850Y3308318D1*
X752257Y3309630D1*
X748976Y3310287D1*
X741102D1*
G37*
G36*
X843464Y3304381D2*
X840839Y3301756D1*
X839527Y3299788D1*
X838215Y3297163D1*
X836902Y3293226D1*
X836246Y3290601D1*
X835590Y3285352D1*
Y3280103D1*
X836246Y3274853D1*
X836902Y3272229D1*
X838215Y3268292D1*
X839527Y3265667D1*
X840839Y3263699D1*
X846089Y3258449D1*
X850026Y3256481D1*
X851994Y3255825D1*
X855275Y3255168D1*
X863149D1*
X865774Y3255825D1*
X867742Y3256481D1*
X871679Y3258449D1*
X873648Y3259762D1*
X876272Y3262386D1*
X878897Y3266323D1*
X879553Y3267636D1*
X881522Y3273541D1*
X882178Y3277478D1*
Y3287977D1*
X881522Y3291914D1*
X879553Y3297819D1*
X878897Y3299132D1*
X876272Y3303069D1*
X873648Y3305693D1*
X871679Y3307006D1*
X867742Y3308974D1*
X865774Y3309630D1*
X862493Y3310287D1*
X855275D1*
X851994Y3309630D1*
X850026Y3308974D1*
X846089Y3307006D1*
X843464Y3304381D1*
X855275D1*
X857900Y3305037D1*
X860524D1*
X863149Y3304381D1*
X865118Y3303725D1*
X867742Y3302412D1*
X872335Y3297819D1*
Y3297163D1*
X872992Y3295851D1*
X874304Y3291914D1*
X874960Y3288633D1*
X875616Y3287977D1*
Y3277478D1*
X874960Y3276822D1*
X874304Y3273541D1*
X872992Y3269604D1*
X872335Y3268292D1*
X870367Y3265667D1*
X870151Y3264871D1*
X869711Y3264355D1*
X868398Y3263699D1*
X867742Y3263042D1*
X865118Y3261730D1*
X863149Y3261074D1*
X860524Y3260418D1*
X857900D1*
X852650Y3261730D1*
X850026Y3263042D1*
X846089Y3266979D1*
Y3267636D1*
X844776Y3270260D1*
X844120Y3272229D1*
X843464Y3274853D1*
X842808Y3279447D1*
X842152Y3280103D1*
Y3285352D1*
X842808Y3286008D1*
X843464Y3291258D1*
X844776Y3295195D1*
X846089Y3297819D1*
Y3298475D1*
X849370Y3301756D1*
X850682Y3302412D1*
X851338Y3303069D1*
X852650Y3303725D1*
X855275Y3304381D1*
X843464D1*
G37*
G36*
X939265Y3310287D2*
X935328Y3309630D1*
X931391Y3308318D1*
X930078Y3307662D1*
X929422Y3307006D1*
Y3300444D1*
X930078D1*
X930734Y3301100D1*
X933359Y3302412D1*
X939265Y3304381D1*
X941670Y3305037D1*
X944076D1*
X946482Y3304381D1*
X948451Y3303725D1*
X949763Y3303069D1*
X952388Y3300444D1*
Y3299788D1*
X953044Y3298475D1*
X953700Y3296507D1*
X954356Y3295851D1*
Y3289945D1*
X953700Y3289289D1*
X953044Y3287321D1*
Y3286664D1*
X950419Y3284040D1*
X949107Y3283384D1*
X946482Y3282727D1*
X943202Y3282071D1*
X939921D1*
X936640Y3282727D1*
X932703Y3283384D1*
X932047D1*
Y3256481D1*
X960262D1*
Y3261730D1*
X937952Y3262386D1*
Y3276166D1*
X947795Y3276822D1*
X951076Y3277478D1*
X955013Y3279447D1*
X958293Y3282727D1*
X960262Y3286664D1*
X960918Y3289945D1*
Y3295195D1*
X960262Y3297819D1*
X959606Y3299788D1*
X957637Y3303725D1*
X953700Y3307662D1*
X951076Y3308974D1*
X949107Y3309630D1*
X946482Y3310287D1*
X939265D1*
G37*
G36*
X771942Y3283384D2*
Y3256481D1*
X789658D1*
X792939Y3257137D1*
X794908Y3257793D1*
X798845Y3259762D1*
X801469Y3262386D1*
X802782Y3264355D1*
X803438Y3265667D1*
X804094Y3267636D1*
X804750Y3271573D1*
Y3272885D1*
X804094Y3276822D1*
X803438Y3278790D1*
X802125Y3281415D1*
X800813Y3283384D1*
X799501Y3284696D1*
X796876Y3286664D1*
X794251Y3287977D1*
X792283Y3288633D1*
X789002Y3289289D1*
X777847Y3289945D1*
Y3308974D1*
X771942D1*
Y3283384D1*
X777847D1*
X781566Y3284040D1*
X785284D1*
X789002Y3283384D1*
X791627Y3282727D1*
X792939Y3282071D1*
X796876Y3278134D1*
Y3276822D1*
X797532Y3273541D1*
X798029Y3272659D1*
X797963Y3272067D1*
X797532Y3271573D1*
X796876Y3267636D1*
Y3266979D1*
X793595Y3263699D1*
X792283Y3263042D1*
X789658Y3262386D1*
X785721Y3261730D1*
X781784D1*
X777847Y3262386D1*
Y3283384D1*
X771942D1*
G37*
G36*
X809999Y3308974D2*
Y3304381D1*
X816561Y3303725D1*
Y3261730D1*
X809999Y3261074D1*
Y3256481D1*
X829684D1*
Y3261074D1*
X823123Y3261730D1*
Y3303725D1*
X829684Y3304381D1*
Y3308974D1*
X809999D1*
G37*
G36*
X893333D2*
Y3304381D1*
X903175Y3303725D1*
Y3268292D1*
X893333Y3267636D1*
Y3263699D1*
X897926Y3263042D1*
X900551Y3262386D1*
X901863Y3261730D1*
X903175Y3260418D1*
Y3259762D1*
X903831Y3257793D1*
X904488Y3256481D1*
X909081D1*
Y3303725D1*
X918267Y3304381D1*
Y3308974D1*
X893333D1*
G37*
G36*
X4212887Y1605365D2*
Y1597491D1*
X4213674Y1596704D1*
X4263280Y1580168D1*
X4264855Y1579381D1*
X4263280Y1578594D1*
X4213674Y1562058D1*
X4212887Y1561271D1*
Y1554184D1*
X4214461D1*
X4226272Y1558121D1*
X4253831Y1567570D1*
X4274304Y1574657D1*
X4275879Y1575444D1*
Y1584105D1*
X4260131Y1589617D1*
X4232572Y1599066D1*
X4213674Y1605365D1*
X4212887D1*
G37*
G36*
Y1547098D2*
Y1536074D1*
X4213674Y1535287D1*
X4215249Y1534499D1*
X4243595Y1521901D1*
X4245957Y1521113D1*
X4247532Y1520326D1*
Y1519538D1*
X4245957Y1518751D1*
X4243595Y1517964D1*
X4216036Y1506153D1*
X4212887Y1504578D1*
Y1493554D1*
X4275879D1*
Y1500641D1*
X4221548Y1501428D1*
X4222335Y1502216D1*
X4224698Y1503003D1*
X4231784Y1506153D1*
X4237296Y1508515D1*
X4251469Y1514814D1*
X4256981Y1517176D1*
X4258556Y1518751D1*
Y1522688D1*
X4253831Y1525050D1*
X4248320Y1527412D1*
X4241233Y1530562D1*
X4235721Y1532924D1*
X4228635Y1536074D1*
X4226272Y1536861D1*
X4221548Y1539224D1*
X4275879Y1540011D1*
Y1547098D1*
X4212887D1*
G37*
G36*
X4230997Y1474657D2*
X4229422Y1473082D1*
X4227847Y1469932D1*
X4227060Y1467570D1*
Y1457334D1*
X4228635Y1452609D1*
X4230209Y1450247D1*
X4234146Y1446310D1*
X4236509Y1444735D1*
X4239658Y1443161D1*
X4242020Y1442373D1*
X4245957Y1441586D1*
X4257768D1*
X4261705Y1442373D1*
X4264068Y1443161D1*
X4268792Y1445523D1*
X4274304Y1451035D1*
X4275879Y1454184D1*
X4276666Y1456546D1*
X4277454Y1460483D1*
Y1463633D1*
X4276666Y1468357D1*
X4275879Y1470720D1*
X4274304Y1473869D1*
X4269580Y1478594D1*
X4267217Y1480168D1*
X4265643Y1480956D1*
X4260918Y1482531D1*
X4256194Y1483318D1*
X4247532D1*
X4242808Y1482531D1*
X4240446Y1481743D1*
X4235721Y1479381D1*
X4233359Y1477806D1*
X4230997Y1475444D1*
Y1474657D1*
X4243595D1*
X4249107Y1475444D1*
X4254619D1*
X4260131Y1474657D1*
X4262493Y1473869D1*
X4267217Y1471507D1*
X4268792Y1469932D1*
Y1469145D1*
X4269580Y1467570D1*
X4270367Y1465208D1*
X4271154Y1464420D1*
Y1460483D1*
X4270367Y1459696D1*
X4269580Y1456546D1*
Y1455759D1*
X4266430Y1452609D1*
X4263280Y1451035D1*
X4260918Y1450247D1*
X4255406Y1449460D1*
X4253044Y1448672D1*
X4250682D1*
X4248320Y1449460D1*
X4242808Y1450247D1*
X4240446Y1451035D1*
X4238871Y1451822D1*
X4238083Y1452609D1*
X4236509Y1453397D1*
X4234934Y1454972D1*
Y1455759D1*
X4234146Y1457334D1*
X4233359Y1458121D1*
Y1466783D1*
X4234146Y1467570D1*
Y1468357D1*
X4238083Y1472294D1*
X4241233Y1473869D1*
X4243595Y1474657D1*
X4230997D1*
G37*
G36*
X4228635Y1437649D2*
Y1432924D1*
X4215249Y1432137D1*
Y1425050D1*
X4228635Y1424263D1*
Y1410090D1*
X4234934D1*
Y1424263D1*
X4244908Y1425050D1*
X4254881D1*
X4264855Y1424263D1*
X4267217Y1423475D1*
X4269580Y1421113D1*
Y1419538D1*
X4270367Y1418751D1*
Y1414814D1*
X4269580Y1414027D1*
X4268792Y1410877D1*
Y1410090D1*
X4275091D1*
X4275879Y1412452D1*
X4276666Y1417176D1*
Y1419538D1*
X4275879Y1423475D1*
X4275091Y1425838D1*
X4273517Y1428200D1*
X4272729Y1428987D1*
X4270367Y1430562D1*
X4268792Y1431349D1*
X4265643Y1432137D1*
X4234934Y1432924D1*
Y1437649D1*
X4228635D1*
G37*
G36*
X4217611Y1369932D2*
Y1369145D1*
X4215249Y1366783D1*
X4212099Y1360483D1*
X4211312Y1357334D1*
Y1345523D1*
X4212099Y1342373D1*
X4212887Y1340011D1*
X4214461Y1336861D1*
X4216036Y1334499D1*
X4220761Y1329775D1*
X4223123Y1328200D1*
X4227847Y1325838D1*
X4230209Y1325050D1*
X4233359Y1324263D1*
X4238083Y1323475D1*
X4249894D1*
X4254619Y1324263D1*
X4257768Y1325050D1*
X4260131Y1325838D1*
X4266430Y1328987D1*
X4272729Y1335287D1*
X4274304Y1337649D1*
X4275091Y1339224D1*
X4276666Y1343948D1*
X4277454Y1349460D1*
Y1353397D1*
X4276666Y1358121D1*
X4275879Y1361271D1*
X4273517Y1365995D1*
X4271942Y1368357D1*
X4268005Y1372294D1*
X4265643Y1373869D1*
X4260918Y1376231D1*
X4256194Y1377806D1*
X4252257Y1378594D1*
X4235721D1*
X4231784Y1377806D1*
X4227060Y1376231D1*
X4223910Y1374657D1*
X4221548Y1373082D1*
X4218398Y1370720D1*
X4217611Y1369932D1*
X4235721D1*
X4241233Y1370720D1*
X4246745D1*
X4252257Y1369932D1*
X4256194Y1369145D1*
X4258556Y1368357D1*
X4263280Y1365995D1*
X4268792Y1360483D1*
Y1359696D1*
X4269580Y1358121D1*
X4270367Y1354184D1*
X4271154Y1353397D1*
Y1348672D1*
X4270367Y1347885D1*
X4269580Y1344735D1*
X4268005Y1341586D1*
Y1340798D1*
X4264068Y1336861D1*
X4257768Y1333712D1*
X4254619Y1332924D1*
X4249894Y1332137D1*
X4245957Y1331349D1*
X4242020D1*
X4238083Y1332137D1*
X4233359Y1332924D1*
X4228635Y1334499D1*
X4225485Y1336074D1*
X4224698Y1336861D1*
X4223123Y1337649D1*
X4219973Y1340798D1*
Y1341586D1*
X4219186Y1343161D1*
X4218398Y1345523D1*
X4217611Y1346310D1*
Y1356546D1*
X4218398Y1357334D1*
X4219973Y1360483D1*
Y1361271D1*
X4224698Y1365995D1*
X4229422Y1368357D1*
X4231784Y1369145D1*
X4235721Y1369932D1*
X4217611D1*
G37*
G36*
X4228635Y1314027D2*
Y1306940D1*
X4262493Y1306153D1*
X4265643Y1305365D1*
X4267217Y1304578D1*
X4269580Y1302216D1*
Y1300641D1*
X4270367Y1299853D1*
Y1295916D1*
X4269580Y1295129D1*
X4268792Y1291979D1*
X4267217Y1288830D1*
Y1288042D1*
X4264855Y1285680D1*
X4228635Y1284893D1*
Y1277019D1*
X4275091D1*
X4275879Y1277806D1*
Y1284105D1*
X4275091Y1284893D1*
X4271942Y1286468D1*
Y1287255D1*
X4274304Y1289617D1*
X4276666Y1294342D1*
X4277454Y1298279D1*
Y1300641D1*
X4276666Y1304578D1*
X4275091Y1307727D1*
X4271154Y1311664D1*
X4269580Y1312452D1*
X4267217Y1313239D1*
X4264068Y1314027D1*
X4228635D1*
G37*
G36*
Y1269932D2*
Y1265208D1*
X4215249Y1264420D1*
Y1257334D1*
X4228635Y1256546D1*
Y1242373D1*
X4234934D1*
Y1256546D1*
X4244908Y1257334D1*
X4254881D1*
X4264855Y1256546D1*
X4267217Y1255759D1*
X4269580Y1253397D1*
Y1251822D1*
X4270367Y1251035D1*
Y1247098D1*
X4269580Y1246310D1*
X4268792Y1243161D1*
Y1242373D1*
X4275091D1*
X4275879Y1244735D1*
X4276666Y1249460D1*
Y1251822D1*
X4275879Y1255759D1*
X4275091Y1258121D1*
X4273517Y1260483D1*
X4272729Y1261271D1*
X4270367Y1262846D1*
X4268792Y1263633D1*
X4265643Y1264420D1*
X4234934Y1265208D1*
Y1269932D1*
X4228635D1*
G37*
M02*
