G04 DipTrace 4.1.0.0*
G04 BottomSilk.gbr*
%MOIN*%
G04 #@! TF.FileFunction,Legend,Bot*
G04 #@! TF.Part,Single*
%ADD17C,0.01*%
%ADD27C,0.003*%
%FSLAX26Y26*%
G04*
G70*
G90*
G75*
G01*
G04 BotSilk*
%LPD*%
G36*
X2905071Y852274D2*
D1*
D1*
D1*
D1*
D1*
D1*
D1*
D1*
D1*
D1*
D1*
D1*
D1*
D1*
D1*
D1*
D1*
D1*
D1*
D1*
D1*
D1*
D1*
D1*
D1*
D1*
D1*
D1*
D1*
D1*
D1*
D1*
D1*
D1*
D1*
G37*
X2611429Y857598D2*
D27*
Y901088D1*
X2602682D1*
Y896444D1*
X2602522D1*
G03X2597652Y900302I-10348J-8059D01*
G01*
G03X2591201Y901591I-6179J-14141D01*
G01*
G03X2586539Y900751I12J-13422D01*
G01*
G03X2582113Y898231I5924J-15555D01*
G01*
X2588427Y890692D1*
G02X2591304Y892307I6924J-8964D01*
G01*
G02X2594217Y892843I2934J-7771D01*
G01*
G02X2600060Y890684I11J-8960D01*
G01*
G02X2602028Y887865I-4242J-5056D01*
G01*
G02X2602682Y883735I-11128J-3881D01*
G01*
Y857598D1*
X2611429D1*
X2741510Y892843D2*
G02X2744298Y892580I152J-13316D01*
G01*
G02X2746465Y891785I-1466J-7342D01*
G01*
G02X2748938Y888613I-2524J-4519D01*
G01*
G02X2750176Y879394I-31554J-8928D01*
G01*
G02X2748938Y870034I-33232J-368D01*
G01*
G02X2746465Y866861I-4996J1344D01*
G01*
G02X2744298Y866066I-3632J6547D01*
G01*
G02X2741510Y865803I-2635J13053D01*
G01*
G02X2738769Y866077I-150J12343D01*
G01*
G02X2736631Y866902I1539J7178D01*
G01*
G02X2734182Y870206I2797J4632D01*
G01*
G02X2732945Y879394I32653J9075D01*
G01*
G02X2734182Y888440I33398J39D01*
G01*
G02X2736631Y891744I5245J-1328D01*
G01*
G02X2738769Y892568I3677J-6354D01*
G01*
G02X2741510Y892843I2592J-12069D01*
G01*
D3*
X2678963Y857598D2*
X2688072Y888018D1*
X2688234D1*
X2697320Y857598D1*
X2705041D1*
X2718933Y901088D1*
X2709684D1*
X2701341Y870629D1*
X2701180D1*
X2691329Y901088D1*
X2684953D1*
X2675123Y870629D1*
X2674942D1*
X2666619Y901088D1*
X2657352D1*
X2671262Y857598D1*
X2678963D1*
X2797945Y945247D2*
X2825029D1*
G02X2824301Y940551I-13769J-268D01*
G01*
G02X2822113Y937197I-7820J2710D01*
G01*
G02X2818797Y935184I-6550J7052D01*
G01*
G02X2814675Y934512I-3972J11385D01*
G01*
G02X2809584Y935562I-79J12485D01*
G01*
G02X2805123Y938714I5937J13134D01*
G01*
X2798793Y933306D1*
G03X2802228Y930070I15853J13389D01*
G01*
G03X2806068Y927917I10151J13609D01*
G01*
G03X2814514Y926310I8379J21029D01*
G01*
G03X2821104Y927391I-8J20663D01*
G01*
G03X2827492Y930640I-8283J24190D01*
G01*
G03X2830240Y933374I-6387J9169D01*
G01*
G03X2832205Y937243I-12648J8856D01*
G01*
G03X2833381Y942247I-24445J8384D01*
G01*
G03X2833774Y948383I-43499J5872D01*
G01*
G03X2833411Y954247I-43460J249D01*
G01*
G03X2832325Y959127I-26634J-3362D01*
G01*
G03X2830512Y963028I-16442J-5274D01*
G01*
G03X2827975Y965946I-10664J-6707D01*
G01*
G03X2822041Y969588I-14321J-16680D01*
G01*
G03X2815841Y970802I-6223J-15343D01*
G01*
G03X2809131Y969560I-134J-18032D01*
G01*
G03X2803312Y965836I7044J-17413D01*
G01*
G03X2799289Y960007I10821J-11772D01*
G01*
G03X2797945Y952445I18893J-7258D01*
G01*
Y945247D1*
X2918921Y948605D2*
G03X2918644Y954711I-59844J346D01*
G01*
G03X2917824Y959030I-21900J-1922D01*
G01*
G03X2914215Y965234I-16008J-5161D01*
G01*
G03X2912080Y967160I-11634J-10748D01*
G01*
G03X2909257Y969001I-15012J-19930D01*
G01*
G03X2905609Y970352I-6224J-11211D01*
G01*
G03X2900986Y970802I-4407J-21296D01*
G01*
G03X2896420Y970352I-218J-21169D01*
G01*
G03X2892773Y969001I2629J-12699D01*
G01*
G03X2889930Y967160I12332J-22153D01*
G01*
G03X2887776Y965234I9474J-12765D01*
G01*
G03X2884177Y959030I12309J-11285D01*
G01*
G03X2883364Y954711I21463J-6279D01*
G01*
G03X2883093Y948605I59069J-5674D01*
G01*
G03X2883364Y942396I61251J-443D01*
G01*
G03X2884177Y938039I22633J1972D01*
G01*
G03X2887776Y931839I15897J5081D01*
G01*
G03X2889930Y929890I11274J10300D01*
G01*
G03X2892773Y928067I14028J18748D01*
G01*
G03X2896420Y926748I6274J11646D01*
G01*
G03X2900986Y926310I4372J21545D01*
G01*
G03X2905609Y926748I239J22080D01*
G01*
G03X2909257Y928067I-2571J12818D01*
G01*
G03X2912080Y929890I-11060J20224D01*
G01*
G03X2914215Y931839I-9156J12176D01*
G01*
G03X2917824Y938039I-12388J11361D01*
G01*
G03X2918644Y942396I-21176J6242D01*
G01*
G03X2918921Y948605I-60474J5808D01*
G01*
D3*
X2688790D2*
G03X2688518Y954711I-59838J397D01*
G01*
G03X2687696Y959030I-22159J-1984D01*
G01*
G03X2684088Y965234I-15984J-5145D01*
G01*
G03X2681953Y967160I-11927J-11072D01*
G01*
G03X2679129Y969001I-14931J-19816D01*
G01*
G03X2675478Y970352I-6214J-11191D01*
G01*
G03X2670857Y970802I-4400J-21227D01*
G01*
G03X2666290Y970352I-217J-21192D01*
G01*
G03X2662646Y969001I2641J-12721D01*
G01*
G03X2659803Y967160I12332J-22153D01*
G01*
G03X2657648Y965234I9474J-12765D01*
G01*
G03X2654047Y959030I12310J-11293D01*
G01*
G03X2653234Y954711I20951J-6183D01*
G01*
G03X2652961Y948605I59069J-5700D01*
G01*
G03X2653234Y942396I61253J-417D01*
G01*
G03X2654047Y938039I22113J1875D01*
G01*
G03X2657648Y931839I15901J5088D01*
G01*
G03X2659803Y929890I11145J10158D01*
G01*
G03X2662646Y928067I14028J18748D01*
G01*
G03X2666290Y926748I6284J11668D01*
G01*
G03X2670857Y926310I4372J21546D01*
G01*
G03X2675478Y926748I243J22011D01*
G01*
G03X2679129Y928067I-2587J12873D01*
G01*
G03X2681953Y929890I-11437J20819D01*
G01*
G03X2684088Y931839I-9156J12176D01*
G01*
G03X2687696Y938039I-12366J11344D01*
G01*
G03X2688518Y942396I-21431J6304D01*
G01*
G03X2688790Y948605I-61493J5801D01*
G01*
D3*
X2807409Y857437D2*
Y861280D1*
X2807592D1*
G03X2811232Y858022I6209J3277D01*
G01*
G03X2814224Y857207I4883J12027D01*
G01*
G03X2818025Y856934I3667J24458D01*
G01*
G03X2824345Y857975I-126J20477D01*
G01*
G03X2828902Y860777I-3819J11317D01*
G01*
G03X2831920Y864983I-8146J9032D01*
G01*
G03X2832925Y870206I-12227J5062D01*
G01*
G03X2832055Y875215I-14014J146D01*
G01*
G03X2829446Y879353I-11621J-4436D01*
G01*
G03X2825154Y882133I-7924J-7533D01*
G01*
G03X2819192Y883113I-5850J-16959D01*
G01*
X2807409D1*
Y887717D1*
G02X2807940Y890240I5461J170D01*
G01*
G02X2809560Y892018I4024J-2040D01*
G01*
G02X2812280Y893055I4088J-6637D01*
G01*
G02X2816096Y893345I3232J-17269D01*
G01*
G02X2818861Y893176I163J-20004D01*
G01*
G02X2821123Y892664I-1543J-12076D01*
G01*
G02X2824098Y889948I-2461J-5683D01*
G01*
X2830794Y895215D1*
G03X2824794Y900047I-12105J-8890D01*
G01*
G03X2820940Y901214I-6857J-15702D01*
G01*
G03X2816520Y901550I-3909J-22183D01*
G01*
G03X2809371Y900815I-609J-29206D01*
G01*
G03X2803772Y898454I3933J-17151D01*
G01*
G03X2800202Y893984I5904J-8375D01*
G01*
G03X2799285Y890888I13488J-5681D01*
G01*
G03X2798946Y887214I21571J-3841D01*
G01*
Y857437D1*
X2807409D1*
X2825029Y952445D2*
X2806673D1*
G02X2807463Y956776I14274J-367D01*
G01*
G02X2809436Y959955I8334J-2968D01*
G01*
G02X2812320Y961908I6150J-5977D01*
G01*
G02X2815841Y962559I3423J-8667D01*
G01*
G02X2819408Y961908I101J-9546D01*
G01*
G02X2822315Y959955I-3221J-7935D01*
G01*
G02X2824281Y956776I-6189J-6024D01*
G01*
G02X2825029Y952445I-13170J-4505D01*
G01*
D3*
X2807409Y872719D2*
Y875916D1*
X2817605D1*
G02X2820860Y875501I-226J-14752D01*
G01*
G02X2823172Y874483I-1545J-6641D01*
G01*
G02X2824542Y872857I-2321J-3346D01*
G01*
G02X2824963Y870629I-4580J-2020D01*
G01*
G02X2824486Y868597I-4393J-39D01*
G01*
G02X2823051Y866848I-4948J2594D01*
G01*
G02X2820605Y865567I-3846J4368D01*
G01*
G02X2816962Y865139I-3375J13017D01*
G01*
G02X2812403Y865425I-730J24838D01*
G01*
G02X2809421Y866446I1125J8151D01*
G01*
G02X2808541Y867350I1903J2734D01*
G01*
G02X2807913Y868698I4595J2959D01*
G01*
G02X2807409Y872719I13056J3678D01*
G01*
D3*
X2542976Y939598D2*
X2536522Y933808D1*
G03X2543298Y928420I18106J15813D01*
G01*
G03X2547475Y926837I8096J15065D01*
G01*
G03X2552164Y926310I4558J19411D01*
G01*
G03X2559341Y927589I98J20218D01*
G01*
G03X2565797Y931436I-7964J20705D01*
G01*
G03X2568461Y934424I-9089J10784D01*
G01*
G03X2570365Y938266I-14381J9520D01*
G01*
G03X2571507Y942959I-23431J8186D01*
G01*
G03X2571888Y948504I-37090J5340D01*
G01*
G03X2571507Y954052I-37475J208D01*
G01*
G03X2570365Y958757I-24722J-3509D01*
G01*
G03X2568461Y962613I-16729J-5864D01*
G01*
G03X2565797Y965625I-11881J-7825D01*
G01*
G03X2559341Y969508I-14475J-16755D01*
G01*
G03X2552164Y970802I-7085J-18746D01*
G01*
G03X2547475Y970269I-87J-20130D01*
G01*
G03X2543298Y968672I3955J-16607D01*
G01*
G03X2536522Y963262I11530J-21390D01*
G01*
X2542976Y957513D1*
G02X2547038Y960920I10117J-7937D01*
G01*
G02X2551822Y962056I4711J-9192D01*
G01*
G02X2556776Y961209I276J-13285D01*
G01*
G02X2560312Y958668I-3161J-8132D01*
G01*
G02X2562433Y954434I-8687J-6999D01*
G01*
G02X2563143Y948504I-21669J-5602D01*
G01*
G02X2562433Y942602I-22148J-329D01*
G01*
G02X2560312Y938387I-10754J2769D01*
G01*
G02X2556776Y935858I-6739J5687D01*
G01*
G02X2551822Y935014I-4673J12472D01*
G01*
G02X2547017Y936160I-79J10314D01*
G01*
G02X2542976Y939598I6012J11159D01*
G01*
D3*
X2891798Y948504D2*
G02X2891919Y952546I57666J300D01*
G01*
G02X2892281Y955181I15890J-842D01*
G01*
G02X2893949Y958858I11043J-2792D01*
G01*
G02X2896854Y961257I5846J-4122D01*
G01*
G02X2900986Y962056I3910J-9133D01*
G01*
G02X2905147Y961257I244J-9965D01*
G01*
G02X2908022Y958858I-2823J-6307D01*
G01*
G02X2909711Y955181I-8354J-6064D01*
G01*
G02X2910042Y952572I-17314J-3520D01*
G01*
G02X2910154Y948605I-63657J-3775D01*
G01*
G02X2910042Y944529I-67355J-196D01*
G01*
G02X2909711Y941870I-17397J814D01*
G01*
G02X2908022Y938211I-9618J2221D01*
G01*
G02X2905147Y935814I-5721J3938D01*
G01*
G02X2900986Y935014I-3928J9221D01*
G01*
G02X2896854Y935814I-232J9877D01*
G01*
G02X2893949Y938211I2947J6530D01*
G01*
G02X2892281Y941850I9069J6359D01*
G01*
G02X2891919Y944479I15425J3465D01*
G01*
G02X2891798Y948504I57092J3727D01*
G01*
D3*
X2661665D2*
G02X2661790Y952546I58756J211D01*
G01*
G02X2662150Y955181I16264J-877D01*
G01*
G02X2663820Y958858I11186J-2864D01*
G01*
G02X2666724Y961257I5867J-4145D01*
G01*
G02X2670857Y962056I3910J-9134D01*
G01*
G02X2675018Y961257I244J-9965D01*
G01*
G02X2677894Y958858I-2867J-6359D01*
G01*
G02X2679583Y955181I-8298J-6038D01*
G01*
G02X2679915Y952572I-17085J-3500D01*
G01*
G02X2680025Y948605I-59839J-3648D01*
G01*
G02X2679915Y944529I-63319J-327D01*
G01*
G02X2679583Y941870I-18079J907D01*
G01*
G02X2677894Y938211I-9618J2221D01*
G01*
G02X2675018Y935814I-5765J3991D01*
G01*
G02X2670857Y935014I-3928J9221D01*
G01*
G02X2666724Y935814I-233J9878D01*
G01*
G02X2663820Y938211I2969J6554D01*
G01*
G02X2662150Y941850I9071J6367D01*
G01*
G02X2661790Y944479I15799J3500D01*
G01*
G02X2661665Y948504I58171J3816D01*
G01*
D3*
X2790299Y926812D2*
Y970299D1*
X2781554D1*
Y965655D1*
X2781392D1*
G03X2776522Y969516I-10315J-8010D01*
G01*
G03X2770073Y970802I-6181J-14184D01*
G01*
G03X2765096Y969839I8J-13382D01*
G01*
G03X2760293Y966951I6806J-16762D01*
G01*
G03X2756757Y962219I7546J-9325D01*
G01*
G03X2755873Y959192I13310J-5532D01*
G01*
G03X2755579Y955722I19251J-3378D01*
G01*
Y926812D1*
X2764324D1*
Y952706D1*
G02X2764937Y956629I11635J191D01*
G01*
G02X2766777Y959584I7450J-2588D01*
G01*
G02X2769531Y961438I5882J-5765D01*
G01*
G02X2772888Y962056I3263J-8298D01*
G01*
G02X2776322Y961438I124J-9154D01*
G01*
G02X2779101Y959584I-3047J-7577D01*
G01*
G02X2780941Y956629I-5611J-5543D01*
G01*
G02X2781554Y952706I-11022J-3731D01*
G01*
Y926812D1*
X2790299D1*
X2630180Y857437D2*
Y861280D1*
X2630361D1*
G03X2634000Y858022I6222J3289D01*
G01*
G03X2636995Y857207I4874J12002D01*
G01*
G03X2640795Y856934I3660J24364D01*
G01*
G03X2647114Y857975I-127J20478D01*
G01*
G03X2651673Y860777I-3821J11327D01*
G01*
G03X2654689Y864983I-8144J9023D01*
G01*
G03X2655694Y870206I-12227J5062D01*
G01*
G03X2654823Y875215I-14132J122D01*
G01*
G03X2652214Y879353I-11573J-4406D01*
G01*
G03X2647923Y882133I-7929J-7539D01*
G01*
G03X2641961Y883113I-5853J-16974D01*
G01*
X2630180D1*
Y887717D1*
G02X2630707Y890240I5459J176D01*
G01*
G02X2632331Y892018I3988J-2011D01*
G01*
G02X2635050Y893055I4078J-6613D01*
G01*
G02X2638865Y893345I3230J-17249D01*
G01*
G02X2641630Y893176I163J-20004D01*
G01*
G02X2643891Y892664I-1549J-12093D01*
G01*
G02X2646869Y889948I-2462J-5689D01*
G01*
X2653563Y895215D1*
G03X2647560Y900047I-12109J-8898D01*
G01*
G03X2643709Y901214I-6836J-15628D01*
G01*
G03X2639287Y901550I-3911J-22206D01*
G01*
G03X2632138Y900815I-608J-29226D01*
G01*
G03X2626541Y898454I3919J-17106D01*
G01*
G03X2622971Y893984I5945J-8408D01*
G01*
G03X2622055Y890888I13010J-5533D01*
G01*
G03X2621714Y887214I21211J-3823D01*
G01*
Y857437D1*
X2630180D1*
X2545730Y876035D2*
X2572811D1*
G02X2572083Y871340I-13942J-242D01*
G01*
G02X2569898Y867983I-7909J2758D01*
G01*
G02X2566579Y865971I-6611J7162D01*
G01*
G02X2562459Y865301I-3947J11258D01*
G01*
G02X2557366Y866350I-76J12509D01*
G01*
G02X2552908Y869503I5959J13157D01*
G01*
X2546575Y864092D1*
G03X2550012Y860857I15953J13506D01*
G01*
G03X2553852Y858706I10141J13601D01*
G01*
G03X2562295Y857096I8383J21016D01*
G01*
G03X2568888Y858180I-33J20795D01*
G01*
G03X2575276Y861429I-8269J24157D01*
G01*
G03X2578024Y864163I-6387J9169D01*
G01*
G03X2579987Y868031I-13025J9042D01*
G01*
G03X2581164Y873035I-24571J8421D01*
G01*
G03X2581555Y879172I-43465J5851D01*
G01*
G03X2581196Y885034I-43743J259D01*
G01*
G03X2580106Y889915I-26850J-3431D01*
G01*
G03X2578297Y893815I-16503J-5287D01*
G01*
G03X2575757Y896735I-10760J-6793D01*
G01*
G03X2569823Y900377I-14414J-16833D01*
G01*
G03X2563622Y901591I-6220J-15329D01*
G01*
G03X2556913Y900349I-132J-18032D01*
G01*
G03X2551098Y896625I7007J-17342D01*
G01*
G03X2547071Y890793I10790J-11758D01*
G01*
G03X2545730Y883234I18937J-7259D01*
G01*
Y876035D1*
X2788795Y857598D2*
Y901088D1*
X2780050D1*
Y896444D1*
X2779888D1*
G02X2782617Y887530I-10321J-8033D01*
G01*
X2775018Y900302D2*
G03X2768570Y901591I-6177J-14129D01*
G01*
G03X2763906Y900751I9J-13422D01*
G01*
G03X2759483Y898231I5880J-15461D01*
G01*
X2765795Y890692D1*
G02X2768671Y892307I6979J-9054D01*
G01*
G02X2771585Y892843I2931J-7757D01*
G01*
G02X2777425Y890684I14J-8940D01*
G01*
G02X2779395Y887865I-4243J-5063D01*
G01*
G02X2780050Y883735I-11048J-3869D01*
G01*
Y857598D1*
X2788795D1*
X2572811Y883234D2*
X2554455D1*
G02X2555247Y887563I14311J-379D01*
G01*
G02X2557220Y890744I8225J-2900D01*
G01*
G02X2560101Y892694I6096J-5902D01*
G01*
G02X2563622Y893345I3413J-8612D01*
G01*
G02X2567192Y892694I126J-9422D01*
G01*
G02X2570097Y890744I-3222J-7940D01*
G01*
G02X2572062Y887563I-6226J-6042D01*
G01*
G02X2572811Y883234I-13120J-4500D01*
G01*
D3*
X2630180Y872719D2*
Y875916D1*
X2640373D1*
G02X2643629Y875501I-228J-14777D01*
G01*
G02X2645942Y874483I-1564J-6690D01*
G01*
G02X2647311Y872857I-2377J-3390D01*
G01*
G02X2647730Y870629I-4532J-2005D01*
G01*
G02X2647255Y868597I-4391J-45D01*
G01*
G02X2645822Y866848I-5003J2637D01*
G01*
G02X2643371Y865567I-3866J4411D01*
G01*
G02X2639730Y865139I-3375J13015D01*
G01*
G02X2635169Y865425I-732J24823D01*
G01*
G02X2632190Y866446I1125J8138D01*
G01*
G02X2631311Y867350I1884J2711D01*
G01*
G02X2630682Y868698I4428J2886D01*
G01*
G02X2630180Y872719I12999J3667D01*
G01*
D3*
X2644997Y941387D2*
Y970299D1*
X2636252D1*
Y944362D1*
G02X2635640Y940419I-11799J-189D01*
G01*
G02X2633802Y937467I-7379J2548D01*
G01*
G02X2631021Y935629I-5779J5718D01*
G01*
G02X2627588Y935014I-3320J8654D01*
G01*
G02X2624231Y935629I-98J8947D01*
G01*
G02X2621475Y937467I3030J7527D01*
G01*
G02X2619635Y940419I5560J5515D01*
G01*
G02X2619022Y944362I11143J3751D01*
G01*
Y970299D1*
X2610277D1*
Y926812D1*
X2619022D1*
Y931416D1*
X2619203D1*
G03X2624038Y927585I10275J8002D01*
G01*
G03X2630423Y926310I6116J13997D01*
G01*
G03X2635472Y927266I0J13806D01*
G01*
G03X2640293Y930138I-6641J16629D01*
G01*
G03X2643823Y934866I-7514J9292D01*
G01*
G03X2644703Y937902I-13193J5473D01*
G01*
G03X2644997Y941387I-19129J3368D01*
G01*
D3*
X2600346Y926812D2*
Y970299D1*
X2591601D1*
Y965655D1*
X2591441D1*
G03X2586570Y969516I-10326J-8025D01*
G01*
G03X2580122Y970802I-6183J-14195D01*
G01*
G03X2575457Y969962I-6J-13342D01*
G01*
G03X2571035Y967445I5808J-15343D01*
G01*
X2577348Y959906D1*
G02X2580223Y961518I7021J-9148D01*
G01*
G02X2583138Y962056I2954J-7836D01*
G01*
G02X2588978Y959895I1J-8967D01*
G01*
G02X2590946Y957076I-4212J-5038D01*
G01*
G02X2591601Y952948I-10968J-3856D01*
G01*
Y926812D1*
X2600346D1*
X2732945Y857598D2*
Y862123D1*
G03X2738047Y858353I11523J10257D01*
G01*
G03X2744185Y857096I5988J13625D01*
G01*
G03X2747924Y857488I115J16911D01*
G01*
G03X2751101Y858664I-2682J12128D01*
G01*
G03X2755825Y862705I-6635J12541D01*
G01*
G03X2758301Y868175I-9814J7736D01*
G01*
G03X2758765Y872558I-32405J5651D01*
G01*
G03X2758921Y879394I-125306J6282D01*
G01*
G03X2758765Y886144I-122313J548D01*
G01*
G03X2758301Y890471I-32069J-1255D01*
G01*
G03X2755825Y895941I-12570J-2393D01*
G01*
G03X2751101Y899982I-11828J-9047D01*
G01*
G03X2747924Y901186I-5886J-10731D01*
G01*
G03X2744185Y901591I-3644J-16210D01*
G01*
G03X2738105Y900163I-174J-12918D01*
G01*
G03X2732945Y896444I10978J-20670D01*
G01*
Y918639D1*
X2724198D1*
Y857598D1*
X2732945D1*
X2857731Y935014D2*
G02X2854953Y935280I-120J13435D01*
G01*
G02X2852791Y936072I1489J7404D01*
G01*
G02X2850318Y939245I2549J4538D01*
G01*
G02X2849084Y948504I31892J8961D01*
G01*
G02X2850318Y957793I33312J302D01*
G01*
G02X2852791Y960991I5050J-1350D01*
G01*
G02X2854953Y961789I3586J-6387D01*
G01*
G02X2857731Y962056I2626J-12705D01*
G01*
G02X2860497Y961780I119J-12773D01*
G01*
G02X2862648Y960955I-1477J-7073D01*
G01*
G02X2865098Y957652I-2765J-4611D01*
G01*
G02X2866315Y948504I-33083J-9054D01*
G01*
G02X2865098Y939398I-33993J-93D01*
G01*
G02X2862648Y936109I-5181J1303D01*
G01*
G02X2860497Y935289I-3666J6383D01*
G01*
G02X2857731Y935014I-2614J12281D01*
G01*
D3*
X2498127Y945247D2*
X2525206D1*
G02X2524479Y940551I-13811J-266D01*
G01*
G02X2522294Y937197I-7816J2703D01*
G01*
G02X2518976Y935184I-6544J7043D01*
G01*
G02X2514852Y934512I-3974J11400D01*
G01*
G02X2509765Y935562I-80J12461D01*
G01*
G02X2505304Y938714I5937J13134D01*
G01*
X2498971Y933306D1*
G03X2502409Y930070I15860J13406D01*
G01*
G03X2506249Y927917I10077J13478D01*
G01*
G03X2514694Y926310I8379J21029D01*
G01*
G03X2521285Y927391I-6J20663D01*
G01*
G03X2527671Y930640I-8254J24120D01*
G01*
G03X2530420Y933374I-6324J9110D01*
G01*
G03X2532383Y937243I-12700J8877D01*
G01*
G03X2533563Y942247I-24573J8435D01*
G01*
G03X2533954Y948383I-44038J5887D01*
G01*
G03X2533592Y954247I-43175J276D01*
G01*
G03X2532504Y959127I-27227J-3508D01*
G01*
G03X2530689Y963028I-16375J-5248D01*
G01*
G03X2528154Y965946I-10568J-6620D01*
G01*
G03X2522219Y969588I-14321J-16680D01*
G01*
G03X2516021Y970802I-6220J-15329D01*
G01*
G03X2509308Y969560I-129J-18071D01*
G01*
G03X2503493Y965836I7074J-17447D01*
G01*
G03X2499470Y960007I10785J-11747D01*
G01*
G03X2498127Y952445I18858J-7248D01*
G01*
Y945247D1*
X2731361Y934050D2*
X2725249Y940101D1*
G02X2718967Y935908I-13738J13780D01*
G01*
G02X2711541Y934512I-7246J18092D01*
G01*
G02X2708140Y934865I-130J15298D01*
G01*
G02X2705387Y935920I2110J9626D01*
G01*
G02X2703560Y937668I2317J4249D01*
G01*
G02X2702954Y940101I4153J2327D01*
G01*
G02X2703287Y941793I4073J76D01*
G01*
G02X2704287Y943067I3100J-1404D01*
G01*
G02X2705950Y943924I3125J-4022D01*
G01*
G02X2708282Y944362I3069J-9907D01*
G01*
X2715982Y945087D1*
G03X2720927Y946176I-1097J16750D01*
G01*
G03X2724946Y948636I-4914J12540D01*
G01*
G03X2727619Y952399I-6560J7492D01*
G01*
G03X2728508Y957392I-12368J4776D01*
G01*
G03X2727346Y963202I-13732J276D01*
G01*
G03X2723862Y967404I-9756J-4544D01*
G01*
G03X2718651Y969953I-9847J-13534D01*
G01*
G03X2712304Y970802I-6115J-21560D01*
G01*
G03X2707016Y970400I-181J-32644D01*
G01*
G03X2702541Y969194I3509J-21925D01*
G01*
G03X2695253Y964891I9602J-24583D01*
G01*
X2700661Y958518D1*
G02X2706018Y961423I16549J-24133D01*
G01*
G02X2712304Y962559I6012J-15300D01*
G01*
G02X2715849Y962186I279J-14384D01*
G01*
G02X2718123Y961072I-1118J-5161D01*
G01*
G02X2719761Y957312I-3229J-3643D01*
G01*
G02X2719458Y955937I-3181J-20D01*
G01*
G02X2718545Y954668I-4014J1926D01*
G01*
G02X2716804Y953694I-2886J3116D01*
G01*
G02X2714012Y953209I-3477J11723D01*
G01*
X2706814Y952706D1*
G03X2703675Y952272I1283J-20834D01*
G01*
G03X2701016Y951432I2934J-13916D01*
G01*
G03X2697131Y948535I3728J-9054D01*
G01*
G03X2694940Y944467I10447J-8252D01*
G01*
G03X2694206Y939678I14547J-4679D01*
G01*
G03X2695518Y933999I12038J-210D01*
G01*
G03X2699445Y929787I10147J5524D01*
G01*
G03X2705259Y927178I10931J16575D01*
G01*
G03X2712222Y926310I6705J25398D01*
G01*
G03X2722434Y928244I179J26982D01*
G01*
G03X2731361Y934050I-11035J26732D01*
G01*
D3*
X2525206Y952445D2*
X2506852D1*
G02X2507644Y956776I14277J-375D01*
G01*
G02X2509617Y959955I8292J-2942D01*
G01*
G02X2512500Y961908I6158J-5987D01*
G01*
G02X2516021Y962559I3423J-8667D01*
G01*
G02X2519589Y961908I97J-9572D01*
G01*
G02X2522495Y959955I-3250J-7973D01*
G01*
G02X2524461Y956776I-6189J-6024D01*
G01*
G02X2525206Y952445I-13273J-4514D01*
G01*
D3*
X2875060Y857598D2*
Y970299D1*
X2866315D1*
Y965736D1*
G03X2861223Y969535I-11519J-10127D01*
G01*
G03X2855075Y970802I-6004J-13589D01*
G01*
G03X2851369Y970400I-130J-16099D01*
G01*
G03X2848209Y969194I2744J-11934D01*
G01*
G03X2843434Y965152I7463J-13655D01*
G01*
G03X2840982Y959682I10504J-7995D01*
G01*
G03X2840499Y955331I30846J-5626D01*
G01*
G03X2840339Y948504I123193J-6304D01*
G01*
G03X2840499Y941720I121754J-520D01*
G01*
G03X2840982Y937367I31259J1265D01*
G01*
G03X2843434Y931919I12695J2438D01*
G01*
G03X2848209Y927878I11741J9032D01*
G01*
G03X2851369Y926701I5788J10708D01*
G01*
G03X2855075Y926310I3593J16298D01*
G01*
G03X2861177Y927685I223J13236D01*
G01*
G03X2866315Y931416I-9902J19038D01*
G01*
Y896444D1*
X2866151D1*
G03X2861283Y900302I-10362J-8073D01*
G01*
G03X2854833Y901591I-6179J-14141D01*
G01*
G03X2849856Y900626I23J-13445D01*
G01*
G03X2845054Y897739I6839J-16811D01*
G01*
G03X2841517Y893007I7554J-9333D01*
G01*
G03X2840635Y889979I12917J-5405D01*
G01*
G03X2840339Y886510I18616J-3339D01*
G01*
Y857598D1*
X2849084D1*
Y883495D1*
G02X2849696Y887415I11663J188D01*
G01*
G02X2851537Y890370I7472J-2604D01*
G01*
G02X2854290Y892224I5832J-5687D01*
G01*
G02X2857648Y892843I3241J-8176D01*
G01*
G02X2861083Y892224I118J-9192D01*
G01*
G02X2863861Y890370I-2980J-7473D01*
G01*
G02X2865702Y887415I-5631J-5559D01*
G01*
G02X2866315Y883495I-11095J-3743D01*
G01*
Y857598D1*
X2875060D1*
X2689626Y1094199D2*
D17*
G02X2752457Y1121299I19235J41791D01*
G01*
X2728096Y1094199D2*
G03X2727029Y1091493I876J-1909D01*
G01*
X2754606Y1023946D1*
G03X2757358Y1022798I1948J797D01*
G01*
X2772337Y1029004D1*
G02X2774323Y1028803I806J-1946D01*
G01*
X2807270Y1006513D1*
G03X2809934Y1006766I1179J1736D01*
G01*
X2838084Y1034916D1*
G03X2838337Y1037581I-1484J1486D01*
G01*
X2816047Y1070526D1*
G02X2815846Y1072509I1762J1180D01*
G01*
X2829399Y1105226D1*
G02X2830942Y1106487I1943J-803D01*
G01*
X2869999Y1114021D1*
G03X2871703Y1116084I-394J2062D01*
G01*
Y1155894D1*
G03X2869999Y1157959I-2099J4D01*
G01*
X2830942Y1165493D1*
G02X2829399Y1166753I395J2059D01*
G01*
X2815846Y1199469D1*
G02X2816047Y1201451I1963J803D01*
G01*
X2838337Y1234399D1*
G03X2838084Y1237064I-1738J1180D01*
G01*
X2809934Y1265214D1*
G03X2807270Y1265467I-1485J-1483D01*
G01*
X2774323Y1243177D1*
G02X2772337Y1242976I-1179J1746D01*
G01*
X2739625Y1256529D1*
G02X2738365Y1258072I799J1939D01*
G01*
X2730829Y1297130D1*
G03X2728765Y1298835I-2067J-401D01*
G01*
X2688957D1*
G03X2686892Y1297130I1J-2103D01*
G01*
X2679357Y1258072D1*
G02X2678097Y1256529I-2059J395D01*
G01*
X2645379Y1242976D1*
G02X2643399Y1243177I-804J1937D01*
G01*
X2610451Y1265467D1*
G03X2607785Y1265214I-1180J-1741D01*
G01*
X2579638Y1237064D1*
G03X2579383Y1234399I1481J-1486D01*
G01*
X2601673Y1201451D1*
G02X2601874Y1199469I-1740J-1178D01*
G01*
X2588324Y1166753D1*
G02X2586777Y1165493I-1945J808D01*
G01*
X2547720Y1157959D1*
G03X2546016Y1155894I401J-2067D01*
G01*
Y1116084D1*
G03X2547720Y1114021I2106J4D01*
G01*
X2586777Y1106487D1*
G02X2588324Y1105226I-402J-2073D01*
G01*
X2601874Y1072509D1*
G02X2601673Y1070526I-1941J-805D01*
G01*
X2579383Y1037581D1*
G03X2579638Y1034916I1736J-1179D01*
G01*
X2607785Y1006766D1*
G03X2610451Y1006513I1487J1488D01*
G01*
X2643399Y1028803D1*
G02X2645379Y1029004I1176J-1736D01*
G01*
X2660362Y1022798D1*
G03X2663113Y1023946I803J1944D01*
G01*
X2690690Y1091493D1*
G03X2689626Y1094199I-1941J799D01*
G01*
G36*
X3719963Y3299801D2*
Y3299144D1*
X3720619Y3297832D1*
X3723244Y3293895D1*
X3723900Y3292583D1*
X3726525Y3288646D1*
X3727181Y3287333D1*
X3729806Y3283396D1*
X3730462Y3282084D1*
X3733086Y3278147D1*
X3733743Y3276835D1*
X3735055Y3274866D1*
X3736367Y3273554D1*
X3735055Y3272242D1*
X3734399Y3270929D1*
X3733086Y3268961D1*
X3732430Y3267648D1*
X3729806Y3263711D1*
X3729149Y3262399D1*
X3727837Y3260430D1*
X3727181Y3259118D1*
X3725869Y3257150D1*
X3725212Y3255837D1*
X3723900Y3253869D1*
X3723244Y3252556D1*
X3720619Y3248619D1*
X3719963Y3247307D1*
X3727181D1*
X3728493Y3248619D1*
X3729149Y3249932D1*
X3730462Y3251900D1*
X3731118Y3253213D1*
X3732430Y3255181D1*
X3733086Y3256493D1*
X3734399Y3258462D1*
X3735055Y3259774D1*
X3736367Y3261743D1*
X3737023Y3263055D1*
X3738336Y3265024D1*
X3738992Y3266336D1*
X3739128Y3266781D1*
X3739721Y3267369D1*
X3740304Y3267648D1*
X3741617Y3266336D1*
Y3265680D1*
X3742273Y3264367D1*
X3744898Y3260430D1*
X3745554Y3259118D1*
X3746866Y3257150D1*
X3747522Y3255837D1*
X3748835Y3253869D1*
X3749491Y3252556D1*
X3752115Y3248619D1*
X3752772Y3247307D1*
X3759989D1*
X3759333Y3248619D1*
X3755396Y3254525D1*
X3754740Y3255837D1*
X3752115Y3259774D1*
X3751459Y3261087D1*
X3748835Y3265024D1*
X3748178Y3266336D1*
X3745554Y3270273D1*
X3744898Y3271585D1*
X3743585Y3272898D1*
Y3273554D1*
X3744898Y3274866D1*
X3745554Y3276179D1*
X3746866Y3278147D1*
X3747522Y3279459D1*
X3750147Y3283396D1*
X3750803Y3284709D1*
X3752115Y3286677D1*
X3752772Y3287990D1*
X3754084Y3289958D1*
X3754740Y3291270D1*
X3757365Y3295207D1*
X3758021Y3296520D1*
X3759333Y3298488D1*
X3759989Y3299801D1*
X3752772D1*
X3751459Y3298488D1*
X3750803Y3297176D1*
X3749491Y3295207D1*
X3748835Y3293895D1*
X3747522Y3291927D1*
X3746866Y3290614D1*
X3745554Y3288646D1*
X3744898Y3287333D1*
X3743585Y3285365D1*
X3742929Y3284053D1*
X3741617Y3282084D1*
X3740630Y3280114D1*
X3740249Y3279429D1*
X3739608Y3278745D1*
X3739270Y3278853D1*
X3738992Y3279459D1*
X3738336Y3280772D1*
X3737023Y3282740D1*
X3736367Y3284053D1*
X3735055Y3286021D1*
X3734399Y3287333D1*
X3731774Y3291270D1*
X3731118Y3292583D1*
X3729806Y3294551D1*
X3729149Y3295864D1*
X3726525Y3299801D1*
X3719963D1*
G37*
G36*
X3792798D2*
Y3247307D1*
X3798703D1*
Y3293239D1*
X3822325Y3293895D1*
Y3299801D1*
X3792798D1*
G37*
G36*
X3826918D2*
Y3295207D1*
X3833480Y3294551D1*
Y3252556D1*
X3826918Y3251900D1*
Y3247307D1*
X3846604D1*
Y3251900D1*
X3840042Y3252556D1*
Y3294551D1*
X3846604Y3295207D1*
Y3299801D1*
X3826918D1*
G37*
G36*
X3855790D2*
Y3247307D1*
X3864976D1*
X3866289Y3249932D1*
X3866945Y3251900D1*
X3868913Y3255837D1*
X3869569Y3257806D1*
X3871538Y3261743D1*
X3872194Y3263711D1*
X3874819Y3268961D1*
X3875475Y3270929D1*
X3877443Y3274866D1*
Y3276179D1*
X3877933Y3276600D1*
X3878274Y3276562D1*
X3878725Y3276113D1*
X3879076Y3275510D1*
X3880068Y3273554D1*
X3880724Y3271585D1*
X3882037Y3268961D1*
X3882693Y3266992D1*
X3884005Y3264367D1*
X3884661Y3262399D1*
X3885974Y3259774D1*
X3886630Y3257806D1*
X3887942Y3255181D1*
X3888598Y3253213D1*
X3889911Y3250588D1*
X3890567Y3248619D1*
X3891223Y3247307D1*
X3900409D1*
Y3299801D1*
X3894504D1*
Y3255181D1*
X3893808Y3254468D1*
X3893470Y3254574D1*
X3893048Y3255296D1*
X3893191Y3255837D1*
X3891879Y3258462D1*
X3891223Y3260430D1*
X3889254Y3264367D1*
X3888598Y3266336D1*
X3886630Y3270273D1*
X3885974Y3272242D1*
X3884005Y3276179D1*
X3883349Y3278147D1*
X3881380Y3282084D1*
X3880724Y3284053D1*
X3880068Y3285365D1*
X3876131D1*
X3875475Y3284709D1*
X3874819Y3282740D1*
X3872850Y3278803D1*
X3872194Y3276835D1*
X3870226Y3272898D1*
X3869569Y3270929D1*
X3868257Y3268304D1*
X3867601Y3266336D1*
X3865632Y3262399D1*
X3864976Y3260430D1*
X3863008Y3256493D1*
Y3255181D1*
X3862312Y3254468D1*
X3861972Y3254575D1*
X3861695Y3255181D1*
Y3299801D1*
X3855790D1*
G37*
G36*
X3764583Y3280116D2*
Y3274210D1*
X3783611D1*
Y3280116D1*
X3764583D1*
G37*
G36*
X3292142Y3299801D2*
Y3276835D1*
X3291485Y3276179D1*
X3290829Y3274866D1*
X3289517Y3272898D1*
X3288205Y3270273D1*
X3286892Y3268304D1*
X3286236Y3266992D1*
X3284924Y3265024D1*
X3284268Y3263711D1*
X3282955Y3261743D1*
X3281643Y3259118D1*
X3280331Y3257150D1*
X3279674Y3255837D1*
X3278362Y3253869D1*
X3277706Y3252556D1*
X3276394Y3250588D1*
X3275737Y3249276D1*
X3274425Y3247307D1*
X3281643D1*
X3282299Y3247963D1*
X3283611Y3249932D1*
X3284924Y3252556D1*
X3286236Y3254525D1*
X3286892Y3255837D1*
X3288205Y3257806D1*
X3289517Y3260430D1*
X3290829Y3262399D1*
X3291485Y3263711D1*
X3292798Y3265680D1*
X3294110Y3268304D1*
Y3268961D1*
X3295422Y3270273D1*
X3296021Y3270022D1*
X3296593Y3269383D1*
X3296735Y3268961D1*
X3297391Y3267648D1*
X3298703Y3265680D1*
X3299359Y3264367D1*
X3300672Y3262399D1*
X3301328Y3261087D1*
X3302640Y3259118D1*
X3303953Y3256493D1*
X3305265Y3254525D1*
X3305921Y3253213D1*
X3307233Y3251244D1*
X3307890Y3249932D1*
X3309202Y3247963D1*
X3309858Y3247307D1*
X3316420D1*
X3315107Y3249932D1*
X3313795Y3251900D1*
X3313139Y3253213D1*
X3311827Y3255181D1*
X3311170Y3256493D1*
X3309858Y3258462D1*
X3309202Y3259774D1*
X3307890Y3261743D1*
X3307233Y3263055D1*
X3304609Y3266992D1*
X3303953Y3268304D1*
X3302640Y3270273D1*
X3301984Y3271585D1*
X3300672Y3273554D1*
X3300016Y3274866D1*
X3298703Y3276179D1*
Y3299801D1*
X3292142D1*
G37*
G36*
X3348572D2*
Y3247307D1*
X3354478D1*
Y3293239D1*
X3378100Y3293895D1*
Y3299801D1*
X3348572D1*
G37*
G36*
X3382693D2*
Y3295207D1*
X3389254Y3294551D1*
Y3252556D1*
X3382693Y3251900D1*
Y3247307D1*
X3402378D1*
Y3251900D1*
X3395816Y3252556D1*
Y3294551D1*
X3402378Y3295207D1*
Y3299801D1*
X3382693D1*
G37*
G36*
X3411564D2*
Y3247307D1*
X3420751D1*
X3422063Y3249932D1*
X3422719Y3251900D1*
X3424688Y3255837D1*
X3425344Y3257806D1*
X3427312Y3261743D1*
X3427968Y3263711D1*
X3430593Y3268961D1*
X3431249Y3270929D1*
X3433218Y3274866D1*
Y3276179D1*
X3433708Y3276600D1*
X3434048Y3276562D1*
X3434499Y3276113D1*
X3434851Y3275510D1*
X3435842Y3273554D1*
X3436499Y3271585D1*
X3437811Y3268961D1*
X3438467Y3266992D1*
X3439779Y3264367D1*
X3440436Y3262399D1*
X3441748Y3259774D1*
X3442404Y3257806D1*
X3443716Y3255181D1*
X3444373Y3253213D1*
X3445685Y3250588D1*
X3446341Y3248619D1*
X3446997Y3247307D1*
X3456184D1*
Y3299801D1*
X3450278D1*
Y3255181D1*
X3449582Y3254468D1*
X3449244Y3254574D1*
X3448823Y3255296D1*
X3448966Y3255837D1*
X3447653Y3258462D1*
X3446997Y3260430D1*
X3445029Y3264367D1*
X3444373Y3266336D1*
X3442404Y3270273D1*
X3441748Y3272242D1*
X3439779Y3276179D1*
X3439123Y3278147D1*
X3437155Y3282084D1*
X3436499Y3284053D1*
X3435842Y3285365D1*
X3431905D1*
X3431249Y3284709D1*
X3430593Y3282740D1*
X3428625Y3278803D1*
X3427968Y3276835D1*
X3426000Y3272898D1*
X3425344Y3270929D1*
X3424031Y3268304D1*
X3423375Y3266336D1*
X3421407Y3262399D1*
X3420751Y3260430D1*
X3418782Y3256493D1*
Y3255181D1*
X3418086Y3254468D1*
X3417747Y3254575D1*
X3417470Y3255181D1*
Y3299801D1*
X3411564D1*
G37*
G36*
X3320357Y3280116D2*
Y3274210D1*
X3339386D1*
Y3280116D1*
X3320357D1*
G37*
G36*
X2820357Y3299801D2*
Y3293239D1*
X2821013Y3291927D1*
X2822981Y3289302D1*
X2824294Y3287333D1*
X2826262Y3284709D1*
X2827575Y3282740D1*
X2829543Y3280116D1*
X2830856Y3278147D1*
X2832824Y3275522D1*
X2834136Y3273554D1*
X2836105Y3270929D1*
X2837417Y3268961D1*
X2839386Y3266336D1*
X2840698Y3264367D1*
X2842667Y3261743D1*
X2843979Y3259774D1*
X2845947Y3257150D1*
X2847260Y3255181D1*
X2848572Y3253869D1*
X2821669Y3253213D1*
Y3247307D1*
X2855790D1*
Y3253869D1*
X2853165Y3257806D1*
X2851197Y3260430D1*
X2849884Y3262399D1*
X2847916Y3265024D1*
X2846604Y3266992D1*
X2842667Y3272242D1*
X2841354Y3274210D1*
X2839386Y3276835D1*
X2838073Y3278803D1*
X2836105Y3281428D1*
X2834793Y3283396D1*
X2832824Y3286021D1*
X2831512Y3287990D1*
X2829543Y3290614D1*
X2828231Y3292583D1*
X2856446Y3293895D1*
Y3299801D1*
X2820357D1*
G37*
G36*
X2890567D2*
Y3247307D1*
X2896472D1*
Y3293239D1*
X2920094Y3293895D1*
Y3299801D1*
X2890567D1*
G37*
G36*
X2924688D2*
Y3295207D1*
X2931249Y3294551D1*
Y3252556D1*
X2924688Y3251900D1*
Y3247307D1*
X2944373D1*
Y3251900D1*
X2937811Y3252556D1*
Y3294551D1*
X2944373Y3295207D1*
Y3299801D1*
X2924688D1*
G37*
G36*
X2953559D2*
Y3247307D1*
X2962745D1*
X2964058Y3249932D1*
X2964714Y3251900D1*
X2966682Y3255837D1*
X2967338Y3257806D1*
X2969307Y3261743D1*
X2969963Y3263711D1*
X2972588Y3268961D1*
X2973244Y3270929D1*
X2975212Y3274866D1*
Y3276179D1*
X2975703Y3276600D1*
X2976043Y3276562D1*
X2976494Y3276113D1*
X2976845Y3275510D1*
X2977837Y3273554D1*
X2978493Y3271585D1*
X2979806Y3268961D1*
X2980462Y3266992D1*
X2981774Y3264367D1*
X2982430Y3262399D1*
X2983743Y3259774D1*
X2984399Y3257806D1*
X2985711Y3255181D1*
X2986367Y3253213D1*
X2987680Y3250588D1*
X2988336Y3248619D1*
X2988992Y3247307D1*
X2998178D1*
Y3299801D1*
X2992273D1*
Y3255181D1*
X2991577Y3254468D1*
X2991239Y3254574D1*
X2990818Y3255296D1*
X2990960Y3255837D1*
X2989648Y3258462D1*
X2988992Y3260430D1*
X2987023Y3264367D1*
X2986367Y3266336D1*
X2984399Y3270273D1*
X2983743Y3272242D1*
X2981774Y3276179D1*
X2981118Y3278147D1*
X2979149Y3282084D1*
X2978493Y3284053D1*
X2977837Y3285365D1*
X2973900D1*
X2973244Y3284709D1*
X2972588Y3282740D1*
X2970619Y3278803D1*
X2969963Y3276835D1*
X2967995Y3272898D1*
X2967338Y3270929D1*
X2966026Y3268304D1*
X2965370Y3266336D1*
X2963401Y3262399D1*
X2962745Y3260430D1*
X2960777Y3256493D1*
Y3255181D1*
X2960081Y3254468D1*
X2959741Y3254575D1*
X2959464Y3255181D1*
Y3299801D1*
X2953559D1*
G37*
G36*
X2862352Y3280116D2*
Y3274210D1*
X2881380D1*
Y3280116D1*
X2862352D1*
G37*
G36*
X2463401Y3295207D2*
X2460777Y3292583D1*
X2459464Y3290614D1*
X2458152Y3287990D1*
X2456840Y3284053D1*
X2456184Y3281428D1*
X2455527Y3276179D1*
Y3270929D1*
X2456184Y3265680D1*
X2456840Y3263055D1*
X2458152Y3259118D1*
X2459464Y3256493D1*
X2460777Y3254525D1*
X2466026Y3249276D1*
X2469963Y3247307D1*
X2471932Y3246651D1*
X2475212Y3245995D1*
X2483086D1*
X2485711Y3246651D1*
X2487680Y3247307D1*
X2491617Y3249276D1*
X2493585Y3250588D1*
X2496210Y3253213D1*
X2498835Y3257150D1*
X2499491Y3258462D1*
X2501459Y3264367D1*
X2502115Y3268304D1*
Y3278803D1*
X2501459Y3282740D1*
X2499491Y3288646D1*
X2498835Y3289958D1*
X2496210Y3293895D1*
X2493585Y3296520D1*
X2491617Y3297832D1*
X2487680Y3299801D1*
X2485711Y3300457D1*
X2482430Y3301113D1*
X2475212D1*
X2471932Y3300457D1*
X2469963Y3299801D1*
X2466026Y3297832D1*
X2463401Y3295207D1*
X2475212D1*
X2477837Y3295864D1*
X2480462D1*
X2483086Y3295207D1*
X2485055Y3294551D1*
X2487680Y3293239D1*
X2492273Y3288646D1*
Y3287990D1*
X2492929Y3286677D1*
X2494241Y3282740D1*
X2494898Y3279459D1*
X2495554Y3278803D1*
Y3268304D1*
X2494898Y3267648D1*
X2494241Y3264367D1*
X2492929Y3260430D1*
X2492273Y3259118D1*
X2490304Y3256493D1*
X2490089Y3255697D1*
X2489648Y3255181D1*
X2488336Y3254525D1*
X2487680Y3253869D1*
X2485055Y3252556D1*
X2483086Y3251900D1*
X2480462Y3251244D1*
X2477837D1*
X2472588Y3252556D1*
X2469963Y3253869D1*
X2466026Y3257806D1*
Y3258462D1*
X2464714Y3261087D1*
X2464058Y3263055D1*
X2463401Y3265680D1*
X2462745Y3270273D1*
X2462089Y3270929D1*
Y3276179D1*
X2462745Y3276835D1*
X2463401Y3282084D1*
X2464714Y3286021D1*
X2466026Y3288646D1*
Y3289302D1*
X2469307Y3292583D1*
X2470619Y3293239D1*
X2471275Y3293895D1*
X2472588Y3294551D1*
X2475212Y3295207D1*
X2463401D1*
G37*
G36*
X2373506Y3274210D2*
Y3247307D1*
X2391223D1*
X2394504Y3247963D1*
X2396472Y3248619D1*
X2400409Y3250588D1*
X2403034Y3253213D1*
X2404346Y3255181D1*
X2405002Y3256493D1*
X2405659Y3258462D1*
X2406315Y3262399D1*
Y3263711D1*
X2405659Y3267648D1*
X2405002Y3269617D1*
X2403690Y3272242D1*
X2402378Y3274210D1*
X2401065Y3275522D1*
X2398441Y3277491D1*
X2395816Y3278803D1*
X2393848Y3279459D1*
X2390567Y3280116D1*
X2379412Y3280772D1*
Y3299801D1*
X2373506D1*
Y3274210D1*
X2379412D1*
X2383130Y3274866D1*
X2386849D1*
X2390567Y3274210D1*
X2393191Y3273554D1*
X2394504Y3272898D1*
X2398441Y3268961D1*
Y3267648D1*
X2399097Y3264367D1*
X2399593Y3263485D1*
X2399528Y3262894D1*
X2399097Y3262399D1*
X2398441Y3258462D1*
Y3257806D1*
X2395160Y3254525D1*
X2393848Y3253869D1*
X2391223Y3253213D1*
X2387286Y3252556D1*
X2383349D1*
X2379412Y3253213D1*
Y3274210D1*
X2373506D1*
G37*
G36*
X2413533Y3272898D2*
Y3247307D1*
X2432562D1*
X2435842Y3247963D1*
X2437811Y3248619D1*
X2439123Y3249276D1*
X2441092Y3250588D1*
X2443716Y3253213D1*
X2445685Y3257150D1*
Y3265680D1*
X2445029Y3267648D1*
X2443716Y3270273D1*
X2442404Y3272242D1*
X2440436Y3274210D1*
X2438467Y3275522D1*
X2435842Y3276835D1*
X2435186Y3277491D1*
X2437155Y3279459D1*
X2439779Y3282740D1*
X2443060Y3286677D1*
X2445685Y3289958D1*
X2452247Y3297832D1*
X2453559Y3299801D1*
X2445029D1*
X2444373Y3299144D1*
X2431249Y3282740D1*
Y3282084D1*
X2428625Y3279459D1*
X2425781Y3278803D1*
X2422938D1*
X2420094Y3279459D1*
Y3299801D1*
X2413533D1*
Y3272898D1*
X2420094D1*
X2423813Y3273554D1*
X2427531D1*
X2431249Y3272898D1*
X2433874Y3272242D1*
X2435186Y3271585D1*
X2437811Y3268961D1*
Y3268304D1*
X2438467Y3266336D1*
X2439123Y3265680D1*
Y3258462D1*
X2438467Y3257806D1*
Y3257150D1*
X2435842Y3254525D1*
X2434530Y3253869D1*
X2431905Y3253213D1*
X2427968Y3252556D1*
X2424031D1*
X2420094Y3253213D1*
Y3272898D1*
X2413533D1*
G37*
G36*
X2510646Y3268304D2*
Y3247307D1*
X2531643D1*
X2534924Y3247963D1*
X2536892Y3248619D1*
X2538861Y3249932D1*
X2541485Y3252556D1*
X2542798Y3255181D1*
Y3262399D1*
X2542142Y3264367D1*
X2540829Y3266336D1*
X2538205Y3268961D1*
X2535580Y3270273D1*
X2536236Y3270929D1*
X2538205Y3271585D1*
X2539517Y3272242D1*
X2541485Y3273554D1*
X2542798Y3274866D1*
X2544110Y3276835D1*
X2544766Y3278147D1*
X2545422Y3280116D1*
Y3287333D1*
X2544110Y3291270D1*
X2542798Y3293239D1*
X2540173Y3295864D1*
X2538205Y3297176D1*
X2535580Y3298488D1*
X2533611Y3299144D1*
X2530331Y3299801D1*
X2510646D1*
Y3293895D1*
X2516551D1*
X2520925Y3294551D1*
X2525300D1*
X2529674Y3293895D1*
X2532955Y3293239D1*
X2534268Y3292583D1*
X2534924Y3291927D1*
X2536236Y3291270D1*
X2537548Y3289958D1*
Y3289302D1*
X2538205Y3287990D1*
X2538861Y3287333D1*
Y3280772D1*
X2538205Y3280116D1*
Y3278803D1*
X2536236Y3276835D1*
X2533611Y3275522D1*
X2531643Y3274866D1*
X2526612Y3274210D1*
X2521582D1*
X2516551Y3274866D1*
Y3293895D1*
X2510646D1*
Y3268304D1*
X2516551D1*
X2521144Y3268961D1*
X2525737D1*
X2530331Y3268304D1*
X2532299Y3267648D1*
X2533611Y3266992D1*
X2535580Y3265024D1*
Y3264367D1*
X2536236Y3263711D1*
Y3257150D1*
X2535580Y3256493D1*
Y3255837D1*
X2534268Y3254525D1*
X2532955Y3253869D1*
X2530987Y3253213D1*
X2526175Y3252556D1*
X2521363D1*
X2516551Y3253213D1*
Y3268304D1*
X2510646D1*
G37*
G36*
X2553296Y3299801D2*
Y3247307D1*
X2585449D1*
Y3253213D1*
X2559202Y3253869D1*
Y3267648D1*
X2583480Y3268304D1*
Y3274210D1*
X2559202Y3274866D1*
Y3293239D1*
X2585449Y3293895D1*
Y3299801D1*
X2553296D1*
G37*
G36*
X822981Y462530D2*
X820357Y459906D1*
X819044Y457937D1*
X817732Y455312D1*
X816420Y451375D1*
X815764Y448751D1*
X815107Y444158D1*
Y437596D1*
X815764Y433003D1*
X816420Y430378D1*
X817732Y426441D1*
X819044Y423816D1*
X820357Y421848D1*
X825606Y416598D1*
X829543Y414630D1*
X831512Y413974D1*
X834793Y413318D1*
X842667D1*
X845291Y413974D1*
X847260Y414630D1*
X851197Y416598D1*
X853165Y417911D1*
X855790Y420535D1*
X858415Y424472D1*
X859071Y425785D1*
X861039Y431690D1*
X861695Y435627D1*
Y446126D1*
X861039Y450063D1*
X859071Y455969D1*
X858415Y457281D1*
X855790Y461218D1*
X853165Y463843D1*
X851197Y465155D1*
X847260Y467123D1*
X845291Y467780D1*
X842667Y468436D1*
X834793D1*
X831512Y467780D1*
X829543Y467123D1*
X826918Y465811D1*
X824950Y464499D1*
X822981Y462530D1*
X834793D1*
X837417Y463186D1*
X840042D1*
X842667Y462530D1*
X844635Y461874D1*
X847260Y460562D1*
X847916Y459906D1*
X849228Y459249D1*
X849757Y458402D1*
X849884Y457937D1*
X851853Y455312D1*
X852509Y454000D1*
X853821Y450063D1*
X854478Y446126D1*
X855134Y445470D1*
Y436284D1*
X854478Y435627D1*
X853821Y431690D1*
X852509Y427753D1*
X851853Y426441D1*
Y425785D1*
X847260Y421192D1*
X844635Y419879D1*
X842667Y419223D1*
X840042Y418567D1*
X837417D1*
X832168Y419879D1*
X830856Y420535D1*
X830199Y421192D1*
X828887Y421848D1*
X825606Y425129D1*
Y425785D1*
X824294Y428409D1*
X822981Y432346D1*
X822325Y437596D1*
X821669Y438252D1*
Y443501D1*
X822325Y444158D1*
X822981Y449407D1*
X824294Y453344D1*
X825606Y455969D1*
Y456625D1*
X829543Y460562D1*
X832168Y461874D1*
X834793Y462530D1*
X822981D1*
G37*
G36*
X917470D2*
X914845Y459906D1*
X913533Y457937D1*
X912220Y455312D1*
X910908Y451375D1*
X910252Y448751D1*
X909596Y444158D1*
Y437596D1*
X910252Y433003D1*
X910908Y430378D1*
X912220Y426441D1*
X913533Y423816D1*
X914845Y421848D1*
X920094Y416598D1*
X924031Y414630D1*
X926000Y413974D1*
X929281Y413318D1*
X937155D1*
X939779Y413974D1*
X941748Y414630D1*
X945685Y416598D1*
X947653Y417911D1*
X950278Y420535D1*
X952903Y424472D1*
X953559Y425785D1*
X955527Y431690D1*
X956184Y435627D1*
Y446126D1*
X955527Y450063D1*
X953559Y455969D1*
X952903Y457281D1*
X950278Y461218D1*
X947653Y463843D1*
X945685Y465155D1*
X941748Y467123D1*
X939779Y467780D1*
X937155Y468436D1*
X929281D1*
X926000Y467780D1*
X924031Y467123D1*
X921407Y465811D1*
X919438Y464499D1*
X917470Y462530D1*
X929281D1*
X931905Y463186D1*
X934530D1*
X937155Y462530D1*
X939123Y461874D1*
X941748Y460562D1*
X942404Y459906D1*
X943716Y459249D1*
X944245Y458402D1*
X944373Y457937D1*
X946341Y455312D1*
X946997Y454000D1*
X948310Y450063D1*
X948966Y446126D1*
X949622Y445470D1*
Y436284D1*
X948966Y435627D1*
X948310Y431690D1*
X946997Y427753D1*
X946341Y426441D1*
Y425785D1*
X941748Y421192D1*
X939123Y419879D1*
X937155Y419223D1*
X934530Y418567D1*
X931905D1*
X926656Y419879D1*
X925344Y420535D1*
X924688Y421192D1*
X923375Y421848D1*
X920094Y425129D1*
Y425785D1*
X918782Y428409D1*
X917470Y432346D1*
X916814Y437596D1*
X916157Y438252D1*
Y443501D1*
X916814Y444158D1*
X917470Y449407D1*
X918782Y453344D1*
X920094Y455969D1*
Y456625D1*
X924031Y460562D1*
X926656Y461874D1*
X929281Y462530D1*
X917470D1*
G37*
G36*
X777050Y461218D2*
X775737Y459906D1*
X775081Y458593D1*
X774425Y455969D1*
Y449407D1*
X775737Y445470D1*
X776394Y444158D1*
X780987Y439564D1*
X782955Y438252D1*
X784924Y437596D1*
X784708Y436800D1*
X784268Y436284D1*
X781643Y433003D1*
X778362Y429066D1*
X775737Y425785D1*
X769176Y417911D1*
X766551Y414630D1*
X775081D1*
X777050Y416598D1*
X790173Y433003D1*
Y433659D1*
X791485Y434971D1*
X794548Y435627D1*
X797610D1*
X800672Y434971D1*
Y414630D1*
X806577D1*
Y467123D1*
X787548D1*
X784268Y466467D1*
X782299Y465811D1*
X780987Y465155D1*
X779018Y463843D1*
X777050Y461874D1*
Y461218D1*
X788205D1*
X792360Y461874D1*
X796516D1*
X800672Y461218D1*
Y441533D1*
X796735Y440877D1*
X792798D1*
X788861Y441533D1*
X786892Y442189D1*
X784268Y443501D1*
X782955Y444814D1*
Y445470D1*
X782299Y446782D1*
X781643Y448751D1*
X780987Y449407D1*
Y454656D1*
X781643Y455312D1*
X782299Y457281D1*
Y457937D1*
X783611Y459249D1*
X786236Y460562D1*
X788205Y461218D1*
X777050D1*
G37*
G36*
X864976Y467123D2*
Y461218D1*
X882693Y460562D1*
Y414630D1*
X888598D1*
Y460562D1*
X906971Y461218D1*
Y467123D1*
X864976D1*
G37*
G36*
X964714D2*
Y414630D1*
X971275D1*
Y458593D1*
X971766Y459015D1*
X972097Y458960D1*
X972471Y458417D1*
X972588Y457937D1*
X973244Y455969D1*
X975212Y452032D1*
X975869Y450063D1*
X977837Y446126D1*
X978493Y444158D1*
X980462Y440221D1*
X981118Y438252D1*
X983086Y434315D1*
X983743Y432346D1*
X985055Y429722D1*
X985711Y429066D1*
X988992D1*
X989648Y429722D1*
X991617Y433659D1*
X992273Y435627D1*
X994241Y439564D1*
X994898Y441533D1*
X996210Y444158D1*
X996866Y446126D1*
X998835Y450063D1*
X999491Y452032D1*
X1001459Y455969D1*
X1002115Y457937D1*
X1002223Y458445D1*
X1002625Y458982D1*
X1002948Y458967D1*
X1003428Y458593D1*
Y414630D1*
X1009333D1*
Y467123D1*
X1000803D1*
X1000147Y466467D1*
X998178Y462530D1*
X997522Y460562D1*
X995554Y456625D1*
X994898Y454656D1*
X992273Y449407D1*
X991617Y447438D1*
X989648Y443501D1*
X988992Y441533D1*
X987680Y438908D1*
X987513Y438134D1*
X986985Y437535D1*
X986647Y437644D1*
X986224Y438367D1*
X986367Y438908D1*
X985055Y441533D1*
X984399Y443501D1*
X983086Y446126D1*
X982430Y448095D1*
X980462Y452032D1*
X979806Y454000D1*
X978493Y456625D1*
X977837Y458593D1*
X976525Y461218D1*
X975869Y463186D1*
X973900Y467123D1*
X964714D1*
G37*
G36*
X1042798D2*
Y466467D1*
X1043454Y465155D1*
X1046079Y461218D1*
X1046735Y459906D1*
X1050672Y454000D1*
X1051328Y452688D1*
X1053953Y448751D1*
X1054609Y447438D1*
X1057233Y443501D1*
X1057890Y442189D1*
X1058386Y441306D1*
X1058320Y440715D1*
X1057890Y440221D1*
X1057233Y438908D1*
X1054609Y434971D1*
X1053953Y433659D1*
X1052640Y431690D1*
X1051984Y430378D1*
X1050672Y428409D1*
X1050016Y427097D1*
X1047391Y423160D1*
X1046735Y421848D1*
X1045422Y419879D1*
X1044766Y418567D1*
X1043454Y416598D1*
X1042798Y415286D1*
Y414630D1*
X1050016D1*
X1050672Y415942D1*
X1051984Y417911D1*
X1052640Y419223D1*
X1053953Y421192D1*
X1054609Y422504D1*
X1055921Y424472D1*
X1056577Y425785D1*
X1057890Y427753D1*
X1058546Y429066D1*
X1059858Y431034D1*
X1060514Y432346D1*
X1061827Y434315D1*
X1061934Y434823D1*
X1062336Y435360D1*
X1062660Y435345D1*
X1063139Y434971D1*
X1065764Y431034D1*
X1066420Y429722D1*
X1067732Y427753D1*
X1068388Y426441D1*
X1069701Y424472D1*
X1070357Y423160D1*
X1072981Y419223D1*
X1073638Y417911D1*
X1074950Y415942D1*
X1075606Y414630D1*
X1082824D1*
X1082168Y415942D1*
X1079543Y419879D1*
X1078887Y421192D1*
X1076262Y425129D1*
X1075606Y426441D1*
X1071669Y432346D1*
X1071013Y433659D1*
X1068388Y437596D1*
X1067732Y438908D1*
X1066420Y440221D1*
Y441533D1*
X1067732Y442845D1*
X1068388Y444158D1*
X1069701Y446126D1*
X1070357Y447438D1*
X1071669Y449407D1*
X1072325Y450719D1*
X1074950Y454656D1*
X1075606Y455969D1*
X1076918Y457937D1*
X1077575Y459249D1*
X1078887Y461218D1*
X1079543Y462530D1*
X1080856Y464499D1*
X1082168Y467123D1*
X1074950D1*
X1074294Y466467D1*
X1073638Y465155D1*
X1072325Y463186D1*
X1071669Y461874D1*
X1070357Y459906D1*
X1069701Y458593D1*
X1068388Y456625D1*
X1067732Y455312D1*
X1066420Y453344D1*
X1065764Y452032D1*
X1064451Y450063D1*
X1063795Y448751D1*
Y448095D1*
X1062483Y446782D1*
X1061517Y446848D1*
X1060973Y447588D1*
X1061170Y448095D1*
X1059858Y450063D1*
X1059202Y451375D1*
X1057890Y453344D1*
X1057233Y454656D1*
X1055921Y456625D1*
X1055265Y457937D1*
X1052640Y461874D1*
X1051984Y463186D1*
X1050672Y465155D1*
X1050016Y466467D1*
X1049359Y467123D1*
X1042798D1*
G37*
G36*
X1018520Y440221D2*
Y434315D1*
X1038205D1*
Y440221D1*
X1018520D1*
G37*
G36*
X1443060Y462530D2*
X1440436Y459906D1*
X1439123Y457937D1*
X1437811Y455312D1*
X1436499Y451375D1*
X1435842Y448751D1*
X1435186Y444158D1*
Y437596D1*
X1435842Y433003D1*
X1436499Y430378D1*
X1437811Y426441D1*
X1439123Y423816D1*
X1440436Y421848D1*
X1445685Y416598D1*
X1449622Y414630D1*
X1451590Y413974D1*
X1454871Y413318D1*
X1462745D1*
X1465370Y413974D1*
X1467338Y414630D1*
X1471275Y416598D1*
X1473244Y417911D1*
X1475869Y420535D1*
X1478493Y424472D1*
X1479149Y425785D1*
X1481118Y431690D1*
X1481774Y435627D1*
Y446126D1*
X1481118Y450063D1*
X1479149Y455969D1*
X1478493Y457281D1*
X1475869Y461218D1*
X1473244Y463843D1*
X1471275Y465155D1*
X1467338Y467123D1*
X1465370Y467780D1*
X1462745Y468436D1*
X1454871D1*
X1451590Y467780D1*
X1449622Y467123D1*
X1446997Y465811D1*
X1445029Y464499D1*
X1443060Y462530D1*
X1454871D1*
X1457496Y463186D1*
X1460121D1*
X1462745Y462530D1*
X1464714Y461874D1*
X1467338Y460562D1*
X1467995Y459906D1*
X1469307Y459249D1*
X1469836Y458402D1*
X1469963Y457937D1*
X1471932Y455312D1*
X1472588Y454000D1*
X1473900Y450063D1*
X1474556Y446126D1*
X1475212Y445470D1*
Y436284D1*
X1474556Y435627D1*
X1473900Y431690D1*
X1472588Y427753D1*
X1471932Y426441D1*
Y425785D1*
X1467338Y421192D1*
X1464714Y419879D1*
X1462745Y419223D1*
X1460121Y418567D1*
X1457496D1*
X1452247Y419879D1*
X1450934Y420535D1*
X1450278Y421192D1*
X1448966Y421848D1*
X1445685Y425129D1*
Y425785D1*
X1444373Y428409D1*
X1443060Y432346D1*
X1442404Y437596D1*
X1441748Y438252D1*
Y443501D1*
X1442404Y444158D1*
X1443060Y449407D1*
X1444373Y453344D1*
X1445685Y455969D1*
Y456625D1*
X1449622Y460562D1*
X1452247Y461874D1*
X1454871Y462530D1*
X1443060D1*
G37*
G36*
X1537548D2*
X1534924Y459906D1*
X1533611Y457937D1*
X1532299Y455312D1*
X1530987Y451375D1*
X1530331Y448751D1*
X1529674Y444158D1*
Y437596D1*
X1530331Y433003D1*
X1530987Y430378D1*
X1532299Y426441D1*
X1533611Y423816D1*
X1534924Y421848D1*
X1540173Y416598D1*
X1544110Y414630D1*
X1546079Y413974D1*
X1549359Y413318D1*
X1557233D1*
X1559858Y413974D1*
X1561827Y414630D1*
X1565764Y416598D1*
X1567732Y417911D1*
X1570357Y420535D1*
X1572981Y424472D1*
X1573638Y425785D1*
X1575606Y431690D1*
X1576262Y435627D1*
Y446126D1*
X1575606Y450063D1*
X1573638Y455969D1*
X1572981Y457281D1*
X1570357Y461218D1*
X1567732Y463843D1*
X1565764Y465155D1*
X1561827Y467123D1*
X1559858Y467780D1*
X1557233Y468436D1*
X1549359D1*
X1546079Y467780D1*
X1544110Y467123D1*
X1541485Y465811D1*
X1539517Y464499D1*
X1537548Y462530D1*
X1549359D1*
X1551984Y463186D1*
X1554609D1*
X1557233Y462530D1*
X1559202Y461874D1*
X1561827Y460562D1*
X1562483Y459906D1*
X1563795Y459249D1*
X1564324Y458402D1*
X1564451Y457937D1*
X1566420Y455312D1*
X1567076Y454000D1*
X1568388Y450063D1*
X1569044Y446126D1*
X1569701Y445470D1*
Y436284D1*
X1569044Y435627D1*
X1568388Y431690D1*
X1567076Y427753D1*
X1566420Y426441D1*
Y425785D1*
X1561827Y421192D1*
X1559202Y419879D1*
X1557233Y419223D1*
X1554609Y418567D1*
X1551984D1*
X1546735Y419879D1*
X1545422Y420535D1*
X1544766Y421192D1*
X1543454Y421848D1*
X1540173Y425129D1*
Y425785D1*
X1538861Y428409D1*
X1537548Y432346D1*
X1536892Y437596D1*
X1536236Y438252D1*
Y443501D1*
X1536892Y444158D1*
X1537548Y449407D1*
X1538861Y453344D1*
X1540173Y455969D1*
Y456625D1*
X1544110Y460562D1*
X1546735Y461874D1*
X1549359Y462530D1*
X1537548D1*
G37*
G36*
X1397128Y461218D2*
X1395816Y459906D1*
X1395160Y458593D1*
X1394504Y455969D1*
Y449407D1*
X1395816Y445470D1*
X1396472Y444158D1*
X1401065Y439564D1*
X1403034Y438252D1*
X1405002Y437596D1*
X1404787Y436800D1*
X1404346Y436284D1*
X1401722Y433003D1*
X1398441Y429066D1*
X1395816Y425785D1*
X1389254Y417911D1*
X1386630Y414630D1*
X1395160D1*
X1397128Y416598D1*
X1410252Y433003D1*
Y433659D1*
X1411564Y434971D1*
X1414626Y435627D1*
X1417688D1*
X1420751Y434971D1*
Y414630D1*
X1426656D1*
Y467123D1*
X1407627D1*
X1404346Y466467D1*
X1402378Y465811D1*
X1401065Y465155D1*
X1399097Y463843D1*
X1397128Y461874D1*
Y461218D1*
X1408283D1*
X1412439Y461874D1*
X1416595D1*
X1420751Y461218D1*
Y441533D1*
X1416814Y440877D1*
X1412877D1*
X1408939Y441533D1*
X1406971Y442189D1*
X1404346Y443501D1*
X1403034Y444814D1*
Y445470D1*
X1402378Y446782D1*
X1401722Y448751D1*
X1401065Y449407D1*
Y454656D1*
X1401722Y455312D1*
X1402378Y457281D1*
Y457937D1*
X1403690Y459249D1*
X1406315Y460562D1*
X1408283Y461218D1*
X1397128D1*
G37*
G36*
X1485055Y467123D2*
Y461218D1*
X1502772Y460562D1*
Y414630D1*
X1508677D1*
Y460562D1*
X1527050Y461218D1*
Y467123D1*
X1485055D1*
G37*
G36*
X1584793D2*
Y414630D1*
X1591354D1*
Y458593D1*
X1591844Y459015D1*
X1592176Y458960D1*
X1592550Y458417D1*
X1592667Y457937D1*
X1593323Y455969D1*
X1595291Y452032D1*
X1595947Y450063D1*
X1597916Y446126D1*
X1598572Y444158D1*
X1600541Y440221D1*
X1601197Y438252D1*
X1603165Y434315D1*
X1603821Y432346D1*
X1605134Y429722D1*
X1605790Y429066D1*
X1609071D1*
X1609727Y429722D1*
X1611695Y433659D1*
X1612352Y435627D1*
X1614320Y439564D1*
X1614976Y441533D1*
X1616289Y444158D1*
X1616945Y446126D1*
X1618913Y450063D1*
X1619569Y452032D1*
X1621538Y455969D1*
X1622194Y457937D1*
X1622301Y458445D1*
X1622704Y458982D1*
X1623027Y458967D1*
X1623506Y458593D1*
Y414630D1*
X1629412D1*
Y467123D1*
X1620882D1*
X1620226Y466467D1*
X1618257Y462530D1*
X1617601Y460562D1*
X1615632Y456625D1*
X1614976Y454656D1*
X1612352Y449407D1*
X1611695Y447438D1*
X1609727Y443501D1*
X1609071Y441533D1*
X1607758Y438908D1*
X1607592Y438134D1*
X1607064Y437535D1*
X1606726Y437644D1*
X1606303Y438367D1*
X1606446Y438908D1*
X1605134Y441533D1*
X1604478Y443501D1*
X1603165Y446126D1*
X1602509Y448095D1*
X1600541Y452032D1*
X1599884Y454000D1*
X1598572Y456625D1*
X1597916Y458593D1*
X1596604Y461218D1*
X1595947Y463186D1*
X1593979Y467123D1*
X1584793D1*
G37*
G36*
X1661564D2*
X1662877Y465811D1*
Y465155D1*
X1663533Y463843D1*
X1664845Y461874D1*
X1665501Y460562D1*
X1666814Y458593D1*
X1667470Y457281D1*
X1668782Y455312D1*
X1669438Y454000D1*
X1670751Y452032D1*
X1671407Y450719D1*
X1672719Y448751D1*
X1673375Y447438D1*
X1674688Y445470D1*
X1675344Y444158D1*
X1676656Y442189D1*
X1677312Y440877D1*
X1678625Y438908D1*
X1679281Y414630D1*
X1685842D1*
Y437596D1*
X1687155Y438908D1*
X1688467Y441533D1*
X1689779Y443501D1*
X1690436Y444814D1*
X1691748Y446782D1*
X1692404Y448095D1*
X1693716Y450063D1*
X1695029Y452688D1*
X1696341Y454656D1*
X1696997Y455969D1*
X1698310Y457937D1*
X1698966Y459249D1*
X1700278Y461218D1*
X1701590Y463843D1*
X1702903Y465811D1*
X1703559Y467123D1*
X1696341D1*
X1695029Y465155D1*
X1694373Y463843D1*
X1693060Y461874D1*
X1691748Y459249D1*
X1690436Y457281D1*
X1689779Y455969D1*
X1688467Y454000D1*
X1687155Y451375D1*
X1685842Y449407D1*
X1685186Y448095D1*
X1683874Y446126D1*
X1683543Y445468D1*
X1683162Y444783D1*
X1682521Y444099D1*
X1682183Y444207D1*
X1681905Y444814D1*
X1680593Y446782D1*
X1679281Y449407D1*
X1677968Y451375D1*
X1677312Y452688D1*
X1676000Y454656D1*
X1675344Y455969D1*
X1674031Y457937D1*
X1673375Y459249D1*
X1672063Y461218D1*
X1670751Y463843D1*
X1669438Y465811D1*
X1668782Y467123D1*
X1661564D1*
G37*
G36*
X1638598Y440221D2*
Y434315D1*
X1658283D1*
Y440221D1*
X1638598D1*
G37*
G36*
X2008021Y462530D2*
X2005396Y459906D1*
X2004084Y457937D1*
X2002772Y455312D1*
X2001459Y451375D1*
X2000803Y448751D1*
X2000147Y444158D1*
Y437596D1*
X2000803Y433003D1*
X2001459Y430378D1*
X2002772Y426441D1*
X2004084Y423816D1*
X2005396Y421848D1*
X2010646Y416598D1*
X2014583Y414630D1*
X2016551Y413974D1*
X2019832Y413318D1*
X2027706D1*
X2030331Y413974D1*
X2032299Y414630D1*
X2036236Y416598D1*
X2038205Y417911D1*
X2040829Y420535D1*
X2043454Y424472D1*
X2044110Y425785D1*
X2046079Y431690D1*
X2046735Y435627D1*
Y446126D1*
X2046079Y450063D1*
X2044110Y455969D1*
X2043454Y457281D1*
X2040829Y461218D1*
X2038205Y463843D1*
X2036236Y465155D1*
X2032299Y467123D1*
X2030331Y467780D1*
X2027706Y468436D1*
X2019832D1*
X2016551Y467780D1*
X2014583Y467123D1*
X2011958Y465811D1*
X2009989Y464499D1*
X2008021Y462530D1*
X2019832D1*
X2022457Y463186D1*
X2025081D1*
X2027706Y462530D1*
X2029674Y461874D1*
X2032299Y460562D1*
X2032955Y459906D1*
X2034268Y459249D1*
X2034796Y458402D1*
X2034924Y457937D1*
X2036892Y455312D1*
X2037548Y454000D1*
X2038861Y450063D1*
X2039517Y446126D1*
X2040173Y445470D1*
Y436284D1*
X2039517Y435627D1*
X2038861Y431690D1*
X2037548Y427753D1*
X2036892Y426441D1*
Y425785D1*
X2032299Y421192D1*
X2029674Y419879D1*
X2027706Y419223D1*
X2025081Y418567D1*
X2022457D1*
X2017207Y419879D1*
X2015895Y420535D1*
X2015239Y421192D1*
X2013926Y421848D1*
X2010646Y425129D1*
Y425785D1*
X2009333Y428409D1*
X2008021Y432346D1*
X2007365Y437596D1*
X2006709Y438252D1*
Y443501D1*
X2007365Y444158D1*
X2008021Y449407D1*
X2009333Y453344D1*
X2010646Y455969D1*
Y456625D1*
X2014583Y460562D1*
X2017207Y461874D1*
X2019832Y462530D1*
X2008021D1*
G37*
G36*
X2102509D2*
X2099884Y459906D1*
X2098572Y457937D1*
X2097260Y455312D1*
X2095947Y451375D1*
X2095291Y448751D1*
X2094635Y444158D1*
Y437596D1*
X2095291Y433003D1*
X2095947Y430378D1*
X2097260Y426441D1*
X2098572Y423816D1*
X2099884Y421848D1*
X2105134Y416598D1*
X2109071Y414630D1*
X2111039Y413974D1*
X2114320Y413318D1*
X2122194D1*
X2124819Y413974D1*
X2126787Y414630D1*
X2130724Y416598D1*
X2132693Y417911D1*
X2135317Y420535D1*
X2137942Y424472D1*
X2138598Y425785D1*
X2140567Y431690D1*
X2141223Y435627D1*
Y446126D1*
X2140567Y450063D1*
X2138598Y455969D1*
X2137942Y457281D1*
X2135317Y461218D1*
X2132693Y463843D1*
X2130724Y465155D1*
X2126787Y467123D1*
X2124819Y467780D1*
X2122194Y468436D1*
X2114320D1*
X2111039Y467780D1*
X2109071Y467123D1*
X2106446Y465811D1*
X2104478Y464499D1*
X2102509Y462530D1*
X2114320D1*
X2116945Y463186D1*
X2119569D1*
X2122194Y462530D1*
X2124163Y461874D1*
X2126787Y460562D1*
X2127443Y459906D1*
X2128756Y459249D1*
X2129284Y458402D1*
X2129412Y457937D1*
X2131380Y455312D1*
X2132037Y454000D1*
X2133349Y450063D1*
X2134005Y446126D1*
X2134661Y445470D1*
Y436284D1*
X2134005Y435627D1*
X2133349Y431690D1*
X2132037Y427753D1*
X2131380Y426441D1*
Y425785D1*
X2126787Y421192D1*
X2124163Y419879D1*
X2122194Y419223D1*
X2119569Y418567D1*
X2116945D1*
X2111695Y419879D1*
X2110383Y420535D1*
X2109727Y421192D1*
X2108415Y421848D1*
X2105134Y425129D1*
Y425785D1*
X2103821Y428409D1*
X2102509Y432346D1*
X2101853Y437596D1*
X2101197Y438252D1*
Y443501D1*
X2101853Y444158D1*
X2102509Y449407D1*
X2103821Y453344D1*
X2105134Y455969D1*
Y456625D1*
X2109071Y460562D1*
X2111695Y461874D1*
X2114320Y462530D1*
X2102509D1*
G37*
G36*
X1962089Y461218D2*
X1960777Y459906D1*
X1960121Y458593D1*
X1959464Y455969D1*
Y449407D1*
X1960777Y445470D1*
X1961433Y444158D1*
X1966026Y439564D1*
X1967995Y438252D1*
X1969963Y437596D1*
X1969747Y436800D1*
X1969307Y436284D1*
X1966682Y433003D1*
X1963401Y429066D1*
X1960777Y425785D1*
X1954215Y417911D1*
X1951590Y414630D1*
X1960121D1*
X1962089Y416598D1*
X1975212Y433003D1*
Y433659D1*
X1976525Y434971D1*
X1979587Y435627D1*
X1982649D1*
X1985711Y434971D1*
Y414630D1*
X1991617D1*
Y467123D1*
X1972588D1*
X1969307Y466467D1*
X1967338Y465811D1*
X1966026Y465155D1*
X1964058Y463843D1*
X1962089Y461874D1*
Y461218D1*
X1973244D1*
X1977400Y461874D1*
X1981555D1*
X1985711Y461218D1*
Y441533D1*
X1981774Y440877D1*
X1977837D1*
X1973900Y441533D1*
X1971932Y442189D1*
X1969307Y443501D1*
X1967995Y444814D1*
Y445470D1*
X1967338Y446782D1*
X1966682Y448751D1*
X1966026Y449407D1*
Y454656D1*
X1966682Y455312D1*
X1967338Y457281D1*
Y457937D1*
X1968651Y459249D1*
X1971275Y460562D1*
X1973244Y461218D1*
X1962089D1*
G37*
G36*
X2050016Y467123D2*
Y461218D1*
X2067732Y460562D1*
Y414630D1*
X2073638D1*
Y460562D1*
X2092010Y461218D1*
Y467123D1*
X2050016D1*
G37*
G36*
X2149753D2*
Y414630D1*
X2156315D1*
Y458593D1*
X2156805Y459015D1*
X2157137Y458960D1*
X2157510Y458417D1*
X2157627Y457937D1*
X2158283Y455969D1*
X2160252Y452032D1*
X2160908Y450063D1*
X2162877Y446126D1*
X2163533Y444158D1*
X2165501Y440221D1*
X2166157Y438252D1*
X2168126Y434315D1*
X2168782Y432346D1*
X2170094Y429722D1*
X2170751Y429066D1*
X2174031D1*
X2174688Y429722D1*
X2176656Y433659D1*
X2177312Y435627D1*
X2179281Y439564D1*
X2179937Y441533D1*
X2181249Y444158D1*
X2181905Y446126D1*
X2183874Y450063D1*
X2184530Y452032D1*
X2186499Y455969D1*
X2187155Y457937D1*
X2187262Y458445D1*
X2187664Y458982D1*
X2187988Y458967D1*
X2188467Y458593D1*
Y414630D1*
X2194373D1*
Y467123D1*
X2185842D1*
X2185186Y466467D1*
X2183218Y462530D1*
X2182562Y460562D1*
X2180593Y456625D1*
X2179937Y454656D1*
X2177312Y449407D1*
X2176656Y447438D1*
X2174688Y443501D1*
X2174031Y441533D1*
X2172719Y438908D1*
X2172552Y438134D1*
X2172025Y437535D1*
X2171686Y437644D1*
X2171263Y438367D1*
X2171407Y438908D1*
X2170094Y441533D1*
X2169438Y443501D1*
X2168126Y446126D1*
X2167470Y448095D1*
X2165501Y452032D1*
X2164845Y454000D1*
X2163533Y456625D1*
X2162877Y458593D1*
X2161564Y461218D1*
X2160908Y463186D1*
X2158939Y467123D1*
X2149753D1*
G37*
G36*
X2229149D2*
Y460562D1*
X2233086Y455312D1*
X2234399Y453344D1*
X2236367Y450719D1*
X2237680Y448751D1*
X2239648Y446126D1*
X2240960Y444158D1*
X2242929Y441533D1*
X2244241Y439564D1*
X2246210Y436940D1*
X2247522Y434971D1*
X2249491Y432346D1*
X2250803Y430378D1*
X2252772Y427753D1*
X2254084Y425785D1*
X2256052Y423160D1*
X2257365Y421848D1*
Y421192D1*
X2228493Y420535D1*
Y414630D1*
X2264583D1*
Y421848D1*
X2262614Y424472D1*
X2261302Y426441D1*
X2259333Y429066D1*
X2258021Y431034D1*
X2256052Y433659D1*
X2254740Y435627D1*
X2252772Y438252D1*
X2251459Y440221D1*
X2249491Y442845D1*
X2246866Y446782D1*
X2244898Y449407D1*
X2243585Y451375D1*
X2241617Y454000D1*
X2240304Y455969D1*
X2238336Y458593D1*
X2237023Y459906D1*
Y460562D1*
X2263270Y461218D1*
Y467123D1*
X2229149D1*
G37*
G36*
X2203559Y440221D2*
Y434315D1*
X2223244D1*
Y440221D1*
X2203559D1*
G37*
G36*
X2604478Y462530D2*
X2601853Y459906D1*
X2600541Y457937D1*
X2599228Y455312D1*
X2597916Y451375D1*
X2597260Y448751D1*
X2596604Y444158D1*
Y437596D1*
X2597260Y433003D1*
X2597916Y430378D1*
X2599228Y426441D1*
X2600541Y423816D1*
X2601853Y421848D1*
X2607102Y416598D1*
X2611039Y414630D1*
X2613008Y413974D1*
X2616289Y413318D1*
X2624163D1*
X2626787Y413974D1*
X2628756Y414630D1*
X2632693Y416598D1*
X2634661Y417911D1*
X2637286Y420535D1*
X2639911Y424472D1*
X2640567Y425785D1*
X2642535Y431690D1*
X2643191Y435627D1*
Y446126D1*
X2642535Y450063D1*
X2640567Y455969D1*
X2639911Y457281D1*
X2637286Y461218D1*
X2634661Y463843D1*
X2632693Y465155D1*
X2628756Y467123D1*
X2626787Y467780D1*
X2624163Y468436D1*
X2616289D1*
X2613008Y467780D1*
X2611039Y467123D1*
X2608415Y465811D1*
X2606446Y464499D1*
X2604478Y462530D1*
X2616289D1*
X2618913Y463186D1*
X2621538D1*
X2624163Y462530D1*
X2626131Y461874D1*
X2628756Y460562D1*
X2629412Y459906D1*
X2630724Y459249D1*
X2631253Y458402D1*
X2631380Y457937D1*
X2633349Y455312D1*
X2634005Y454000D1*
X2635317Y450063D1*
X2635974Y446126D1*
X2636630Y445470D1*
Y436284D1*
X2635974Y435627D1*
X2635317Y431690D1*
X2634005Y427753D1*
X2633349Y426441D1*
Y425785D1*
X2628756Y421192D1*
X2626131Y419879D1*
X2624163Y419223D1*
X2621538Y418567D1*
X2618913D1*
X2613664Y419879D1*
X2612352Y420535D1*
X2611695Y421192D1*
X2610383Y421848D1*
X2607102Y425129D1*
Y425785D1*
X2605790Y428409D1*
X2604478Y432346D1*
X2603821Y437596D1*
X2603165Y438252D1*
Y443501D1*
X2603821Y444158D1*
X2604478Y449407D1*
X2605790Y453344D1*
X2607102Y455969D1*
Y456625D1*
X2611039Y460562D1*
X2613664Y461874D1*
X2616289Y462530D1*
X2604478D1*
G37*
G36*
X2698966D2*
X2696341Y459906D1*
X2695029Y457937D1*
X2693716Y455312D1*
X2692404Y451375D1*
X2691748Y448751D1*
X2691092Y444158D1*
Y437596D1*
X2691748Y433003D1*
X2692404Y430378D1*
X2693716Y426441D1*
X2695029Y423816D1*
X2696341Y421848D1*
X2701590Y416598D1*
X2705527Y414630D1*
X2707496Y413974D1*
X2710777Y413318D1*
X2718651D1*
X2721275Y413974D1*
X2723244Y414630D1*
X2727181Y416598D1*
X2729149Y417911D1*
X2731774Y420535D1*
X2734399Y424472D1*
X2735055Y425785D1*
X2737023Y431690D1*
X2737680Y435627D1*
Y446126D1*
X2737023Y450063D1*
X2735055Y455969D1*
X2734399Y457281D1*
X2731774Y461218D1*
X2729149Y463843D1*
X2727181Y465155D1*
X2723244Y467123D1*
X2721275Y467780D1*
X2718651Y468436D1*
X2710777D1*
X2707496Y467780D1*
X2705527Y467123D1*
X2702903Y465811D1*
X2700934Y464499D1*
X2698966Y462530D1*
X2710777D1*
X2713401Y463186D1*
X2716026D1*
X2718651Y462530D1*
X2720619Y461874D1*
X2723244Y460562D1*
X2723900Y459906D1*
X2725212Y459249D1*
X2725741Y458402D1*
X2725869Y457937D1*
X2727837Y455312D1*
X2728493Y454000D1*
X2729806Y450063D1*
X2730462Y446126D1*
X2731118Y445470D1*
Y436284D1*
X2730462Y435627D1*
X2729806Y431690D1*
X2728493Y427753D1*
X2727837Y426441D1*
Y425785D1*
X2723244Y421192D1*
X2720619Y419879D1*
X2718651Y419223D1*
X2716026Y418567D1*
X2713401D1*
X2708152Y419879D1*
X2706840Y420535D1*
X2706184Y421192D1*
X2704871Y421848D1*
X2701590Y425129D1*
Y425785D1*
X2700278Y428409D1*
X2698966Y432346D1*
X2698310Y437596D1*
X2697653Y438252D1*
Y443501D1*
X2698310Y444158D1*
X2698966Y449407D1*
X2700278Y453344D1*
X2701590Y455969D1*
Y456625D1*
X2705527Y460562D1*
X2708152Y461874D1*
X2710777Y462530D1*
X2698966D1*
G37*
G36*
X2558546Y461218D2*
X2557233Y459906D1*
X2556577Y458593D1*
X2555921Y455969D1*
Y449407D1*
X2557233Y445470D1*
X2557890Y444158D1*
X2562483Y439564D1*
X2564451Y438252D1*
X2566420Y437596D1*
X2566204Y436800D1*
X2565764Y436284D1*
X2563139Y433003D1*
X2559858Y429066D1*
X2557233Y425785D1*
X2550672Y417911D1*
X2548047Y414630D1*
X2556577D1*
X2558546Y416598D1*
X2571669Y433003D1*
Y433659D1*
X2572981Y434971D1*
X2576044Y435627D1*
X2579106D1*
X2582168Y434971D1*
Y414630D1*
X2588073D1*
Y467123D1*
X2569044D1*
X2565764Y466467D1*
X2563795Y465811D1*
X2562483Y465155D1*
X2560514Y463843D1*
X2558546Y461874D1*
Y461218D1*
X2569701D1*
X2573856Y461874D1*
X2578012D1*
X2582168Y461218D1*
Y441533D1*
X2578231Y440877D1*
X2574294D1*
X2570357Y441533D1*
X2568388Y442189D1*
X2565764Y443501D1*
X2564451Y444814D1*
Y445470D1*
X2563795Y446782D1*
X2563139Y448751D1*
X2562483Y449407D1*
Y454656D1*
X2563139Y455312D1*
X2563795Y457281D1*
Y457937D1*
X2565107Y459249D1*
X2567732Y460562D1*
X2569701Y461218D1*
X2558546D1*
G37*
G36*
X2646472Y467123D2*
Y461218D1*
X2664189Y460562D1*
Y414630D1*
X2670094D1*
Y460562D1*
X2688467Y461218D1*
Y467123D1*
X2646472D1*
G37*
G36*
X2746210D2*
Y414630D1*
X2752772D1*
Y458593D1*
X2753262Y459015D1*
X2753593Y458960D1*
X2753967Y458417D1*
X2754084Y457937D1*
X2754740Y455969D1*
X2756709Y452032D1*
X2757365Y450063D1*
X2759333Y446126D1*
X2759989Y444158D1*
X2761958Y440221D1*
X2762614Y438252D1*
X2764583Y434315D1*
X2765239Y432346D1*
X2766551Y429722D1*
X2767207Y429066D1*
X2770488D1*
X2771144Y429722D1*
X2773113Y433659D1*
X2773769Y435627D1*
X2775737Y439564D1*
X2776394Y441533D1*
X2777706Y444158D1*
X2778362Y446126D1*
X2780331Y450063D1*
X2780987Y452032D1*
X2782955Y455969D1*
X2783611Y457937D1*
X2783719Y458445D1*
X2784121Y458982D1*
X2784444Y458967D1*
X2784924Y458593D1*
Y414630D1*
X2790829D1*
Y467123D1*
X2782299D1*
X2781643Y466467D1*
X2779674Y462530D1*
X2779018Y460562D1*
X2777050Y456625D1*
X2776394Y454656D1*
X2773769Y449407D1*
X2773113Y447438D1*
X2771144Y443501D1*
X2770488Y441533D1*
X2769176Y438908D1*
X2769009Y438134D1*
X2768481Y437535D1*
X2768143Y437644D1*
X2767720Y438367D1*
X2767863Y438908D1*
X2766551Y441533D1*
X2765895Y443501D1*
X2764583Y446126D1*
X2763926Y448095D1*
X2761958Y452032D1*
X2761302Y454000D1*
X2759989Y456625D1*
X2759333Y458593D1*
X2758021Y461218D1*
X2757365Y463186D1*
X2755396Y467123D1*
X2746210D1*
G37*
G36*
X2838073Y459249D2*
Y457937D1*
X2837417Y457281D1*
X2829543Y433659D1*
X2828887Y432346D1*
X2822981Y414630D1*
X2830199D1*
X2830856Y416598D1*
X2831512Y419223D1*
X2834136Y427097D1*
Y428409D1*
X2834793Y429066D1*
X2841792Y429722D1*
X2848791D1*
X2855790Y429066D1*
Y428409D1*
X2860383Y414630D1*
X2866945D1*
Y415286D1*
X2861039Y433003D1*
X2860383Y434315D1*
X2849884Y465811D1*
X2849228Y467123D1*
X2840698D1*
X2838073Y459249D1*
X2844635D1*
X2845125Y459671D1*
X2845457Y459616D1*
X2845830Y459073D1*
X2845947Y458593D1*
X2852509Y438908D1*
X2853165Y436284D1*
X2853821Y435627D1*
X2848135Y434971D1*
X2842448D1*
X2836761Y435627D1*
X2836889Y436092D1*
X2837417Y436940D1*
X2843323Y454656D1*
X2843979Y457281D1*
X2844635Y459249D1*
X2838073D1*
G37*
G36*
X2800016Y440221D2*
Y434315D1*
X2819701D1*
Y440221D1*
X2800016D1*
G37*
G36*
X2634005Y1527491D2*
Y1478803D1*
X2642273D1*
Y1482478D1*
X2643254Y1483091D1*
X2644110Y1483396D1*
X2646866Y1480640D1*
X2652378Y1477885D1*
X2655134Y1476966D1*
X2663401D1*
X2666157Y1477885D1*
X2669832Y1479722D1*
X2673506Y1483396D1*
X2675344Y1486152D1*
X2677181Y1489827D1*
X2678100Y1492583D1*
X2679018Y1496257D1*
X2679937Y1505444D1*
Y1506362D1*
X2679018Y1514630D1*
X2678100Y1518304D1*
X2677181Y1521060D1*
X2675344Y1524735D1*
X2672588Y1528409D1*
X2669832Y1531165D1*
X2667076Y1533003D1*
X2663401Y1534840D1*
X2660646Y1535759D1*
X2652378D1*
X2648703Y1534840D1*
X2645947Y1533921D1*
X2644110Y1533003D1*
X2643136Y1532005D1*
X2642660Y1532154D1*
X2642273Y1533003D1*
Y1555969D1*
X2634005D1*
Y1527491D1*
X2649622D1*
X2652990Y1528409D1*
X2656359D1*
X2659727Y1527491D1*
X2663401Y1525654D1*
X2667995Y1521060D1*
Y1520142D1*
X2668913Y1518304D1*
X2669832Y1514630D1*
X2670751Y1513711D1*
Y1499013D1*
X2669832Y1498095D1*
X2668913Y1494420D1*
X2667995Y1491664D1*
Y1490745D1*
X2665239Y1487990D1*
X2661564Y1486152D1*
X2658502Y1485234D1*
X2655440D1*
X2652378Y1486152D1*
X2649622Y1487071D1*
X2645947Y1488908D1*
X2645029Y1489827D1*
X2643191Y1490745D1*
X2642273Y1491664D1*
Y1524735D1*
X2644110Y1525654D1*
X2649622Y1527491D1*
X2634005D1*
G37*
G36*
X2611039Y1555050D2*
Y1478803D1*
X2619307D1*
Y1555050D1*
X2611039D1*
G37*
G36*
X2690042D2*
Y1478803D1*
X2698310D1*
Y1555050D1*
X2690042D1*
G37*
G36*
X2792929Y1526572D2*
X2792627Y1525458D1*
X2792010Y1524735D1*
X2791092Y1522898D1*
X2789254Y1515549D1*
Y1499932D1*
X2790173Y1495339D1*
X2791092Y1492583D1*
X2793848Y1487071D1*
X2796604Y1483396D1*
X2798441Y1481559D1*
X2801197Y1479722D1*
X2804871Y1477885D1*
X2807627Y1476966D1*
X2815895D1*
X2819569Y1477885D1*
X2823244Y1479722D1*
X2824469Y1480640D1*
X2825694D1*
X2826918Y1479722D1*
Y1478803D1*
X2834268D1*
Y1555050D1*
X2826000D1*
Y1530247D1*
X2824880Y1529288D1*
X2824163Y1529328D1*
X2821407Y1532084D1*
X2815895Y1534840D1*
X2813139Y1535759D1*
X2804871D1*
X2802115Y1534840D1*
X2798441Y1533003D1*
X2794766Y1529328D1*
X2792929Y1526572D1*
X2806709D1*
X2809771Y1527491D1*
X2812833D1*
X2815895Y1526572D1*
X2818651Y1525654D1*
X2822325Y1523816D1*
X2823244Y1522898D1*
X2825081Y1521979D1*
X2826000Y1521060D1*
Y1487990D1*
X2822325Y1486152D1*
X2818651Y1485234D1*
X2815282Y1484315D1*
X2811914D1*
X2808546Y1485234D1*
X2804871Y1487071D1*
X2800278Y1491664D1*
Y1492583D1*
X2799359Y1495339D1*
X2798441Y1499932D1*
X2797522Y1500850D1*
Y1511874D1*
X2798441Y1512793D1*
X2799359Y1517386D1*
X2800278Y1520142D1*
X2801197Y1521979D1*
Y1522898D1*
X2803034Y1524735D1*
X2806709Y1526572D1*
X2792929D1*
G37*
G36*
X2904084Y1493501D2*
X2905002Y1494420D1*
X2906840Y1498095D1*
X2907758Y1501769D1*
Y1517386D1*
X2906840Y1521060D1*
X2904084Y1526572D1*
X2898572Y1532084D1*
X2894898Y1533921D1*
X2892142Y1534840D1*
X2884793D1*
X2882037Y1533921D1*
X2880199Y1533003D1*
X2879079Y1532044D1*
X2878014Y1532162D1*
X2877144Y1533225D1*
X2877443Y1533921D1*
X2870094D1*
Y1491664D1*
X2865807Y1490745D1*
X2861520D1*
X2857233Y1491664D1*
Y1493501D1*
X2856315Y1496257D1*
X2855396Y1500850D1*
X2854478Y1501769D1*
Y1519223D1*
X2855396Y1520142D1*
X2856315Y1524735D1*
X2857233Y1528409D1*
X2859989Y1533921D1*
X2861827Y1536677D1*
Y1537596D1*
X2866420Y1542189D1*
X2868257Y1543108D1*
X2869176Y1544026D1*
X2872850Y1545864D1*
X2875606Y1546782D1*
X2880199Y1547701D1*
X2884486Y1548619D1*
X2888773D1*
X2893060Y1547701D1*
X2899491Y1545864D1*
X2902247Y1544945D1*
X2904084Y1544026D1*
X2905002Y1543108D1*
X2906840Y1542189D1*
X2914189Y1534840D1*
Y1533921D1*
X2916026Y1531165D1*
X2917863Y1527491D1*
X2919701Y1521979D1*
X2920619Y1516467D1*
X2921538Y1515549D1*
Y1506362D1*
X2920619Y1505444D1*
X2919701Y1499013D1*
X2917863Y1493501D1*
X2916026Y1489827D1*
X2914189Y1487071D1*
Y1486152D1*
X2908677Y1480640D1*
X2906840Y1479722D1*
X2905921Y1478803D1*
X2900409Y1476047D1*
X2897653Y1475129D1*
X2893979Y1474210D1*
X2888467Y1473291D1*
X2882955D1*
X2871932Y1475129D1*
X2871013D1*
Y1469617D1*
X2871932Y1468698D1*
X2878362Y1467780D1*
X2893060D1*
X2897653Y1468698D1*
X2903165Y1470535D1*
X2908677Y1473291D1*
X2911433Y1475129D1*
X2918782Y1482478D1*
X2922457Y1487990D1*
X2923375Y1489827D1*
X2924294Y1492583D1*
X2925212Y1494420D1*
X2926131Y1497176D1*
X2927050Y1501769D1*
Y1520142D1*
X2926131Y1523816D1*
X2924294Y1529328D1*
X2922457Y1533003D1*
X2918782Y1538514D1*
X2910514Y1546782D1*
X2907758Y1548619D1*
X2900409Y1552294D1*
X2896735Y1553213D1*
X2892142Y1554131D1*
X2881118D1*
X2876525Y1553213D1*
X2872850Y1552294D1*
X2865501Y1548619D1*
X2862745Y1546782D1*
X2858152Y1542189D1*
X2855396Y1538514D1*
X2850803Y1529328D1*
X2848966Y1521979D1*
X2848047Y1513711D1*
Y1509118D1*
X2848966Y1501769D1*
X2849884Y1498095D1*
X2851722Y1492583D1*
X2854478Y1487071D1*
X2855396Y1486152D1*
X2875606D1*
X2876525Y1487990D1*
Y1490745D1*
X2877506Y1491359D1*
X2878362Y1491664D1*
X2881118Y1488908D1*
X2883874Y1487071D1*
X2887548Y1486152D1*
X2894898D1*
X2897653Y1487071D1*
X2900409Y1488908D1*
X2904084Y1492583D1*
Y1493501D1*
X2893060D1*
X2890611Y1492583D1*
X2888161D1*
X2885711Y1493501D1*
X2882955Y1494420D1*
X2881118Y1495339D1*
X2880199Y1496257D1*
X2878362Y1497176D1*
X2877443Y1498095D1*
Y1524735D1*
X2878362Y1525654D1*
X2880199Y1526572D1*
X2882955Y1527491D1*
X2886017Y1528409D1*
X2889079D1*
X2892142Y1527491D1*
X2893979Y1526572D1*
X2898572Y1521979D1*
Y1521060D1*
X2899491Y1518304D1*
X2900409Y1517386D1*
Y1502688D1*
X2899491Y1501769D1*
X2898572Y1499013D1*
X2897653Y1497176D1*
X2897351Y1496061D1*
X2896735Y1495339D1*
X2893060Y1493501D1*
X2904084D1*
G37*
G36*
X2712089Y1552294D2*
Y1543108D1*
X2722194D1*
Y1552294D1*
X2712089D1*
G37*
G36*
X2499884Y1527491D2*
Y1477885D1*
X2500803Y1473291D1*
X2501722Y1470535D1*
X2503559Y1466861D1*
X2506315Y1463186D1*
X2509989Y1460430D1*
X2511827Y1459512D1*
X2514583Y1458593D1*
X2519176Y1457675D1*
X2531118D1*
X2535711Y1458593D1*
X2539386Y1459512D1*
X2540304Y1460430D1*
Y1468698D1*
X2539386D1*
X2529281Y1465942D1*
X2525606Y1465024D1*
X2521932D1*
X2518257Y1465942D1*
X2515501Y1466861D1*
X2511827Y1468698D1*
X2510737Y1469731D1*
X2510908Y1470535D1*
X2509989Y1472373D1*
X2509071Y1475129D1*
X2508152Y1476047D1*
Y1485234D1*
X2508838Y1485824D1*
X2509314Y1485770D1*
X2509989Y1485234D1*
X2511827Y1483396D1*
X2517338Y1480640D1*
X2520094Y1479722D1*
X2529281D1*
X2532037Y1480640D1*
X2535711Y1482478D1*
X2541223Y1487990D1*
X2543060Y1491664D1*
X2544898Y1497176D1*
X2545816Y1506362D1*
Y1507281D1*
X2544898Y1515549D1*
X2543060Y1521060D1*
X2541223Y1524735D1*
X2539386Y1527491D1*
X2534793Y1532084D1*
X2529281Y1534840D1*
X2526525Y1535759D1*
X2518257D1*
X2514583Y1534840D1*
X2510908Y1533003D1*
X2509788Y1532044D1*
X2508723Y1532162D1*
X2507852Y1533225D1*
X2508152Y1533921D1*
X2499884D1*
Y1527491D1*
X2515501D1*
X2518870Y1528409D1*
X2522238D1*
X2525606Y1527491D1*
X2528362Y1526572D1*
X2529281Y1525654D1*
X2531118Y1524735D1*
X2531858Y1523549D1*
X2532037Y1522898D1*
X2533874Y1520142D1*
X2534793Y1518304D1*
X2535711Y1514630D1*
X2536630Y1513711D1*
Y1499932D1*
X2535711Y1499013D1*
X2534793Y1495339D1*
X2533874Y1493501D1*
Y1492583D1*
X2530199Y1488908D1*
X2527443Y1487990D1*
X2524381Y1487071D1*
X2521319D1*
X2518257Y1487990D1*
X2515501Y1488908D1*
X2509989Y1491664D1*
X2508152Y1493501D1*
Y1524735D1*
X2509989Y1525654D1*
X2515501Y1527491D1*
X2499884D1*
G37*
G36*
X2557758D2*
Y1526572D1*
X2555921Y1524735D1*
X2554084Y1521060D1*
X2553165Y1518304D1*
X2552247Y1513711D1*
Y1499013D1*
X2553165Y1494420D1*
X2554084Y1491664D1*
X2555921Y1487990D1*
X2557758Y1485234D1*
X2561433Y1481559D1*
X2564189Y1479722D1*
X2567863Y1477885D1*
X2571538Y1476966D1*
X2580724D1*
X2584399Y1477885D1*
X2589911Y1480640D1*
X2595422Y1486152D1*
X2599097Y1493501D1*
X2600016Y1497176D1*
Y1515549D1*
X2599097Y1519223D1*
X2595422Y1526572D1*
X2589911Y1532084D1*
X2584399Y1534840D1*
X2580724Y1535759D1*
X2571538D1*
X2567863Y1534840D1*
X2564189Y1533003D1*
X2561433Y1531165D1*
X2557758Y1527491D1*
X2571538D1*
X2574600Y1528409D1*
X2577662D1*
X2580724Y1527491D1*
X2583480Y1526572D1*
X2585317Y1525654D1*
X2588073Y1522898D1*
Y1521979D1*
X2589911Y1518304D1*
X2590829Y1514630D1*
X2591748Y1513711D1*
Y1499013D1*
X2590829Y1498095D1*
X2589911Y1494420D1*
X2588073Y1490745D1*
Y1489827D1*
X2586236Y1487990D1*
X2584399Y1487071D1*
X2583480Y1486152D1*
X2580724Y1485234D1*
X2577662Y1484315D1*
X2574600D1*
X2571538Y1485234D1*
X2567863Y1487071D1*
X2563270Y1491664D1*
Y1492583D1*
X2562352Y1495339D1*
X2561433Y1500850D1*
X2560514Y1501769D1*
Y1510955D1*
X2561433Y1511874D1*
X2562352Y1517386D1*
X2563270Y1520142D1*
Y1521060D1*
X2568782Y1526572D1*
X2571538Y1527491D1*
X2557758D1*
G37*
G36*
X2713008Y1533921D2*
Y1478803D1*
X2721275D1*
Y1533921D1*
X2713008D1*
G37*
G36*
X2735974D2*
Y1478803D1*
X2744241D1*
Y1483396D1*
X2744927Y1483986D1*
X2745403Y1483933D1*
X2746079Y1483396D1*
X2749753Y1480640D1*
X2755265Y1477885D1*
X2758021Y1476966D1*
X2765370D1*
X2768126Y1477885D1*
X2771800Y1479722D1*
X2775475Y1483396D1*
X2777312Y1487071D1*
X2778231Y1489827D1*
X2779149Y1495339D1*
Y1533921D1*
X2770882D1*
X2769963Y1497176D1*
X2769044Y1491664D1*
Y1489827D1*
X2766289Y1487071D1*
X2764451Y1486152D1*
X2761389Y1485234D1*
X2758327D1*
X2755265Y1486152D1*
X2752509Y1487071D1*
X2748835Y1488908D1*
X2747916Y1489827D1*
X2746079Y1490745D1*
X2744241Y1492583D1*
Y1533921D1*
X2735974D1*
G37*
G36*
X2951853Y1426441D2*
X2948178Y1422766D1*
X2942667Y1414499D1*
X2937155Y1403475D1*
X2935317Y1397963D1*
X2934399Y1394289D1*
X2933480Y1388777D1*
Y1367648D1*
X2934399Y1362137D1*
X2935317Y1358462D1*
X2937155Y1352950D1*
X2942667Y1341927D1*
X2944504Y1339171D1*
X2945422Y1337333D1*
X2948178Y1333659D1*
X2951853Y1329984D1*
X2961958D1*
X2956446Y1336415D1*
X2952772Y1341008D1*
X2950934Y1343764D1*
X2946341Y1352950D1*
X2943585Y1361218D1*
X2942667Y1364892D1*
X2941748Y1371323D1*
X2940829Y1372242D1*
Y1384184D1*
X2941748Y1385102D1*
X2942667Y1391533D1*
X2943585Y1395207D1*
X2946341Y1403475D1*
X2950934Y1412661D1*
X2956446Y1420011D1*
X2961958Y1426441D1*
X2951853D1*
G37*
G36*
X3017076D2*
X3024425Y1419092D1*
Y1418173D1*
X3027181Y1414499D1*
X3028100Y1412661D1*
X3029937Y1409906D1*
X3032693Y1404394D1*
X3035449Y1396126D1*
X3036367Y1392451D1*
X3037286Y1387858D1*
X3038205Y1386940D1*
Y1369486D1*
X3037286Y1368567D1*
X3036367Y1363974D1*
X3035449Y1360299D1*
X3032693Y1352032D1*
X3029937Y1346520D1*
X3028100Y1343764D1*
X3027181Y1341927D1*
X3024425Y1338252D1*
X3017076Y1329984D1*
X3028100D1*
X3029018Y1330903D1*
X3034530Y1338252D1*
X3035449Y1340089D1*
X3037286Y1342845D1*
X3041879Y1352032D1*
X3043716Y1357543D1*
X3044635Y1361218D1*
X3045554Y1365811D1*
X3046472Y1374997D1*
Y1381428D1*
X3045554Y1390614D1*
X3044635Y1395207D1*
X3043716Y1398882D1*
X3041879Y1404394D1*
X3037286Y1413580D1*
X3035449Y1416336D1*
X3034530Y1418173D1*
X3029018Y1425522D1*
X3028100Y1426441D1*
X3017076D1*
G37*
G36*
X2441092Y1417255D2*
X2440790Y1416140D1*
X2440173Y1415417D1*
X2437417Y1409906D1*
X2436499Y1406231D1*
X2435580Y1401638D1*
X2434661Y1393370D1*
Y1380509D1*
X2435580Y1372242D1*
X2436499Y1367648D1*
X2437417Y1363974D1*
X2438336Y1361218D1*
X2440173Y1357543D1*
X2446604Y1351113D1*
X2450278Y1349276D1*
X2453953Y1348357D1*
X2462220D1*
X2465895Y1349276D1*
X2471407Y1352032D1*
X2474163Y1354787D1*
X2476000Y1357543D1*
X2478756Y1363055D1*
X2480593Y1370404D1*
X2481512Y1376835D1*
Y1397045D1*
X2480593Y1403475D1*
X2479674Y1408068D1*
X2478756Y1410824D1*
X2476000Y1416336D1*
X2474163Y1419092D1*
X2471407Y1421848D1*
X2465895Y1424604D1*
X2462220Y1425522D1*
X2453953D1*
X2450278Y1424604D1*
X2446604Y1422766D1*
X2441092Y1417255D1*
X2453953D1*
X2456709Y1418173D1*
X2459464D1*
X2464976Y1416336D1*
X2468651Y1412661D1*
Y1411743D1*
X2469569Y1409906D1*
X2470488Y1407150D1*
X2471407Y1401638D1*
X2472325Y1400719D1*
Y1373160D1*
X2471407Y1372242D1*
X2470488Y1366730D1*
X2469569Y1363974D1*
X2468651Y1362137D1*
Y1361218D1*
X2464976Y1357543D1*
X2459464Y1355706D1*
X2456709D1*
X2453953Y1356625D1*
X2450278Y1358462D1*
X2448441Y1360299D1*
Y1361218D1*
X2446604Y1364892D1*
X2445685Y1368567D1*
X2444766Y1375916D1*
X2443848Y1376835D1*
Y1397045D1*
X2444766Y1397963D1*
X2445685Y1405312D1*
X2446604Y1408987D1*
X2448441Y1412661D1*
Y1413580D1*
X2450278Y1415417D1*
X2453953Y1417255D1*
X2441092D1*
G37*
G36*
X2547653Y1425522D2*
X2543979Y1424604D1*
X2538467Y1421848D1*
X2534793Y1418173D1*
X2532955Y1415417D1*
X2531118Y1409906D1*
Y1400719D1*
X2532037Y1397045D1*
X2532955Y1394289D1*
X2535711Y1388777D1*
X2537548Y1386021D1*
X2540304Y1382346D1*
X2564189Y1358462D1*
X2528362Y1357543D1*
Y1350194D1*
X2573375D1*
Y1359381D1*
X2554084Y1379591D1*
X2549491Y1385102D1*
X2545816Y1389696D1*
X2543979Y1392451D1*
X2542142Y1396126D1*
X2541223Y1399801D1*
X2540304Y1400719D1*
Y1408987D1*
X2541223Y1409906D1*
Y1411743D1*
X2544898Y1415417D1*
X2548572Y1417255D1*
X2551940Y1418173D1*
X2555309D1*
X2558677Y1417255D1*
X2562352Y1416336D1*
X2565107Y1415417D1*
X2568782Y1413580D1*
X2569701Y1412661D1*
X2571538Y1411743D1*
Y1420929D1*
X2570619Y1421848D1*
X2568782Y1422766D1*
X2566026Y1423685D1*
X2562352Y1424604D1*
X2557758Y1425522D1*
X2547653D1*
G37*
G36*
X2682693Y1417255D2*
X2682391Y1416140D1*
X2681774Y1415417D1*
X2679018Y1409906D1*
X2678100Y1406231D1*
X2677181Y1401638D1*
X2676262Y1393370D1*
Y1380509D1*
X2677181Y1372242D1*
X2678100Y1367648D1*
X2679018Y1363974D1*
X2679937Y1361218D1*
X2681774Y1357543D1*
X2688205Y1351113D1*
X2691879Y1349276D1*
X2695554Y1348357D1*
X2703821D1*
X2707496Y1349276D1*
X2713008Y1352032D1*
X2715764Y1354787D1*
X2717601Y1357543D1*
X2720357Y1363055D1*
X2722194Y1370404D1*
X2723113Y1376835D1*
Y1397045D1*
X2722194Y1403475D1*
X2721275Y1408068D1*
X2720357Y1410824D1*
X2717601Y1416336D1*
X2715764Y1419092D1*
X2713008Y1421848D1*
X2707496Y1424604D1*
X2703821Y1425522D1*
X2695554D1*
X2691879Y1424604D1*
X2688205Y1422766D1*
X2682693Y1417255D1*
X2695554D1*
X2698310Y1418173D1*
X2701065D1*
X2706577Y1416336D1*
X2710252Y1412661D1*
Y1411743D1*
X2711170Y1409906D1*
X2712089Y1407150D1*
X2713008Y1401638D1*
X2713926Y1400719D1*
Y1373160D1*
X2713008Y1372242D1*
X2712089Y1366730D1*
X2711170Y1363974D1*
X2710252Y1362137D1*
Y1361218D1*
X2706577Y1357543D1*
X2701065Y1355706D1*
X2698310D1*
X2695554Y1356625D1*
X2691879Y1358462D1*
X2690042Y1360299D1*
Y1361218D1*
X2688205Y1364892D1*
X2687286Y1368567D1*
X2686367Y1375916D1*
X2685449Y1376835D1*
Y1397045D1*
X2686367Y1397963D1*
X2687286Y1405312D1*
X2688205Y1408987D1*
X2690042Y1412661D1*
Y1413580D1*
X2691879Y1415417D1*
X2695554Y1417255D1*
X2682693D1*
G37*
G36*
X2752509Y1425522D2*
X2748835Y1424604D1*
X2743323Y1421848D1*
X2739648Y1418173D1*
X2737811Y1415417D1*
X2735974Y1409906D1*
Y1400719D1*
X2736892Y1397045D1*
X2737811Y1394289D1*
X2740567Y1388777D1*
X2742404Y1386021D1*
X2745160Y1382346D1*
X2769044Y1358462D1*
X2733218Y1357543D1*
Y1350194D1*
X2778231D1*
Y1359381D1*
X2758939Y1379591D1*
X2754346Y1385102D1*
X2750672Y1389696D1*
X2748835Y1392451D1*
X2746997Y1396126D1*
X2746079Y1399801D1*
X2745160Y1400719D1*
Y1408987D1*
X2746079Y1409906D1*
Y1411743D1*
X2749753Y1415417D1*
X2753428Y1417255D1*
X2756796Y1418173D1*
X2760164D1*
X2763533Y1417255D1*
X2767207Y1416336D1*
X2769963Y1415417D1*
X2773638Y1413580D1*
X2774556Y1412661D1*
X2776394Y1411743D1*
Y1420929D1*
X2775475Y1421848D1*
X2773638Y1422766D1*
X2770882Y1423685D1*
X2767207Y1424604D1*
X2762614Y1425522D1*
X2752509D1*
G37*
G36*
X2794766Y1417255D2*
X2794464Y1416140D1*
X2793848Y1415417D1*
X2791092Y1409906D1*
X2790173Y1406231D1*
X2789254Y1401638D1*
X2788336Y1393370D1*
Y1380509D1*
X2789254Y1372242D1*
X2790173Y1367648D1*
X2791092Y1363974D1*
X2792010Y1361218D1*
X2793848Y1357543D1*
X2800278Y1351113D1*
X2803953Y1349276D1*
X2807627Y1348357D1*
X2815895D1*
X2819569Y1349276D1*
X2825081Y1352032D1*
X2827837Y1354787D1*
X2829674Y1357543D1*
X2832430Y1363055D1*
X2834268Y1370404D1*
X2835186Y1376835D1*
Y1397045D1*
X2834268Y1403475D1*
X2833349Y1408068D1*
X2832430Y1410824D1*
X2829674Y1416336D1*
X2827837Y1419092D1*
X2825081Y1421848D1*
X2819569Y1424604D1*
X2815895Y1425522D1*
X2807627D1*
X2803953Y1424604D1*
X2800278Y1422766D1*
X2794766Y1417255D1*
X2807627D1*
X2810383Y1418173D1*
X2813139D1*
X2818651Y1416336D1*
X2822325Y1412661D1*
Y1411743D1*
X2823244Y1409906D1*
X2824163Y1407150D1*
X2825081Y1401638D1*
X2826000Y1400719D1*
Y1373160D1*
X2825081Y1372242D1*
X2824163Y1366730D1*
X2823244Y1363974D1*
X2822325Y1362137D1*
Y1361218D1*
X2818651Y1357543D1*
X2813139Y1355706D1*
X2810383D1*
X2807627Y1356625D1*
X2803953Y1358462D1*
X2802115Y1360299D1*
Y1361218D1*
X2800278Y1364892D1*
X2799359Y1368567D1*
X2798441Y1375916D1*
X2797522Y1376835D1*
Y1397045D1*
X2798441Y1397963D1*
X2799359Y1405312D1*
X2800278Y1408987D1*
X2802115Y1412661D1*
Y1413580D1*
X2803953Y1415417D1*
X2807627Y1417255D1*
X2794766D1*
G37*
G36*
X2864583Y1425522D2*
X2860908Y1424604D1*
X2855396Y1421848D1*
X2851722Y1418173D1*
X2849884Y1415417D1*
X2848047Y1409906D1*
Y1400719D1*
X2848966Y1397045D1*
X2849884Y1394289D1*
X2852640Y1388777D1*
X2854478Y1386021D1*
X2857233Y1382346D1*
X2881118Y1358462D1*
X2845291Y1357543D1*
Y1350194D1*
X2890304D1*
Y1359381D1*
X2871013Y1379591D1*
X2866420Y1385102D1*
X2862745Y1389696D1*
X2860908Y1392451D1*
X2859071Y1396126D1*
X2858152Y1399801D1*
X2857233Y1400719D1*
Y1408987D1*
X2858152Y1409906D1*
Y1411743D1*
X2861827Y1415417D1*
X2865501Y1417255D1*
X2868870Y1418173D1*
X2872238D1*
X2875606Y1417255D1*
X2879281Y1416336D1*
X2882037Y1415417D1*
X2885711Y1413580D1*
X2886630Y1412661D1*
X2888467Y1411743D1*
Y1420929D1*
X2887548Y1421848D1*
X2885711Y1422766D1*
X2882955Y1423685D1*
X2879281Y1424604D1*
X2874688Y1425522D1*
X2864583D1*
G37*
G36*
X2396079Y1423685D2*
Y1357543D1*
X2383218Y1356625D1*
Y1350194D1*
X2418126D1*
Y1356625D1*
X2405265Y1357543D1*
Y1407150D1*
X2418126Y1408068D1*
Y1413580D1*
X2411695Y1414499D1*
X2408939Y1415417D1*
X2405265Y1417255D1*
Y1418173D1*
X2403428Y1423685D1*
X2396079D1*
G37*
G36*
X2600934D2*
Y1357543D1*
X2588073Y1356625D1*
Y1350194D1*
X2622981D1*
Y1356625D1*
X2610121Y1357543D1*
Y1407150D1*
X2622981Y1408068D1*
Y1413580D1*
X2616551Y1414499D1*
X2613795Y1415417D1*
X2610121Y1417255D1*
Y1418173D1*
X2608283Y1423685D1*
X2600934D1*
G37*
G36*
X2980331Y1407150D2*
X2976656Y1406231D1*
X2971144Y1404394D1*
X2969307Y1403475D1*
Y1393370D1*
X2972063Y1395207D1*
X2972981Y1396126D1*
X2974819Y1397045D1*
X2980331Y1398882D1*
X2983393Y1399801D1*
X2986455D1*
X2989517Y1398882D1*
X2992273Y1397963D1*
X2994110Y1397045D1*
X2997785Y1393370D1*
Y1392451D1*
X2999622Y1388777D1*
X3000541Y1385102D1*
X3001459Y1384184D1*
Y1371323D1*
X3000541Y1370404D1*
X2998703Y1364892D1*
Y1363974D1*
X2994110Y1359381D1*
X2992273Y1358462D1*
X2989517Y1357543D1*
X2986149Y1356625D1*
X2982780D1*
X2979412Y1357543D1*
X2976656Y1358462D1*
X2971144Y1361218D1*
X2969307Y1363055D1*
Y1352950D1*
X2971144Y1352032D1*
X2976656Y1350194D1*
X2980331Y1349276D1*
X2989517D1*
X2993191Y1350194D1*
X2995947Y1351113D1*
X2999622Y1352950D1*
X3005134Y1358462D1*
X3006971Y1361218D1*
X3007890Y1363055D1*
X3008808Y1365811D1*
X3009727Y1369486D1*
Y1386940D1*
X3007890Y1392451D1*
X3006052Y1396126D1*
X3004215Y1398882D1*
X3000541Y1402556D1*
X2997785Y1404394D1*
X2995947Y1405312D1*
X2993191Y1406231D1*
X2989517Y1407150D1*
X2980331D1*
G37*
G36*
X2490698Y1386021D2*
Y1377753D1*
X2518257D1*
Y1386021D1*
X2490698D1*
G37*
G36*
X2639517D2*
Y1377753D1*
X2667076D1*
Y1386021D1*
X2639517D1*
G37*
G36*
X4191879Y1164433D2*
Y1160234D1*
X4190829Y1159184D1*
X4189779Y1153934D1*
X4188730Y1151835D1*
X4188384Y1150561D1*
X4187680Y1149735D1*
X4183480Y1147635D1*
X4180331Y1146585D1*
Y1139236D1*
X4256971Y1138186D1*
Y1123488D1*
X4263270D1*
X4264320Y1124538D1*
Y1164433D1*
X4256971D1*
Y1149735D1*
X4237373Y1148685D1*
X4217776D1*
X4198178Y1149735D1*
Y1164433D1*
X4191879D1*
G37*
G36*
X4252772Y1106690D2*
X4231774Y1085693D1*
X4229674Y1084643D1*
X4223375Y1079394D1*
X4219176Y1076244D1*
X4218126Y1075194D1*
X4211827Y1072045D1*
X4208677Y1070995D1*
X4204128Y1069945D1*
X4199578D1*
X4195029Y1070995D1*
X4190829Y1073095D1*
X4188730Y1075194D1*
Y1076244D1*
X4187680Y1078344D1*
X4186630Y1079394D1*
Y1090942D1*
X4187680Y1091992D1*
X4189779Y1098291D1*
X4190829Y1100391D1*
X4192929Y1103541D1*
Y1104591D1*
X4182430D1*
X4181380Y1102491D1*
X4179281Y1096192D1*
X4178231Y1090942D1*
Y1076244D1*
X4179281Y1073095D1*
X4181380Y1068895D1*
X4183480Y1065745D1*
X4185580Y1063646D1*
X4188730Y1061546D1*
X4190829Y1060496D1*
X4193979Y1059446D1*
X4208677D1*
X4214976Y1061546D1*
X4219176Y1063646D1*
X4222325Y1065745D1*
X4226525Y1068895D1*
X4235974Y1077294D1*
X4247522Y1088843D1*
Y1089892D1*
X4253821Y1096192D1*
X4254799Y1095843D1*
X4255921Y1095142D1*
Y1055247D1*
X4264320D1*
Y1106690D1*
X4252772D1*
G37*
G36*
X4223375Y1043698D2*
Y1013252D1*
X4232824D1*
Y1043698D1*
X4223375D1*
G37*
G36*
X4252772Y1000654D2*
X4231774Y979656D1*
X4229674Y978606D1*
X4223375Y973357D1*
X4219176Y970207D1*
X4218126Y969158D1*
X4211827Y966008D1*
X4208677Y964958D1*
X4204128Y963908D1*
X4199578D1*
X4195029Y964958D1*
X4190829Y967058D1*
X4188730Y969158D1*
Y970207D1*
X4187680Y972307D1*
X4186630Y973357D1*
Y984906D1*
X4187680Y985955D1*
X4189779Y992255D1*
X4190829Y994354D1*
X4192929Y997504D1*
Y998554D1*
X4182430D1*
X4181380Y996454D1*
X4179281Y990155D1*
X4178231Y984906D1*
Y970207D1*
X4179281Y967058D1*
X4181380Y962858D1*
X4183480Y959709D1*
X4185580Y957609D1*
X4188730Y955509D1*
X4190829Y954459D1*
X4193979Y953409D1*
X4208677D1*
X4214976Y955509D1*
X4219176Y957609D1*
X4222325Y959709D1*
X4226525Y962858D1*
X4235974Y971257D1*
X4247522Y982806D1*
Y983856D1*
X4253821Y990155D1*
X4254799Y989806D1*
X4255921Y989105D1*
Y949210D1*
X4264320D1*
Y1000654D1*
X4252772D1*
G37*
G36*
X4211827Y931362D2*
X4205527Y925063D1*
X4203428Y924013D1*
X4195029Y916664D1*
X4187680Y910365D1*
X4180331Y903016D1*
Y893567D1*
X4226525Y892517D1*
Y883068D1*
X4234924D1*
Y892517D1*
X4264320Y893567D1*
Y903016D1*
X4234924Y904066D1*
Y940811D1*
X4223375D1*
X4220226Y938711D1*
X4211827Y931362D1*
X4224425D1*
X4225209Y932036D1*
X4225753Y931975D1*
X4226525Y931362D1*
Y904066D1*
X4215326Y903016D1*
X4204128D1*
X4192929Y904066D1*
X4198178Y909315D1*
X4200278Y910365D1*
X4207627Y916664D1*
X4216026Y924013D1*
X4223375Y930312D1*
X4224425Y931362D1*
X4211827D1*
G37*
G36*
X4180331Y878869D2*
Y868370D1*
X4181380Y867320D1*
X4247522Y845273D1*
X4249622Y844223D1*
X4247522Y843173D1*
X4181380Y821126D1*
X4180331Y820076D1*
Y810627D1*
X4182430D1*
X4198178Y815877D1*
X4234924Y828475D1*
X4262220Y837924D1*
X4264320Y838974D1*
Y850522D1*
X4243323Y857871D1*
X4206577Y870470D1*
X4181380Y878869D1*
X4180331D1*
G37*
G36*
Y789630D2*
Y769682D1*
X4181380Y763383D1*
X4182430Y760234D1*
X4183480Y758134D1*
X4184530Y754984D1*
X4188730Y748685D1*
X4192929Y744486D1*
X4197128Y741336D1*
X4203428Y738186D1*
X4206577Y737137D1*
X4210777Y736087D1*
X4217076Y735037D1*
X4226525D1*
X4232824Y736087D1*
X4237023Y737137D1*
X4240173Y738186D1*
X4244373Y740286D1*
X4250672Y744486D1*
X4255921Y749735D1*
X4258021Y752885D1*
X4261170Y759184D1*
X4262220Y762333D1*
X4263270Y766533D1*
X4264320Y778081D1*
Y801179D1*
X4180331D1*
Y789630D1*
X4188730D1*
X4211127Y790680D1*
X4233524D1*
X4255921Y789630D1*
Y775982D1*
X4254871Y774932D1*
X4253821Y767583D1*
X4251722Y761284D1*
X4249622Y758134D1*
Y757084D1*
X4245422Y752885D1*
X4243323Y751835D1*
X4242273Y750785D1*
X4240173Y749735D1*
X4233874Y747635D1*
X4225475Y746585D1*
X4223025Y745535D1*
X4220576D1*
X4218126Y746585D1*
X4210777Y747635D1*
X4206577Y748685D1*
X4200278Y751835D1*
X4193979Y758134D1*
Y759184D1*
X4191879Y762333D1*
X4190829Y765483D1*
X4189779Y769682D1*
X4188730Y789630D1*
X4180331D1*
G37*
G36*
X4210777Y726638D2*
X4202378Y724538D1*
X4193979Y720339D1*
X4190829Y718239D1*
X4185580Y712990D1*
X4182430Y708790D1*
X4180331Y704591D1*
X4179281Y701441D1*
X4178231Y697242D1*
Y681493D1*
X4179281Y676244D1*
X4180331Y673095D1*
X4181380Y670995D1*
X4182430Y667845D1*
X4183480Y665745D1*
X4185580Y663646D1*
X4198178D1*
X4193979Y668895D1*
X4189779Y675194D1*
X4188730Y677294D1*
X4187680Y680444D1*
X4186630Y681493D1*
Y696192D1*
X4187680Y697242D1*
X4189779Y701441D1*
X4191879Y704591D1*
X4192083Y705335D1*
X4192929Y706690D1*
X4195029Y707740D1*
X4197128Y709840D1*
X4203428Y712990D1*
X4206577Y714039D1*
X4211827Y715089D1*
X4218826Y716139D1*
X4225825D1*
X4232824Y715089D1*
X4237023Y714039D1*
X4240173Y712990D1*
X4248572Y708790D1*
X4253821Y703541D1*
Y702491D1*
X4255921Y698291D1*
X4256971Y694092D1*
X4258021Y693042D1*
Y685693D1*
X4256971Y684643D1*
X4255921Y679394D1*
X4254871Y677294D1*
X4253821Y674144D1*
X4251722Y670995D1*
X4246472Y664696D1*
Y663646D1*
X4259071D1*
X4262220Y669945D1*
X4265370Y679394D1*
X4266420Y686743D1*
Y691992D1*
X4265370Y699341D1*
X4263270Y705640D1*
X4261170Y709840D1*
X4258021Y714039D1*
X4254871Y717189D1*
X4250672Y720339D1*
X4244373Y723488D1*
X4238073Y725588D1*
X4232824Y726638D1*
X4210777D1*
G37*
G36*
X4045947Y637661D2*
Y596717D1*
X4001853Y595142D1*
Y582543D1*
X4045947Y580969D1*
Y540024D1*
X4058546D1*
Y580969D1*
X4101065Y582543D1*
Y595142D1*
X4058546Y596717D1*
Y637661D1*
X4045947D1*
G37*
G36*
X4047522Y1201441D2*
Y1155772D1*
X4061695D1*
Y1201441D1*
X4047522D1*
G37*
G36*
X1004609Y2842976D2*
Y2780378D1*
X1015239D1*
Y2785102D1*
X1016501Y2785891D1*
X1017601Y2786284D1*
X1021144Y2782740D1*
X1028231Y2779197D1*
X1031774Y2778016D1*
X1042404D1*
X1045947Y2779197D1*
X1050672Y2781559D1*
X1055396Y2786284D1*
X1057758Y2789827D1*
X1060121Y2794551D1*
X1061302Y2798095D1*
X1062483Y2802819D1*
X1063664Y2814630D1*
Y2815811D1*
X1062483Y2826441D1*
X1061302Y2831165D1*
X1060121Y2834709D1*
X1057758Y2839433D1*
X1054215Y2844158D1*
X1050672Y2847701D1*
X1047128Y2850063D1*
X1042404Y2852425D1*
X1038861Y2853606D1*
X1028231D1*
X1023506Y2852425D1*
X1019963Y2851244D1*
X1017601Y2850063D1*
X1016349Y2848780D1*
X1015737Y2848972D1*
X1015239Y2850063D1*
Y2879591D1*
X1004609D1*
Y2842976D1*
X1024688D1*
X1029018Y2844158D1*
X1033349D1*
X1037680Y2842976D1*
X1042404Y2840614D1*
X1048310Y2834709D1*
Y2833528D1*
X1049491Y2831165D1*
X1050672Y2826441D1*
X1051853Y2825260D1*
Y2806362D1*
X1050672Y2805181D1*
X1049491Y2800457D1*
X1048310Y2796913D1*
Y2795732D1*
X1044766Y2792189D1*
X1040042Y2789827D1*
X1036105Y2788646D1*
X1032168D1*
X1028231Y2789827D1*
X1024688Y2791008D1*
X1019963Y2793370D1*
X1018782Y2794551D1*
X1016420Y2795732D1*
X1015239Y2796913D1*
Y2839433D1*
X1017601Y2840614D1*
X1024688Y2842976D1*
X1004609D1*
G37*
G36*
X975081Y2878409D2*
Y2780378D1*
X985711D1*
Y2878409D1*
X975081D1*
G37*
G36*
X1076656D2*
Y2780378D1*
X1087286D1*
Y2878409D1*
X1076656D1*
G37*
G36*
X1208939Y2841795D2*
X1208551Y2840362D1*
X1207758Y2839433D1*
X1206577Y2837071D1*
X1204215Y2827622D1*
Y2807543D1*
X1205396Y2801638D1*
X1206577Y2798095D1*
X1210121Y2791008D1*
X1213664Y2786284D1*
X1216026Y2783921D1*
X1219569Y2781559D1*
X1224294Y2779197D1*
X1227837Y2778016D1*
X1238467D1*
X1243191Y2779197D1*
X1247916Y2781559D1*
X1249491Y2782740D1*
X1251065D1*
X1252640Y2781559D1*
Y2780378D1*
X1262089D1*
Y2878409D1*
X1251459D1*
Y2846520D1*
X1250019Y2845287D1*
X1249097Y2845339D1*
X1245554Y2848882D1*
X1238467Y2852425D1*
X1234924Y2853606D1*
X1224294D1*
X1220751Y2852425D1*
X1216026Y2850063D1*
X1211302Y2845339D1*
X1208939Y2841795D1*
X1226656D1*
X1230593Y2842976D1*
X1234530D1*
X1238467Y2841795D1*
X1242010Y2840614D1*
X1246735Y2838252D1*
X1247916Y2837071D1*
X1250278Y2835890D1*
X1251459Y2834709D1*
Y2792189D1*
X1246735Y2789827D1*
X1242010Y2788646D1*
X1237680Y2787465D1*
X1233349D1*
X1229018Y2788646D1*
X1224294Y2791008D1*
X1218388Y2796913D1*
Y2798095D1*
X1217207Y2801638D1*
X1216026Y2807543D1*
X1214845Y2808724D1*
Y2822898D1*
X1216026Y2824079D1*
X1217207Y2829984D1*
X1218388Y2833528D1*
X1219569Y2835890D1*
Y2837071D1*
X1221932Y2839433D1*
X1226656Y2841795D1*
X1208939D1*
G37*
G36*
X1351853Y2799276D2*
X1353034Y2800457D1*
X1355396Y2805181D1*
X1356577Y2809906D1*
Y2829984D1*
X1355396Y2834709D1*
X1351853Y2841795D1*
X1344766Y2848882D1*
X1340042Y2851244D1*
X1336499Y2852425D1*
X1327050D1*
X1323506Y2851244D1*
X1321144Y2850063D1*
X1319704Y2848830D1*
X1318335Y2848982D1*
X1317216Y2850349D1*
X1317601Y2851244D1*
X1308152D1*
Y2796913D1*
X1302640Y2795732D1*
X1297128D1*
X1291617Y2796913D1*
Y2799276D1*
X1290436Y2802819D1*
X1289254Y2808724D1*
X1288073Y2809906D1*
Y2832346D1*
X1289254Y2833528D1*
X1290436Y2839433D1*
X1291617Y2844158D1*
X1295160Y2851244D1*
X1297522Y2854787D1*
Y2855969D1*
X1303428Y2861874D1*
X1305790Y2863055D1*
X1306971Y2864236D1*
X1311695Y2866598D1*
X1315239Y2867780D1*
X1321144Y2868961D1*
X1326656Y2870142D1*
X1332168D1*
X1337680Y2868961D1*
X1345947Y2866598D1*
X1349491Y2865417D1*
X1351853Y2864236D1*
X1353034Y2863055D1*
X1355396Y2861874D1*
X1364845Y2852425D1*
Y2851244D1*
X1367207Y2847701D1*
X1369569Y2842976D1*
X1371932Y2835890D1*
X1373113Y2828803D1*
X1374294Y2827622D1*
Y2815811D1*
X1373113Y2814630D1*
X1371932Y2806362D1*
X1369569Y2799276D1*
X1367207Y2794551D1*
X1364845Y2791008D1*
Y2789827D1*
X1357758Y2782740D1*
X1355396Y2781559D1*
X1354215Y2780378D1*
X1347128Y2776835D1*
X1343585Y2775654D1*
X1338861Y2774472D1*
X1331774Y2773291D1*
X1324688D1*
X1310514Y2775654D1*
X1309333D1*
Y2768567D1*
X1310514Y2767386D1*
X1318782Y2766205D1*
X1337680D1*
X1343585Y2767386D1*
X1350672Y2769748D1*
X1357758Y2773291D1*
X1361302Y2775654D1*
X1370751Y2785102D1*
X1375475Y2792189D1*
X1376656Y2794551D1*
X1377837Y2798095D1*
X1379018Y2800457D1*
X1380199Y2804000D1*
X1381380Y2809906D1*
Y2833528D1*
X1380199Y2838252D1*
X1377837Y2845339D1*
X1375475Y2850063D1*
X1370751Y2857150D1*
X1360121Y2867780D1*
X1356577Y2870142D1*
X1347128Y2874866D1*
X1342404Y2876047D1*
X1336499Y2877228D1*
X1322325D1*
X1316420Y2876047D1*
X1311695Y2874866D1*
X1302247Y2870142D1*
X1298703Y2867780D1*
X1292798Y2861874D1*
X1289254Y2857150D1*
X1283349Y2845339D1*
X1280987Y2835890D1*
X1279806Y2825260D1*
Y2819354D1*
X1280987Y2809906D1*
X1282168Y2805181D1*
X1284530Y2798095D1*
X1288073Y2791008D1*
X1289254Y2789827D1*
X1315239D1*
X1316420Y2792189D1*
Y2795732D1*
X1317682Y2796521D1*
X1318782Y2796913D1*
X1322325Y2793370D1*
X1325869Y2791008D1*
X1330593Y2789827D1*
X1340042D1*
X1343585Y2791008D1*
X1347128Y2793370D1*
X1351853Y2798095D1*
Y2799276D1*
X1337680D1*
X1334530Y2798095D1*
X1331380D1*
X1328231Y2799276D1*
X1324688Y2800457D1*
X1322325Y2801638D1*
X1321144Y2802819D1*
X1318782Y2804000D1*
X1317601Y2805181D1*
Y2839433D1*
X1318782Y2840614D1*
X1321144Y2841795D1*
X1324688Y2842976D1*
X1328625Y2844158D1*
X1332562D1*
X1336499Y2842976D1*
X1338861Y2841795D1*
X1344766Y2835890D1*
Y2834709D1*
X1345947Y2831165D1*
X1347128Y2829984D1*
Y2811087D1*
X1345947Y2809906D1*
X1344766Y2806362D1*
X1343585Y2804000D1*
X1343197Y2802567D1*
X1342404Y2801638D1*
X1337680Y2799276D1*
X1351853D1*
G37*
G36*
X1105002Y2874866D2*
Y2863055D1*
X1117995D1*
Y2874866D1*
X1105002D1*
G37*
G36*
X832168Y2842976D2*
Y2779197D1*
X833349Y2773291D1*
X834530Y2769748D1*
X836892Y2765024D1*
X840436Y2760299D1*
X845160Y2756756D1*
X847522Y2755575D1*
X851065Y2754394D1*
X856971Y2753213D1*
X872325D1*
X878231Y2754394D1*
X882955Y2755575D1*
X884136Y2756756D1*
Y2767386D1*
X882955D1*
X869963Y2763843D1*
X865239Y2762661D1*
X860514D1*
X855790Y2763843D1*
X852247Y2765024D1*
X847522Y2767386D1*
X846121Y2768714D1*
X846341Y2769748D1*
X845160Y2772110D1*
X843979Y2775654D1*
X842798Y2776835D1*
Y2788646D1*
X843680Y2789404D1*
X844292Y2789335D1*
X845160Y2788646D1*
X847522Y2786284D1*
X854609Y2782740D1*
X858152Y2781559D1*
X869963D1*
X873506Y2782740D1*
X878231Y2785102D1*
X885317Y2792189D1*
X887680Y2796913D1*
X890042Y2804000D1*
X891223Y2815811D1*
Y2816992D1*
X890042Y2827622D1*
X887680Y2834709D1*
X885317Y2839433D1*
X882955Y2842976D1*
X877050Y2848882D1*
X869963Y2852425D1*
X866420Y2853606D1*
X855790D1*
X851065Y2852425D1*
X846341Y2850063D1*
X844901Y2848830D1*
X843532Y2848982D1*
X842412Y2850349D1*
X842798Y2851244D1*
X832168D1*
Y2842976D1*
X852247D1*
X856577Y2844158D1*
X860908D1*
X865239Y2842976D1*
X868782Y2841795D1*
X869963Y2840614D1*
X872325Y2839433D1*
X873277Y2837908D1*
X873506Y2837071D1*
X875869Y2833528D1*
X877050Y2831165D1*
X878231Y2826441D1*
X879412Y2825260D1*
Y2807543D1*
X878231Y2806362D1*
X877050Y2801638D1*
X875869Y2799276D1*
Y2798095D1*
X871144Y2793370D1*
X867601Y2792189D1*
X863664Y2791008D1*
X859727D1*
X855790Y2792189D1*
X852247Y2793370D1*
X845160Y2796913D1*
X842798Y2799276D1*
Y2839433D1*
X845160Y2840614D1*
X852247Y2842976D1*
X832168D1*
G37*
G36*
X906577D2*
Y2841795D1*
X904215Y2839433D1*
X901853Y2834709D1*
X900672Y2831165D1*
X899491Y2825260D1*
Y2806362D1*
X900672Y2800457D1*
X901853Y2796913D1*
X904215Y2792189D1*
X906577Y2788646D1*
X911302Y2783921D1*
X914845Y2781559D1*
X919569Y2779197D1*
X924294Y2778016D1*
X936105D1*
X940829Y2779197D1*
X947916Y2782740D1*
X955002Y2789827D1*
X959727Y2799276D1*
X960908Y2804000D1*
Y2827622D1*
X959727Y2832346D1*
X955002Y2841795D1*
X947916Y2848882D1*
X940829Y2852425D1*
X936105Y2853606D1*
X924294D1*
X919569Y2852425D1*
X914845Y2850063D1*
X911302Y2847701D1*
X906577Y2842976D1*
X924294D1*
X928231Y2844158D1*
X932168D1*
X936105Y2842976D1*
X939648Y2841795D1*
X942010Y2840614D1*
X945554Y2837071D1*
Y2835890D1*
X947916Y2831165D1*
X949097Y2826441D1*
X950278Y2825260D1*
Y2806362D1*
X949097Y2805181D1*
X947916Y2800457D1*
X945554Y2795732D1*
Y2794551D1*
X943191Y2792189D1*
X940829Y2791008D1*
X939648Y2789827D1*
X936105Y2788646D1*
X932168Y2787465D1*
X928231D1*
X924294Y2788646D1*
X919569Y2791008D1*
X913664Y2796913D1*
Y2798095D1*
X912483Y2801638D1*
X911302Y2808724D1*
X910121Y2809906D1*
Y2821717D1*
X911302Y2822898D1*
X912483Y2829984D1*
X913664Y2833528D1*
Y2834709D1*
X920751Y2841795D1*
X924294Y2842976D1*
X906577D1*
G37*
G36*
X1106184Y2851244D2*
Y2780378D1*
X1116814D1*
Y2851244D1*
X1106184D1*
G37*
G36*
X1135711D2*
Y2780378D1*
X1146341D1*
Y2786284D1*
X1147223Y2787042D1*
X1147835Y2786973D1*
X1148703Y2786284D1*
X1153428Y2782740D1*
X1160514Y2779197D1*
X1164058Y2778016D1*
X1173506D1*
X1177050Y2779197D1*
X1181774Y2781559D1*
X1186499Y2786284D1*
X1188861Y2791008D1*
X1190042Y2794551D1*
X1191223Y2801638D1*
Y2851244D1*
X1180593D1*
X1179412Y2804000D1*
X1178231Y2796913D1*
Y2794551D1*
X1174688Y2791008D1*
X1172325Y2789827D1*
X1168388Y2788646D1*
X1164451D1*
X1160514Y2789827D1*
X1156971Y2791008D1*
X1152247Y2793370D1*
X1151065Y2794551D1*
X1148703Y2795732D1*
X1146341Y2798095D1*
Y2851244D1*
X1135711D1*
G37*
G36*
X1414451Y2713055D2*
X1409727Y2708331D1*
X1402640Y2697701D1*
X1395554Y2683528D1*
X1393191Y2676441D1*
X1392010Y2671717D1*
X1390829Y2664630D1*
Y2637465D1*
X1392010Y2630378D1*
X1393191Y2625654D1*
X1395554Y2618567D1*
X1402640Y2604394D1*
X1405002Y2600850D1*
X1406184Y2598488D1*
X1409727Y2593764D1*
X1414451Y2589039D1*
X1427443D1*
X1420357Y2597307D1*
X1415632Y2603213D1*
X1413270Y2606756D1*
X1407365Y2618567D1*
X1403821Y2629197D1*
X1402640Y2633921D1*
X1401459Y2642189D1*
X1400278Y2643370D1*
Y2658724D1*
X1401459Y2659906D1*
X1402640Y2668173D1*
X1403821Y2672898D1*
X1407365Y2683528D1*
X1413270Y2695339D1*
X1420357Y2704787D1*
X1427443Y2713055D1*
X1414451D1*
G37*
G36*
X1498310D2*
X1507758Y2703606D1*
Y2702425D1*
X1511302Y2697701D1*
X1512483Y2695339D1*
X1514845Y2691795D1*
X1518388Y2684709D1*
X1521932Y2674079D1*
X1523113Y2669354D1*
X1524294Y2663449D1*
X1525475Y2662268D1*
Y2639827D1*
X1524294Y2638646D1*
X1523113Y2632740D1*
X1521932Y2628016D1*
X1518388Y2617386D1*
X1514845Y2610299D1*
X1512483Y2606756D1*
X1511302Y2604394D1*
X1507758Y2599669D1*
X1498310Y2589039D1*
X1512483D1*
X1513664Y2590221D1*
X1520751Y2599669D1*
X1521932Y2602032D1*
X1524294Y2605575D1*
X1530199Y2617386D1*
X1532562Y2624472D1*
X1533743Y2629197D1*
X1534924Y2635102D1*
X1536105Y2646913D1*
Y2655181D1*
X1534924Y2666992D1*
X1533743Y2672898D1*
X1532562Y2677622D1*
X1530199Y2684709D1*
X1524294Y2696520D1*
X1521932Y2700063D1*
X1520751Y2702425D1*
X1513664Y2711874D1*
X1512483Y2713055D1*
X1498310D1*
G37*
G36*
X757758Y2701244D2*
X757370Y2699811D1*
X756577Y2698882D1*
X753034Y2691795D1*
X751853Y2687071D1*
X750672Y2681165D1*
X749491Y2670535D1*
Y2654000D1*
X750672Y2643370D1*
X751853Y2637465D1*
X753034Y2632740D1*
X754215Y2629197D1*
X756577Y2624472D1*
X764845Y2616205D1*
X769569Y2613843D1*
X774294Y2612661D1*
X784924D1*
X789648Y2613843D1*
X796735Y2617386D1*
X800278Y2620929D1*
X802640Y2624472D1*
X806184Y2631559D1*
X808546Y2641008D1*
X809727Y2649276D1*
Y2675260D1*
X808546Y2683528D1*
X807365Y2689433D1*
X806184Y2692976D1*
X802640Y2700063D1*
X800278Y2703606D1*
X796735Y2707150D1*
X789648Y2710693D1*
X784924Y2711874D1*
X774294D1*
X769569Y2710693D1*
X764845Y2708331D1*
X757758Y2701244D1*
X774294D1*
X777837Y2702425D1*
X781380D1*
X788467Y2700063D1*
X793191Y2695339D1*
Y2694158D1*
X794373Y2691795D1*
X795554Y2688252D1*
X796735Y2681165D1*
X797916Y2679984D1*
Y2644551D1*
X796735Y2643370D1*
X795554Y2636284D1*
X794373Y2632740D1*
X793191Y2630378D1*
Y2629197D1*
X788467Y2624472D1*
X781380Y2622110D1*
X777837D1*
X774294Y2623291D1*
X769569Y2625654D1*
X767207Y2628016D1*
Y2629197D1*
X764845Y2633921D1*
X763664Y2638646D1*
X762483Y2648095D1*
X761302Y2649276D1*
Y2675260D1*
X762483Y2676441D1*
X763664Y2685890D1*
X764845Y2690614D1*
X767207Y2695339D1*
Y2696520D1*
X769569Y2698882D1*
X774294Y2701244D1*
X757758D1*
G37*
G36*
X894766Y2711874D2*
X890042Y2710693D1*
X882955Y2707150D1*
X878231Y2702425D1*
X875869Y2698882D1*
X873506Y2691795D1*
Y2679984D1*
X874688Y2675260D1*
X875869Y2671717D1*
X879412Y2664630D1*
X881774Y2661087D1*
X885317Y2656362D1*
X916026Y2625654D1*
X869963Y2624472D1*
Y2615024D1*
X927837D1*
Y2626835D1*
X903034Y2652819D1*
X897128Y2659906D1*
X892404Y2665811D1*
X890042Y2669354D1*
X887680Y2674079D1*
X886499Y2678803D1*
X885317Y2679984D1*
Y2690614D1*
X886499Y2691795D1*
Y2694158D1*
X891223Y2698882D1*
X895947Y2701244D1*
X900278Y2702425D1*
X904609D1*
X908939Y2701244D1*
X913664Y2700063D1*
X917207Y2698882D1*
X921932Y2696520D1*
X923113Y2695339D1*
X925475Y2694158D1*
Y2705969D1*
X924294Y2707150D1*
X921932Y2708331D1*
X918388Y2709512D1*
X913664Y2710693D1*
X907758Y2711874D1*
X894766D1*
G37*
G36*
X1068388Y2701244D2*
X1068000Y2699811D1*
X1067207Y2698882D1*
X1063664Y2691795D1*
X1062483Y2687071D1*
X1061302Y2681165D1*
X1060121Y2670535D1*
Y2654000D1*
X1061302Y2643370D1*
X1062483Y2637465D1*
X1063664Y2632740D1*
X1064845Y2629197D1*
X1067207Y2624472D1*
X1075475Y2616205D1*
X1080199Y2613843D1*
X1084924Y2612661D1*
X1095554D1*
X1100278Y2613843D1*
X1107365Y2617386D1*
X1110908Y2620929D1*
X1113270Y2624472D1*
X1116814Y2631559D1*
X1119176Y2641008D1*
X1120357Y2649276D1*
Y2675260D1*
X1119176Y2683528D1*
X1117995Y2689433D1*
X1116814Y2692976D1*
X1113270Y2700063D1*
X1110908Y2703606D1*
X1107365Y2707150D1*
X1100278Y2710693D1*
X1095554Y2711874D1*
X1084924D1*
X1080199Y2710693D1*
X1075475Y2708331D1*
X1068388Y2701244D1*
X1084924D1*
X1088467Y2702425D1*
X1092010D1*
X1099097Y2700063D1*
X1103821Y2695339D1*
Y2694158D1*
X1105002Y2691795D1*
X1106184Y2688252D1*
X1107365Y2681165D1*
X1108546Y2679984D1*
Y2644551D1*
X1107365Y2643370D1*
X1106184Y2636284D1*
X1105002Y2632740D1*
X1103821Y2630378D1*
Y2629197D1*
X1099097Y2624472D1*
X1092010Y2622110D1*
X1088467D1*
X1084924Y2623291D1*
X1080199Y2625654D1*
X1077837Y2628016D1*
Y2629197D1*
X1075475Y2633921D1*
X1074294Y2638646D1*
X1073113Y2648095D1*
X1071932Y2649276D1*
Y2675260D1*
X1073113Y2676441D1*
X1074294Y2685890D1*
X1075475Y2690614D1*
X1077837Y2695339D1*
Y2696520D1*
X1080199Y2698882D1*
X1084924Y2701244D1*
X1068388D1*
G37*
G36*
X1158152Y2711874D2*
X1153428Y2710693D1*
X1146341Y2707150D1*
X1141617Y2702425D1*
X1139254Y2698882D1*
X1136892Y2691795D1*
Y2679984D1*
X1138073Y2675260D1*
X1139254Y2671717D1*
X1142798Y2664630D1*
X1145160Y2661087D1*
X1148703Y2656362D1*
X1179412Y2625654D1*
X1133349Y2624472D1*
Y2615024D1*
X1191223D1*
Y2626835D1*
X1166420Y2652819D1*
X1160514Y2659906D1*
X1155790Y2665811D1*
X1153428Y2669354D1*
X1151065Y2674079D1*
X1149884Y2678803D1*
X1148703Y2679984D1*
Y2690614D1*
X1149884Y2691795D1*
Y2694158D1*
X1154609Y2698882D1*
X1159333Y2701244D1*
X1163664Y2702425D1*
X1167995D1*
X1172325Y2701244D1*
X1177050Y2700063D1*
X1180593Y2698882D1*
X1185317Y2696520D1*
X1186499Y2695339D1*
X1188861Y2694158D1*
Y2705969D1*
X1187680Y2707150D1*
X1185317Y2708331D1*
X1181774Y2709512D1*
X1177050Y2710693D1*
X1171144Y2711874D1*
X1158152D1*
G37*
G36*
X1212483Y2701244D2*
X1212095Y2699811D1*
X1211302Y2698882D1*
X1207758Y2691795D1*
X1206577Y2687071D1*
X1205396Y2681165D1*
X1204215Y2670535D1*
Y2654000D1*
X1205396Y2643370D1*
X1206577Y2637465D1*
X1207758Y2632740D1*
X1208939Y2629197D1*
X1211302Y2624472D1*
X1219569Y2616205D1*
X1224294Y2613843D1*
X1229018Y2612661D1*
X1239648D1*
X1244373Y2613843D1*
X1251459Y2617386D1*
X1255002Y2620929D1*
X1257365Y2624472D1*
X1260908Y2631559D1*
X1263270Y2641008D1*
X1264451Y2649276D1*
Y2675260D1*
X1263270Y2683528D1*
X1262089Y2689433D1*
X1260908Y2692976D1*
X1257365Y2700063D1*
X1255002Y2703606D1*
X1251459Y2707150D1*
X1244373Y2710693D1*
X1239648Y2711874D1*
X1229018D1*
X1224294Y2710693D1*
X1219569Y2708331D1*
X1212483Y2701244D1*
X1229018D1*
X1232562Y2702425D1*
X1236105D1*
X1243191Y2700063D1*
X1247916Y2695339D1*
Y2694158D1*
X1249097Y2691795D1*
X1250278Y2688252D1*
X1251459Y2681165D1*
X1252640Y2679984D1*
Y2644551D1*
X1251459Y2643370D1*
X1250278Y2636284D1*
X1249097Y2632740D1*
X1247916Y2630378D1*
Y2629197D1*
X1243191Y2624472D1*
X1236105Y2622110D1*
X1232562D1*
X1229018Y2623291D1*
X1224294Y2625654D1*
X1221932Y2628016D1*
Y2629197D1*
X1219569Y2633921D1*
X1218388Y2638646D1*
X1217207Y2648095D1*
X1216026Y2649276D1*
Y2675260D1*
X1217207Y2676441D1*
X1218388Y2685890D1*
X1219569Y2690614D1*
X1221932Y2695339D1*
Y2696520D1*
X1224294Y2698882D1*
X1229018Y2701244D1*
X1212483D1*
G37*
G36*
X1302247Y2711874D2*
X1297522Y2710693D1*
X1290436Y2707150D1*
X1285711Y2702425D1*
X1283349Y2698882D1*
X1280987Y2691795D1*
Y2679984D1*
X1282168Y2675260D1*
X1283349Y2671717D1*
X1286892Y2664630D1*
X1289254Y2661087D1*
X1292798Y2656362D1*
X1323506Y2625654D1*
X1277443Y2624472D1*
Y2615024D1*
X1335317D1*
Y2626835D1*
X1310514Y2652819D1*
X1304609Y2659906D1*
X1299884Y2665811D1*
X1297522Y2669354D1*
X1295160Y2674079D1*
X1293979Y2678803D1*
X1292798Y2679984D1*
Y2690614D1*
X1293979Y2691795D1*
Y2694158D1*
X1298703Y2698882D1*
X1303428Y2701244D1*
X1307758Y2702425D1*
X1312089D1*
X1316420Y2701244D1*
X1321144Y2700063D1*
X1324688Y2698882D1*
X1329412Y2696520D1*
X1330593Y2695339D1*
X1332955Y2694158D1*
Y2705969D1*
X1331774Y2707150D1*
X1329412Y2708331D1*
X1325869Y2709512D1*
X1321144Y2710693D1*
X1315239Y2711874D1*
X1302247D1*
G37*
G36*
X699884Y2709512D2*
Y2624472D1*
X683349Y2623291D1*
Y2615024D1*
X728231D1*
Y2623291D1*
X711695Y2624472D1*
Y2688252D1*
X728231Y2689433D1*
Y2696520D1*
X719963Y2697701D1*
X716420Y2698882D1*
X711695Y2701244D1*
Y2702425D1*
X709333Y2709512D1*
X699884D1*
G37*
G36*
X963270D2*
Y2624472D1*
X946735Y2623291D1*
Y2615024D1*
X991617D1*
Y2623291D1*
X975081Y2624472D1*
Y2688252D1*
X991617Y2689433D1*
Y2696520D1*
X983349Y2697701D1*
X979806Y2698882D1*
X975081Y2701244D1*
Y2702425D1*
X972719Y2709512D1*
X963270D1*
G37*
G36*
X1451065Y2688252D2*
X1446341Y2687071D1*
X1439254Y2684709D1*
X1436892Y2683528D1*
Y2670535D1*
X1440436Y2672898D1*
X1441617Y2674079D1*
X1443979Y2675260D1*
X1451065Y2677622D1*
X1455002Y2678803D1*
X1458939D1*
X1462877Y2677622D1*
X1466420Y2676441D1*
X1468782Y2675260D1*
X1473506Y2670535D1*
Y2669354D1*
X1475869Y2664630D1*
X1477050Y2659906D1*
X1478231Y2658724D1*
Y2642189D1*
X1477050Y2641008D1*
X1474688Y2633921D1*
Y2632740D1*
X1468782Y2626835D1*
X1466420Y2625654D1*
X1462877Y2624472D1*
X1458546Y2623291D1*
X1454215D1*
X1449884Y2624472D1*
X1446341Y2625654D1*
X1439254Y2629197D1*
X1436892Y2631559D1*
Y2618567D1*
X1439254Y2617386D1*
X1446341Y2615024D1*
X1451065Y2613843D1*
X1462877D1*
X1467601Y2615024D1*
X1471144Y2616205D1*
X1475869Y2618567D1*
X1482955Y2625654D1*
X1485317Y2629197D1*
X1486499Y2631559D1*
X1487680Y2635102D1*
X1488861Y2639827D1*
Y2662268D1*
X1486499Y2669354D1*
X1484136Y2674079D1*
X1481774Y2677622D1*
X1477050Y2682346D1*
X1473506Y2684709D1*
X1471144Y2685890D1*
X1467601Y2687071D1*
X1462877Y2688252D1*
X1451065D1*
G37*
G36*
X821538Y2661087D2*
Y2650457D1*
X856971D1*
Y2661087D1*
X821538D1*
G37*
G36*
X1012877D2*
Y2650457D1*
X1048310D1*
Y2661087D1*
X1012877D1*
G37*
G36*
X2189254Y1419748D2*
Y1357150D1*
X2199884D1*
Y1361874D1*
X2201146Y1362663D1*
X2202247Y1363055D1*
X2205790Y1359512D1*
X2212877Y1355969D1*
X2216420Y1354787D1*
X2227050D1*
X2230593Y1355969D1*
X2235317Y1358331D1*
X2240042Y1363055D1*
X2242404Y1366598D1*
X2244766Y1371323D1*
X2245947Y1374866D1*
X2247128Y1379591D1*
X2248310Y1391402D1*
Y1392583D1*
X2247128Y1403213D1*
X2245947Y1407937D1*
X2244766Y1411480D1*
X2242404Y1416205D1*
X2238861Y1420929D1*
X2235317Y1424472D1*
X2231774Y1426835D1*
X2227050Y1429197D1*
X2223506Y1430378D1*
X2212877D1*
X2208152Y1429197D1*
X2204609Y1428016D1*
X2202247Y1426835D1*
X2200994Y1425552D1*
X2200383Y1425744D1*
X2199884Y1426835D1*
Y1456362D1*
X2189254D1*
Y1419748D1*
X2209333D1*
X2213664Y1420929D1*
X2217995D1*
X2222325Y1419748D1*
X2227050Y1417386D1*
X2232955Y1411480D1*
Y1410299D1*
X2234136Y1407937D1*
X2235317Y1403213D1*
X2236499Y1402032D1*
Y1383134D1*
X2235317Y1381953D1*
X2234136Y1377228D1*
X2232955Y1373685D1*
Y1372504D1*
X2229412Y1368961D1*
X2224688Y1366598D1*
X2220751Y1365417D1*
X2216814D1*
X2212877Y1366598D1*
X2209333Y1367780D1*
X2204609Y1370142D1*
X2203428Y1371323D1*
X2201065Y1372504D1*
X2199884Y1373685D1*
Y1416205D1*
X2202247Y1417386D1*
X2209333Y1419748D1*
X2189254D1*
G37*
G36*
X1374294Y1455181D2*
Y1357150D1*
X1384924D1*
Y1455181D1*
X1374294D1*
G37*
G36*
X1403821D2*
Y1357150D1*
X1414451D1*
Y1455181D1*
X1403821D1*
G37*
G36*
X959727Y1443370D2*
X959339Y1441937D1*
X958546Y1441008D1*
X955002Y1433921D1*
X953821Y1429197D1*
X952640Y1423291D1*
X951459Y1412661D1*
Y1396126D1*
X952640Y1385496D1*
X953821Y1379591D1*
X955002Y1374866D1*
X956184Y1371323D1*
X958546Y1366598D1*
X966814Y1358331D1*
X971538Y1355969D1*
X976262Y1354787D1*
X986892D1*
X991617Y1355969D1*
X998703Y1359512D1*
X1002247Y1363055D1*
X1004609Y1366598D1*
X1008152Y1373685D1*
X1010514Y1383134D1*
X1011695Y1391402D1*
Y1417386D1*
X1010514Y1425654D1*
X1009333Y1431559D1*
X1008152Y1435102D1*
X1004609Y1442189D1*
X1002247Y1445732D1*
X998703Y1449276D1*
X991617Y1452819D1*
X986892Y1454000D1*
X976262D1*
X971538Y1452819D1*
X966814Y1450457D1*
X959727Y1443370D1*
X976262D1*
X979806Y1444551D1*
X983349D1*
X990436Y1442189D1*
X995160Y1437465D1*
Y1436284D1*
X996341Y1433921D1*
X997522Y1430378D1*
X998703Y1423291D1*
X999884Y1422110D1*
Y1386677D1*
X998703Y1385496D1*
X997522Y1378409D1*
X996341Y1374866D1*
X995160Y1372504D1*
Y1371323D1*
X990436Y1366598D1*
X983349Y1364236D1*
X979806D1*
X976262Y1365417D1*
X971538Y1367780D1*
X969176Y1370142D1*
Y1371323D1*
X966814Y1376047D1*
X965632Y1380772D1*
X964451Y1390221D1*
X963270Y1391402D1*
Y1417386D1*
X964451Y1418567D1*
X965632Y1428016D1*
X966814Y1432740D1*
X969176Y1437465D1*
Y1438646D1*
X971538Y1441008D1*
X976262Y1443370D1*
X959727D1*
G37*
G36*
X1754609Y1454000D2*
X1748703Y1452819D1*
X1743979Y1451638D1*
X1738073Y1449276D1*
X1733349Y1446913D1*
Y1431559D1*
X1740436Y1437465D1*
X1741617Y1438646D1*
X1746341Y1441008D1*
X1749884Y1442189D1*
X1759333Y1444551D1*
X1764058D1*
X1768782Y1443370D1*
X1772325Y1442189D1*
X1777050Y1439827D1*
X1778231Y1438646D1*
X1780593Y1437465D1*
X1784136Y1433921D1*
Y1432740D1*
X1786499Y1429197D1*
X1787680Y1426835D1*
X1790042Y1419748D1*
X1791223Y1413843D1*
X1792404Y1412661D1*
Y1396126D1*
X1791223Y1394945D1*
X1790042Y1389039D1*
X1788861Y1384315D1*
X1786499Y1379591D1*
X1784136Y1376047D1*
Y1374866D1*
X1779412Y1370142D1*
X1772325Y1366598D1*
X1768782Y1365417D1*
X1764058Y1364236D1*
X1759333D1*
X1749884Y1366598D1*
X1746341Y1367780D1*
X1741617Y1370142D1*
X1740436Y1371323D1*
X1733349Y1377228D1*
Y1363055D1*
X1734530Y1361874D1*
X1741617Y1358331D1*
X1748703Y1355969D1*
X1754609Y1354787D1*
X1768782D1*
X1774688Y1355969D1*
X1778231Y1357150D1*
X1785317Y1360693D1*
X1790042Y1364236D1*
X1792404Y1366598D1*
X1795947Y1371323D1*
X1798310Y1374866D1*
X1799491Y1378409D1*
X1800672Y1380772D1*
X1803034Y1387858D1*
X1804215Y1394945D1*
Y1413843D1*
X1803034Y1419748D1*
X1801853Y1424472D1*
X1800672Y1428016D1*
X1797128Y1435102D1*
X1794766Y1438646D1*
X1786499Y1446913D1*
X1782955Y1449276D1*
X1780593Y1450457D1*
X1773506Y1452819D1*
X1768782Y1454000D1*
X1754609D1*
G37*
G36*
X1864451Y1443370D2*
X1864063Y1441937D1*
X1863270Y1441008D1*
X1859727Y1433921D1*
X1858546Y1430378D1*
X1857365Y1425654D1*
X1856184Y1415024D1*
Y1405575D1*
X1857365Y1394945D1*
X1858546Y1389039D1*
X1859727Y1384315D1*
X1860908Y1380772D1*
X1865632Y1371323D1*
X1869176Y1366598D1*
X1872719Y1363055D1*
X1879806Y1358331D1*
X1882168Y1357150D1*
X1885711Y1355969D1*
X1891617Y1354787D1*
X1905790D1*
X1909333Y1355969D1*
Y1366598D1*
X1908152D1*
X1904609Y1365417D1*
X1899884Y1364236D1*
X1895160D1*
X1885711Y1366598D1*
X1883349Y1367780D1*
X1882168Y1368961D1*
X1879806Y1370142D1*
X1875081Y1374866D1*
Y1376047D1*
X1871538Y1383134D1*
X1870357Y1387858D1*
X1869176Y1389039D1*
Y1396126D1*
X1870438Y1396915D1*
X1871538Y1397307D1*
X1873900Y1394945D1*
X1876262Y1393764D1*
X1883349Y1391402D1*
X1895160D1*
X1899884Y1392583D1*
X1906971Y1396126D1*
X1912877Y1402032D1*
X1915239Y1406756D1*
X1916420Y1410299D1*
X1917601Y1415024D1*
Y1426835D1*
X1916420Y1431559D1*
X1915239Y1435102D1*
X1911695Y1442189D1*
X1904609Y1449276D1*
X1897522Y1452819D1*
X1892798Y1454000D1*
X1882168D1*
X1877443Y1452819D1*
X1870357Y1449276D1*
X1864451Y1443370D1*
X1882168D1*
X1886105Y1444551D1*
X1890042D1*
X1893979Y1443370D1*
X1898703Y1441008D1*
X1902247Y1437465D1*
Y1436284D1*
X1903428Y1433921D1*
X1904609Y1429197D1*
X1905790Y1428016D1*
Y1415024D1*
X1904609Y1413843D1*
X1903428Y1410299D1*
Y1409118D1*
X1898703Y1404394D1*
X1893979Y1402032D1*
X1889254Y1400850D1*
X1884530D1*
X1879806Y1402032D1*
X1872719Y1404394D1*
X1870357Y1405575D1*
X1867995Y1407937D1*
Y1419748D1*
X1869176Y1420929D1*
X1870357Y1428016D1*
X1871538Y1431559D1*
X1873900Y1436284D1*
Y1437465D1*
X1877443Y1441008D1*
X1882168Y1443370D1*
X1864451D1*
G37*
G36*
X1936499D2*
X1936110Y1441937D1*
X1935317Y1441008D1*
X1931774Y1433921D1*
X1930593Y1429197D1*
X1929412Y1423291D1*
X1928231Y1412661D1*
Y1396126D1*
X1929412Y1385496D1*
X1930593Y1379591D1*
X1931774Y1374866D1*
X1932955Y1371323D1*
X1935317Y1366598D1*
X1943585Y1358331D1*
X1948310Y1355969D1*
X1953034Y1354787D1*
X1963664D1*
X1968388Y1355969D1*
X1975475Y1359512D1*
X1979018Y1363055D1*
X1981380Y1366598D1*
X1984924Y1373685D1*
X1987286Y1383134D1*
X1988467Y1391402D1*
Y1417386D1*
X1987286Y1425654D1*
X1986105Y1431559D1*
X1984924Y1435102D1*
X1981380Y1442189D1*
X1979018Y1445732D1*
X1975475Y1449276D1*
X1968388Y1452819D1*
X1963664Y1454000D1*
X1953034D1*
X1948310Y1452819D1*
X1943585Y1450457D1*
X1936499Y1443370D1*
X1953034D1*
X1956577Y1444551D1*
X1960121D1*
X1967207Y1442189D1*
X1971932Y1437465D1*
Y1436284D1*
X1973113Y1433921D1*
X1974294Y1430378D1*
X1975475Y1423291D1*
X1976656Y1422110D1*
Y1386677D1*
X1975475Y1385496D1*
X1974294Y1378409D1*
X1973113Y1374866D1*
X1971932Y1372504D1*
Y1371323D1*
X1967207Y1366598D1*
X1960121Y1364236D1*
X1956577D1*
X1953034Y1365417D1*
X1948310Y1367780D1*
X1945947Y1370142D1*
Y1371323D1*
X1943585Y1376047D1*
X1942404Y1380772D1*
X1941223Y1390221D1*
X1940042Y1391402D1*
Y1417386D1*
X1941223Y1418567D1*
X1942404Y1428016D1*
X1943585Y1432740D1*
X1945947Y1437465D1*
Y1438646D1*
X1948310Y1441008D1*
X1953034Y1443370D1*
X1936499D1*
G37*
G36*
X2026262Y1454000D2*
X2021538Y1452819D1*
X2014451Y1449276D1*
X2009727Y1444551D1*
X2007365Y1441008D1*
X2005002Y1433921D1*
Y1422110D1*
X2006184Y1417386D1*
X2007365Y1413843D1*
X2010908Y1406756D1*
X2013270Y1403213D1*
X2016814Y1398488D1*
X2047522Y1367780D1*
X2001459Y1366598D1*
Y1357150D1*
X2059333D1*
Y1368961D1*
X2034530Y1394945D1*
X2028625Y1402032D1*
X2023900Y1407937D1*
X2021538Y1411480D1*
X2019176Y1416205D1*
X2017995Y1420929D1*
X2016814Y1422110D1*
Y1432740D1*
X2017995Y1433921D1*
Y1436284D1*
X2022719Y1441008D1*
X2027443Y1443370D1*
X2031774Y1444551D1*
X2036105D1*
X2040436Y1443370D1*
X2045160Y1442189D1*
X2048703Y1441008D1*
X2053428Y1438646D1*
X2054609Y1437465D1*
X2056971Y1436284D1*
Y1448095D1*
X2055790Y1449276D1*
X2053428Y1450457D1*
X2049884Y1451638D1*
X2045160Y1452819D1*
X2039254Y1454000D1*
X2026262D1*
G37*
G36*
X2098310D2*
X2093585Y1452819D1*
X2086499Y1449276D1*
X2081774Y1444551D1*
X2079412Y1441008D1*
X2077050Y1433921D1*
Y1422110D1*
X2078231Y1417386D1*
X2079412Y1413843D1*
X2082955Y1406756D1*
X2085317Y1403213D1*
X2088861Y1398488D1*
X2119569Y1367780D1*
X2073506Y1366598D1*
Y1357150D1*
X2131380D1*
Y1368961D1*
X2106577Y1394945D1*
X2100672Y1402032D1*
X2095947Y1407937D1*
X2093585Y1411480D1*
X2091223Y1416205D1*
X2090042Y1420929D1*
X2088861Y1422110D1*
Y1432740D1*
X2090042Y1433921D1*
Y1436284D1*
X2094766Y1441008D1*
X2099491Y1443370D1*
X2103821Y1444551D1*
X2108152D1*
X2112483Y1443370D1*
X2117207Y1442189D1*
X2120751Y1441008D1*
X2125475Y1438646D1*
X2126656Y1437465D1*
X2129018Y1436284D1*
Y1448095D1*
X2127837Y1449276D1*
X2125475Y1450457D1*
X2121932Y1451638D1*
X2117207Y1452819D1*
X2111302Y1454000D1*
X2098310D1*
G37*
G36*
X2412483Y1443370D2*
X2407758Y1438646D1*
X2405396Y1435102D1*
X2403034Y1430378D1*
X2400672Y1423291D1*
X2399491Y1418567D1*
X2398310Y1410299D1*
Y1398488D1*
X2399491Y1390221D1*
X2400672Y1385496D1*
X2403034Y1378409D1*
X2405396Y1373685D1*
X2407758Y1370142D1*
X2416026Y1361874D1*
X2419569Y1359512D1*
X2421932Y1358331D1*
X2425475Y1357150D1*
Y1352425D1*
X2424294Y1351244D1*
X2423113Y1347701D1*
X2422724Y1346268D1*
X2421932Y1345339D1*
X2417207Y1342976D1*
X2412877Y1341795D1*
X2408546D1*
X2404215Y1342976D1*
X2400672Y1344158D1*
X2398310D1*
Y1333528D1*
X2404215Y1332346D1*
X2418388D1*
X2425475Y1334709D1*
X2429018Y1337071D1*
X2432562Y1340614D1*
X2434924Y1344158D1*
X2436105Y1347701D1*
Y1352425D1*
X2437286Y1353606D1*
X2447916Y1354787D1*
X2452640Y1355969D1*
X2456184Y1357150D1*
X2463270Y1360693D1*
X2466814Y1363055D1*
X2471538Y1367780D1*
X2476262Y1374866D1*
X2477443Y1377228D1*
X2480987Y1387858D1*
X2482168Y1394945D1*
Y1413843D1*
X2480987Y1420929D1*
X2478625Y1428016D1*
X2477443Y1430378D1*
X2476262Y1433921D1*
X2471538Y1441008D1*
X2466814Y1445732D1*
X2463270Y1448095D1*
X2456184Y1451638D1*
X2452640Y1452819D1*
X2447916Y1454000D1*
X2433743D1*
X2427837Y1452819D1*
X2424294Y1451638D1*
X2419569Y1449276D1*
X2416026Y1446913D1*
X2412483Y1443370D1*
X2433743D1*
X2438467Y1444551D1*
X2443191D1*
X2447916Y1443370D1*
X2451459Y1442189D1*
X2456184Y1439827D1*
X2457365Y1438646D1*
X2459727Y1437465D1*
X2460678Y1435940D1*
X2460908Y1435102D1*
X2464451Y1430378D1*
X2465632Y1428016D1*
X2467995Y1420929D1*
X2469176Y1413843D1*
X2470357Y1412661D1*
Y1396126D1*
X2469176Y1394945D1*
X2467995Y1387858D1*
X2465632Y1380772D1*
X2464451Y1378409D1*
Y1377228D1*
X2456184Y1368961D1*
X2451459Y1366598D1*
X2447916Y1365417D1*
X2443191Y1364236D1*
X2438467D1*
X2429018Y1366598D1*
X2426656Y1367780D1*
X2425475Y1368961D1*
X2423113Y1370142D1*
X2417207Y1376047D1*
Y1377228D1*
X2414845Y1381953D1*
X2412483Y1389039D1*
X2411302Y1398488D1*
X2410121Y1399669D1*
Y1409118D1*
X2411302Y1410299D1*
X2412483Y1419748D1*
X2414845Y1426835D1*
X2417207Y1431559D1*
Y1432740D1*
X2424294Y1439827D1*
X2429018Y1442189D1*
X2433743Y1443370D1*
X2412483D1*
G37*
G36*
X1086105Y1451638D2*
Y1366598D1*
X1069569Y1365417D1*
Y1357150D1*
X1114451D1*
Y1365417D1*
X1097916Y1366598D1*
Y1430378D1*
X1114451Y1431559D1*
Y1438646D1*
X1106184Y1439827D1*
X1102640Y1441008D1*
X1097916Y1443370D1*
Y1444551D1*
X1095554Y1451638D1*
X1086105D1*
G37*
G36*
X1129806D2*
X1130987Y1450457D1*
Y1448095D1*
X1132168Y1445732D1*
X1147522Y1399669D1*
X1148703Y1397307D1*
X1161695Y1358331D1*
X1162877Y1357150D1*
X1175869D1*
X1190042Y1399669D1*
X1191223Y1402032D1*
X1206577Y1448095D1*
X1207758Y1450457D1*
Y1451638D1*
X1194766D1*
X1174688Y1391402D1*
X1173506Y1386677D1*
X1169963Y1376047D1*
X1169663Y1374654D1*
X1168713Y1373576D1*
X1168101Y1373775D1*
X1167601Y1374866D1*
X1160514Y1396126D1*
X1159333Y1400850D1*
X1142798Y1450457D1*
X1141617Y1451638D1*
X1129806D1*
G37*
G36*
X1565632Y1448095D2*
Y1429197D1*
X1543191Y1428016D1*
Y1418567D1*
X1565632Y1417386D1*
Y1377228D1*
X1564451Y1376047D1*
Y1371323D1*
X1560908Y1367780D1*
X1558546Y1366598D1*
X1554609Y1365417D1*
X1550672D1*
X1546735Y1366598D1*
X1543191Y1367780D1*
Y1358331D1*
X1544373Y1357150D1*
X1550278Y1355969D1*
X1560908D1*
X1564451Y1357150D1*
X1569176Y1359512D1*
X1571538Y1361874D1*
X1573900Y1365417D1*
X1575081Y1368961D1*
X1576262Y1374866D1*
Y1417386D1*
X1584530Y1418567D1*
Y1428016D1*
X1576262Y1429197D1*
Y1448095D1*
X1565632D1*
G37*
G36*
X1306971Y1420929D2*
X1304609Y1418567D1*
X1303428Y1416205D1*
X1301065Y1409118D1*
Y1392583D1*
X1349491Y1391402D1*
Y1383134D1*
X1348310Y1381953D1*
X1347128Y1378409D1*
X1345947Y1376047D1*
Y1374866D1*
X1341223Y1370142D1*
X1336499Y1367780D1*
X1332955Y1366598D1*
X1328231Y1365417D1*
X1323506D1*
X1314058Y1367780D1*
X1310514Y1368961D1*
X1303428Y1372504D1*
X1302247Y1373685D1*
Y1361874D1*
X1303428Y1360693D1*
X1309333Y1358331D1*
X1318782Y1355969D1*
X1332955D1*
X1337680Y1357150D1*
X1341223Y1358331D1*
X1345947Y1360693D1*
X1349491Y1363055D1*
X1354215Y1367780D1*
X1358939Y1377228D1*
X1360121Y1381953D1*
X1361302Y1391402D1*
Y1393764D1*
X1360121Y1404394D1*
X1357758Y1411480D1*
X1355396Y1416205D1*
X1351853Y1420929D1*
X1349491Y1423291D1*
X1342404Y1428016D1*
X1338861Y1429197D1*
X1334136Y1430378D1*
X1322325D1*
X1317601Y1429197D1*
X1312877Y1426835D1*
X1306971Y1420929D1*
X1322325D1*
X1326656Y1422110D1*
X1330987D1*
X1335317Y1420929D1*
X1338861Y1419748D1*
X1341223Y1418567D1*
X1345947Y1413843D1*
Y1412661D1*
X1348310Y1407937D1*
X1349491Y1406756D1*
Y1402032D1*
X1336499Y1400850D1*
X1323506D1*
X1310514Y1402032D1*
X1310744Y1402869D1*
X1311695Y1404394D1*
X1312877Y1411480D1*
X1314058Y1413843D1*
Y1415024D1*
X1317601Y1418567D1*
X1322325Y1420929D1*
X1306971D1*
G37*
G36*
X1435711Y1419748D2*
Y1418567D1*
X1433349Y1416205D1*
X1430987Y1411480D1*
X1429806Y1407937D1*
X1428625Y1402032D1*
Y1383134D1*
X1429806Y1377228D1*
X1430987Y1373685D1*
X1433349Y1368961D1*
X1435711Y1365417D1*
X1440436Y1360693D1*
X1443979Y1358331D1*
X1448703Y1355969D1*
X1453428Y1354787D1*
X1465239D1*
X1469963Y1355969D1*
X1477050Y1359512D1*
X1484136Y1366598D1*
X1488861Y1376047D1*
X1490042Y1380772D1*
Y1404394D1*
X1488861Y1409118D1*
X1484136Y1418567D1*
X1477050Y1425654D1*
X1469963Y1429197D1*
X1465239Y1430378D1*
X1453428D1*
X1448703Y1429197D1*
X1443979Y1426835D1*
X1440436Y1424472D1*
X1435711Y1419748D1*
X1453428D1*
X1457365Y1420929D1*
X1461302D1*
X1465239Y1419748D1*
X1468782Y1418567D1*
X1471144Y1417386D1*
X1474688Y1413843D1*
Y1412661D1*
X1477050Y1407937D1*
X1478231Y1403213D1*
X1479412Y1402032D1*
Y1383134D1*
X1478231Y1381953D1*
X1477050Y1377228D1*
X1474688Y1372504D1*
Y1371323D1*
X1472325Y1368961D1*
X1469963Y1367780D1*
X1468782Y1366598D1*
X1465239Y1365417D1*
X1461302Y1364236D1*
X1457365D1*
X1453428Y1365417D1*
X1448703Y1367780D1*
X1442798Y1373685D1*
Y1374866D1*
X1441617Y1378409D1*
X1440436Y1385496D1*
X1439254Y1386677D1*
Y1398488D1*
X1440436Y1399669D1*
X1441617Y1406756D1*
X1442798Y1410299D1*
Y1411480D1*
X1449884Y1418567D1*
X1453428Y1419748D1*
X1435711D1*
G37*
G36*
X1611695Y1430378D2*
X1608152Y1429197D1*
X1603428Y1426835D1*
X1599884Y1423291D1*
X1597522Y1419748D1*
X1595160Y1412661D1*
Y1357150D1*
X1605790D1*
X1606971Y1410299D1*
X1608152Y1413843D1*
X1608382Y1414680D1*
X1609333Y1416205D1*
X1614058Y1418567D1*
X1617601Y1419748D1*
X1621144D1*
X1628231Y1417386D1*
X1632955Y1415024D1*
X1634136Y1413843D1*
X1636499Y1412661D1*
X1638861Y1410299D1*
Y1357150D1*
X1649491D1*
Y1428016D1*
X1638861D1*
Y1422110D1*
X1637608Y1420827D1*
X1636997Y1421019D1*
X1636499Y1422110D1*
X1635317Y1423291D1*
X1628231Y1428016D1*
X1621144Y1430378D1*
X1611695D1*
G37*
G36*
X1670751Y1419748D2*
Y1418567D1*
X1668388Y1416205D1*
X1666026Y1411480D1*
X1664845Y1407937D1*
X1663664Y1402032D1*
Y1383134D1*
X1664845Y1377228D1*
X1666026Y1373685D1*
X1668388Y1368961D1*
X1670751Y1365417D1*
X1675475Y1360693D1*
X1679018Y1358331D1*
X1683743Y1355969D1*
X1688467Y1354787D1*
X1700278D1*
X1705002Y1355969D1*
X1712089Y1359512D1*
X1719176Y1366598D1*
X1723900Y1376047D1*
X1725081Y1380772D1*
Y1404394D1*
X1723900Y1409118D1*
X1719176Y1418567D1*
X1712089Y1425654D1*
X1705002Y1429197D1*
X1700278Y1430378D1*
X1688467D1*
X1683743Y1429197D1*
X1679018Y1426835D1*
X1675475Y1424472D1*
X1670751Y1419748D1*
X1688467D1*
X1692404Y1420929D1*
X1696341D1*
X1700278Y1419748D1*
X1703821Y1418567D1*
X1706184Y1417386D1*
X1709727Y1413843D1*
Y1412661D1*
X1712089Y1407937D1*
X1713270Y1403213D1*
X1714451Y1402032D1*
Y1383134D1*
X1713270Y1381953D1*
X1712089Y1377228D1*
X1709727Y1372504D1*
Y1371323D1*
X1707365Y1368961D1*
X1705002Y1367780D1*
X1703821Y1366598D1*
X1700278Y1365417D1*
X1696341Y1364236D1*
X1692404D1*
X1688467Y1365417D1*
X1683743Y1367780D1*
X1677837Y1373685D1*
Y1374866D1*
X1676656Y1378409D1*
X1675475Y1385496D1*
X1674294Y1386677D1*
Y1398488D1*
X1675475Y1399669D1*
X1676656Y1406756D1*
X1677837Y1410299D1*
Y1411480D1*
X1684924Y1418567D1*
X1688467Y1419748D1*
X1670751D1*
G37*
G36*
X2261302Y1393764D2*
Y1357150D1*
X2271932D1*
Y1363055D1*
X2272814Y1363814D1*
X2273426Y1363745D1*
X2274294Y1363055D1*
X2276656Y1360693D1*
X2280199Y1358331D1*
X2284924Y1355969D1*
X2289648Y1354787D1*
X2299097D1*
X2302640Y1355969D1*
X2307365Y1358331D1*
X2312089Y1363055D1*
X2314451Y1366598D1*
X2315632Y1370142D1*
Y1385496D1*
X2313270Y1390221D1*
X2307365Y1396126D1*
X2300278Y1399669D1*
X2295554Y1400850D1*
X2289648Y1402032D1*
X2280199Y1403213D1*
X2271932Y1404394D1*
Y1412661D1*
X2273113Y1413843D1*
Y1415024D1*
X2275475Y1417386D1*
X2277837Y1418567D1*
X2281380Y1419748D1*
X2286499Y1420929D1*
X2291617D1*
X2296735Y1419748D1*
X2309727Y1416205D1*
X2310908D1*
Y1426835D1*
X2309727Y1428016D1*
X2303821Y1429197D1*
X2296735Y1430378D1*
X2281380D1*
X2275475Y1429197D1*
X2268388Y1425654D1*
X2264845Y1422110D1*
X2261302Y1415024D1*
Y1393764D1*
X2271932D1*
X2274294Y1394945D1*
X2276656D1*
X2279018Y1393764D1*
X2288467Y1392583D1*
X2294373Y1391402D1*
X2299097Y1389039D1*
X2303821Y1384315D1*
Y1383134D1*
X2305002Y1381953D1*
Y1372504D1*
X2303821Y1371323D1*
Y1370142D1*
X2300278Y1366598D1*
X2296735Y1365417D1*
X2292798Y1364236D1*
X2288861D1*
X2284924Y1365417D1*
X2281380Y1366598D1*
X2279018Y1367780D1*
X2277837Y1368961D1*
X2275475Y1370142D1*
X2271932Y1373685D1*
Y1393764D1*
X2261302D1*
G37*
G36*
X1250278Y1428016D2*
Y1416205D1*
X1263270Y1415024D1*
X1266814Y1413843D1*
X1271538Y1411480D1*
X1273900Y1409118D1*
X1276262Y1407937D1*
Y1357150D1*
X1286892D1*
Y1428016D1*
X1276262D1*
Y1418567D1*
X1275010Y1417284D1*
X1274398Y1417476D1*
X1273900Y1418567D1*
X1270357Y1422110D1*
X1266814Y1424472D1*
X1262089Y1426835D1*
X1258546Y1428016D1*
X1250278D1*
G37*
G36*
X1495947D2*
Y1416205D1*
X1508939Y1415024D1*
X1512483Y1413843D1*
X1517207Y1411480D1*
X1519569Y1409118D1*
X1521932Y1407937D1*
Y1357150D1*
X1532562D1*
Y1428016D1*
X1521932D1*
Y1418567D1*
X1520679Y1417284D1*
X1520068Y1417476D1*
X1519569Y1418567D1*
X1516026Y1422110D1*
X1512483Y1424472D1*
X1507758Y1426835D1*
X1504215Y1428016D1*
X1495947D1*
G37*
G36*
X2329806D2*
Y1357150D1*
X2340436D1*
Y1363055D1*
X2341318Y1363814D1*
X2341930Y1363745D1*
X2342798Y1363055D1*
X2347522Y1359512D1*
X2354609Y1355969D1*
X2358152Y1354787D1*
X2367601D1*
X2371144Y1355969D1*
X2375869Y1358331D1*
X2380593Y1363055D1*
X2382955Y1367780D1*
X2384136Y1371323D1*
X2385317Y1378409D1*
Y1428016D1*
X2374688D1*
X2373506Y1380772D1*
X2372325Y1373685D1*
Y1371323D1*
X2368782Y1367780D1*
X2366420Y1366598D1*
X2362483Y1365417D1*
X2358546D1*
X2354609Y1366598D1*
X2351065Y1367780D1*
X2346341Y1370142D1*
X2345160Y1371323D1*
X2342798Y1372504D1*
X2340436Y1374866D1*
Y1428016D1*
X2329806D1*
G37*
G36*
X1030593Y1373685D2*
Y1357150D1*
X1044766D1*
Y1373685D1*
X1030593D1*
G37*
G36*
X1968388Y1304000D2*
Y1205969D1*
X1979018D1*
Y1304000D1*
X1968388D1*
G37*
G36*
X1997916Y1267386D2*
X1997528Y1265953D1*
X1996735Y1265024D1*
X1995554Y1262661D1*
X1993191Y1253213D1*
Y1233134D1*
X1994373Y1227228D1*
X1995554Y1223685D1*
X1999097Y1216598D1*
X2002640Y1211874D1*
X2005002Y1209512D1*
X2008546Y1207150D1*
X2013270Y1204787D1*
X2016814Y1203606D1*
X2027443D1*
X2032168Y1204787D1*
X2036892Y1207150D1*
X2038467Y1208331D1*
X2040042D1*
X2041617Y1207150D1*
Y1205969D1*
X2051065D1*
Y1304000D1*
X2040436D1*
Y1272110D1*
X2038995Y1270878D1*
X2038073Y1270929D1*
X2034530Y1274472D1*
X2027443Y1278016D1*
X2023900Y1279197D1*
X2013270D1*
X2009727Y1278016D1*
X2005002Y1275654D1*
X2000278Y1270929D1*
X1997916Y1267386D1*
X2015632D1*
X2019569Y1268567D1*
X2023506D1*
X2027443Y1267386D1*
X2030987Y1266205D1*
X2035711Y1263843D1*
X2036892Y1262661D1*
X2039254Y1261480D1*
X2040436Y1260299D1*
Y1217780D1*
X2035711Y1215417D1*
X2030987Y1214236D1*
X2026656Y1213055D1*
X2022325D1*
X2017995Y1214236D1*
X2013270Y1216598D1*
X2007365Y1222504D1*
Y1223685D1*
X2006184Y1227228D1*
X2005002Y1233134D1*
X2003821Y1234315D1*
Y1248488D1*
X2005002Y1249669D1*
X2006184Y1255575D1*
X2007365Y1259118D1*
X2008546Y1261480D1*
Y1262661D1*
X2010908Y1265024D1*
X2015632Y1267386D1*
X1997916D1*
G37*
G36*
X1262089Y1302819D2*
X1256184Y1301638D1*
X1251459Y1300457D1*
X1245554Y1298095D1*
X1240829Y1295732D1*
Y1280378D1*
X1247916Y1286284D1*
X1249097Y1287465D1*
X1253821Y1289827D1*
X1257365Y1291008D1*
X1266814Y1293370D1*
X1271538D1*
X1276262Y1292189D1*
X1279806Y1291008D1*
X1284530Y1288646D1*
X1285711Y1287465D1*
X1288073Y1286284D1*
X1291617Y1282740D1*
Y1281559D1*
X1293979Y1278016D1*
X1295160Y1275654D1*
X1297522Y1268567D1*
X1298703Y1262661D1*
X1299884Y1261480D1*
Y1244945D1*
X1298703Y1243764D1*
X1297522Y1237858D1*
X1296341Y1233134D1*
X1293979Y1228409D1*
X1291617Y1224866D1*
Y1223685D1*
X1286892Y1218961D1*
X1279806Y1215417D1*
X1276262Y1214236D1*
X1271538Y1213055D1*
X1266814D1*
X1257365Y1215417D1*
X1253821Y1216598D1*
X1249097Y1218961D1*
X1247916Y1220142D1*
X1240829Y1226047D1*
Y1211874D1*
X1242010Y1210693D1*
X1249097Y1207150D1*
X1256184Y1204787D1*
X1262089Y1203606D1*
X1276262D1*
X1282168Y1204787D1*
X1285711Y1205969D1*
X1292798Y1209512D1*
X1297522Y1213055D1*
X1299884Y1215417D1*
X1303428Y1220142D1*
X1305790Y1223685D1*
X1306971Y1227228D1*
X1308152Y1229591D1*
X1310514Y1236677D1*
X1311695Y1243764D1*
Y1262661D1*
X1310514Y1268567D1*
X1309333Y1273291D1*
X1308152Y1276835D1*
X1304609Y1283921D1*
X1302247Y1287465D1*
X1293979Y1295732D1*
X1290436Y1298095D1*
X1288073Y1299276D1*
X1280987Y1301638D1*
X1276262Y1302819D1*
X1262089D1*
G37*
G36*
X1428625D2*
X1422719Y1301638D1*
X1417995Y1300457D1*
X1412089Y1298095D1*
X1407365Y1295732D1*
Y1280378D1*
X1414451Y1286284D1*
X1415632Y1287465D1*
X1420357Y1289827D1*
X1423900Y1291008D1*
X1433349Y1293370D1*
X1438073D1*
X1442798Y1292189D1*
X1446341Y1291008D1*
X1451065Y1288646D1*
X1452247Y1287465D1*
X1454609Y1286284D1*
X1458152Y1282740D1*
Y1281559D1*
X1460514Y1278016D1*
X1461695Y1275654D1*
X1464058Y1268567D1*
X1465239Y1262661D1*
X1466420Y1261480D1*
Y1244945D1*
X1465239Y1243764D1*
X1464058Y1237858D1*
X1462877Y1233134D1*
X1460514Y1228409D1*
X1458152Y1224866D1*
Y1223685D1*
X1453428Y1218961D1*
X1446341Y1215417D1*
X1442798Y1214236D1*
X1438073Y1213055D1*
X1433349D1*
X1423900Y1215417D1*
X1420357Y1216598D1*
X1415632Y1218961D1*
X1414451Y1220142D1*
X1407365Y1226047D1*
Y1211874D1*
X1408546Y1210693D1*
X1415632Y1207150D1*
X1422719Y1204787D1*
X1428625Y1203606D1*
X1442798D1*
X1448703Y1204787D1*
X1452247Y1205969D1*
X1459333Y1209512D1*
X1464058Y1213055D1*
X1466420Y1215417D1*
X1469963Y1220142D1*
X1472325Y1223685D1*
X1473506Y1227228D1*
X1474688Y1229591D1*
X1477050Y1236677D1*
X1478231Y1243764D1*
Y1262661D1*
X1477050Y1268567D1*
X1475869Y1273291D1*
X1474688Y1276835D1*
X1471144Y1283921D1*
X1468782Y1287465D1*
X1460514Y1295732D1*
X1456971Y1298095D1*
X1454609Y1299276D1*
X1447522Y1301638D1*
X1442798Y1302819D1*
X1428625D1*
G37*
G36*
X1556184D2*
X1551459Y1301638D1*
X1544373Y1298095D1*
X1539648Y1293370D1*
X1537286Y1289827D1*
X1534924Y1282740D1*
Y1270929D1*
X1536105Y1266205D1*
X1537286Y1262661D1*
X1540829Y1255575D1*
X1543191Y1252032D1*
X1546735Y1247307D1*
X1577443Y1216598D1*
X1531380Y1215417D1*
Y1205969D1*
X1589254D1*
Y1217780D1*
X1564451Y1243764D1*
X1558546Y1250850D1*
X1553821Y1256756D1*
X1551459Y1260299D1*
X1549097Y1265024D1*
X1547916Y1269748D1*
X1546735Y1270929D1*
Y1281559D1*
X1547916Y1282740D1*
Y1285102D1*
X1552640Y1289827D1*
X1557365Y1292189D1*
X1561695Y1293370D1*
X1566026D1*
X1570357Y1292189D1*
X1575081Y1291008D1*
X1578625Y1289827D1*
X1583349Y1287465D1*
X1584530Y1286284D1*
X1586892Y1285102D1*
Y1296913D1*
X1585711Y1298095D1*
X1583349Y1299276D1*
X1579806Y1300457D1*
X1575081Y1301638D1*
X1569176Y1302819D1*
X1556184D1*
G37*
G36*
X1627050D2*
X1622325Y1301638D1*
X1615239Y1298095D1*
X1609333Y1292189D1*
X1608152Y1289827D1*
X1606971Y1286284D1*
Y1274472D1*
X1608152Y1270929D1*
X1609333Y1268567D1*
X1616420Y1261480D1*
X1621144Y1259118D1*
X1624688Y1257937D1*
X1622325Y1256756D1*
X1618782Y1255575D1*
X1614058Y1253213D1*
X1608152Y1247307D1*
X1605790Y1242583D1*
X1604609Y1239039D1*
Y1228409D1*
X1605790Y1223685D1*
X1606971Y1220142D1*
X1611695Y1213055D1*
X1614058Y1210693D1*
X1618782Y1207150D1*
X1621144Y1205969D1*
X1624688Y1204787D1*
X1629412Y1203606D1*
X1643585D1*
X1649491Y1204787D1*
X1654215Y1205969D1*
X1661302Y1208331D1*
Y1221323D1*
X1651853Y1216598D1*
X1644766Y1214236D1*
X1640042Y1213055D1*
X1635317D1*
X1630593Y1214236D1*
X1627050Y1215417D1*
X1624688Y1216598D1*
X1618782Y1222504D1*
Y1223685D1*
X1617601Y1227228D1*
X1616420Y1228409D1*
Y1239039D1*
X1617601Y1240221D1*
X1618782Y1243764D1*
Y1244945D1*
X1622325Y1248488D1*
X1624688Y1249669D1*
X1629412Y1250850D1*
X1642404Y1252032D1*
Y1261480D1*
X1631774Y1262661D1*
X1628231Y1263843D1*
X1623506Y1266205D1*
X1621144Y1268567D1*
Y1269748D1*
X1619963Y1272110D1*
X1618782Y1273291D1*
Y1283921D1*
X1619963Y1285102D1*
Y1286284D1*
X1623506Y1289827D1*
X1625869Y1291008D1*
X1629412Y1292189D1*
X1633743Y1293370D1*
X1638073D1*
X1642404Y1292189D1*
X1653034Y1288646D1*
X1655396Y1287465D1*
X1656577Y1286284D1*
X1658939Y1285102D1*
Y1296913D1*
X1657758Y1298095D1*
X1655396Y1299276D1*
X1651853Y1300457D1*
X1647128Y1301638D1*
X1641223Y1302819D1*
X1627050D1*
G37*
G36*
X1767601D2*
X1760514Y1301638D1*
X1749884Y1298095D1*
X1748703Y1296913D1*
Y1282740D1*
X1755790Y1287465D1*
X1762877Y1291008D1*
X1772325Y1293370D1*
X1777050D1*
X1786499Y1291008D1*
X1788861Y1289827D1*
X1793585Y1285102D1*
Y1283921D1*
X1794766Y1281559D1*
X1795947Y1280378D1*
Y1274472D1*
X1794766Y1273291D1*
X1793585Y1269748D1*
Y1268567D1*
X1790042Y1265024D1*
X1785317Y1262661D1*
X1781774Y1261480D1*
X1767601Y1257937D1*
X1756971Y1254394D1*
X1753428Y1252032D1*
X1748703Y1247307D1*
X1746341Y1243764D1*
X1745160Y1240221D1*
X1743979Y1233134D1*
Y1231953D1*
X1745160Y1224866D1*
X1746341Y1221323D1*
X1748703Y1216598D1*
X1755790Y1209512D1*
X1759333Y1207150D1*
X1761695Y1205969D1*
X1765239Y1204787D1*
X1769963Y1203606D1*
X1786499D1*
X1792404Y1204787D1*
X1797128Y1205969D1*
X1800672Y1207150D1*
X1806577Y1209512D1*
X1807758Y1210693D1*
Y1226047D1*
X1801853Y1221323D1*
X1800672Y1220142D1*
X1793585Y1216598D1*
X1790042Y1215417D1*
X1780593Y1213055D1*
X1775869D1*
X1766420Y1215417D1*
X1761695Y1217780D1*
X1759333Y1220142D1*
Y1221323D1*
X1758152Y1223685D1*
X1756971Y1224866D1*
Y1236677D1*
X1758152Y1237858D1*
Y1239039D1*
X1760514Y1241402D1*
X1762877Y1242583D1*
X1764058Y1243764D1*
X1771144Y1246126D1*
X1790042Y1250850D1*
X1797128Y1254394D1*
X1804215Y1261480D1*
X1806577Y1266205D1*
X1807758Y1270929D1*
Y1279197D1*
X1806577Y1283921D1*
X1803034Y1291008D1*
X1797128Y1296913D1*
X1793585Y1299276D1*
X1787680Y1301638D1*
X1782955Y1302819D1*
X1767601D1*
G37*
G36*
X2138467D2*
X2132562Y1301638D1*
X2127837Y1300457D1*
X2124294Y1299276D1*
X2118388Y1296913D1*
X2116026Y1295732D1*
X2114845Y1294551D1*
Y1280378D1*
X2116026D1*
X2121932Y1285102D1*
X2123113Y1286284D1*
X2130199Y1289827D1*
X2133743Y1291008D1*
X2138467Y1292189D1*
X2143585Y1293370D1*
X2148703D1*
X2153821Y1292189D1*
X2158546Y1291008D1*
X2163270Y1288646D1*
X2165632Y1286284D1*
X2167995Y1285102D1*
X2168946Y1283577D1*
X2169176Y1282740D1*
X2172719Y1278016D1*
X2175081Y1273291D1*
X2177443Y1263843D1*
X2178625Y1262661D1*
Y1244945D1*
X2177443Y1243764D1*
X2176262Y1237858D1*
X2173900Y1230772D1*
X2172719Y1228409D1*
X2169176Y1223685D1*
X2168787Y1222252D1*
X2167995Y1221323D1*
X2165632Y1220142D1*
X2163270Y1217780D1*
X2160908Y1216598D1*
X2153821Y1214236D1*
X2147916Y1213055D1*
X2142010D1*
X2130199Y1215417D1*
X2126656Y1216598D1*
X2125475Y1217780D1*
Y1241402D1*
X2147916Y1242583D1*
Y1253213D1*
X2114845D1*
Y1211874D1*
X2116026Y1210693D1*
X2121932Y1208331D1*
X2132562Y1204787D1*
X2138467Y1203606D1*
X2153821D1*
X2159727Y1204787D1*
X2163270Y1205969D1*
X2172719Y1210693D1*
X2182168Y1220142D1*
X2186892Y1229591D1*
X2189254Y1236677D1*
X2190436Y1243764D1*
Y1262661D1*
X2189254Y1268567D1*
X2188073Y1273291D1*
X2186892Y1276835D1*
X2184530Y1281559D1*
X2179806Y1288646D1*
X2175081Y1293370D1*
X2167995Y1298095D1*
X2165632Y1299276D1*
X2158546Y1301638D1*
X2152640Y1302819D1*
X2138467D1*
G37*
G36*
X1327050Y1300457D2*
Y1205969D1*
X1340042D1*
X1341223Y1207150D1*
X1369569Y1263843D1*
X1371932Y1267386D1*
X1380795Y1285095D1*
X1381434Y1286186D1*
X1382273Y1287023D1*
X1382876Y1286968D1*
X1383743Y1286284D1*
Y1205969D1*
X1393191D1*
Y1300457D1*
X1376656D1*
X1369569Y1286284D1*
X1367207Y1282740D1*
X1340042Y1228409D1*
X1339742Y1227016D1*
X1338792Y1225938D1*
X1338180Y1226137D1*
X1337680Y1227228D1*
Y1300457D1*
X1327050D1*
G37*
G36*
X1677837Y1289827D2*
X1675475Y1287465D1*
X1673113Y1282740D1*
X1671932Y1279197D1*
Y1265024D1*
X1673113Y1261480D1*
X1676656Y1254394D1*
X1683743Y1247307D1*
X1690829Y1243764D1*
X1694373Y1242583D1*
X1699097Y1241402D1*
X1719176Y1240221D1*
Y1205969D1*
X1729806D1*
Y1300457D1*
X1697916D1*
X1692010Y1299276D1*
X1688467Y1298095D1*
X1683743Y1295732D1*
X1679018Y1292189D1*
X1677837Y1291008D1*
Y1289827D1*
X1697916D1*
X1705002Y1291008D1*
X1712089D1*
X1719176Y1289827D1*
Y1252032D1*
X1712877Y1250850D1*
X1706577D1*
X1700278Y1252032D1*
X1695554Y1253213D1*
X1692010Y1254394D1*
X1686105Y1260299D1*
Y1261480D1*
X1684924Y1265024D1*
X1683743Y1266205D1*
Y1278016D1*
X1684924Y1279197D1*
X1686105Y1281559D1*
Y1282740D1*
X1689648Y1286284D1*
X1694373Y1288646D1*
X1697916Y1289827D1*
X1677837D1*
G37*
G36*
X1818388Y1300457D2*
Y1289827D1*
X1865632Y1288646D1*
Y1263843D1*
X1821932Y1262661D1*
Y1252032D1*
X1865632Y1250850D1*
Y1217780D1*
X1818388Y1216598D1*
Y1205969D1*
X1876262D1*
Y1300457D1*
X1818388D1*
G37*
G36*
X2061695Y1276835D2*
Y1265024D1*
X2074688Y1263843D1*
X2078231Y1262661D1*
X2082955Y1260299D1*
X2085317Y1257937D1*
X2087680Y1256756D1*
Y1205969D1*
X2098310D1*
Y1276835D1*
X2087680D1*
Y1267386D1*
X2086427Y1266103D1*
X2085816Y1266295D1*
X2085317Y1267386D1*
X2081774Y1270929D1*
X2078231Y1273291D1*
X2073506Y1275654D1*
X2069963Y1276835D1*
X2061695D1*
G37*
G36*
X1886892Y1194158D2*
Y1187071D1*
X1958939D1*
Y1194158D1*
X1886892D1*
G37*
G36*
X1796735Y3309643D2*
X1793454Y3308987D1*
X1790829Y3308331D1*
X1786892Y3306362D1*
X1784924Y3305050D1*
X1780987Y3301113D1*
X1779674Y3299144D1*
X1778362Y3296520D1*
X1777050Y3292583D1*
X1776394Y3289958D1*
X1775737Y3285365D1*
Y3278803D1*
X1776394Y3274210D1*
X1777050Y3271585D1*
X1777706Y3269617D1*
X1779674Y3265680D1*
X1780987Y3263711D1*
X1786236Y3258462D1*
X1791485Y3255837D1*
X1793454Y3255181D1*
X1796735Y3254525D1*
X1805265D1*
X1808546Y3255181D1*
X1814451Y3257150D1*
X1817076Y3258462D1*
X1817732Y3259118D1*
Y3266992D1*
X1815764Y3265680D1*
X1814451Y3264367D1*
X1809202Y3261743D1*
X1807233Y3261087D1*
X1804609Y3260430D1*
X1801765Y3259774D1*
X1798922D1*
X1796079Y3260430D1*
X1792142Y3261743D1*
X1791485Y3262399D1*
X1790173Y3263055D1*
X1786236Y3266992D1*
Y3267648D1*
X1784268Y3271585D1*
X1783611Y3274210D1*
X1782955Y3278147D1*
X1782299Y3278803D1*
Y3284709D1*
X1782955Y3285365D1*
X1783611Y3289958D1*
X1784268Y3292583D1*
X1786236Y3296520D1*
Y3297176D1*
X1790173Y3301113D1*
X1794110Y3303081D1*
X1796079Y3303738D1*
X1799359Y3304394D1*
X1802640D1*
X1805921Y3303738D1*
X1809858Y3303081D1*
X1811170Y3302425D1*
X1811827Y3301769D1*
Y3288646D1*
X1799359Y3287990D1*
Y3282084D1*
X1817732D1*
Y3305050D1*
X1817076Y3305706D1*
X1815764Y3306362D1*
X1812483Y3307675D1*
X1807890Y3308987D1*
X1804609Y3309643D1*
X1796735D1*
G37*
G36*
X1899097Y3303738D2*
X1896472Y3301113D1*
X1895160Y3299144D1*
X1893848Y3296520D1*
X1892535Y3292583D1*
X1891879Y3289958D1*
X1891223Y3284709D1*
Y3279459D1*
X1891879Y3274210D1*
X1892535Y3271585D1*
X1893848Y3267648D1*
X1895160Y3265024D1*
X1896472Y3263055D1*
X1901722Y3257806D1*
X1905659Y3255837D1*
X1907627Y3255181D1*
X1910908Y3254525D1*
X1918782D1*
X1921407Y3255181D1*
X1923375Y3255837D1*
X1927312Y3257806D1*
X1929281Y3259118D1*
X1931905Y3261743D1*
X1934530Y3265680D1*
X1935186Y3266992D1*
X1937155Y3272898D1*
X1937811Y3276835D1*
Y3287333D1*
X1937155Y3291270D1*
X1935186Y3297176D1*
X1934530Y3298488D1*
X1931905Y3302425D1*
X1929281Y3305050D1*
X1927312Y3306362D1*
X1923375Y3308331D1*
X1921407Y3308987D1*
X1918126Y3309643D1*
X1910908D1*
X1907627Y3308987D1*
X1905659Y3308331D1*
X1901722Y3306362D1*
X1899097Y3303738D1*
X1910908D1*
X1913533Y3304394D1*
X1916157D1*
X1918782Y3303738D1*
X1920751Y3303081D1*
X1923375Y3301769D1*
X1927968Y3297176D1*
Y3296520D1*
X1928625Y3295207D1*
X1929937Y3291270D1*
X1930593Y3287990D1*
X1931249Y3287333D1*
Y3276835D1*
X1930593Y3276179D1*
X1929937Y3272898D1*
X1928625Y3268961D1*
X1927968Y3267648D1*
X1926000Y3265024D1*
X1925784Y3264228D1*
X1925344Y3263711D1*
X1924031Y3263055D1*
X1923375Y3262399D1*
X1920751Y3261087D1*
X1918782Y3260430D1*
X1916157Y3259774D1*
X1913533D1*
X1908283Y3261087D1*
X1905659Y3262399D1*
X1901722Y3266336D1*
Y3266992D1*
X1900409Y3269617D1*
X1899753Y3271585D1*
X1899097Y3274210D1*
X1898441Y3278803D1*
X1897785Y3279459D1*
Y3284709D1*
X1898441Y3285365D1*
X1899097Y3290614D1*
X1900409Y3294551D1*
X1901722Y3297176D1*
Y3297832D1*
X1905002Y3301113D1*
X1906315Y3301769D1*
X1906971Y3302425D1*
X1908283Y3303081D1*
X1910908Y3303738D1*
X1899097D1*
G37*
G36*
X1827575Y3282740D2*
Y3255837D1*
X1845291D1*
X1848572Y3256493D1*
X1850541Y3257150D1*
X1854478Y3259118D1*
X1857102Y3261743D1*
X1858415Y3263711D1*
X1859071Y3265024D1*
X1859727Y3266992D1*
X1860383Y3270929D1*
Y3272242D1*
X1859727Y3276179D1*
X1859071Y3278147D1*
X1857758Y3280772D1*
X1856446Y3282740D1*
X1855134Y3284053D1*
X1852509Y3286021D1*
X1849884Y3287333D1*
X1847916Y3287990D1*
X1844635Y3288646D1*
X1833480Y3289302D1*
Y3308331D1*
X1827575D1*
Y3282740D1*
X1833480D1*
X1837198Y3283396D1*
X1840917D1*
X1844635Y3282740D1*
X1847260Y3282084D1*
X1848572Y3281428D1*
X1852509Y3277491D1*
Y3276179D1*
X1853165Y3272898D1*
X1853662Y3272015D1*
X1853596Y3271424D1*
X1853165Y3270929D1*
X1852509Y3266992D1*
Y3266336D1*
X1849228Y3263055D1*
X1847916Y3262399D1*
X1845291Y3261743D1*
X1841354Y3261087D1*
X1837417D1*
X1833480Y3261743D1*
Y3282740D1*
X1827575D1*
G37*
G36*
X1865632Y3308331D2*
Y3303738D1*
X1872194Y3303081D1*
Y3261087D1*
X1865632Y3260430D1*
Y3255837D1*
X1885317D1*
Y3260430D1*
X1878756Y3261087D1*
Y3303081D1*
X1885317Y3303738D1*
Y3308331D1*
X1865632D1*
G37*
G36*
X1948966D2*
Y3303738D1*
X1958808Y3303081D1*
Y3267648D1*
X1948966Y3266992D1*
Y3263055D1*
X1953559Y3262399D1*
X1956184Y3261743D1*
X1957496Y3261087D1*
X1958808Y3259774D1*
Y3259118D1*
X1959464Y3257150D1*
X1960121Y3255837D1*
X1964714D1*
Y3303081D1*
X1973900Y3303738D1*
Y3308331D1*
X1948966D1*
G37*
G36*
X1985055D2*
Y3301113D1*
X1999491Y3286021D1*
X2002772Y3282084D1*
X2004740Y3279459D1*
X2007365Y3274210D1*
X2008021Y3273554D1*
Y3265680D1*
X2007365Y3265024D1*
X2006709Y3263711D1*
X2006493Y3262915D1*
X2006052Y3262399D1*
X2004740Y3261743D1*
X2004084Y3261087D1*
X2002115Y3260430D1*
X1999709Y3259774D1*
X1997303D1*
X1994898Y3260430D1*
X1990960Y3261743D1*
X1987023Y3263711D1*
X1986367Y3264367D1*
X1985711D1*
Y3257806D1*
X1986367Y3257150D1*
X1987680Y3256493D1*
X1992273Y3255181D1*
X1995554Y3254525D1*
X2002772D1*
X2005396Y3255181D1*
X2007365Y3255837D1*
X2009333Y3257150D1*
X2012614Y3260430D1*
X2013926Y3263055D1*
X2014583Y3265024D1*
Y3273554D1*
X2013270Y3277491D1*
X2011958Y3280116D1*
X2009333Y3284053D1*
X2004740Y3289302D1*
X1995554Y3298488D1*
X1994241Y3299144D1*
X1990960Y3302425D1*
X2017207Y3303081D1*
Y3308331D1*
X1985055D1*
G37*
G36*
X1403034Y3309643D2*
X1399753Y3308987D1*
X1397128Y3308331D1*
X1393191Y3306362D1*
X1391223Y3305050D1*
X1387286Y3301113D1*
X1385974Y3299144D1*
X1384661Y3296520D1*
X1383349Y3292583D1*
X1382693Y3289958D1*
X1382037Y3285365D1*
Y3278803D1*
X1382693Y3274210D1*
X1383349Y3271585D1*
X1384005Y3269617D1*
X1385974Y3265680D1*
X1387286Y3263711D1*
X1392535Y3258462D1*
X1397785Y3255837D1*
X1399753Y3255181D1*
X1403034Y3254525D1*
X1411564D1*
X1414845Y3255181D1*
X1420751Y3257150D1*
X1423375Y3258462D1*
X1424031Y3259118D1*
Y3266992D1*
X1422063Y3265680D1*
X1420751Y3264367D1*
X1415501Y3261743D1*
X1413533Y3261087D1*
X1410908Y3260430D1*
X1408065Y3259774D1*
X1405221D1*
X1402378Y3260430D1*
X1398441Y3261743D1*
X1397785Y3262399D1*
X1396472Y3263055D1*
X1392535Y3266992D1*
Y3267648D1*
X1390567Y3271585D1*
X1389911Y3274210D1*
X1389254Y3278147D1*
X1388598Y3278803D1*
Y3284709D1*
X1389254Y3285365D1*
X1389911Y3289958D1*
X1390567Y3292583D1*
X1392535Y3296520D1*
Y3297176D1*
X1396472Y3301113D1*
X1400409Y3303081D1*
X1402378Y3303738D1*
X1405659Y3304394D1*
X1408939D1*
X1412220Y3303738D1*
X1416157Y3303081D1*
X1417470Y3302425D1*
X1418126Y3301769D1*
Y3288646D1*
X1405659Y3287990D1*
Y3282084D1*
X1424031D1*
Y3305050D1*
X1423375Y3305706D1*
X1422063Y3306362D1*
X1418782Y3307675D1*
X1414189Y3308987D1*
X1410908Y3309643D1*
X1403034D1*
G37*
G36*
X1505396Y3303738D2*
X1502772Y3301113D1*
X1501459Y3299144D1*
X1500147Y3296520D1*
X1498835Y3292583D1*
X1498178Y3289958D1*
X1497522Y3284709D1*
Y3279459D1*
X1498178Y3274210D1*
X1498835Y3271585D1*
X1500147Y3267648D1*
X1501459Y3265024D1*
X1502772Y3263055D1*
X1508021Y3257806D1*
X1511958Y3255837D1*
X1513926Y3255181D1*
X1517207Y3254525D1*
X1525081D1*
X1527706Y3255181D1*
X1529674Y3255837D1*
X1533611Y3257806D1*
X1535580Y3259118D1*
X1538205Y3261743D1*
X1540829Y3265680D1*
X1541485Y3266992D1*
X1543454Y3272898D1*
X1544110Y3276835D1*
Y3287333D1*
X1543454Y3291270D1*
X1541485Y3297176D1*
X1540829Y3298488D1*
X1538205Y3302425D1*
X1535580Y3305050D1*
X1533611Y3306362D1*
X1529674Y3308331D1*
X1527706Y3308987D1*
X1524425Y3309643D1*
X1517207D1*
X1513926Y3308987D1*
X1511958Y3308331D1*
X1508021Y3306362D1*
X1505396Y3303738D1*
X1517207D1*
X1519832Y3304394D1*
X1522457D1*
X1525081Y3303738D1*
X1527050Y3303081D1*
X1529674Y3301769D1*
X1534268Y3297176D1*
Y3296520D1*
X1534924Y3295207D1*
X1536236Y3291270D1*
X1536892Y3287990D1*
X1537548Y3287333D1*
Y3276835D1*
X1536892Y3276179D1*
X1536236Y3272898D1*
X1534924Y3268961D1*
X1534268Y3267648D1*
X1532299Y3265024D1*
X1532083Y3264228D1*
X1531643Y3263711D1*
X1530331Y3263055D1*
X1529674Y3262399D1*
X1527050Y3261087D1*
X1525081Y3260430D1*
X1522457Y3259774D1*
X1519832D1*
X1514583Y3261087D1*
X1511958Y3262399D1*
X1508021Y3266336D1*
Y3266992D1*
X1506709Y3269617D1*
X1506052Y3271585D1*
X1505396Y3274210D1*
X1504740Y3278803D1*
X1504084Y3279459D1*
Y3284709D1*
X1504740Y3285365D1*
X1505396Y3290614D1*
X1506709Y3294551D1*
X1508021Y3297176D1*
Y3297832D1*
X1511302Y3301113D1*
X1512614Y3301769D1*
X1513270Y3302425D1*
X1514583Y3303081D1*
X1517207Y3303738D1*
X1505396D1*
G37*
G36*
X1433874Y3282740D2*
Y3255837D1*
X1451590D1*
X1454871Y3256493D1*
X1456840Y3257150D1*
X1460777Y3259118D1*
X1463401Y3261743D1*
X1464714Y3263711D1*
X1465370Y3265024D1*
X1466026Y3266992D1*
X1466682Y3270929D1*
Y3272242D1*
X1466026Y3276179D1*
X1465370Y3278147D1*
X1464058Y3280772D1*
X1462745Y3282740D1*
X1461433Y3284053D1*
X1458808Y3286021D1*
X1456184Y3287333D1*
X1454215Y3287990D1*
X1450934Y3288646D1*
X1439779Y3289302D1*
Y3308331D1*
X1433874D1*
Y3282740D1*
X1439779D1*
X1443498Y3283396D1*
X1447216D1*
X1450934Y3282740D1*
X1453559Y3282084D1*
X1454871Y3281428D1*
X1458808Y3277491D1*
Y3276179D1*
X1459464Y3272898D1*
X1459961Y3272015D1*
X1459895Y3271424D1*
X1459464Y3270929D1*
X1458808Y3266992D1*
Y3266336D1*
X1455527Y3263055D1*
X1454215Y3262399D1*
X1451590Y3261743D1*
X1447653Y3261087D1*
X1443716D1*
X1439779Y3261743D1*
Y3282740D1*
X1433874D1*
G37*
G36*
X1471932Y3308331D2*
Y3303738D1*
X1478493Y3303081D1*
Y3261087D1*
X1471932Y3260430D1*
Y3255837D1*
X1491617D1*
Y3260430D1*
X1485055Y3261087D1*
Y3303081D1*
X1491617Y3303738D1*
Y3308331D1*
X1471932D1*
G37*
G36*
X1555265D2*
Y3303738D1*
X1565107Y3303081D1*
Y3267648D1*
X1555265Y3266992D1*
Y3263055D1*
X1559858Y3262399D1*
X1562483Y3261743D1*
X1563795Y3261087D1*
X1565107Y3259774D1*
Y3259118D1*
X1565764Y3257150D1*
X1566420Y3255837D1*
X1571013D1*
Y3303081D1*
X1580199Y3303738D1*
Y3308331D1*
X1555265D1*
G37*
G36*
X1593979D2*
X1594507Y3307484D1*
X1594635Y3307018D1*
X1602509Y3291270D1*
X1603821Y3289302D1*
X1614320Y3268304D1*
X1615632Y3266336D1*
X1617601Y3262399D1*
X1590698Y3261087D1*
Y3255837D1*
X1623506D1*
Y3263711D1*
X1602509Y3305706D1*
X1601197Y3307675D1*
X1600541Y3308331D1*
X1593979D1*
G37*
G36*
X1059202Y3309643D2*
X1055921Y3308987D1*
X1053296Y3308331D1*
X1049359Y3306362D1*
X1047391Y3305050D1*
X1043454Y3301113D1*
X1042142Y3299144D1*
X1040829Y3296520D1*
X1039517Y3292583D1*
X1038861Y3289958D1*
X1038205Y3285365D1*
Y3278803D1*
X1038861Y3274210D1*
X1039517Y3271585D1*
X1040173Y3269617D1*
X1042142Y3265680D1*
X1043454Y3263711D1*
X1048703Y3258462D1*
X1053953Y3255837D1*
X1055921Y3255181D1*
X1059202Y3254525D1*
X1067732D1*
X1071013Y3255181D1*
X1076918Y3257150D1*
X1079543Y3258462D1*
X1080199Y3259118D1*
Y3266992D1*
X1078231Y3265680D1*
X1076918Y3264367D1*
X1071669Y3261743D1*
X1069701Y3261087D1*
X1067076Y3260430D1*
X1064233Y3259774D1*
X1061389D1*
X1058546Y3260430D1*
X1054609Y3261743D1*
X1053953Y3262399D1*
X1052640Y3263055D1*
X1048703Y3266992D1*
Y3267648D1*
X1046735Y3271585D1*
X1046079Y3274210D1*
X1045422Y3278147D1*
X1044766Y3278803D1*
Y3284709D1*
X1045422Y3285365D1*
X1046079Y3289958D1*
X1046735Y3292583D1*
X1048703Y3296520D1*
Y3297176D1*
X1052640Y3301113D1*
X1056577Y3303081D1*
X1058546Y3303738D1*
X1061827Y3304394D1*
X1065107D1*
X1068388Y3303738D1*
X1072325Y3303081D1*
X1073638Y3302425D1*
X1074294Y3301769D1*
Y3288646D1*
X1061827Y3287990D1*
Y3282084D1*
X1080199D1*
Y3305050D1*
X1079543Y3305706D1*
X1078231Y3306362D1*
X1074950Y3307675D1*
X1070357Y3308987D1*
X1067076Y3309643D1*
X1059202D1*
G37*
G36*
X1161564Y3303738D2*
X1158939Y3301113D1*
X1157627Y3299144D1*
X1156315Y3296520D1*
X1155002Y3292583D1*
X1154346Y3289958D1*
X1153690Y3284709D1*
Y3279459D1*
X1154346Y3274210D1*
X1155002Y3271585D1*
X1156315Y3267648D1*
X1157627Y3265024D1*
X1158939Y3263055D1*
X1164189Y3257806D1*
X1168126Y3255837D1*
X1170094Y3255181D1*
X1173375Y3254525D1*
X1181249D1*
X1183874Y3255181D1*
X1185842Y3255837D1*
X1189779Y3257806D1*
X1191748Y3259118D1*
X1194373Y3261743D1*
X1196997Y3265680D1*
X1197653Y3266992D1*
X1199622Y3272898D1*
X1200278Y3276835D1*
Y3287333D1*
X1199622Y3291270D1*
X1197653Y3297176D1*
X1196997Y3298488D1*
X1194373Y3302425D1*
X1191748Y3305050D1*
X1189779Y3306362D1*
X1185842Y3308331D1*
X1183874Y3308987D1*
X1180593Y3309643D1*
X1173375D1*
X1170094Y3308987D1*
X1168126Y3308331D1*
X1164189Y3306362D1*
X1161564Y3303738D1*
X1173375D1*
X1176000Y3304394D1*
X1178625D1*
X1181249Y3303738D1*
X1183218Y3303081D1*
X1185842Y3301769D1*
X1190436Y3297176D1*
Y3296520D1*
X1191092Y3295207D1*
X1192404Y3291270D1*
X1193060Y3287990D1*
X1193716Y3287333D1*
Y3276835D1*
X1193060Y3276179D1*
X1192404Y3272898D1*
X1191092Y3268961D1*
X1190436Y3267648D1*
X1188467Y3265024D1*
X1188251Y3264228D1*
X1187811Y3263711D1*
X1186499Y3263055D1*
X1185842Y3262399D1*
X1183218Y3261087D1*
X1181249Y3260430D1*
X1178625Y3259774D1*
X1176000D1*
X1170751Y3261087D1*
X1168126Y3262399D1*
X1164189Y3266336D1*
Y3266992D1*
X1162877Y3269617D1*
X1162220Y3271585D1*
X1161564Y3274210D1*
X1160908Y3278803D1*
X1160252Y3279459D1*
Y3284709D1*
X1160908Y3285365D1*
X1161564Y3290614D1*
X1162877Y3294551D1*
X1164189Y3297176D1*
Y3297832D1*
X1167470Y3301113D1*
X1168782Y3301769D1*
X1169438Y3302425D1*
X1170751Y3303081D1*
X1173375Y3303738D1*
X1161564D1*
G37*
G36*
X1256709Y3309643D2*
X1253428Y3308987D1*
X1250803Y3308331D1*
X1248835Y3307675D1*
X1247522Y3307018D1*
X1246866Y3306362D1*
Y3299801D1*
X1252115Y3302425D1*
X1254084Y3303081D1*
X1256709Y3303738D1*
X1259114Y3304394D1*
X1261520D1*
X1263926Y3303738D1*
X1265895Y3303081D1*
X1268520Y3301769D1*
X1269832Y3300457D1*
Y3299801D1*
X1271144Y3297176D1*
X1271800Y3296520D1*
Y3288646D1*
X1271144Y3287990D1*
Y3287333D1*
X1268520Y3284709D1*
X1267207Y3284053D1*
X1265239Y3283396D1*
X1258021Y3282740D1*
Y3277491D1*
X1263270Y3276835D1*
X1265895Y3276179D1*
X1267207Y3275522D1*
X1269832Y3272898D1*
Y3272242D1*
X1270488Y3270273D1*
X1271144Y3269617D1*
Y3266336D1*
X1270488Y3265680D1*
X1269176Y3263055D1*
X1267207Y3261087D1*
X1265239Y3260430D1*
X1262614Y3259774D1*
X1259989D1*
X1257365Y3260430D1*
X1253428Y3261743D1*
X1249491Y3263711D1*
X1248835Y3264367D1*
X1248178D1*
Y3257806D1*
X1248835Y3257150D1*
X1250147Y3256493D1*
X1252115Y3255837D1*
X1254740Y3255181D1*
X1258021Y3254525D1*
X1265895D1*
X1268520Y3255181D1*
X1270488Y3255837D1*
X1271800Y3256493D1*
X1274425Y3258462D1*
X1276394Y3261087D1*
X1277050Y3263055D1*
X1277706Y3265680D1*
Y3268304D1*
X1277050Y3270929D1*
X1276394Y3272898D1*
X1274425Y3275522D1*
X1273769Y3276179D1*
X1271144Y3278147D1*
X1269176Y3278803D1*
X1267863Y3279459D1*
X1268520Y3280116D1*
X1272457Y3281428D1*
X1274425Y3282740D1*
X1275737Y3284053D1*
X1277050Y3286021D1*
X1277706Y3287333D1*
X1278362Y3289302D1*
Y3297176D1*
X1277706Y3299144D1*
X1275737Y3303081D1*
X1272457Y3306362D1*
X1270488Y3307675D1*
X1269176Y3308331D1*
X1267207Y3308987D1*
X1264583Y3309643D1*
X1256709D1*
G37*
G36*
X1090042Y3282740D2*
Y3255837D1*
X1107758D1*
X1111039Y3256493D1*
X1113008Y3257150D1*
X1116945Y3259118D1*
X1119569Y3261743D1*
X1120882Y3263711D1*
X1121538Y3265024D1*
X1122194Y3266992D1*
X1122850Y3270929D1*
Y3272242D1*
X1122194Y3276179D1*
X1121538Y3278147D1*
X1120226Y3280772D1*
X1118913Y3282740D1*
X1117601Y3284053D1*
X1114976Y3286021D1*
X1112352Y3287333D1*
X1110383Y3287990D1*
X1107102Y3288646D1*
X1095947Y3289302D1*
Y3308331D1*
X1090042D1*
Y3282740D1*
X1095947D1*
X1099666Y3283396D1*
X1103384D1*
X1107102Y3282740D1*
X1109727Y3282084D1*
X1111039Y3281428D1*
X1114976Y3277491D1*
Y3276179D1*
X1115632Y3272898D1*
X1116129Y3272015D1*
X1116063Y3271424D1*
X1115632Y3270929D1*
X1114976Y3266992D1*
Y3266336D1*
X1111695Y3263055D1*
X1110383Y3262399D1*
X1107758Y3261743D1*
X1103821Y3261087D1*
X1099884D1*
X1095947Y3261743D1*
Y3282740D1*
X1090042D1*
G37*
G36*
X1128100Y3308331D2*
Y3303738D1*
X1134661Y3303081D1*
Y3261087D1*
X1128100Y3260430D1*
Y3255837D1*
X1147785D1*
Y3260430D1*
X1141223Y3261087D1*
Y3303081D1*
X1147785Y3303738D1*
Y3308331D1*
X1128100D1*
G37*
G36*
X1211433D2*
Y3303738D1*
X1221275Y3303081D1*
Y3267648D1*
X1211433Y3266992D1*
Y3263055D1*
X1216026Y3262399D1*
X1218651Y3261743D1*
X1219963Y3261087D1*
X1221275Y3259774D1*
Y3259118D1*
X1221932Y3257150D1*
X1222588Y3255837D1*
X1227181D1*
Y3303081D1*
X1236367Y3303738D1*
Y3308331D1*
X1211433D1*
G37*
G36*
X740960Y3309643D2*
X737680Y3308987D1*
X735055Y3308331D1*
X731118Y3306362D1*
X729149Y3305050D1*
X725212Y3301113D1*
X723900Y3299144D1*
X722588Y3296520D1*
X721275Y3292583D1*
X720619Y3289958D1*
X719963Y3285365D1*
Y3278803D1*
X720619Y3274210D1*
X721275Y3271585D1*
X721932Y3269617D1*
X723900Y3265680D1*
X725212Y3263711D1*
X730462Y3258462D1*
X735711Y3255837D1*
X737680Y3255181D1*
X740960Y3254525D1*
X749491D1*
X752772Y3255181D1*
X758677Y3257150D1*
X761302Y3258462D1*
X761958Y3259118D1*
Y3266992D1*
X759989Y3265680D1*
X758677Y3264367D1*
X753428Y3261743D1*
X751459Y3261087D1*
X748835Y3260430D1*
X745991Y3259774D1*
X743148D1*
X740304Y3260430D1*
X736367Y3261743D1*
X735711Y3262399D1*
X734399Y3263055D1*
X730462Y3266992D1*
Y3267648D1*
X728493Y3271585D1*
X727837Y3274210D1*
X727181Y3278147D1*
X726525Y3278803D1*
Y3284709D1*
X727181Y3285365D1*
X727837Y3289958D1*
X728493Y3292583D1*
X730462Y3296520D1*
Y3297176D1*
X734399Y3301113D1*
X738336Y3303081D1*
X740304Y3303738D1*
X743585Y3304394D1*
X746866D1*
X750147Y3303738D1*
X754084Y3303081D1*
X755396Y3302425D1*
X756052Y3301769D1*
Y3288646D1*
X743585Y3287990D1*
Y3282084D1*
X761958D1*
Y3305050D1*
X761302Y3305706D1*
X759989Y3306362D1*
X756709Y3307675D1*
X752115Y3308987D1*
X748835Y3309643D1*
X740960D1*
G37*
G36*
X843323Y3303738D2*
X840698Y3301113D1*
X839386Y3299144D1*
X838073Y3296520D1*
X836761Y3292583D1*
X836105Y3289958D1*
X835449Y3284709D1*
Y3279459D1*
X836105Y3274210D1*
X836761Y3271585D1*
X838073Y3267648D1*
X839386Y3265024D1*
X840698Y3263055D1*
X845947Y3257806D1*
X849884Y3255837D1*
X851853Y3255181D1*
X855134Y3254525D1*
X863008D1*
X865632Y3255181D1*
X867601Y3255837D1*
X871538Y3257806D1*
X873506Y3259118D1*
X876131Y3261743D1*
X878756Y3265680D1*
X879412Y3266992D1*
X881380Y3272898D1*
X882037Y3276835D1*
Y3287333D1*
X881380Y3291270D1*
X879412Y3297176D1*
X878756Y3298488D1*
X876131Y3302425D1*
X873506Y3305050D1*
X871538Y3306362D1*
X867601Y3308331D1*
X865632Y3308987D1*
X862352Y3309643D1*
X855134D1*
X851853Y3308987D1*
X849884Y3308331D1*
X845947Y3306362D1*
X843323Y3303738D1*
X855134D1*
X857758Y3304394D1*
X860383D1*
X863008Y3303738D1*
X864976Y3303081D1*
X867601Y3301769D1*
X872194Y3297176D1*
Y3296520D1*
X872850Y3295207D1*
X874163Y3291270D1*
X874819Y3287990D1*
X875475Y3287333D1*
Y3276835D1*
X874819Y3276179D1*
X874163Y3272898D1*
X872850Y3268961D1*
X872194Y3267648D1*
X870226Y3265024D1*
X870010Y3264228D1*
X869569Y3263711D1*
X868257Y3263055D1*
X867601Y3262399D1*
X864976Y3261087D1*
X863008Y3260430D1*
X860383Y3259774D1*
X857758D1*
X852509Y3261087D1*
X849884Y3262399D1*
X845947Y3266336D1*
Y3266992D1*
X844635Y3269617D1*
X843979Y3271585D1*
X843323Y3274210D1*
X842667Y3278803D1*
X842010Y3279459D1*
Y3284709D1*
X842667Y3285365D1*
X843323Y3290614D1*
X844635Y3294551D1*
X845947Y3297176D1*
Y3297832D1*
X849228Y3301113D1*
X850541Y3301769D1*
X851197Y3302425D1*
X852509Y3303081D1*
X855134Y3303738D1*
X843323D1*
G37*
G36*
X939123Y3309643D2*
X935186Y3308987D1*
X931249Y3307675D1*
X929937Y3307018D1*
X929281Y3306362D1*
Y3299801D1*
X929937D1*
X930593Y3300457D1*
X933218Y3301769D1*
X939123Y3303738D1*
X941529Y3304394D1*
X943935D1*
X946341Y3303738D1*
X948310Y3303081D1*
X949622Y3302425D1*
X952247Y3299801D1*
Y3299144D1*
X952903Y3297832D1*
X953559Y3295864D1*
X954215Y3295207D1*
Y3289302D1*
X953559Y3288646D1*
X952903Y3286677D1*
Y3286021D1*
X950278Y3283396D1*
X948966Y3282740D1*
X946341Y3282084D1*
X943060Y3281428D1*
X939779D1*
X936499Y3282084D1*
X932562Y3282740D1*
X931905D1*
Y3255837D1*
X960121D1*
Y3261087D1*
X937811Y3261743D1*
Y3275522D1*
X947653Y3276179D1*
X950934Y3276835D1*
X954871Y3278803D1*
X958152Y3282084D1*
X960121Y3286021D1*
X960777Y3289302D1*
Y3294551D1*
X960121Y3297176D1*
X959464Y3299144D1*
X957496Y3303081D1*
X953559Y3307018D1*
X950934Y3308331D1*
X948966Y3308987D1*
X946341Y3309643D1*
X939123D1*
G37*
G36*
X771800Y3282740D2*
Y3255837D1*
X789517D1*
X792798Y3256493D1*
X794766Y3257150D1*
X798703Y3259118D1*
X801328Y3261743D1*
X802640Y3263711D1*
X803296Y3265024D1*
X803953Y3266992D1*
X804609Y3270929D1*
Y3272242D1*
X803953Y3276179D1*
X803296Y3278147D1*
X801984Y3280772D1*
X800672Y3282740D1*
X799359Y3284053D1*
X796735Y3286021D1*
X794110Y3287333D1*
X792142Y3287990D1*
X788861Y3288646D1*
X777706Y3289302D1*
Y3308331D1*
X771800D1*
Y3282740D1*
X777706D1*
X781424Y3283396D1*
X785142D1*
X788861Y3282740D1*
X791485Y3282084D1*
X792798Y3281428D1*
X796735Y3277491D1*
Y3276179D1*
X797391Y3272898D1*
X797887Y3272015D1*
X797822Y3271424D1*
X797391Y3270929D1*
X796735Y3266992D1*
Y3266336D1*
X793454Y3263055D1*
X792142Y3262399D1*
X789517Y3261743D1*
X785580Y3261087D1*
X781643D1*
X777706Y3261743D1*
Y3282740D1*
X771800D1*
G37*
G36*
X809858Y3308331D2*
Y3303738D1*
X816420Y3303081D1*
Y3261087D1*
X809858Y3260430D1*
Y3255837D1*
X829543D1*
Y3260430D1*
X822981Y3261087D1*
Y3303081D1*
X829543Y3303738D1*
Y3308331D1*
X809858D1*
G37*
G36*
X893191D2*
Y3303738D1*
X903034Y3303081D1*
Y3267648D1*
X893191Y3266992D1*
Y3263055D1*
X897785Y3262399D1*
X900409Y3261743D1*
X901722Y3261087D1*
X903034Y3259774D1*
Y3259118D1*
X903690Y3257150D1*
X904346Y3255837D1*
X908939D1*
Y3303081D1*
X918126Y3303738D1*
Y3308331D1*
X893191D1*
G37*
G36*
X4212877Y1605772D2*
Y1597898D1*
X4213664Y1597110D1*
X4263270Y1580575D1*
X4264845Y1579787D1*
X4263270Y1579000D1*
X4213664Y1562465D1*
X4212877Y1561677D1*
Y1554591D1*
X4214451D1*
X4226262Y1558528D1*
X4253821Y1567976D1*
X4274294Y1575063D1*
X4275869Y1575850D1*
Y1584512D1*
X4260121Y1590024D1*
X4232562Y1599472D1*
X4213664Y1605772D1*
X4212877D1*
G37*
G36*
Y1547504D2*
Y1536480D1*
X4213664Y1535693D1*
X4215239Y1534906D1*
X4243585Y1522307D1*
X4245947Y1521520D1*
X4247522Y1520732D1*
Y1519945D1*
X4245947Y1519158D1*
X4243585Y1518370D1*
X4216026Y1506559D1*
X4212877Y1504984D1*
Y1493961D1*
X4275869D1*
Y1501047D1*
X4221538Y1501835D1*
X4222325Y1502622D1*
X4224688Y1503409D1*
X4231774Y1506559D1*
X4237286Y1508921D1*
X4251459Y1515221D1*
X4256971Y1517583D1*
X4258546Y1519158D1*
Y1523095D1*
X4253821Y1525457D1*
X4248310Y1527819D1*
X4241223Y1530969D1*
X4235711Y1533331D1*
X4228625Y1536480D1*
X4226262Y1537268D1*
X4221538Y1539630D1*
X4275869Y1540417D1*
Y1547504D1*
X4212877D1*
G37*
G36*
X4230987Y1475063D2*
X4229412Y1473488D1*
X4227837Y1470339D1*
X4227050Y1467976D1*
Y1457740D1*
X4228625Y1453016D1*
X4230199Y1450654D1*
X4234136Y1446717D1*
X4236499Y1445142D1*
X4239648Y1443567D1*
X4242010Y1442780D1*
X4245947Y1441992D1*
X4257758D1*
X4261695Y1442780D1*
X4264058Y1443567D1*
X4268782Y1445929D1*
X4274294Y1451441D1*
X4275869Y1454591D1*
X4276656Y1456953D1*
X4277443Y1460890D1*
Y1464039D1*
X4276656Y1468764D1*
X4275869Y1471126D1*
X4274294Y1474276D1*
X4269569Y1479000D1*
X4267207Y1480575D1*
X4265632Y1481362D1*
X4260908Y1482937D1*
X4256184Y1483724D1*
X4247522D1*
X4242798Y1482937D1*
X4240436Y1482150D1*
X4235711Y1479787D1*
X4233349Y1478213D1*
X4230987Y1475850D1*
Y1475063D1*
X4243585D1*
X4249097Y1475850D1*
X4254609D1*
X4260121Y1475063D1*
X4262483Y1474276D1*
X4267207Y1471913D1*
X4268782Y1470339D1*
Y1469551D1*
X4269569Y1467976D1*
X4270357Y1465614D1*
X4271144Y1464827D1*
Y1460890D1*
X4270357Y1460102D1*
X4269569Y1456953D1*
Y1456165D1*
X4266420Y1453016D1*
X4263270Y1451441D1*
X4260908Y1450654D1*
X4255396Y1449866D1*
X4253034Y1449079D1*
X4250672D1*
X4248310Y1449866D1*
X4242798Y1450654D1*
X4240436Y1451441D1*
X4238861Y1452228D1*
X4238073Y1453016D1*
X4236499Y1453803D1*
X4234924Y1455378D1*
Y1456165D1*
X4234136Y1457740D1*
X4233349Y1458528D1*
Y1467189D1*
X4234136Y1467976D1*
Y1468764D1*
X4238073Y1472701D1*
X4241223Y1474276D1*
X4243585Y1475063D1*
X4230987D1*
G37*
G36*
X4228625Y1438055D2*
Y1433331D1*
X4215239Y1432543D1*
Y1425457D1*
X4228625Y1424669D1*
Y1410496D1*
X4234924D1*
Y1424669D1*
X4244898Y1425457D1*
X4254871D1*
X4264845Y1424669D1*
X4267207Y1423882D1*
X4269569Y1421520D1*
Y1419945D1*
X4270357Y1419158D1*
Y1415221D1*
X4269569Y1414433D1*
X4268782Y1411284D1*
Y1410496D1*
X4275081D1*
X4275869Y1412858D1*
X4276656Y1417583D1*
Y1419945D1*
X4275869Y1423882D1*
X4275081Y1426244D1*
X4273506Y1428606D1*
X4272719Y1429394D1*
X4270357Y1430969D1*
X4268782Y1431756D1*
X4265632Y1432543D1*
X4234924Y1433331D1*
Y1438055D1*
X4228625D1*
G37*
G36*
X4217601Y1370339D2*
Y1369551D1*
X4215239Y1367189D1*
X4212089Y1360890D1*
X4211302Y1357740D1*
Y1345929D1*
X4212089Y1342780D1*
X4212877Y1340417D1*
X4214451Y1337268D1*
X4216026Y1334906D1*
X4220751Y1330181D1*
X4223113Y1328606D1*
X4227837Y1326244D1*
X4230199Y1325457D1*
X4233349Y1324669D1*
X4238073Y1323882D1*
X4249884D1*
X4254609Y1324669D1*
X4257758Y1325457D1*
X4260121Y1326244D1*
X4266420Y1329394D1*
X4272719Y1335693D1*
X4274294Y1338055D1*
X4275081Y1339630D1*
X4276656Y1344354D1*
X4277443Y1349866D1*
Y1353803D1*
X4276656Y1358528D1*
X4275869Y1361677D1*
X4273506Y1366402D1*
X4271932Y1368764D1*
X4267995Y1372701D1*
X4265632Y1374276D1*
X4260908Y1376638D1*
X4256184Y1378213D1*
X4252247Y1379000D1*
X4235711D1*
X4231774Y1378213D1*
X4227050Y1376638D1*
X4223900Y1375063D1*
X4221538Y1373488D1*
X4218388Y1371126D1*
X4217601Y1370339D1*
X4235711D1*
X4241223Y1371126D1*
X4246735D1*
X4252247Y1370339D1*
X4256184Y1369551D1*
X4258546Y1368764D1*
X4263270Y1366402D1*
X4268782Y1360890D1*
Y1360102D1*
X4269569Y1358528D1*
X4270357Y1354591D1*
X4271144Y1353803D1*
Y1349079D1*
X4270357Y1348291D1*
X4269569Y1345142D1*
X4267995Y1341992D1*
Y1341205D1*
X4264058Y1337268D1*
X4257758Y1334118D1*
X4254609Y1333331D1*
X4249884Y1332543D1*
X4245947Y1331756D1*
X4242010D1*
X4238073Y1332543D1*
X4233349Y1333331D1*
X4228625Y1334906D1*
X4225475Y1336480D1*
X4224688Y1337268D1*
X4223113Y1338055D1*
X4219963Y1341205D1*
Y1341992D1*
X4219176Y1343567D1*
X4218388Y1345929D1*
X4217601Y1346717D1*
Y1356953D1*
X4218388Y1357740D1*
X4219963Y1360890D1*
Y1361677D1*
X4224688Y1366402D1*
X4229412Y1368764D1*
X4231774Y1369551D1*
X4235711Y1370339D1*
X4217601D1*
G37*
G36*
X4228625Y1314433D2*
Y1307346D1*
X4262483Y1306559D1*
X4265632Y1305772D1*
X4267207Y1304984D1*
X4269569Y1302622D1*
Y1301047D1*
X4270357Y1300260D1*
Y1296323D1*
X4269569Y1295535D1*
X4268782Y1292386D1*
X4267207Y1289236D1*
Y1288449D1*
X4264845Y1286087D1*
X4228625Y1285299D1*
Y1277425D1*
X4275081D1*
X4275869Y1278213D1*
Y1284512D1*
X4275081Y1285299D1*
X4271932Y1286874D1*
Y1287661D1*
X4274294Y1290024D1*
X4276656Y1294748D1*
X4277443Y1298685D1*
Y1301047D1*
X4276656Y1304984D1*
X4275081Y1308134D1*
X4271144Y1312071D1*
X4269569Y1312858D1*
X4267207Y1313646D1*
X4264058Y1314433D1*
X4228625D1*
G37*
G36*
Y1270339D2*
Y1265614D1*
X4215239Y1264827D1*
Y1257740D1*
X4228625Y1256953D1*
Y1242780D1*
X4234924D1*
Y1256953D1*
X4244898Y1257740D1*
X4254871D1*
X4264845Y1256953D1*
X4267207Y1256165D1*
X4269569Y1253803D1*
Y1252228D1*
X4270357Y1251441D1*
Y1247504D1*
X4269569Y1246717D1*
X4268782Y1243567D1*
Y1242780D1*
X4275081D1*
X4275869Y1245142D1*
X4276656Y1249866D1*
Y1252228D1*
X4275869Y1256165D1*
X4275081Y1258528D1*
X4273506Y1260890D1*
X4272719Y1261677D1*
X4270357Y1263252D1*
X4268782Y1264039D1*
X4265632Y1264827D1*
X4234924Y1265614D1*
Y1270339D1*
X4228625D1*
G37*
M02*
