M48
INCH
T01C0.0118
T02C0.0191
T03C0.0354
T04C0.0394
T05C0.0433
T06C0.046
T07C0.063
T08C0.1378
T09C0.14
%
T01
X+007980Y+010430
X+007980Y+010200
X+007600Y+010200
X+007600Y+010430
X+007565Y+010745
X+007755Y+011000
X+007920Y+011380
X+008271Y+012011
X+008705Y+011565
X+008730Y+011185
X+008730Y+010855
X+008740Y+010540
X+009095Y+010545
X+009410Y+010540
X+009405Y+010860
X+009100Y+010870
X+009100Y+011160
X+009405Y+011180
X+009730Y+011160
X+009745Y+010855
X+009740Y+010545
X+010610Y+010425
X+010620Y+010195
X+010960Y+010200
X+010960Y+010420
X+011040Y+010740
X+010785Y+010930
X+009715Y+011560
X+009380Y+011570
X+009095Y+011570
X+008945Y+012470
X+008566Y+012601
X+009255Y+012771
X+009545Y+012470
X+010555Y+012265
X+013420Y+010730
X+013491Y+010407
X+013491Y+010179
X+013806Y+010176
X+013814Y+010405
X+013670Y+011035
X+013822Y+011381
X+014176Y+011865
X+014485Y+012202
X+014790Y+012390
X+015005Y+012625
X+015395Y+012570
X+015320Y+011630
X+015020Y+011615
X+014650Y+011610
X+014650Y+011075
X+015035Y+011070
X+015390Y+011065
X+015700Y+011085
X+015710Y+010570
X+015385Y+010560
X+015020Y+010570
X+014655Y+010570
X+015700Y+011610
X+016550Y+012260
X+016735Y+010930
X+016995Y+010750
X+016841Y+010420
X+016846Y+010190
X+016516Y+010190
X+016516Y+010420
X+017326Y+008783
X+017266Y+007790
X+017266Y+007475
X+017620Y+007475
X+017620Y+007790
X+018605Y+007798
X+018605Y+007483
X+018960Y+007483
X+018960Y+007798
X+018940Y+008783
X+019377Y+010179
X+019377Y+010407
X+019700Y+010400
X+019697Y+010171
X+019345Y+010730
X+019625Y+011010
X+019700Y+011320
X+020475Y+011066
X+020751Y+011066
X+021027Y+011066
X+021342Y+011066
X+021652Y+011066
X+021647Y+010480
X+021381Y+010475
X+021066Y+010475
X+020790Y+010475
X+020475Y+010475
X+020475Y+011657
X+020751Y+011657
X+021027Y+011657
X+021342Y+011657
X+021617Y+011657
X+022360Y+012280
X+021425Y+012780
X+020995Y+012405
X+020675Y+012430
X+020395Y+012580
X+019931Y+012744
X+020685Y+014660
X+019931Y+016185
X+017975Y+016700
X+017695Y+016950
X+017330Y+017220
X+017080Y+017505
X+016805Y+016440
X+015005Y+016625
X+013540Y+016185
X+013375Y+016795
X+013005Y+016990
X+011108Y+016540
X+009255Y+016590
X+008025Y+016185
X+008320Y+014915
X+007502Y+018815
X+008499Y+020753
X+009267Y+021633
X+009965Y+021227
X+010003Y+020315
X+011003Y+019932
X+011003Y+021190
X+011485Y+021374
X+011996Y+021190
X+012532Y+021368
X+013003Y+021128
X+013591Y+021393
X+013003Y+019199
X+016002Y+019932
X+016378Y+019199
X+016820Y+018815
X+017080Y+019690
X+017975Y+019130
X+016820Y+021378
X+017330Y+022378
X+017695Y+022690
X+018256Y+021797
X+022128Y+023252
X+024531Y+023880
X+025628Y+024878
X+026002Y+026065
X+025063Y+026459
X+022752Y+029065
X+022128Y+030377
X+023002Y+031002
X+026503Y+031002
X+027440Y+031002
X+029002Y+030628
X+029065Y+029502
X+032190Y+031190
X+035502Y+031128
X+036565Y+031128
X+035502Y+029502
X+035565Y+026065
X+033509Y+024746
X+032531Y+023065
X+031502Y+023315
X+031502Y+022690
X+030565Y+022378
X+033502Y+021065
X+034531Y+021378
X+035531Y+021797
X+036502Y+020582
X+036502Y+023565
X+038531Y+027753
X+026531Y+023252
X+025270Y+015970
X+024502Y+015955
X+022865Y+016315
X+026275Y+014730
X+026305Y+012595
X+026630Y+012485
X+026953Y+012423
X+026932Y+011657
X+026657Y+011657
X+026381Y+011657
X+025897Y+011894
X+025618Y+011381
X+025535Y+010985
X+025287Y+010731
X+025283Y+010412
X+025283Y+010184
X+025597Y+010176
X+025605Y+010405
X+026381Y+010475
X+026696Y+010475
X+026971Y+010475
X+027286Y+010475
X+027552Y+010485
X+027552Y+011066
X+027247Y+011066
X+026932Y+011066
X+026657Y+011066
X+026381Y+011066
X+027247Y+011657
X+027523Y+011657
X+028190Y+012240
X+028540Y+010935
X+028815Y+010735
X+028637Y+010410
X+028637Y+010190
X+028307Y+010185
X+028307Y+010410
X+029117Y+008822
X+029077Y+007790
X+029077Y+007475
X+029431Y+007475
X+029431Y+007790
X+032551Y+010324
X+033388Y+009497
X+033614Y+009497
X+033624Y+009261
X+033398Y+009261
X+033791Y+006761
X+033791Y+006485
X+033791Y+006210
X+033791Y+005934
X+033791Y+005659
X+033791Y+005383
X+024885Y+007483
X+024885Y+007798
X+024531Y+007798
X+024531Y+007483
X+023506Y+007475
X+023506Y+007790
X+023151Y+007790
X+023151Y+007475
X+023271Y+008783
X+022731Y+010195
X+022731Y+010420
X+022401Y+010425
X+022401Y+010205
X+022855Y+010730
X+022590Y+010920
X+024880Y+008792
X+030002Y+014730
X+029025Y+016260
X+032502Y+016245
X+018503Y+027127
X+016378Y+027190
X+016002Y+027627
X+011440Y+024190
X+010488Y+025887
X+014260Y+014710
X+014128Y+013878
X+014128Y+013628
X+014128Y+013378
X+013094Y+008783
X+013074Y+007798
X+013074Y+007483
X+012720Y+007483
X+012720Y+007798
X+011714Y+007790
X+011714Y+007475
X+011360Y+007475
X+011360Y+007790
X+011351Y+008777
X+007200Y+008750
X+007168Y+007798
X+007168Y+007483
X+006814Y+007483
X+006814Y+007798
T02
X+031440Y+011690
X+034835Y+012135
X+035628Y+016440
X+031440Y+017128
X+031128Y+017128
X+030815Y+017127
X+027940Y+016600
X+027506Y+015898
X+027496Y+015538
X+027496Y+015158
X+026496Y+015138
X+026486Y+015518
X+026496Y+015898
X+023315Y+016645
X+021561Y+015820
X+021551Y+015460
X+021551Y+015080
X+020555Y+015115
X+020565Y+015490
X+020550Y+015845
X+015656Y+015820
X+015646Y+015460
X+015646Y+015080
X+014646Y+015060
X+014636Y+015440
X+014646Y+015820
X+011983Y+019565
X+011440Y+022450
X+010440Y+022065
X+009752Y+022878
X+010440Y+023660
X+009752Y+024692
X+009180Y+024342
X+009520Y+025370
X+009830Y+027520
X+009180Y+027920
X+012025Y+025110
X+012025Y+023885
X+014565Y+023440
X+014003Y+025628
X+014565Y+027065
X+009750Y+015800
X+009740Y+015440
X+009740Y+015060
X+008740Y+015040
X+008730Y+015420
X+008740Y+015800
X+030770Y+007050
X+030760Y+006565
X+030725Y+006040
X+030735Y+005490
X+032394Y+007725
X+042440Y+016440
X+041752Y+021253
X+039002Y+021315
X+038878Y+023065
X+039065Y+027065
X+041752Y+027378
T03
X+010731Y+005712
X+009747Y+005712
X+008763Y+005712
X+007779Y+005712
X+013684Y+005712
X+014668Y+005712
X+015653Y+005712
X+016637Y+005712
X+019590Y+005712
X+020574Y+005712
X+021558Y+005712
X+022542Y+005712
X+025495Y+005712
X+026479Y+005712
X+027464Y+005712
X+028448Y+005712
X+028531Y+018743
X+028531Y+019743
X+027531Y+019743
X+026531Y+019743
X+026531Y+018743
X+027531Y+018743
X+025531Y+018743
X+025531Y+019743
X+024531Y+019743
X+024531Y+018743
X+022548Y+018690
X+021548Y+018690
X+021548Y+019690
X+022548Y+019690
X+020548Y+019690
X+020548Y+018690
X+019548Y+018690
X+016003Y+017712
X+015003Y+017712
X+014003Y+017712
X+013003Y+017712
X+012003Y+017712
X+011003Y+017712
X+010003Y+017712
X+009003Y+017712
X+008003Y+017712
X+007003Y+017712
X+006003Y+017712
X+005003Y+017712
X+007760Y+031643
X+008745Y+031643
X+011072Y+031643
X+012057Y+031643
X+014510Y+031643
X+015495Y+031643
X+018385Y+031643
X+019370Y+031643
X+024198Y+031643
X+025182Y+031643
X+025531Y+028743
X+024531Y+028743
X+026531Y+028743
X+027531Y+028743
X+028531Y+028743
X+029531Y+028743
X+030531Y+028743
X+031531Y+028743
X+032531Y+028743
X+033531Y+028743
X+034531Y+028743
X+035531Y+028743
X+036531Y+028744
X+037531Y+028744
X+038531Y+028744
X+039531Y+028744
X+040531Y+028744
X+041531Y+028744
X+042531Y+028744
X+038682Y+031643
X+037698Y+031643
X+034182Y+031643
X+033198Y+031643
X+029682Y+031643
X+028698Y+031643
X+029531Y+019743
X+030531Y+019743
X+030531Y+018743
X+029531Y+018743
X+031531Y+018743
X+031531Y+019743
X+032531Y+019743
X+032531Y+018743
X+033531Y+018743
X+033531Y+019743
X+034531Y+019743
X+034531Y+018743
X+035531Y+018743
X+035531Y+019743
X+036531Y+019744
X+037531Y+019744
X+037531Y+018744
X+036531Y+018744
X+038531Y+018744
X+038531Y+019744
X+039531Y+019744
X+040531Y+019744
X+040531Y+018744
X+039531Y+018744
X+041531Y+018744
X+041531Y+019744
X+042531Y+019744
X+042531Y+018744
X+041440Y+014870
X+041440Y+013885
T04
X+042507Y+022387
X+042507Y+025537
T05
X+011361Y+006499
X+017267Y+006499
X+023172Y+006499
X+029078Y+006499
X+040653Y+015500
X+037068Y+030855
X+032568Y+030855
X+028068Y+030855
X+023568Y+030855
X+017755Y+030855
X+013880Y+030855
X+010443Y+030855
X+007130Y+030855
T06
X+019548Y+019690
T07
X+040640Y+007937
X+040640Y+009906
T08
X+005581Y+029129
T09
X+005220Y+005220
X+005220Y+032188
X+042031Y+032188
X+042031Y+005220
T00
M30
