M48
INCH
T01C0.0118
T02C0.0191
T03C0.0354
T04C0.0394
T05C0.0433
T06C0.046
T07C0.063
T08C0.1378
T09C0.14
%
T01
X+004040Y+006490
X+004040Y+006260
X+003660Y+006260
X+003660Y+006490
X+003625Y+006805
X+003815Y+007060
X+003980Y+007440
X+004331Y+008071
X+004765Y+007625
X+004790Y+007245
X+004790Y+006915
X+004800Y+006600
X+005155Y+006605
X+005470Y+006600
X+005465Y+006920
X+005160Y+006930
X+005160Y+007220
X+005465Y+007240
X+005790Y+007220
X+005805Y+006915
X+005800Y+006605
X+006670Y+006485
X+006680Y+006255
X+007020Y+006260
X+007020Y+006480
X+007100Y+006800
X+006845Y+006990
X+005775Y+007620
X+005440Y+007630
X+005155Y+007630
X+005005Y+008530
X+004626Y+008661
X+005315Y+008831
X+005605Y+008530
X+006615Y+008325
X+009480Y+006790
X+009551Y+006467
X+009551Y+006239
X+009866Y+006236
X+009874Y+006465
X+009730Y+007095
X+009882Y+007441
X+010236Y+007925
X+010545Y+008262
X+010850Y+008450
X+011065Y+008685
X+011455Y+008630
X+011380Y+007690
X+011080Y+007675
X+010710Y+007670
X+010710Y+007135
X+011095Y+007130
X+011450Y+007125
X+011760Y+007145
X+011770Y+006630
X+011445Y+006620
X+011080Y+006630
X+010715Y+006630
X+011760Y+007670
X+012610Y+008320
X+012795Y+006990
X+013055Y+006810
X+012901Y+006480
X+012906Y+006250
X+012576Y+006250
X+012576Y+006480
X+013386Y+004843
X+013326Y+003850
X+013326Y+003535
X+013680Y+003535
X+013680Y+003850
X+014665Y+003858
X+014665Y+003543
X+015020Y+003543
X+015020Y+003858
X+015000Y+004843
X+015437Y+006239
X+015437Y+006467
X+015760Y+006460
X+015757Y+006231
X+015405Y+006790
X+015685Y+007070
X+015760Y+007380
X+016535Y+007126
X+016811Y+007126
X+017087Y+007126
X+017402Y+007126
X+017712Y+007126
X+017707Y+006540
X+017441Y+006535
X+017126Y+006535
X+016850Y+006535
X+016535Y+006535
X+016535Y+007717
X+016811Y+007717
X+017087Y+007717
X+017402Y+007717
X+017677Y+007717
X+018420Y+008340
X+017485Y+008840
X+017055Y+008465
X+016735Y+008490
X+016455Y+008640
X+015991Y+008804
X+016745Y+010720
X+015991Y+012245
X+014035Y+012760
X+013755Y+013010
X+013390Y+013280
X+013140Y+013565
X+012865Y+012500
X+011065Y+012685
X+009600Y+012245
X+009435Y+012855
X+009065Y+013050
X+007168Y+012600
X+005315Y+012650
X+004085Y+012245
X+004380Y+010975
X+003562Y+014875
X+004559Y+016813
X+005327Y+017693
X+006025Y+017287
X+006063Y+016375
X+007063Y+015992
X+007063Y+017250
X+007545Y+017434
X+008056Y+017250
X+008592Y+017428
X+009063Y+017188
X+009651Y+017453
X+009063Y+015259
X+012062Y+015992
X+012438Y+015259
X+012880Y+014875
X+013140Y+015750
X+014035Y+015190
X+012880Y+017438
X+013390Y+018438
X+013755Y+018750
X+014316Y+017857
X+018188Y+019312
X+020591Y+019940
X+021688Y+020938
X+022062Y+022125
X+021123Y+022519
X+018812Y+025125
X+018188Y+026437
X+019062Y+027062
X+022563Y+027062
X+023500Y+027062
X+025062Y+026688
X+025125Y+025562
X+028250Y+027250
X+031562Y+027188
X+032625Y+027188
X+031562Y+025562
X+031625Y+022125
X+029569Y+020806
X+028591Y+019125
X+027562Y+019375
X+027562Y+018750
X+026625Y+018438
X+029562Y+017125
X+030591Y+017438
X+031591Y+017857
X+032562Y+016642
X+032562Y+019625
X+034591Y+023813
X+022591Y+019312
X+021330Y+012030
X+020562Y+012015
X+018925Y+012375
X+022335Y+010790
X+022365Y+008655
X+022690Y+008545
X+023013Y+008483
X+022992Y+007717
X+022717Y+007717
X+022441Y+007717
X+021957Y+007954
X+021678Y+007441
X+021595Y+007045
X+021347Y+006791
X+021343Y+006472
X+021343Y+006244
X+021657Y+006236
X+021665Y+006465
X+022441Y+006535
X+022756Y+006535
X+023031Y+006535
X+023346Y+006535
X+023612Y+006545
X+023612Y+007126
X+023307Y+007126
X+022992Y+007126
X+022717Y+007126
X+022441Y+007126
X+023307Y+007717
X+023583Y+007717
X+024250Y+008300
X+024600Y+006995
X+024875Y+006795
X+024697Y+006470
X+024697Y+006250
X+024367Y+006245
X+024367Y+006470
X+025177Y+004882
X+025137Y+003850
X+025137Y+003535
X+025491Y+003535
X+025491Y+003850
X+020945Y+003858
X+020945Y+003543
X+020591Y+003543
X+020591Y+003858
X+019566Y+003850
X+019566Y+003535
X+019211Y+003535
X+019211Y+003850
X+019331Y+004843
X+018791Y+006255
X+018791Y+006480
X+018461Y+006485
X+018461Y+006265
X+018915Y+006790
X+018650Y+006980
X+020940Y+004852
X+026062Y+010790
X+025085Y+012320
X+028562Y+012305
X+032047Y+001575
X+032441Y+001575
X+031496Y+000945
X+029134Y+000709
X+009134Y+003543
X+009134Y+003858
X+008780Y+003858
X+008780Y+003543
X+007774Y+003535
X+007774Y+003850
X+007420Y+003850
X+007420Y+003535
X+007411Y+004837
X+009154Y+004843
X+010188Y+009438
X+010188Y+009688
X+010188Y+009938
X+010320Y+010770
X+003260Y+004810
X+003228Y+003858
X+003228Y+003543
X+002874Y+003543
X+002874Y+003858
X+007500Y+020250
X+006548Y+021947
X+012062Y+023687
X+012438Y+023250
X+014563Y+023187
T02
X+028000Y+008312
X+028438Y+008312
X+028938Y+008312
X+029016Y+006378
X+027598Y+005276
X+027598Y+004843
X+027598Y+004370
X+026457Y+003071
X+026457Y+002323
X+029488Y+002283
X+029488Y+002677
X+030000Y+002677
X+030000Y+002283
X+030000Y+001811
X+029488Y+001811
X+030047Y+001291
X+026812Y+006875
X+026812Y+007625
X+023556Y+011218
X+023556Y+011598
X+023566Y+011958
X+024000Y+012660
X+022556Y+011958
X+022546Y+011578
X+022556Y+011198
X+019375Y+012705
X+017621Y+011880
X+017611Y+011520
X+017611Y+011140
X+016615Y+011175
X+016625Y+011550
X+016610Y+011905
X+011716Y+011880
X+011706Y+011520
X+011706Y+011140
X+010706Y+011120
X+010696Y+011500
X+010706Y+011880
X+008043Y+015625
X+007500Y+018510
X+006500Y+018125
X+005812Y+018938
X+006500Y+019720
X+005812Y+020752
X+005240Y+020402
X+005580Y+021430
X+005890Y+023580
X+005240Y+023980
X+008085Y+021170
X+008085Y+019945
X+010625Y+019500
X+010063Y+021688
X+010625Y+023125
X+005810Y+011860
X+005800Y+011500
X+005800Y+011120
X+004800Y+011100
X+004790Y+011480
X+004800Y+011860
X+026875Y+013187
X+027188Y+013188
X+027500Y+013188
X+031688Y+012697
X+035062Y+017375
X+034938Y+019125
X+037812Y+017313
X+038500Y+012500
X+037812Y+023438
X+035125Y+023125
T03
X+006791Y+001772
X+005807Y+001772
X+004823Y+001772
X+003839Y+001772
X+009744Y+001772
X+010728Y+001772
X+011713Y+001772
X+012697Y+001772
X+015650Y+001772
X+016634Y+001772
X+017618Y+001772
X+018602Y+001772
X+021555Y+001772
X+022539Y+001772
X+023524Y+001772
X+024508Y+001772
X+024591Y+014803
X+024591Y+015803
X+023591Y+015803
X+022591Y+015803
X+022591Y+014803
X+023591Y+014803
X+021591Y+014803
X+021591Y+015803
X+020591Y+015803
X+020591Y+014803
X+018608Y+014750
X+017608Y+014750
X+017608Y+015750
X+018608Y+015750
X+016608Y+015750
X+016608Y+014750
X+015608Y+014750
X+012063Y+013772
X+011063Y+013772
X+010063Y+013772
X+009063Y+013772
X+008063Y+013772
X+007063Y+013772
X+006063Y+013772
X+005063Y+013772
X+004063Y+013772
X+003063Y+013772
X+002063Y+013772
X+001063Y+013772
X+003820Y+027703
X+004805Y+027703
X+007132Y+027703
X+008117Y+027703
X+010570Y+027703
X+011555Y+027703
X+014445Y+027703
X+015430Y+027703
X+020258Y+027703
X+021242Y+027703
X+021591Y+024803
X+020591Y+024803
X+022591Y+024803
X+023591Y+024803
X+024591Y+024803
X+025591Y+024803
X+026591Y+024803
X+027591Y+024803
X+028591Y+024803
X+029591Y+024803
X+030591Y+024803
X+031591Y+024803
X+032591Y+024804
X+033591Y+024804
X+034591Y+024804
X+035591Y+024804
X+036591Y+024804
X+037591Y+024804
X+038591Y+024804
X+034742Y+027703
X+033758Y+027703
X+030242Y+027703
X+029258Y+027703
X+025742Y+027703
X+024758Y+027703
X+025591Y+015803
X+026591Y+015803
X+026591Y+014803
X+025591Y+014803
X+027591Y+014803
X+027591Y+015803
X+028591Y+015803
X+028591Y+014803
X+029591Y+014803
X+029591Y+015803
X+030591Y+015803
X+030591Y+014803
X+031591Y+014803
X+031591Y+015803
X+032591Y+015804
X+033591Y+015804
X+033591Y+014804
X+032591Y+014804
X+034591Y+014804
X+034591Y+015804
X+035591Y+015804
X+036591Y+015804
X+036591Y+014804
X+035591Y+014804
X+037591Y+014804
X+037591Y+015804
X+038591Y+015804
X+038591Y+014804
X+037500Y+010930
X+037500Y+009945
T04
X+038567Y+018447
X+038567Y+021597
T05
X+007421Y+002559
X+013327Y+002559
X+019232Y+002559
X+025138Y+002559
X+036713Y+011560
X+033128Y+026915
X+028628Y+026915
X+024128Y+026915
X+019628Y+026915
X+013815Y+026915
X+009940Y+026915
X+006503Y+026915
X+003190Y+026915
T06
X+015608Y+015750
T07
X+036700Y+003997
X+036700Y+005966
T08
X+001641Y+025189
T09
X+001280Y+001280
X+001280Y+028248
X+038091Y+028248
X+038091Y+001280
T00
M30
