G04 DipTrace 4.1.3.1*
G04 TopSilk.gbr*
%MOIN*%
G04 #@! TF.FileFunction,Legend,Top*
G04 #@! TF.Part,Single*
%ADD10C,0.009843*%
%ADD13C,0.004724*%
%ADD24C,0.005906*%
%ADD29C,0.003937*%
%ADD48C,0.006*%
%ADD117C,0.004632*%
%FSLAX26Y26*%
G04*
G70*
G90*
G75*
G01*
G04 TopSilk*
%LPD*%
X494929Y1192858D2*
D29*
X394142D1*
Y979079D1*
X448079Y925142D1*
X494929D1*
X561071Y1192858D2*
X661858D1*
Y979079D1*
X607921Y925142D1*
X561071D1*
X1088976Y1192858D2*
X988189D1*
Y979079D1*
X1042126Y925142D1*
X1088976D1*
X1155118Y1192858D2*
X1255906D1*
Y979079D1*
X1201969Y925142D1*
X1155118D1*
X3800000Y1350215D2*
D10*
Y1287286D1*
X3807449Y1350215D2*
Y1287286D1*
Y1350215D2*
X3783890D1*
X3807449Y1287286D2*
X3783890D1*
X1679528Y1192858D2*
D29*
X1578740D1*
Y979079D1*
X1632677Y925142D1*
X1679528D1*
X1745669Y1192858D2*
X1846457D1*
Y979079D1*
X1792520Y925142D1*
X1745669D1*
X2270079Y1192858D2*
X2169291D1*
Y979079D1*
X2223228Y925142D1*
X2270079D1*
X2336220Y1192858D2*
X2437008D1*
Y979079D1*
X2383071Y925142D1*
X2336220D1*
X2714025Y259990D2*
D13*
X2723474D1*
X2714025Y202509D2*
X2723474D1*
X2714025Y334990D2*
X2723474D1*
X2714025Y277509D2*
X2723474D1*
X2751525Y716240D2*
X2760974D1*
X2751525Y658760D2*
X2760974D1*
X2751525Y791240D2*
X2760974D1*
X2751525Y733760D2*
X2760974D1*
X3188189Y169291D2*
D29*
X3181890D1*
X3188189Y192913D2*
X3181890D1*
X3232283Y195226D2*
Y201525D1*
X3255906Y195226D2*
Y201525D1*
X3621072Y1279385D2*
D10*
Y1259696D1*
X3384848D1*
Y1279385D1*
X3621072Y1358117D2*
Y1377806D1*
X3384848D1*
Y1358117D1*
X3522626Y1279385D2*
Y1358117D1*
G36*
X3650594Y1328589D2*
X3651879Y1328505D1*
X3653141Y1328254D1*
X3654360Y1327840D1*
X3655514Y1327271D1*
X3656584Y1326556D1*
X3657551Y1325708D1*
X3658400Y1324740D1*
X3659115Y1323670D1*
X3659684Y1322516D1*
X3660098Y1321297D1*
X3660349Y1320035D1*
X3660433Y1318751D1*
X3660349Y1317466D1*
X3660098Y1316204D1*
X3659684Y1314986D1*
X3659115Y1313831D1*
X3658400Y1312761D1*
X3657551Y1311794D1*
X3656584Y1310945D1*
X3655514Y1310230D1*
X3654360Y1309661D1*
X3653141Y1309247D1*
X3651879Y1308996D1*
X3650594Y1308912D1*
X3650576D1*
X3649292Y1308996D1*
X3648030Y1309247D1*
X3646811Y1309661D1*
X3645657Y1310230D1*
X3644587Y1310945D1*
X3643619Y1311794D1*
X3642771Y1312761D1*
X3642056Y1313831D1*
X3641486Y1314986D1*
X3641073Y1316204D1*
X3640822Y1317466D1*
X3640738Y1318751D1*
X3640822Y1320035D1*
X3641073Y1321297D1*
X3641486Y1322516D1*
X3642056Y1323670D1*
X3642771Y1324740D1*
X3643619Y1325708D1*
X3644587Y1326556D1*
X3645657Y1327271D1*
X3646811Y1327840D1*
X3648030Y1328254D1*
X3649292Y1328505D1*
X3650576Y1328589D1*
X3650594D1*
G37*
X3098671Y371211D2*
D10*
Y591290D1*
X2838828D1*
Y371211D1*
X3098671D1*
G36*
X3047490Y371014D2*
Y591487D1*
X2988434D1*
Y371014D1*
X3047490D1*
G37*
G36*
X3165600Y378888D2*
X3165364Y375291D1*
X3164661Y371756D1*
X3163502Y368342D1*
X3161908Y365109D1*
X3159905Y362112D1*
X3157528Y359401D1*
X3154818Y357024D1*
X3151820Y355022D1*
X3148587Y353427D1*
X3145173Y352268D1*
X3141638Y351565D1*
X3138041Y351329D1*
X3134444Y351565D1*
X3130908Y352268D1*
X3127494Y353427D1*
X3124261Y355022D1*
X3121264Y357024D1*
X3118553Y359401D1*
X3116177Y362112D1*
X3114174Y365109D1*
X3112579Y368342D1*
X3111421Y371756D1*
X3110717Y375291D1*
X3110482Y378888D1*
Y382825D1*
X3110717Y386423D1*
X3111421Y389958D1*
X3112579Y393372D1*
X3114174Y396605D1*
X3116177Y399602D1*
X3118553Y402313D1*
X3121264Y404690D1*
X3124261Y406692D1*
X3127494Y408287D1*
X3130908Y409445D1*
X3134444Y410149D1*
X3138041Y410385D1*
X3141638Y410149D1*
X3145173Y409445D1*
X3148587Y408287D1*
X3151820Y406692D1*
X3154818Y404690D1*
X3157528Y402313D1*
X3159905Y399602D1*
X3161908Y396605D1*
X3163502Y393372D1*
X3164661Y389958D1*
X3165364Y386423D1*
X3165600Y382825D1*
Y378888D1*
G37*
X287402Y311024D2*
D10*
Y84646D1*
X775591D1*
Y311024D1*
X287402D1*
X344488Y118110D2*
Y88583D1*
X423228D1*
Y118110D1*
X344488D1*
X639764D2*
Y88583D1*
X718504D1*
Y118110D1*
X639764D1*
X877953Y311024D2*
Y84646D1*
X1366142D1*
Y311024D1*
X877953D1*
X935039Y118110D2*
Y88583D1*
X1013780D1*
Y118110D1*
X935039D1*
X1230315D2*
Y88583D1*
X1309055D1*
Y118110D1*
X1230315D1*
X2383356Y1430321D2*
X2375755D1*
X3834956Y1430375D2*
X2009056Y1430308D1*
X3909056Y1430377D2*
X3834956Y1430375D1*
X3909052Y1530377D2*
X3909056Y1430377D1*
X3909052Y1530377D2*
X2009052Y1530308D1*
X2009056Y1430308D1*
X2383356Y1530321D2*
X2375755D1*
X3834956Y1530375D2*
X2009056Y1530308D1*
X3909056Y1530377D2*
X3834956Y1530375D1*
X3909052Y1630377D2*
X3909056Y1530377D1*
X3909052Y1630377D2*
X2009052Y1630308D1*
X2009056Y1530308D1*
X2383356Y2430321D2*
X2375755D1*
X3834956Y2430375D2*
X2009056Y2430308D1*
X3909056Y2430377D2*
X3834956Y2430375D1*
X3909052Y2530377D2*
X3909056Y2430377D1*
X3909052Y2530377D2*
X2009052Y2530308D1*
X2009056Y2430308D1*
X1468504Y311024D2*
Y84646D1*
X1956693D1*
Y311024D1*
X1468504D1*
X1525591Y118110D2*
Y88583D1*
X1604331D1*
Y118110D1*
X1525591D1*
X1820866D2*
Y88583D1*
X1899606D1*
Y118110D1*
X1820866D1*
X2059055Y311024D2*
Y84646D1*
X2547244D1*
Y311024D1*
X2059055D1*
X2116142Y118110D2*
Y88583D1*
X2194882D1*
Y118110D1*
X2116142D1*
X2411417D2*
Y88583D1*
X2490157D1*
Y118110D1*
X2411417D1*
X1251919Y2636416D2*
Y2862794D1*
X960580D1*
Y2636416D1*
X1251919D1*
X1194832Y2829329D2*
Y2858857D1*
X1116092D1*
Y2829329D1*
X1194832D1*
X1096407D2*
Y2858857D1*
X1017667D1*
Y2829329D1*
X1096407D1*
X908132Y2636419D2*
X908127Y2862797D1*
X616789Y2862791D1*
X616794Y2636413D1*
X908132Y2636419D1*
X851042Y2829331D2*
X851041Y2858859D1*
X772301Y2858857D1*
Y2829330D1*
X851042Y2829331D1*
X752616Y2829329D2*
Y2858857D1*
X673876Y2858855D1*
Y2829327D1*
X752616Y2829329D1*
X576919Y2636416D2*
Y2862794D1*
X285580D1*
Y2636416D1*
X576919D1*
X519832Y2829329D2*
Y2858857D1*
X441092D1*
Y2829329D1*
X519832D1*
X421407D2*
Y2858857D1*
X342667D1*
Y2829329D1*
X421407D1*
X1639420Y2636416D2*
Y2862794D1*
X1348081D1*
Y2636416D1*
X1639420D1*
X1582333Y2829329D2*
Y2858857D1*
X1503593D1*
Y2829329D1*
X1582333D1*
X1483908D2*
Y2858857D1*
X1405168D1*
Y2829329D1*
X1483908D1*
X3570669Y2636416D2*
Y2862794D1*
X3279331D1*
Y2636416D1*
X3570669D1*
X3513583Y2829329D2*
Y2858857D1*
X3434843D1*
Y2829329D1*
X3513583D1*
X3415157D2*
Y2858857D1*
X3336417D1*
Y2829329D1*
X3415157D1*
X3120669Y2636416D2*
Y2862794D1*
X2829331D1*
Y2636416D1*
X3120669D1*
X3063583Y2829329D2*
Y2858857D1*
X2984843D1*
Y2829329D1*
X3063583D1*
X2965157D2*
Y2858857D1*
X2886417D1*
Y2829329D1*
X2965157D1*
X2670669Y2636416D2*
Y2862794D1*
X2379331D1*
Y2636416D1*
X2670669D1*
X2613583Y2829329D2*
Y2858857D1*
X2534843D1*
Y2829329D1*
X2613583D1*
X2515157D2*
Y2858857D1*
X2436417D1*
Y2829329D1*
X2515157D1*
X2220671Y2636416D2*
Y2862794D1*
X1929332D1*
Y2636416D1*
X2220671D1*
X2163584Y2829329D2*
Y2858857D1*
X2084844D1*
Y2829329D1*
X2163584D1*
X2065159D2*
Y2858857D1*
X1986419D1*
Y2829329D1*
X2065159D1*
X3616142Y898081D2*
X3842520D1*
Y1189420D1*
X3616142D1*
Y898081D1*
X3809055Y955168D2*
X3838583D1*
Y1033908D1*
X3809055D1*
Y955168D1*
Y1053593D2*
X3838583D1*
Y1132333D1*
X3809055D1*
Y1053593D1*
X1510787Y1624985D2*
X1510801Y1424985D1*
X1910801Y1425015D1*
X1910787Y1625015D1*
X1510787Y1624985D1*
X3080954Y616387D2*
Y821112D1*
X2868356D1*
Y616387D1*
X3080954D1*
G36*
X1106249Y2554083D2*
X1087499Y2529083D1*
X1125000D1*
D1*
X1106249Y2554083D1*
G37*
X1075000D2*
D24*
X1137499D1*
X1076722Y2616730D2*
X1135777D1*
G36*
X431249Y2562500D2*
X412499Y2537500D1*
X450000D1*
D1*
X431249Y2562500D1*
G37*
X400000D2*
D24*
X462499D1*
X401722Y2625147D2*
X460777D1*
G36*
X1487500Y2554083D2*
X1468749Y2529083D1*
X1506251D1*
D1*
X1487500Y2554083D1*
G37*
X1456251D2*
D24*
X1518749D1*
X1457972Y2616730D2*
X1517028D1*
G36*
X768749Y2562500D2*
X749999Y2537500D1*
X787500D1*
D1*
X768749Y2562500D1*
G37*
X737500D2*
D24*
X799999D1*
X739222Y2625147D2*
X798277D1*
G36*
X3165993Y1194685D2*
X3147243Y1169685D1*
X3184744D1*
D1*
X3165993Y1194685D1*
G37*
X3134744D2*
D24*
X3197243D1*
X3136466Y1257332D2*
X3195521D1*
X1286171Y1298475D2*
D10*
Y2952018D1*
X26328D1*
Y1298475D1*
X1286171D1*
X2278493Y2405562D2*
D13*
X2284005D1*
X2278493Y2381940D2*
X2284005D1*
X692882Y413418D2*
D10*
Y436977D1*
X629953Y413417D2*
Y436976D1*
X433040Y413418D2*
X433039Y436977D1*
X370110Y413417D2*
Y436976D1*
X1281906Y413417D2*
Y436976D1*
X1218976Y413417D2*
Y436976D1*
X1026106Y413417D2*
Y436976D1*
X963177Y413417D2*
Y436976D1*
X1873245Y413417D2*
Y436976D1*
X1810316Y413417D2*
Y436976D1*
X1614655Y413417D2*
Y436976D1*
X1551726Y413417D2*
Y436976D1*
X2461533Y413417D2*
Y436976D1*
X2398604Y413417D2*
Y436976D1*
X2206958Y413417D2*
Y436976D1*
X2144029Y413417D2*
Y436976D1*
X917417Y1792764D2*
D13*
Y1787252D1*
X893795Y1792764D2*
Y1787252D1*
X817398Y1792764D2*
Y1787252D1*
X793776Y1792764D2*
Y1787252D1*
X720945Y1792764D2*
Y1787252D1*
X697323Y1792764D2*
Y1787252D1*
X614348Y1792764D2*
Y1787252D1*
X590726Y1792764D2*
Y1787252D1*
X3209745Y2674311D2*
X3215257D1*
X3209745Y2650689D2*
X3215257D1*
X2772244Y2680562D2*
X2777756D1*
X2772244Y2656940D2*
X2777756D1*
X3209745Y2774311D2*
X3215257D1*
X3209745Y2750689D2*
X3215257D1*
X2772242Y2782085D2*
X2777754D1*
X2772243Y2758463D2*
X2777755D1*
X952744Y1787252D2*
Y1792764D1*
X976366Y1787252D2*
Y1792764D1*
X846959Y1787252D2*
Y1792764D1*
X870581Y1787252D2*
Y1792764D1*
X742596Y1787252D2*
Y1792764D1*
X766218Y1787252D2*
Y1792764D1*
X544291Y1787252D2*
Y1792764D1*
X567913Y1787252D2*
Y1792764D1*
X1193062Y2554525D2*
Y2549013D1*
X1169440Y2554525D2*
Y2549013D1*
X511812Y2554525D2*
Y2549013D1*
X488190Y2554525D2*
Y2549013D1*
X1568060Y2554525D2*
Y2549013D1*
X1544438Y2554525D2*
Y2549013D1*
X843062Y2554525D2*
Y2549013D1*
X819440Y2554525D2*
Y2549013D1*
X2303247Y2672341D2*
X2308759D1*
X2303247Y2648719D2*
X2308759D1*
X1859744Y2655560D2*
X1865256D1*
X1859744Y2631938D2*
X1865256D1*
X2303247Y2782085D2*
X2308759D1*
X2303247Y2758463D2*
X2308759D1*
X1859744Y2771948D2*
X1865256D1*
X1859744Y2748325D2*
X1865256D1*
X3027756Y81938D2*
X3022244D1*
X3027756Y105560D2*
X3022244D1*
X3102804Y1184941D2*
Y1179429D1*
X3079182Y1184941D2*
Y1179429D1*
X2896457Y82677D2*
X2890945D1*
X2896457Y106299D2*
X2890945D1*
X3187795Y204724D2*
X3182283D1*
X3187795Y228346D2*
X3182283D1*
X3109005Y81938D2*
X3103493D1*
X3109005Y105560D2*
X3103493D1*
X3975000Y1734135D2*
D10*
X3949980Y1759110D1*
X3975000Y1684118D2*
Y2359118D1*
X3375000D1*
Y1684118D1*
X3975000D1*
X3949980Y1759110D2*
Y2284126D1*
X3975000Y2309101D1*
X3949980Y2009131D2*
X3775020D1*
X3799980Y1959113D1*
X3775020Y2009131D2*
X3799980Y2059148D1*
X3591289Y261909D2*
X4063730D1*
Y714665D1*
X3591289D1*
Y261909D1*
X3797982Y301280D2*
X4063730D1*
Y675295D1*
X3797982D1*
Y301280D1*
G36*
X656494Y600100D2*
X656387Y598469D1*
X656068Y596865D1*
X655543Y595317D1*
X654819Y593850D1*
X653911Y592491D1*
X652833Y591262D1*
X651604Y590183D1*
X650244Y589275D1*
X648778Y588552D1*
X647229Y588026D1*
X645626Y587707D1*
X643994Y587600D1*
X642363Y587707D1*
X640759Y588026D1*
X639211Y588552D1*
X637744Y589275D1*
X636385Y590183D1*
X635155Y591262D1*
X634077Y592491D1*
X633169Y593850D1*
X632446Y595317D1*
X631920Y596865D1*
X631601Y598469D1*
X631494Y600100D1*
Y600988D1*
X631601Y602619D1*
X631920Y604223D1*
X632446Y605771D1*
X633169Y607238D1*
X634077Y608597D1*
X635155Y609826D1*
X636385Y610904D1*
X637744Y611813D1*
X639211Y612536D1*
X640759Y613062D1*
X642363Y613381D1*
X643994Y613488D1*
X645626Y613381D1*
X647229Y613062D1*
X648778Y612536D1*
X650244Y611813D1*
X651604Y610904D1*
X652833Y609826D1*
X653911Y608597D1*
X654819Y607238D1*
X655543Y605771D1*
X656068Y604223D1*
X656387Y602619D1*
X656494Y600988D1*
Y600100D1*
G37*
X614896Y602852D2*
D48*
X641242D1*
X421740Y629199D2*
Y602852D1*
X448089Y822355D2*
X421740D1*
X641242D2*
X614896D1*
X421740D2*
Y796006D1*
Y602852D2*
X448089D1*
X641242D2*
Y629199D1*
Y796006D2*
Y822355D1*
G36*
X1247049Y600102D2*
X1246942Y598470D1*
X1246623Y596866D1*
X1246098Y595318D1*
X1245374Y593852D1*
X1244466Y592492D1*
X1243388Y591263D1*
X1242159Y590185D1*
X1240799Y589276D1*
X1239333Y588553D1*
X1237784Y588027D1*
X1236181Y587708D1*
X1234549Y587601D1*
X1232918Y587708D1*
X1231314Y588027D1*
X1229766Y588553D1*
X1228299Y589276D1*
X1226940Y590184D1*
X1225710Y591262D1*
X1224632Y592492D1*
X1223724Y593851D1*
X1223001Y595318D1*
X1222475Y596866D1*
X1222156Y598470D1*
X1222049Y600101D1*
Y600988D1*
X1222156Y602620D1*
X1222475Y604224D1*
X1223000Y605772D1*
X1223723Y607238D1*
X1224632Y608598D1*
X1225710Y609827D1*
X1226939Y610905D1*
X1228299Y611814D1*
X1229765Y612537D1*
X1231313Y613063D1*
X1232917Y613382D1*
X1234549Y613489D1*
X1236180Y613382D1*
X1237784Y613063D1*
X1239332Y612537D1*
X1240799Y611814D1*
X1242158Y610906D1*
X1243388Y609828D1*
X1244466Y608598D1*
X1245374Y607239D1*
X1246097Y605772D1*
X1246623Y604224D1*
X1246942Y602620D1*
X1247049Y600989D1*
Y600102D1*
G37*
X1205450Y602853D2*
D48*
X1231797D1*
X1012294Y629195D2*
Y602848D1*
X1038639Y822352D2*
X1012289Y822351D1*
X1231792Y822356D2*
X1205446Y822355D1*
X1012289Y822351D2*
X1012290Y796002D1*
X1012294Y602848D2*
X1038643Y602849D1*
X1231797Y602853D2*
X1231796Y629200D1*
X1231793Y796007D2*
X1231792Y822356D1*
G36*
X1835792Y600100D2*
X1835685Y598469D1*
X1835366Y596865D1*
X1834840Y595317D1*
X1834117Y593850D1*
X1833209Y592491D1*
X1832131Y591262D1*
X1830902Y590183D1*
X1829542Y589275D1*
X1828076Y588552D1*
X1826527Y588026D1*
X1824924Y587707D1*
X1823292Y587600D1*
X1821660Y587707D1*
X1820057Y588026D1*
X1818508Y588552D1*
X1817042Y589275D1*
X1815682Y590183D1*
X1814453Y591262D1*
X1813375Y592491D1*
X1812467Y593850D1*
X1811744Y595317D1*
X1811218Y596865D1*
X1810899Y598469D1*
X1810792Y600100D1*
Y600988D1*
X1810899Y602619D1*
X1811218Y604223D1*
X1811744Y605771D1*
X1812467Y607238D1*
X1813375Y608597D1*
X1814453Y609826D1*
X1815682Y610904D1*
X1817042Y611813D1*
X1818508Y612536D1*
X1820057Y613062D1*
X1821660Y613381D1*
X1823292Y613488D1*
X1824924Y613381D1*
X1826527Y613062D1*
X1828076Y612536D1*
X1829542Y611813D1*
X1830902Y610904D1*
X1832131Y609826D1*
X1833209Y608597D1*
X1834117Y607238D1*
X1834840Y605771D1*
X1835366Y604223D1*
X1835685Y602619D1*
X1835792Y600988D1*
Y600100D1*
G37*
X1794194Y602852D2*
D48*
X1820540D1*
X1601037Y629199D2*
Y602852D1*
X1627386Y822355D2*
X1601037D1*
X1820540D2*
X1794194D1*
X1601037D2*
Y796006D1*
Y602852D2*
X1627386D1*
X1820540D2*
Y629199D1*
Y796006D2*
Y822355D1*
G36*
X2426347Y600102D2*
X2426240Y598470D1*
X2425921Y596866D1*
X2425395Y595318D1*
X2424672Y593852D1*
X2423764Y592492D1*
X2422686Y591263D1*
X2421457Y590185D1*
X2420097Y589276D1*
X2418631Y588553D1*
X2417082Y588027D1*
X2415479Y587708D1*
X2413847Y587601D1*
X2412216Y587708D1*
X2410612Y588027D1*
X2409064Y588553D1*
X2407597Y589276D1*
X2406238Y590184D1*
X2405008Y591262D1*
X2403930Y592492D1*
X2403022Y593851D1*
X2402298Y595318D1*
X2401773Y596866D1*
X2401454Y598470D1*
X2401347Y600101D1*
Y600988D1*
X2401454Y602620D1*
X2401773Y604224D1*
X2402298Y605772D1*
X2403021Y607238D1*
X2403930Y608598D1*
X2405008Y609827D1*
X2406237Y610905D1*
X2407597Y611814D1*
X2409063Y612537D1*
X2410611Y613063D1*
X2412215Y613382D1*
X2413847Y613489D1*
X2415478Y613382D1*
X2417082Y613063D1*
X2418630Y612537D1*
X2420097Y611814D1*
X2421456Y610906D1*
X2422685Y609828D1*
X2423764Y608598D1*
X2424672Y607239D1*
X2425395Y605772D1*
X2425921Y604224D1*
X2426240Y602620D1*
X2426347Y600989D1*
Y600102D1*
G37*
X2384748Y602853D2*
D48*
X2411095D1*
X2191592Y629195D2*
Y602848D1*
X2217936Y822352D2*
X2191587Y822351D1*
X2411090Y822356D2*
X2384744Y822355D1*
X2191587Y822351D2*
X2191588Y796002D1*
X2191592Y602848D2*
X2217941Y602849D1*
X2411095Y602853D2*
X2411094Y629200D1*
X2411091Y796007D2*
X2411090Y822356D1*
X707360Y2189840D2*
D10*
Y1992987D1*
X833328Y2189840D2*
Y1992987D1*
X707360D2*
X833328D1*
X707360Y2189840D2*
X750656D1*
X790031D2*
X833328D1*
X750656D2*
G03X790031Y2189840I19688J1D01*
G01*
X3035671Y318504D2*
X2907714D1*
Y131496D1*
X3035671D1*
Y318504D1*
G36*
X2917573D2*
X2918858Y318420D1*
X2920121Y318168D1*
X2921341Y317754D1*
X2922496Y317185D1*
X2923567Y316469D1*
X2924535Y315620D1*
X2925384Y314652D1*
X2926100Y313581D1*
X2926669Y312426D1*
X2927083Y311206D1*
X2927334Y309943D1*
X2927419Y308658D1*
X2927334Y307373D1*
X2927083Y306110D1*
X2926669Y304890D1*
X2926100Y303735D1*
X2925384Y302664D1*
X2924535Y301696D1*
X2923567Y300847D1*
X2922496Y300131D1*
X2921341Y299562D1*
X2920121Y299148D1*
X2918858Y298897D1*
X2917573Y298812D1*
X2917560D1*
X2916275Y298897D1*
X2915011Y299148D1*
X2913792Y299562D1*
X2912637Y300131D1*
X2911566Y300847D1*
X2910598Y301696D1*
X2909749Y302664D1*
X2909033Y303735D1*
X2908463Y304890D1*
X2908049Y306110D1*
X2907798Y307373D1*
X2907714Y308658D1*
X2907798Y309943D1*
X2908049Y311206D1*
X2908463Y312426D1*
X2909033Y313581D1*
X2909749Y314652D1*
X2910598Y315620D1*
X2911566Y316469D1*
X2912637Y317185D1*
X2913792Y317754D1*
X2915011Y318168D1*
X2916275Y318420D1*
X2917560Y318504D1*
X2917573D1*
G37*
G36*
X2996316D2*
X2947096D1*
Y298812D1*
X2996316D1*
Y318504D1*
G37*
X619587Y2938832D2*
D10*
X759348D1*
Y2861517D1*
X619587D1*
Y2938832D1*
X759348D2*
X910925D1*
Y2861517D1*
X759348D1*
Y2938832D1*
X959547Y2935814D2*
X1106425D1*
Y2861517D1*
X959547D1*
Y2935814D1*
X1106425D2*
X1250886D1*
Y2861517D1*
X1106425D1*
Y2935814D1*
X1352360Y2948176D2*
X1497811D1*
Y2859266D1*
X1352360D1*
Y2948176D1*
X1497811D2*
X1643698D1*
Y2859266D1*
X1497811D1*
Y2948176D1*
X283173Y2946346D2*
X430404D1*
Y2858812D1*
X283173D1*
Y2946346D1*
X430404D2*
X574512D1*
Y2858812D1*
X430404D1*
Y2946346D1*
G36*
X508123Y64255D2*
X506154Y62287D1*
X504842Y60318D1*
X502873Y56381D1*
X502217Y54413D1*
X501561Y51788D1*
X500905Y48507D1*
Y37353D1*
X501561Y34072D1*
X502217Y31447D1*
X502873Y29479D1*
X504842Y25542D1*
X506154Y23573D1*
X510091Y19636D1*
X512060Y18324D1*
X514684Y17011D1*
X516653Y16355D1*
X519934Y15699D1*
X527808D1*
X530432Y16355D1*
X532401Y17011D1*
X536338Y18980D1*
X538306Y20292D1*
X540275Y22261D1*
X542243Y24885D1*
X544868Y30135D1*
X545524Y32103D1*
X546180Y34728D1*
X546837Y39977D1*
Y45883D1*
X546180Y51132D1*
X545524Y53757D1*
X544868Y55725D1*
X542243Y60975D1*
X540931Y62943D1*
X538306Y65568D1*
X536338Y66880D1*
X532401Y68849D1*
X530432Y69505D1*
X527808Y70161D1*
X519934D1*
X514684Y68849D1*
X512060Y67536D1*
X510091Y66224D1*
X508123Y64255D1*
X519934D1*
X522558Y64912D1*
X525183D1*
X527808Y64255D1*
X529776Y63599D1*
X532401Y62287D1*
X533057Y61631D1*
X534369Y60975D1*
X534898Y60127D1*
X535026Y59662D1*
X536994Y57038D1*
X537650Y55725D1*
X538306Y53757D1*
X538963Y51132D1*
X539619Y47195D1*
X540275Y46539D1*
Y39321D1*
X539619Y38665D1*
X538963Y34072D1*
X537650Y30135D1*
X536994Y28822D1*
Y28166D1*
X532401Y23573D1*
X529776Y22261D1*
X527808Y21605D1*
X525183Y20948D1*
X522558D1*
X519934Y21605D1*
X517965Y22261D1*
X514028Y24229D1*
X512060Y26198D1*
Y26854D1*
X510747Y28822D1*
X509435Y31447D1*
X508779Y33416D1*
X508123Y36696D1*
X507466Y37353D1*
Y48507D1*
X508123Y49164D1*
X508779Y52444D1*
X510091Y56381D1*
X511404Y58350D1*
Y59006D1*
X514028Y61631D1*
X515341Y62287D1*
X515997Y62943D1*
X517309Y63599D1*
X519934Y64255D1*
X508123D1*
G37*
G36*
X601299D2*
X599330Y62287D1*
X598018Y60318D1*
X596049Y56381D1*
X595393Y54413D1*
X594737Y51788D1*
X594081Y48507D1*
Y37353D1*
X594737Y34072D1*
X595393Y31447D1*
X596049Y29479D1*
X598018Y25542D1*
X599330Y23573D1*
X603267Y19636D1*
X605236Y18324D1*
X607860Y17011D1*
X609829Y16355D1*
X613110Y15699D1*
X620984D1*
X623608Y16355D1*
X625577Y17011D1*
X629514Y18980D1*
X631482Y20292D1*
X633451Y22261D1*
X635419Y24885D1*
X638044Y30135D1*
X638700Y32103D1*
X639356Y34728D1*
X640012Y39977D1*
Y45883D1*
X639356Y51132D1*
X638700Y53757D1*
X638044Y55725D1*
X635419Y60975D1*
X634107Y62943D1*
X631482Y65568D1*
X629514Y66880D1*
X625577Y68849D1*
X623608Y69505D1*
X620984Y70161D1*
X613110D1*
X607860Y68849D1*
X605236Y67536D1*
X603267Y66224D1*
X601299Y64255D1*
X613110D1*
X615734Y64912D1*
X618359D1*
X620984Y64255D1*
X622952Y63599D1*
X625577Y62287D1*
X626233Y61631D1*
X627545Y60975D1*
X628074Y60127D1*
X628201Y59662D1*
X630170Y57038D1*
X630826Y55725D1*
X631482Y53757D1*
X632138Y51132D1*
X632795Y47195D1*
X633451Y46539D1*
Y39321D1*
X632795Y38665D1*
X632138Y34072D1*
X630826Y30135D1*
X630170Y28822D1*
Y28166D1*
X625577Y23573D1*
X622952Y22261D1*
X620984Y21605D1*
X618359Y20948D1*
X615734D1*
X613110Y21605D1*
X611141Y22261D1*
X607204Y24229D1*
X605236Y26198D1*
Y26854D1*
X603923Y28822D1*
X602611Y31447D1*
X601955Y33416D1*
X601299Y36696D1*
X600642Y37353D1*
Y48507D1*
X601299Y49164D1*
X601955Y52444D1*
X603267Y56381D1*
X604579Y58350D1*
Y59006D1*
X607204Y61631D1*
X608516Y62287D1*
X609173Y62943D1*
X610485Y63599D1*
X613110Y64255D1*
X601299D1*
G37*
G36*
X375577Y68849D2*
X376105Y68001D1*
X376233Y67536D1*
X376889Y66224D1*
X378201Y64255D1*
X378858Y62943D1*
X381482Y59006D1*
X382138Y57694D1*
X384763Y53757D1*
X385419Y52444D1*
X386732Y50476D1*
X387388Y49164D1*
X390012Y45227D1*
X390669Y43914D1*
X391165Y43032D1*
X391099Y42441D1*
X390669Y41946D1*
X389356Y39977D1*
X388700Y38665D1*
X384763Y32759D1*
X384107Y31447D1*
X380170Y25542D1*
X379514Y24229D1*
X375577Y18324D1*
X374921Y17011D1*
X381482D1*
X382795Y18324D1*
X384107Y20292D1*
X384763Y21605D1*
X387388Y25542D1*
X388044Y26854D1*
X390669Y30791D1*
X391325Y32103D1*
X393949Y36040D1*
X394085Y36485D1*
X394679Y37073D1*
X395262Y37353D1*
X396574Y36040D1*
Y35384D1*
X397230Y34072D1*
X399855Y30135D1*
X400511Y28822D1*
X401823Y26854D1*
X402480Y25542D1*
X405104Y21605D1*
X405760Y20292D1*
X407073Y18324D1*
X407729Y17011D1*
X414947D1*
Y17668D1*
X414291Y18980D1*
X411666Y22917D1*
X411010Y24229D1*
X409697Y26198D1*
X409041Y27510D1*
X406417Y31447D1*
X405760Y32759D1*
X403136Y36696D1*
X402480Y38009D1*
X401167Y39977D1*
X400511Y41290D1*
X399199Y42602D1*
Y43914D1*
X400511Y45227D1*
X401167Y46539D1*
X405104Y52444D1*
X405760Y53757D1*
X409697Y59662D1*
X410354Y60975D1*
X414291Y66880D1*
X414947Y68192D1*
Y68849D1*
X408385D1*
X405760Y64912D1*
X405104Y63599D1*
X402480Y59662D1*
X401823Y58350D1*
X399199Y54413D1*
X398543Y53101D1*
X397230Y51132D1*
X396574Y49820D1*
X396335Y49013D1*
X395637Y48454D1*
X395043Y48558D1*
X394387Y49325D1*
X394606Y49820D1*
X393293Y51788D1*
X392637Y53101D1*
X391325Y55069D1*
X390669Y56381D1*
X388044Y60318D1*
X387388Y61631D1*
X386075Y63599D1*
X385419Y64912D1*
X384107Y66880D1*
X383451Y68192D1*
X382795Y68849D1*
X375577D1*
G37*
G36*
X448411D2*
Y17011D1*
X453661D1*
Y60975D1*
X454151Y61396D1*
X454491Y61358D1*
X454973Y60975D1*
X455629Y59006D1*
X457598Y55069D1*
X458254Y53101D1*
X460222Y49164D1*
X460879Y47195D1*
X462847Y43258D1*
X463503Y41290D1*
X464816Y38665D1*
X465472Y36696D1*
X468096Y31447D1*
X472033D1*
X473346Y34072D1*
X474002Y36040D1*
X475970Y39977D1*
X476627Y41946D1*
X478595Y45883D1*
X479251Y47851D1*
X481220Y51788D1*
X481876Y53757D1*
X483844Y57694D1*
X484501Y59662D1*
X484831Y60314D1*
X485187Y60920D1*
X485652Y61385D1*
X485988Y61355D1*
X486469Y60975D1*
Y17011D1*
X492375D1*
Y68849D1*
X483188D1*
X482532Y67536D1*
X481876Y65568D1*
X479907Y61631D1*
X479251Y59662D1*
X477939Y57038D1*
X477283Y55069D1*
X475970Y52444D1*
X475314Y50476D1*
X473346Y46539D1*
X472690Y44570D1*
X471377Y41946D1*
Y40633D1*
X470577Y39949D1*
X469819Y40033D1*
X469409Y40633D1*
Y41946D1*
X467440Y45883D1*
X466784Y47851D1*
X464159Y53101D1*
X463503Y55069D1*
X461535Y59006D1*
X460879Y60975D1*
X458254Y66224D1*
X457598Y68192D1*
X456942Y68849D1*
X448411D1*
G37*
G36*
X549461D2*
Y63599D1*
X567178Y62943D1*
Y17011D1*
X573739D1*
Y62943D1*
X590800Y63599D1*
Y68849D1*
X549461D1*
G37*
G36*
X647886Y62943D2*
Y17011D1*
X654448D1*
Y37353D1*
X657510Y38009D1*
X660572D1*
X663634Y37353D1*
Y36696D1*
X668884Y30135D1*
X670852Y27510D1*
X676102Y20948D1*
X678070Y18324D1*
X679383Y17011D1*
X687913D1*
X682663Y23573D1*
X679383Y27510D1*
X671508Y37353D1*
X669540Y39321D1*
X670196Y39977D1*
X672821Y41290D1*
X674789Y42602D1*
X677414Y45227D1*
X678726Y47195D1*
X680039Y51132D1*
Y59006D1*
X678070Y62943D1*
X674789Y66224D1*
X672165Y67536D1*
X670196Y68192D1*
X666915Y68849D1*
X647886D1*
Y62943D1*
X654448D1*
X658604Y63599D1*
X662760D1*
X666915Y62943D1*
X668884Y62287D1*
X670196Y61631D1*
X672821Y59006D1*
Y58350D1*
X673477Y57694D1*
Y50476D1*
X672821Y49820D1*
X672165Y48507D1*
Y47851D1*
X669540Y45227D1*
X668228Y44570D1*
X665603Y43914D1*
X661885Y43258D1*
X658166D1*
X654448Y43914D1*
Y62943D1*
X647886D1*
G37*
G36*
X419540Y42602D2*
Y36696D1*
X438569D1*
Y42602D1*
X419540D1*
G37*
G36*
X3344737Y2936303D2*
Y2884465D1*
X3353267D1*
X3353923Y2885122D1*
X3355236Y2887746D1*
X3355892Y2889715D1*
X3357204Y2892339D1*
X3357860Y2894308D1*
X3359829Y2898245D1*
X3360485Y2900213D1*
X3361797Y2902838D1*
X3362453Y2904807D1*
X3363766Y2907431D1*
X3364422Y2909400D1*
X3365734Y2912024D1*
X3365841Y2912532D1*
X3366244Y2913070D1*
X3366567Y2913054D1*
X3367015Y2912614D1*
X3367367Y2912012D1*
X3367703Y2911368D1*
X3368359Y2909400D1*
X3370327Y2905463D1*
X3370984Y2903494D1*
X3373608Y2898245D1*
X3374264Y2896276D1*
X3376233Y2892339D1*
X3376889Y2890371D1*
X3379514Y2885122D1*
X3380170Y2884465D1*
X3388700D1*
Y2936303D1*
X3382795D1*
Y2892996D1*
X3382099Y2892283D1*
X3381761Y2892388D1*
X3381339Y2893111D1*
X3381482Y2893652D1*
X3380170Y2896276D1*
X3379514Y2898245D1*
X3377545Y2902182D1*
X3376889Y2904150D1*
X3374921Y2908087D1*
X3374264Y2910056D1*
X3372952Y2912681D1*
X3372296Y2914649D1*
X3370327Y2918586D1*
X3369671Y2920555D1*
X3369015Y2921867D1*
X3365078D1*
X3364422Y2921211D1*
X3363766Y2919242D1*
X3361797Y2915305D1*
X3361141Y2913337D1*
X3359173Y2909400D1*
X3358516Y2907431D1*
X3356548Y2903494D1*
X3355892Y2901526D1*
X3353923Y2897589D1*
X3353267Y2895620D1*
X3351955Y2892996D1*
X3351788Y2892221D1*
X3351260Y2891623D1*
X3350920Y2891733D1*
X3350642Y2892339D1*
Y2936303D1*
X3344737D1*
G37*
G36*
X3397886D2*
Y2931710D1*
X3405104Y2931053D1*
Y2889715D1*
X3397886Y2889059D1*
Y2884465D1*
X3417571D1*
Y2889059D1*
X3411010Y2889715D1*
Y2931053D1*
X3417571Y2931710D1*
Y2936303D1*
X3397886D1*
G37*
G36*
X3422165D2*
Y2931053D1*
X3445787Y2930397D1*
Y2884465D1*
X3451692D1*
Y2936303D1*
X3422165D1*
G37*
G36*
X3484501D2*
X3485029Y2935455D1*
X3485157Y2934990D1*
X3487781Y2931053D1*
X3488438Y2929741D1*
X3491062Y2925804D1*
X3491718Y2924492D1*
X3493031Y2922523D1*
X3493687Y2921211D1*
X3496312Y2917274D1*
X3496968Y2915961D1*
X3499592Y2912024D1*
X3499921Y2911368D1*
X3500199Y2910650D1*
X3500240Y2910047D1*
X3500226Y2909379D1*
X3500031Y2908602D1*
X3499592Y2908087D1*
X3495655Y2902182D1*
X3494999Y2900870D1*
X3491062Y2894964D1*
X3490406Y2893652D1*
X3485157Y2885778D1*
X3484501Y2884465D1*
X3491718D1*
X3492375Y2885778D1*
X3494999Y2889715D1*
X3495655Y2891027D1*
X3496968Y2892996D1*
X3497624Y2894308D1*
X3500249Y2898245D1*
X3500905Y2899557D1*
X3503529Y2903494D1*
X3503637Y2904002D1*
X3504039Y2904540D1*
X3504363Y2904524D1*
X3504842Y2904150D1*
X3506154Y2902182D1*
X3506810Y2900870D1*
X3509435Y2896933D1*
X3510091Y2895620D1*
X3511404Y2893652D1*
X3512060Y2892339D1*
X3513372Y2890371D1*
X3514028Y2889059D1*
X3516653Y2885122D1*
X3517309Y2884465D1*
X3524527D1*
X3523871Y2885778D1*
X3521246Y2889715D1*
X3520590Y2891027D1*
X3517965Y2894964D1*
X3517309Y2896276D1*
X3515997Y2898245D1*
X3515341Y2899557D1*
X3512716Y2903494D1*
X3512060Y2904807D1*
X3510747Y2906775D1*
X3510091Y2908087D1*
X3508779Y2909400D1*
Y2911368D1*
X3510091Y2912681D1*
X3510747Y2913993D1*
X3514684Y2919898D1*
X3515341Y2921211D1*
X3519278Y2927116D1*
X3519934Y2928429D1*
X3523871Y2934334D1*
X3524527Y2935647D1*
Y2936303D1*
X3517965D1*
X3515341Y2932366D1*
X3514684Y2931053D1*
X3512060Y2927116D1*
X3511404Y2925804D1*
X3508779Y2921867D1*
X3508123Y2920555D1*
X3506810Y2918586D1*
X3505823Y2916616D1*
X3505442Y2915931D1*
X3504801Y2915247D1*
X3504465Y2915354D1*
X3504042Y2916077D1*
X3504186Y2916618D1*
X3502873Y2918586D1*
X3502217Y2919898D1*
X3499592Y2923835D1*
X3498936Y2925148D1*
X3497624Y2927116D1*
X3496968Y2928429D1*
X3495655Y2930397D1*
X3494999Y2931710D1*
X3492375Y2935647D1*
X3491718Y2936303D1*
X3484501D1*
G37*
G36*
X3460879Y2916618D2*
Y2910712D1*
X3479907D1*
Y2916618D1*
X3460879D1*
G37*
G36*
X2882138Y2936303D2*
Y2884465D1*
X2890669D1*
X2891325Y2885122D1*
X2892637Y2887746D1*
X2893293Y2889715D1*
X2894606Y2892339D1*
X2895262Y2894308D1*
X2897230Y2898245D1*
X2897886Y2900213D1*
X2899199Y2902838D1*
X2899855Y2904807D1*
X2901167Y2907431D1*
X2901823Y2909400D1*
X2903136Y2912024D1*
X2903243Y2912532D1*
X2903645Y2913070D1*
X2903969Y2913054D1*
X2904417Y2912614D1*
X2904769Y2912012D1*
X2905104Y2911368D1*
X2905760Y2909400D1*
X2907729Y2905463D1*
X2908385Y2903494D1*
X2911010Y2898245D1*
X2911666Y2896276D1*
X2913634Y2892339D1*
X2914291Y2890371D1*
X2916915Y2885122D1*
X2917571Y2884465D1*
X2926102D1*
Y2936303D1*
X2920196D1*
Y2892996D1*
X2919500Y2892283D1*
X2919162Y2892388D1*
X2918741Y2893111D1*
X2918884Y2893652D1*
X2917571Y2896276D1*
X2916915Y2898245D1*
X2914947Y2902182D1*
X2914291Y2904150D1*
X2912322Y2908087D1*
X2911666Y2910056D1*
X2910354Y2912681D1*
X2909697Y2914649D1*
X2907729Y2918586D1*
X2907073Y2920555D1*
X2906417Y2921867D1*
X2902480D1*
X2901823Y2921211D1*
X2901167Y2919242D1*
X2899199Y2915305D1*
X2898543Y2913337D1*
X2896574Y2909400D1*
X2895918Y2907431D1*
X2893949Y2903494D1*
X2893293Y2901526D1*
X2891325Y2897589D1*
X2890669Y2895620D1*
X2889356Y2892996D1*
X2889190Y2892221D1*
X2888662Y2891623D1*
X2888322Y2891733D1*
X2888044Y2892339D1*
Y2936303D1*
X2882138D1*
G37*
G36*
X2935288D2*
Y2931710D1*
X2942506Y2931053D1*
Y2889715D1*
X2935288Y2889059D1*
Y2884465D1*
X2954973D1*
Y2889059D1*
X2948411Y2889715D1*
Y2931053D1*
X2954973Y2931710D1*
Y2936303D1*
X2935288D1*
G37*
G36*
X2959566D2*
Y2931053D1*
X2983188Y2930397D1*
Y2884465D1*
X2989094D1*
Y2936303D1*
X2959566D1*
G37*
G36*
X3038963D2*
Y2913993D1*
X3038306Y2913337D1*
X3037650Y2912024D1*
X3036338Y2910056D1*
X3035682Y2908744D1*
X3034369Y2906775D1*
X3033713Y2905463D1*
X3032401Y2903494D1*
X3031745Y2902182D1*
X3030432Y2900213D1*
X3029776Y2898901D1*
X3028464Y2896933D1*
X3027808Y2895620D1*
X3025183Y2891683D1*
X3024527Y2890371D1*
X3023215Y2888402D1*
X3022558Y2887090D1*
X3021246Y2885122D1*
Y2884465D1*
X3027808D1*
X3029120Y2886434D1*
X3029776Y2887746D1*
X3031089Y2889715D1*
X3031745Y2891027D1*
X3033057Y2892996D1*
X3033713Y2894308D1*
X3035026Y2896276D1*
X3035682Y2897589D1*
X3036994Y2899557D1*
X3038306Y2902182D1*
X3039619Y2904150D1*
X3040606Y2906115D1*
X3040961Y2906721D1*
X3041427Y2907186D1*
X3041762Y2907155D1*
X3042212Y2906709D1*
X3042564Y2906106D1*
X3043556Y2904150D1*
X3044868Y2902182D1*
X3045524Y2900870D1*
X3046837Y2898901D1*
X3048149Y2896276D1*
X3049461Y2894308D1*
X3050117Y2892996D1*
X3051430Y2891027D1*
X3052086Y2889715D1*
X3053398Y2887746D1*
X3054711Y2885122D1*
X3055367Y2884465D1*
X3062585D1*
X3061272Y2886434D1*
X3059960Y2889059D1*
X3058648Y2891027D1*
X3057991Y2892339D1*
X3056679Y2894308D1*
X3056023Y2895620D1*
X3054711Y2897589D1*
X3054054Y2898901D1*
X3052742Y2900870D1*
X3051430Y2903494D1*
X3050117Y2905463D1*
X3049461Y2906775D1*
X3048149Y2908744D1*
X3047493Y2910056D1*
X3046180Y2912024D1*
X3045524Y2913337D1*
X3044868Y2936303D1*
X3038963D1*
G37*
G36*
X2998280Y2916618D2*
Y2910712D1*
X3017309D1*
Y2916618D1*
X2998280D1*
G37*
G36*
X2443818Y2936303D2*
Y2884465D1*
X2452348D1*
X2453005Y2885122D1*
X2454317Y2887746D1*
X2454973Y2889715D1*
X2456285Y2892339D1*
X2456942Y2894308D1*
X2458910Y2898245D1*
X2459566Y2900213D1*
X2460879Y2902838D1*
X2461535Y2904807D1*
X2462847Y2907431D1*
X2463503Y2909400D1*
X2464816Y2912024D1*
X2464923Y2912532D1*
X2465325Y2913070D1*
X2465649Y2913054D1*
X2466097Y2912614D1*
X2466448Y2912012D1*
X2466784Y2911368D1*
X2467440Y2909400D1*
X2469409Y2905463D1*
X2470065Y2903494D1*
X2472690Y2898245D1*
X2473346Y2896276D1*
X2475314Y2892339D1*
X2475970Y2890371D1*
X2478595Y2885122D1*
X2479251Y2884465D1*
X2487781D1*
Y2936303D1*
X2481876D1*
Y2892996D1*
X2481180Y2892283D1*
X2480842Y2892388D1*
X2480421Y2893111D1*
X2480564Y2893652D1*
X2479251Y2896276D1*
X2478595Y2898245D1*
X2476627Y2902182D1*
X2475970Y2904150D1*
X2474002Y2908087D1*
X2473346Y2910056D1*
X2472033Y2912681D1*
X2471377Y2914649D1*
X2469409Y2918586D1*
X2468753Y2920555D1*
X2468096Y2921867D1*
X2464159D1*
X2463503Y2921211D1*
X2462847Y2919242D1*
X2460879Y2915305D1*
X2460222Y2913337D1*
X2458254Y2909400D1*
X2457598Y2907431D1*
X2455629Y2903494D1*
X2454973Y2901526D1*
X2453005Y2897589D1*
X2452348Y2895620D1*
X2451036Y2892996D1*
X2450869Y2892221D1*
X2450342Y2891623D1*
X2450002Y2891733D1*
X2449724Y2892339D1*
Y2936303D1*
X2443818D1*
G37*
G36*
X2496968D2*
Y2931710D1*
X2504186Y2931053D1*
Y2889715D1*
X2496968Y2889059D1*
Y2884465D1*
X2516653D1*
Y2889059D1*
X2510091Y2889715D1*
Y2931053D1*
X2516653Y2931710D1*
Y2936303D1*
X2496968D1*
G37*
G36*
X2521246D2*
Y2931053D1*
X2544868Y2930397D1*
Y2884465D1*
X2550774D1*
Y2936303D1*
X2521246D1*
G37*
G36*
X2584238D2*
Y2931053D1*
X2613110Y2930397D1*
Y2929741D1*
X2611141Y2927773D1*
X2608516Y2923835D1*
X2606548Y2921211D1*
X2605236Y2919242D1*
X2603267Y2916618D1*
X2600642Y2912681D1*
X2598674Y2910056D1*
X2597362Y2908087D1*
X2595393Y2905463D1*
X2594081Y2903494D1*
X2592112Y2900870D1*
X2589487Y2896933D1*
X2587519Y2894308D1*
X2584894Y2890371D1*
Y2884465D1*
X2619015D1*
Y2889715D1*
X2592768Y2891027D1*
Y2891683D1*
X2594737Y2893652D1*
X2597362Y2897589D1*
X2599330Y2900213D1*
X2601955Y2904150D1*
X2603923Y2906775D1*
X2605236Y2908744D1*
X2607204Y2911368D1*
X2609829Y2915305D1*
X2611797Y2917930D1*
X2614422Y2921867D1*
X2616390Y2924492D1*
X2617703Y2926460D1*
X2619671Y2929085D1*
X2620327Y2930397D1*
Y2936303D1*
X2584238D1*
G37*
G36*
X2559960Y2916618D2*
Y2910712D1*
X2578989D1*
Y2916618D1*
X2559960D1*
G37*
G36*
X2056679Y2931710D2*
X2054711Y2929741D1*
X2053398Y2927773D1*
X2051430Y2923835D1*
X2050774Y2921867D1*
X2050117Y2919242D1*
X2049461Y2915305D1*
Y2905463D1*
X2050117Y2901526D1*
X2050774Y2898901D1*
X2051430Y2896933D1*
X2053398Y2892996D1*
X2054711Y2891027D1*
X2058648Y2887090D1*
X2060616Y2885778D1*
X2061928Y2885122D1*
X2065865Y2883809D1*
X2068490Y2883153D1*
X2076364D1*
X2078989Y2883809D1*
X2080957Y2884465D1*
X2084894Y2886434D1*
X2086863Y2887746D1*
X2089487Y2890371D1*
X2090800Y2892339D1*
X2093425Y2897589D1*
X2094081Y2899557D1*
X2094737Y2902182D1*
X2095393Y2907431D1*
Y2913337D1*
X2094737Y2918586D1*
X2094081Y2921211D1*
X2093425Y2923179D1*
X2090800Y2928429D1*
X2089487Y2930397D1*
X2086863Y2933022D1*
X2082926Y2935647D1*
X2078989Y2936959D1*
X2076364Y2937615D1*
X2068490D1*
X2065865Y2936959D1*
X2061928Y2935647D1*
X2060616Y2934990D1*
X2058648Y2933678D1*
X2056679Y2931710D1*
X2068490D1*
X2071115Y2932366D1*
X2073739D1*
X2076364Y2931710D1*
X2078333Y2931053D1*
X2080957Y2929741D1*
X2085550Y2925148D1*
Y2924492D1*
X2086207Y2923179D1*
X2087519Y2919242D1*
X2088175Y2914649D1*
X2088831Y2913993D1*
Y2906775D1*
X2088175Y2906119D1*
X2087519Y2902182D1*
X2086863Y2899557D1*
X2086207Y2897589D1*
X2085550Y2896276D1*
X2083582Y2893652D1*
X2083366Y2892856D1*
X2082926Y2892339D1*
X2081613Y2891683D1*
X2080957Y2891027D1*
X2078333Y2889715D1*
X2076364Y2889059D1*
X2073739Y2888402D1*
X2071115D1*
X2068490Y2889059D1*
X2064553Y2890371D1*
X2063897Y2891027D1*
X2062585Y2891683D1*
X2059960Y2894308D1*
Y2894964D1*
X2058648Y2896933D1*
X2057335Y2900870D1*
X2056679Y2904150D1*
X2056023Y2904807D1*
Y2915961D1*
X2056679Y2916618D1*
X2057335Y2919898D1*
X2057991Y2921867D1*
X2059960Y2925804D1*
Y2926460D1*
X2062585Y2929085D1*
X2063897Y2929741D1*
X2068490Y2931710D1*
X2056679D1*
G37*
G36*
X1966128Y2936303D2*
Y2931053D1*
X1992375Y2930397D1*
Y2910712D1*
X1968096Y2910056D1*
Y2904807D1*
X1992375Y2904150D1*
Y2890371D1*
X1966128Y2889715D1*
Y2884465D1*
X1998280D1*
Y2936303D1*
X1966128D1*
G37*
G36*
X2012716Y2904807D2*
X2010091Y2902182D1*
X2009435Y2900870D1*
X2008779Y2898901D1*
Y2892339D1*
X2009435Y2890371D1*
X2013372Y2886434D1*
X2014684Y2885778D1*
X2016653Y2885122D1*
X2019934Y2884465D1*
X2040931D1*
Y2936303D1*
X2021246D1*
X2017965Y2935647D1*
X2015997Y2934990D1*
X2013372Y2933678D1*
X2011404Y2932366D1*
X2009435Y2930397D1*
X2021902D1*
X2026277Y2931053D1*
X2030651D1*
X2035026Y2930397D1*
Y2911368D1*
X2029995Y2910712D1*
X2024964D1*
X2019934Y2911368D1*
X2017965Y2912024D1*
X2015341Y2913337D1*
X2013372Y2915305D1*
Y2916618D1*
X2012716Y2917274D1*
Y2923835D1*
X2013372Y2924492D1*
X2014028Y2925804D1*
Y2926460D1*
X2015341Y2927773D1*
X2016653Y2928429D1*
X2017309Y2929085D1*
X2018621Y2929741D1*
X2021902Y2930397D1*
X2009435D1*
X2008779Y2929741D1*
X2007466Y2927773D1*
X2006154Y2923835D1*
Y2916618D1*
X2006810Y2914649D1*
X2007466Y2913337D1*
X2008779Y2911368D1*
X2010091Y2910056D1*
X2012060Y2908744D1*
X2013372Y2908087D1*
X2015341Y2907431D1*
X2015997Y2906775D1*
X2013372Y2905463D1*
X2012716Y2904807D1*
X2021246D1*
X2025839Y2905463D1*
X2030432D1*
X2035026Y2904807D1*
Y2890371D1*
X2030214Y2889715D1*
X2025402D1*
X2020590Y2890371D1*
X2018621Y2891027D1*
X2017309Y2891683D1*
X2015341Y2893652D1*
Y2900213D1*
X2015997Y2900870D1*
Y2901526D1*
X2017965Y2903494D1*
X2019278Y2904150D1*
X2021246Y2904807D1*
X2012716D1*
G37*
G36*
X2109173Y2909400D2*
X2107204Y2907431D1*
X2105892Y2904807D1*
X2105236Y2902838D1*
X2104579Y2898901D1*
Y2897589D1*
X2105236Y2893652D1*
X2106548Y2891027D1*
X2110485Y2887090D1*
X2114422Y2885122D1*
X2117703Y2884465D1*
X2136732D1*
Y2936303D1*
X2130826D1*
Y2915961D1*
X2127764Y2915305D1*
X2124702D1*
X2121640Y2915961D1*
X2120327Y2917274D1*
Y2917930D1*
X2118359Y2920555D1*
X2110485Y2930397D1*
X2108516Y2933022D1*
X2105892Y2936303D1*
X2097362D1*
X2098674Y2934334D1*
X2101955Y2930397D1*
X2109829Y2920555D1*
X2113110Y2916618D1*
X2115734Y2913993D1*
X2115078Y2913337D1*
X2111141Y2911368D1*
X2109173Y2909400D1*
X2119015D1*
X2122952Y2910056D1*
X2126889D1*
X2130826Y2909400D1*
Y2890371D1*
X2126670Y2889715D1*
X2122515D1*
X2118359Y2890371D1*
X2116390Y2891027D1*
X2113766Y2892339D1*
X2112988Y2893077D1*
X2113110Y2893652D1*
X2111797Y2896933D1*
X2111141Y2897589D1*
Y2900213D1*
X2111797Y2900870D1*
X2112453Y2904150D1*
X2113766Y2906119D1*
X2115734Y2908087D1*
X2117047Y2908744D1*
X2119015Y2909400D1*
X2109173D1*
G37*
G36*
X2147886Y2910712D2*
Y2910056D1*
X2146574Y2908744D1*
X2145262Y2906119D1*
X2144606Y2904150D1*
Y2895620D1*
X2145262Y2893652D1*
X2146574Y2891027D1*
X2149855Y2887746D1*
X2153792Y2885778D1*
X2155760Y2885122D1*
X2159041Y2884465D1*
X2176758D1*
Y2936303D1*
X2170852D1*
Y2917274D1*
X2159697Y2916618D1*
X2156417Y2915961D1*
X2154448Y2915305D1*
X2151823Y2913993D1*
X2149199Y2912024D1*
X2147886Y2910712D1*
X2159697D1*
X2163416Y2911368D1*
X2167134D1*
X2170852Y2910712D1*
Y2890371D1*
X2166915Y2889715D1*
X2162978D1*
X2159041Y2890371D1*
X2156417Y2891027D1*
X2155104Y2891683D1*
X2154448Y2892339D1*
X2153136Y2892996D1*
X2152358Y2893733D1*
X2152480Y2894308D1*
X2151823Y2895620D1*
X2151167Y2898901D1*
X2150511Y2899557D1*
Y2900870D1*
X2151167Y2901526D1*
X2151823Y2904807D1*
X2152480Y2906119D1*
Y2906775D1*
X2154448Y2908744D1*
X2157073Y2910056D1*
X2159697Y2910712D1*
X2147886D1*
G37*
G36*
X3658451Y241158D2*
X3656876Y239584D1*
Y198639D1*
X3614356Y197064D1*
Y186040D1*
X3615931Y184465D1*
X3656876Y182891D1*
Y143521D1*
X3658451Y141946D1*
X3669474D1*
Y182891D1*
X3711994Y184465D1*
Y197064D1*
X3669474Y198639D1*
Y241158D1*
X3658451D1*
G37*
G36*
X135419Y2210450D2*
X133057Y2208087D1*
X130695Y2204544D1*
X127152Y2197458D1*
X125970Y2192733D1*
X124789Y2185647D1*
Y2179741D1*
X125970Y2171473D1*
X127152Y2167930D1*
X131876Y2158481D1*
X138963Y2151395D1*
X142506Y2149032D1*
X151955Y2144308D1*
X161404Y2141946D1*
X187388D1*
X192112Y2143127D1*
X199199Y2145489D1*
X206285Y2149032D1*
X209829Y2151395D1*
X214553Y2156119D1*
X218096Y2160843D1*
X220459Y2165568D1*
X221640Y2169111D1*
X222821Y2173835D1*
Y2191552D1*
X221640Y2196276D1*
X220459Y2198639D1*
X219278Y2202182D1*
X216915Y2205725D1*
X213372Y2210450D1*
X212191Y2211631D1*
X207466Y2215174D1*
X203923Y2217536D1*
X199199Y2219898D1*
X195655Y2221080D1*
X190931Y2222261D1*
X185026Y2223442D1*
X162585D1*
X156679Y2222261D1*
X149592Y2219898D1*
X142506Y2216355D1*
X138963Y2213993D1*
X135419Y2210450D1*
X162585D1*
X170459Y2211631D1*
X178333D1*
X186207Y2210450D1*
X192112Y2209269D1*
X195655Y2208087D1*
X202742Y2204544D1*
X209829Y2197458D1*
Y2196276D1*
X212191Y2191552D1*
X213372Y2190371D1*
Y2175017D1*
X212191Y2173835D1*
X211010Y2170292D1*
Y2169111D1*
X202742Y2160843D1*
X193293Y2156119D1*
X187388Y2154938D1*
X178726Y2153757D1*
X170065D1*
X161404Y2154938D1*
X155498Y2156119D1*
X151955Y2157300D1*
X147230Y2159662D1*
X146049Y2160843D1*
X143687Y2162024D1*
X138963Y2166749D1*
Y2167930D1*
X136600Y2172654D1*
X135419Y2177379D1*
X134238Y2178560D1*
Y2186828D1*
X135419Y2188009D1*
X136600Y2192733D1*
X138963Y2197458D1*
Y2198639D1*
X143687Y2203363D1*
X148411Y2205725D1*
X149592Y2206906D1*
X156679Y2209269D1*
X162585Y2210450D1*
X135419D1*
G37*
G36*
X317309Y2183284D2*
X316128Y2182103D1*
X314947Y2179741D1*
X313766Y2176198D1*
X312585Y2169111D1*
Y2164387D1*
X313766Y2158481D1*
X314947Y2154938D1*
X317309Y2150213D1*
X319671Y2146670D1*
X323215Y2143127D1*
X330301Y2138402D1*
X337388Y2136040D1*
X343293Y2134859D1*
X357466D1*
X366915Y2137221D1*
X371640Y2139584D1*
X376364Y2143127D1*
X378726Y2145489D1*
X381089Y2149032D1*
X384632Y2156119D1*
X385813Y2160843D1*
Y2178560D1*
X384632Y2183284D1*
X382270Y2190371D1*
X381089Y2192733D1*
X379907Y2193914D1*
X369278D1*
Y2192733D1*
X374002Y2183284D1*
X375183Y2179741D1*
X376364Y2178560D1*
Y2162024D1*
X375183Y2160843D1*
X372821Y2156119D1*
Y2154938D1*
X369278Y2151395D1*
X366915Y2150213D1*
X365734Y2149032D1*
X362191Y2147851D1*
X356285Y2146670D1*
X354317Y2145489D1*
X352348D1*
X350380Y2146670D1*
Y2195095D1*
X337388D1*
X331482Y2193914D1*
X324396Y2190371D1*
X320852Y2188009D1*
X318490Y2185647D1*
X317309Y2183284D1*
X333844D1*
X336600Y2184465D1*
X339356D1*
X342112Y2183284D1*
Y2146670D1*
X340672Y2145438D1*
X339306Y2145590D1*
X338569Y2146670D1*
X333844Y2147851D1*
X329120Y2150213D1*
X323215Y2156119D1*
Y2157300D1*
X322033Y2162024D1*
X320852Y2163206D1*
Y2170292D1*
X322033Y2171473D1*
X323215Y2175017D1*
Y2176198D1*
X327939Y2180922D1*
X330301Y2182103D1*
X333844Y2183284D1*
X317309D1*
G37*
G36*
X122427Y2132497D2*
Y2123048D1*
X124789Y2121867D1*
X135419Y2118324D1*
X212191Y2094702D1*
X231089Y2088796D1*
X239356Y2086434D1*
X240537D1*
Y2095883D1*
X238175Y2097064D1*
X219278Y2102969D1*
X203923Y2107694D1*
X185026Y2113599D1*
X154317Y2123048D1*
X135419Y2128954D1*
X123608Y2132497D1*
X122427D1*
G37*
G36*
X287781Y2121867D2*
X286600Y2120686D1*
Y2111237D1*
X287781Y2110056D1*
X384632D1*
Y2121867D1*
X287781D1*
G37*
G36*
X314947Y2092339D2*
Y2081710D1*
X369278Y2080528D1*
X370229Y2079003D1*
X370459Y2078166D1*
X372821Y2074623D1*
X375183Y2069898D1*
X376364Y2068717D1*
Y2056906D1*
X375183Y2055725D1*
Y2054544D1*
X372821Y2052182D1*
X370459Y2051001D1*
X366915Y2049820D1*
X314947Y2048639D1*
Y2038009D1*
X369278D1*
X376364Y2040371D1*
X379907Y2042733D1*
X384632Y2047458D1*
X385813Y2049820D1*
X386994Y2053363D1*
Y2066355D1*
X383451Y2073442D1*
X381089Y2076985D1*
X377545Y2080528D1*
X384632Y2081710D1*
Y2092339D1*
X314947D1*
G37*
G36*
X127152Y2080528D2*
Y2045095D1*
X135419D1*
Y2055725D1*
X161010Y2056906D1*
X186600D1*
X212191Y2055725D1*
Y2045095D1*
X220459D1*
Y2080528D1*
X212191D1*
Y2069898D1*
X186600Y2068717D1*
X161010D1*
X135419Y2069898D1*
Y2080528D1*
X127152D1*
G37*
G36*
X317309Y2007300D2*
X316128Y2006119D1*
X314947Y2002576D1*
X313766Y2000213D1*
X312585Y1993127D1*
Y1989584D1*
X313766Y1983678D1*
X314947Y1980135D1*
X316128Y1977773D1*
X318490Y1974229D1*
X323215Y1969505D1*
X326758Y1967143D1*
X333844Y1963599D1*
X337388Y1962418D1*
X343293Y1961237D1*
X358648D1*
X364553Y1962418D1*
X369278Y1963599D1*
X376364Y1967143D1*
X379907Y1969505D1*
X382270Y1971867D1*
X384632Y1975410D1*
X385813Y1977773D1*
X386994Y1981316D1*
Y1994308D1*
X382270Y2003757D1*
X378726Y2007300D1*
X384632Y2008481D1*
Y2020292D1*
X286600D1*
X285419Y2019111D1*
Y2009662D1*
X286600Y2008481D1*
X317309Y2007300D1*
X325577D1*
X340537Y2008481D1*
X355498D1*
X370459Y2007300D1*
X371410Y2005775D1*
X371640Y2004938D1*
X375183Y1997851D1*
X376364Y1996670D1*
Y1983678D1*
X375183Y1982497D1*
Y1981316D1*
X371640Y1977773D1*
X366915Y1975410D1*
X363372Y1974229D1*
X355104Y1973048D1*
X346837D1*
X338569Y1974229D1*
X331482Y1976591D1*
X330301Y1977773D1*
X327939Y1978954D1*
X325577Y1981316D1*
Y1982497D1*
X324396Y1984859D1*
X323215Y1988402D1*
X322033Y1989584D1*
Y1996670D1*
X323215Y1997851D1*
X324396Y2002576D1*
X325577Y2006119D1*
Y2007300D1*
X317309D1*
G37*
G36*
X133057Y1995489D2*
X131876Y1994308D1*
X129514Y1989584D1*
X125970Y1978954D1*
X124789Y1969505D1*
Y1964780D1*
X125970Y1956513D1*
X128333Y1949426D1*
X129514Y1947064D1*
X131876Y1943521D1*
X141325Y1934072D1*
X144868Y1931710D1*
X149592Y1929347D1*
X156679Y1926985D1*
X161404Y1925804D1*
X187388D1*
X192112Y1926985D1*
X199199Y1929347D1*
X206285Y1932891D1*
X211010Y1936434D1*
X213372Y1938796D1*
X216915Y1943521D1*
X220459Y1950607D1*
X222821Y1957694D1*
Y1976591D1*
X221640Y1981316D1*
X220459Y1984859D1*
X219278Y1987221D1*
X218096Y1990765D1*
X215734Y1995489D1*
X200380D1*
X207466Y1987221D1*
X211010Y1980135D1*
X212191Y1976591D1*
X213372Y1975410D1*
Y1960056D1*
X212191Y1958875D1*
X211010Y1955332D1*
X208648Y1951788D1*
Y1950607D1*
X203923Y1945883D1*
X201561Y1944702D1*
X200380Y1943521D1*
X198018Y1942339D1*
X194474Y1941158D1*
X192112Y1939977D1*
X187388Y1938796D1*
X178726Y1937615D1*
X170065D1*
X161404Y1938796D1*
X156679Y1939977D1*
X153136Y1941158D1*
X146049Y1944702D1*
X138963Y1951788D1*
Y1952969D1*
X136600Y1957694D1*
X135419Y1962418D1*
X134238Y1963599D1*
Y1971867D1*
X135419Y1973048D1*
X136600Y1977773D1*
X137781Y1981316D1*
X138963Y1983678D1*
X141325Y1987221D1*
X144868Y1991946D1*
X147230Y1995489D1*
X133057D1*
G37*
G36*
X318490Y1939977D2*
X317309Y1938796D1*
X314947Y1934072D1*
X313766Y1930528D1*
X312585Y1923442D1*
Y1919898D1*
X313766Y1912812D1*
X314947Y1909269D1*
X317309Y1904544D1*
X325577Y1896276D1*
X332663Y1892733D1*
X337388Y1891552D1*
X343293Y1890371D1*
X357466D1*
X363372Y1891552D1*
X370459Y1893914D1*
X372821Y1895095D1*
X376364Y1897458D1*
X382270Y1903363D1*
X384632Y1906906D1*
X386994Y1913993D1*
Y1929347D1*
X385813Y1932891D1*
X382270Y1939977D1*
X376364Y1945883D1*
X366915Y1950607D1*
X362191Y1951788D1*
X355104Y1952969D1*
X345655D1*
X337388Y1951788D1*
X330301Y1949426D1*
X327939Y1948245D1*
X324396Y1945883D1*
X318490Y1939977D1*
X338569D1*
X346049Y1941158D1*
X353529D1*
X361010Y1939977D1*
X365734Y1938796D1*
X370459Y1936434D1*
X376364Y1930528D1*
Y1929347D1*
X377545Y1928166D1*
Y1915174D1*
X376364Y1913993D1*
X374002Y1910450D1*
X373614Y1909017D1*
X372821Y1908087D1*
X370459Y1906906D1*
X369278Y1905725D1*
X362191Y1903363D1*
X353923Y1902182D1*
X345655D1*
X337388Y1903363D1*
X333844Y1904544D1*
X329120Y1906906D1*
X324396Y1911631D1*
Y1912812D1*
X323215Y1917536D1*
X322033Y1918717D1*
Y1924623D1*
X323215Y1925804D1*
X324396Y1929347D1*
X325577Y1931710D1*
Y1932891D1*
X327939Y1935253D1*
X330301Y1936434D1*
X338569Y1939977D1*
X318490D1*
G37*
G36*
X127152Y1910450D2*
Y1901001D1*
X128333Y1899820D1*
X200380Y1898639D1*
X164947Y1880922D1*
X128333Y1862024D1*
X127152Y1860843D1*
Y1844308D1*
X220459D1*
Y1854938D1*
X140144Y1856119D1*
X170852Y1871473D1*
X219278Y1896276D1*
X220459Y1897458D1*
Y1910450D1*
X127152D1*
G37*
G36*
X292506Y1876198D2*
X291325Y1875017D1*
Y1859662D1*
X292506Y1858481D1*
X300774Y1854938D1*
X311404Y1850213D1*
X336207Y1839584D1*
X339750Y1838402D1*
X342112Y1837221D1*
X342876Y1835623D1*
X342112Y1834859D1*
X338569Y1833678D1*
X317309Y1824229D1*
X304317Y1818324D1*
X293687Y1813599D1*
X291325Y1811237D1*
Y1795883D1*
X384632D1*
Y1806513D1*
X307860Y1808875D1*
X314947Y1812418D1*
X318490Y1813599D1*
X329120Y1818324D1*
X337388Y1821867D1*
X358648Y1831316D1*
Y1839584D1*
X350380Y1843127D1*
X307860Y1862024D1*
X384632Y1864387D1*
Y1876198D1*
X292506D1*
G37*
G36*
X133057Y1831316D2*
X131876Y1830135D1*
X129514Y1825410D1*
X125970Y1814780D1*
X124789Y1805332D1*
Y1800607D1*
X125970Y1792339D1*
X128333Y1785253D1*
X129514Y1782891D1*
X131876Y1779347D1*
X141325Y1769898D1*
X144868Y1767536D1*
X149592Y1765174D1*
X156679Y1762812D1*
X161404Y1761631D1*
X187388D1*
X192112Y1762812D1*
X199199Y1765174D1*
X206285Y1768717D1*
X211010Y1772261D1*
X213372Y1774623D1*
X216915Y1779347D1*
X220459Y1786434D1*
X222821Y1793521D1*
Y1812418D1*
X221640Y1817143D1*
X220459Y1820686D1*
X219278Y1823048D1*
X218096Y1826591D1*
X215734Y1831316D1*
X200380D1*
X207466Y1823048D1*
X211010Y1815961D1*
X212191Y1812418D1*
X213372Y1811237D1*
Y1795883D1*
X212191Y1794702D1*
X211010Y1791158D1*
X208648Y1787615D1*
Y1786434D1*
X203923Y1781710D1*
X201561Y1780528D1*
X200380Y1779347D1*
X198018Y1778166D1*
X194474Y1776985D1*
X192112Y1775804D1*
X187388Y1774623D1*
X178726Y1773442D1*
X170065D1*
X161404Y1774623D1*
X156679Y1775804D1*
X153136Y1776985D1*
X146049Y1780528D1*
X138963Y1787615D1*
Y1788796D1*
X136600Y1793521D1*
X135419Y1798245D1*
X134238Y1799426D1*
Y1807694D1*
X135419Y1808875D1*
X136600Y1813599D1*
X137781Y1817143D1*
X138963Y1819505D1*
X141325Y1823048D1*
X144868Y1827773D1*
X147230Y1831316D1*
X133057D1*
G37*
G36*
X1826364Y1373311D2*
Y1372654D1*
X1825052Y1371342D1*
X1823739Y1368717D1*
X1822427Y1364780D1*
Y1351657D1*
X1823083Y1349032D1*
X1823739Y1347064D1*
X1825708Y1343127D1*
X1828989Y1339846D1*
X1831613Y1338534D1*
X1833582Y1337877D1*
X1839487D1*
X1841456Y1338534D1*
X1845393Y1340502D1*
X1847362Y1342471D1*
X1847973Y1342253D1*
X1848674Y1341814D1*
Y1339190D1*
X1854579D1*
Y1394308D1*
X1848674D1*
Y1377248D1*
X1847978Y1376535D1*
X1847638Y1376641D1*
X1847362Y1377248D1*
X1846049Y1377904D1*
X1842112Y1379216D1*
X1835550D1*
X1833582Y1378560D1*
X1829645Y1376591D1*
X1826364Y1373311D1*
X1836207D1*
X1838613Y1373967D1*
X1841019D1*
X1843425Y1373311D1*
X1846049Y1372654D1*
X1848674Y1371342D1*
Y1348376D1*
X1847362Y1347064D1*
X1843425Y1345095D1*
X1841456Y1344439D1*
X1839269Y1343783D1*
X1837082D1*
X1834894Y1344439D1*
X1832926Y1345095D1*
X1830301Y1347720D1*
Y1348376D1*
X1829645Y1349689D1*
X1828989Y1352313D1*
X1828333Y1352969D1*
Y1363468D1*
X1828989Y1364124D1*
X1829645Y1366749D1*
X1830301Y1368061D1*
X1831613Y1370030D1*
X1831741Y1370495D1*
X1832270Y1371342D1*
X1836207Y1373311D1*
X1826364D1*
G37*
G36*
X1640012Y1393652D2*
Y1339190D1*
X1645918D1*
Y1393652D1*
X1640012D1*
G37*
G36*
X1656417D2*
Y1339190D1*
X1662322D1*
Y1393652D1*
X1656417D1*
G37*
G36*
X1549461Y1392339D2*
X1546837Y1391683D1*
X1544868Y1391027D1*
X1542243Y1389715D1*
X1537650Y1385122D1*
X1536338Y1382497D1*
X1535682Y1379872D1*
Y1374623D1*
X1536338Y1371998D1*
X1537650Y1369374D1*
X1540931Y1366093D1*
X1544868Y1364124D1*
X1546837Y1363468D1*
X1554711Y1361500D1*
X1558648Y1360187D1*
X1561272Y1358875D1*
X1561801Y1358028D1*
X1561928Y1357563D1*
X1563241Y1354282D1*
X1563897Y1353626D1*
Y1351001D1*
X1563241Y1350345D1*
X1562585Y1348376D1*
Y1347720D1*
X1560616Y1345752D1*
X1557991Y1344439D1*
X1556023Y1343783D1*
X1553180Y1343127D1*
X1550336D1*
X1547493Y1343783D1*
X1543556Y1345095D1*
X1538306Y1347720D1*
X1535682Y1350345D1*
Y1341814D1*
X1536338Y1341158D1*
X1539619Y1339846D1*
X1543556Y1338534D1*
X1547493Y1337877D1*
X1556023D1*
X1558648Y1338534D1*
X1560616Y1339190D1*
X1563241Y1340502D1*
X1565865Y1342471D1*
X1567834Y1345095D1*
X1569146Y1347720D1*
X1569802Y1349689D1*
X1570459Y1352969D1*
Y1354282D1*
X1569802Y1358219D1*
X1567834Y1362156D1*
X1565865Y1364124D1*
X1563897Y1365437D1*
X1562585Y1366093D1*
X1558648Y1367405D1*
X1550774Y1369374D1*
X1546837Y1370686D1*
X1545524Y1371342D1*
X1542900Y1373967D1*
Y1375279D1*
X1542243Y1375935D1*
Y1380528D1*
X1542900Y1381185D1*
X1544212Y1383153D1*
X1546180Y1385122D1*
X1547493Y1385778D1*
X1549461Y1386434D1*
X1552086Y1387090D1*
X1554711D1*
X1559960Y1385778D1*
X1561928Y1385122D1*
X1564553Y1383809D1*
X1565209Y1383153D1*
X1567834Y1381185D1*
Y1389059D1*
X1567178Y1389715D1*
X1565865Y1390371D1*
X1563897Y1391027D1*
X1561272Y1391683D1*
X1557335Y1392339D1*
X1549461D1*
G37*
G36*
X1690537D2*
X1685288Y1391027D1*
X1681351Y1389059D1*
X1679383Y1387746D1*
X1675445Y1383809D1*
X1674133Y1381841D1*
X1672165Y1377904D1*
X1670852Y1373967D1*
X1670196Y1370686D1*
Y1359531D1*
X1670852Y1356250D1*
X1671508Y1353626D1*
X1672165Y1351657D1*
X1673477Y1349032D1*
X1676102Y1345095D1*
X1678070Y1343127D1*
X1680695Y1341158D1*
X1683320Y1339846D1*
X1687257Y1338534D1*
X1690537Y1337877D1*
X1699068D1*
X1704317Y1339190D1*
X1706285Y1339846D1*
X1709566Y1341158D1*
X1710879Y1341814D1*
X1711535Y1342471D1*
Y1364780D1*
X1693162D1*
Y1359531D1*
X1705629Y1358875D1*
Y1345752D1*
X1704973Y1345095D1*
X1703005Y1344439D1*
X1699724Y1343783D1*
X1696662Y1343127D1*
X1693599D1*
X1690537Y1343783D1*
X1687913Y1344439D1*
X1683976Y1346408D1*
X1680695Y1349689D1*
Y1350345D1*
X1679383Y1352313D1*
X1678070Y1356250D1*
X1677414Y1358875D1*
X1676758Y1359531D1*
Y1370686D1*
X1677414Y1371342D1*
X1678070Y1373967D1*
X1679383Y1377904D1*
X1680695Y1379872D1*
Y1380528D1*
X1683976Y1383809D1*
X1687913Y1385778D1*
X1689881Y1386434D1*
X1692725Y1387090D1*
X1695568D1*
X1698411Y1386434D1*
X1701036Y1385778D1*
X1703005Y1385122D1*
X1708254Y1382497D1*
X1710879Y1379872D1*
X1711535D1*
Y1387746D1*
X1710879Y1388402D1*
X1709566Y1389059D1*
X1706285Y1390371D1*
X1702348Y1391683D1*
X1699068Y1392339D1*
X1690537D1*
G37*
G36*
X1577676Y1389059D2*
Y1378560D1*
X1573739Y1377904D1*
Y1373311D1*
X1577676Y1372654D1*
Y1349689D1*
X1578333Y1345752D1*
X1578989Y1343783D1*
X1580301Y1341814D1*
X1581613Y1340502D1*
X1584238Y1339190D1*
X1586207Y1338534D1*
X1592112D1*
X1595393Y1339190D1*
X1596049Y1339846D1*
Y1345095D1*
X1595393D1*
X1594081Y1344439D1*
X1591893Y1343783D1*
X1589706D1*
X1587519Y1344439D1*
X1586207Y1345095D1*
X1584238Y1347064D1*
Y1349689D1*
X1583582Y1350345D1*
Y1372654D1*
X1596049Y1373311D1*
Y1377904D1*
X1583582Y1378560D1*
Y1389059D1*
X1577676D1*
G37*
G36*
X1602611Y1359531D2*
X1600642Y1357563D1*
X1599330Y1354938D1*
Y1346408D1*
X1599986Y1344439D1*
X1601299Y1342471D1*
X1603923Y1339846D1*
X1606548Y1338534D1*
X1608516Y1337877D1*
X1614422D1*
X1616390Y1338534D1*
X1620327Y1340502D1*
X1622296Y1342471D1*
X1622786Y1342892D1*
X1623126Y1342854D1*
X1623608Y1342471D1*
Y1339190D1*
X1629514D1*
Y1370686D1*
X1628858Y1372654D1*
X1627545Y1374623D1*
X1625577Y1376591D1*
X1623608Y1377904D1*
X1621640Y1378560D1*
X1618359Y1379216D1*
X1609829D1*
X1605892Y1378560D1*
X1602611Y1377904D1*
X1601955Y1377248D1*
Y1371342D1*
X1602611D1*
X1609829Y1373311D1*
X1612672Y1373967D1*
X1615515D1*
X1618359Y1373311D1*
X1620327Y1372654D1*
X1621640Y1371998D1*
X1622952Y1370686D1*
Y1370030D1*
X1623608Y1369374D1*
Y1365437D1*
X1619015Y1364780D1*
X1613766Y1364124D1*
X1610485Y1363468D1*
X1607860Y1362812D1*
X1603923Y1360843D1*
X1602611Y1359531D1*
X1619671D1*
X1620984Y1360187D1*
X1622296D1*
X1623608Y1359531D1*
Y1348376D1*
X1621640Y1346408D1*
X1620327Y1345752D1*
X1619671Y1345095D1*
X1618359Y1344439D1*
X1616390Y1343783D1*
X1614203Y1343127D1*
X1612016D1*
X1609829Y1343783D1*
X1607860Y1344439D1*
X1605892Y1346408D1*
Y1347064D1*
X1605236Y1347720D1*
Y1352969D1*
X1605892Y1353626D1*
X1606220Y1354282D1*
X1606578Y1354879D1*
X1607210Y1355580D1*
X1608516Y1356906D1*
X1611141Y1358219D1*
X1614422Y1358875D1*
X1619671Y1359531D1*
X1602611D1*
G37*
G36*
X1761404D2*
X1759435Y1357563D1*
X1758123Y1354938D1*
Y1346408D1*
X1758779Y1344439D1*
X1760091Y1342471D1*
X1762716Y1339846D1*
X1765341Y1338534D1*
X1767309Y1337877D1*
X1773215D1*
X1775183Y1338534D1*
X1779120Y1340502D1*
X1781089Y1342471D1*
X1781579Y1342892D1*
X1781919Y1342854D1*
X1782401Y1342471D1*
Y1339190D1*
X1788306D1*
Y1370686D1*
X1787650Y1372654D1*
X1786338Y1374623D1*
X1784369Y1376591D1*
X1782401Y1377904D1*
X1780432Y1378560D1*
X1777152Y1379216D1*
X1768621D1*
X1764684Y1378560D1*
X1761404Y1377904D1*
X1760747Y1377248D1*
Y1371342D1*
X1761404D1*
X1768621Y1373311D1*
X1771465Y1373967D1*
X1774308D1*
X1777152Y1373311D1*
X1779120Y1372654D1*
X1780432Y1371998D1*
X1781745Y1370686D1*
Y1370030D1*
X1782401Y1369374D1*
Y1365437D1*
X1777808Y1364780D1*
X1772558Y1364124D1*
X1769278Y1363468D1*
X1766653Y1362812D1*
X1762716Y1360843D1*
X1761404Y1359531D1*
X1778464D1*
X1779776Y1360187D1*
X1781089D1*
X1782401Y1359531D1*
Y1348376D1*
X1780432Y1346408D1*
X1779120Y1345752D1*
X1778464Y1345095D1*
X1777152Y1344439D1*
X1775183Y1343783D1*
X1772996Y1343127D1*
X1770809D1*
X1768621Y1343783D1*
X1766653Y1344439D1*
X1764684Y1346408D1*
Y1347064D1*
X1764028Y1347720D1*
Y1352969D1*
X1764684Y1353626D1*
X1765012Y1354282D1*
X1765370Y1354879D1*
X1766003Y1355580D1*
X1767309Y1356906D1*
X1769934Y1358219D1*
X1773215Y1358875D1*
X1778464Y1359531D1*
X1761404D1*
G37*
G36*
X1720065Y1377904D2*
Y1349689D1*
X1720721Y1346408D1*
X1721377Y1344439D1*
X1722033Y1343127D1*
X1725970Y1339190D1*
X1727283Y1338534D1*
X1729251Y1337877D1*
X1734501D1*
X1737125Y1338534D1*
X1739750Y1339846D1*
X1742375Y1341814D1*
X1743031Y1342471D1*
X1743521Y1342892D1*
X1743861Y1342854D1*
X1744343Y1342471D1*
Y1339190D1*
X1750249D1*
Y1377904D1*
X1744343D1*
Y1348376D1*
X1743031Y1347720D1*
X1742375Y1347064D1*
X1737125Y1344439D1*
X1734938Y1343783D1*
X1732751D1*
X1730564Y1344439D1*
X1729251Y1345095D1*
X1727283Y1347064D1*
Y1347720D1*
X1726627Y1350345D1*
X1725970Y1377904D1*
X1720065D1*
G37*
G36*
X1798805D2*
Y1339190D1*
X1804711D1*
Y1367405D1*
X1806023Y1368061D1*
X1807335Y1369374D1*
X1809960Y1370686D1*
X1811928Y1371342D1*
X1819146Y1371998D1*
Y1377904D1*
X1814553D1*
X1812585Y1377248D1*
X1809960Y1375935D1*
X1807991Y1374623D1*
X1806023Y1372654D1*
X1805061Y1372721D1*
X1804711Y1373311D1*
Y1377904D1*
X1798805D1*
G37*
G36*
X1539619Y1705988D2*
X1540147Y1705141D1*
X1540275Y1704675D1*
X1540931Y1703363D1*
X1542243Y1701395D1*
X1542900Y1700082D1*
X1545524Y1696145D1*
X1546180Y1694833D1*
X1548805Y1690896D1*
X1549461Y1689584D1*
X1550774Y1687615D1*
X1551430Y1686303D1*
X1554054Y1682366D1*
X1554711Y1681053D1*
X1555207Y1680171D1*
X1555141Y1679580D1*
X1554711Y1679085D1*
X1553398Y1677116D1*
X1552742Y1675804D1*
X1548805Y1669898D1*
X1548149Y1668586D1*
X1544212Y1662681D1*
X1543556Y1661368D1*
X1539619Y1655463D1*
X1538963Y1654150D1*
X1545524D1*
X1546837Y1655463D1*
X1548149Y1657431D1*
X1548805Y1658744D1*
X1551430Y1662681D1*
X1552086Y1663993D1*
X1554711Y1667930D1*
X1555367Y1669242D1*
X1557991Y1673179D1*
X1558127Y1673625D1*
X1558721Y1674212D1*
X1559304Y1674492D1*
X1560616Y1673179D1*
Y1672523D1*
X1561272Y1671211D1*
X1563897Y1667274D1*
X1564553Y1665961D1*
X1565865Y1663993D1*
X1566522Y1662681D1*
X1569146Y1658744D1*
X1569802Y1657431D1*
X1571115Y1655463D1*
X1571771Y1654150D1*
X1578989D1*
Y1654807D1*
X1578333Y1656119D1*
X1575708Y1660056D1*
X1575052Y1661368D1*
X1573739Y1663337D1*
X1573083Y1664649D1*
X1570459Y1668586D1*
X1569802Y1669898D1*
X1567178Y1673835D1*
X1566522Y1675148D1*
X1565209Y1677116D1*
X1564553Y1678429D1*
X1563241Y1679741D1*
Y1681053D1*
X1564553Y1682366D1*
X1565209Y1683678D1*
X1569146Y1689584D1*
X1569802Y1690896D1*
X1573739Y1696801D1*
X1574396Y1698114D1*
X1578333Y1704019D1*
X1578989Y1705332D1*
Y1705988D1*
X1572427D1*
X1569802Y1702051D1*
X1569146Y1700738D1*
X1566522Y1696801D1*
X1565865Y1695489D1*
X1563241Y1691552D1*
X1562585Y1690240D1*
X1561272Y1688271D1*
X1560616Y1686959D1*
X1560377Y1686152D1*
X1559679Y1685593D1*
X1559085Y1685697D1*
X1558429Y1686464D1*
X1558648Y1686959D1*
X1557335Y1688927D1*
X1556679Y1690240D1*
X1555367Y1692208D1*
X1554711Y1693521D1*
X1552086Y1697458D1*
X1551430Y1698770D1*
X1550117Y1700738D1*
X1549461Y1702051D1*
X1548149Y1704019D1*
X1547493Y1705332D1*
X1546837Y1705988D1*
X1539619D1*
G37*
G36*
X1640012D2*
X1640541Y1705141D1*
X1640669Y1704675D1*
X1641325Y1703363D1*
X1642637Y1701395D1*
X1643949Y1698770D1*
X1645262Y1696801D1*
X1645918Y1695489D1*
X1647230Y1693521D1*
X1647886Y1692208D1*
X1649199Y1690240D1*
X1649855Y1688927D1*
X1651167Y1686959D1*
X1652480Y1684334D1*
X1653792Y1682366D1*
X1654448Y1681053D1*
X1655760Y1679085D1*
X1656417Y1677773D1*
X1657729Y1676460D1*
Y1654150D1*
X1663634D1*
X1664291Y1677773D1*
X1665603Y1679741D1*
X1666259Y1681053D1*
X1667571Y1683022D1*
X1668228Y1684334D1*
X1670852Y1688271D1*
X1671508Y1689584D1*
X1672821Y1691552D1*
X1673477Y1692864D1*
X1674789Y1694833D1*
X1675445Y1696145D1*
X1676758Y1698114D1*
X1677414Y1699426D1*
X1678726Y1701395D1*
X1679383Y1702707D1*
X1680695Y1704675D1*
X1681351Y1705988D1*
X1674789D1*
X1674133Y1705332D1*
X1672821Y1703363D1*
X1672165Y1702051D1*
X1670852Y1700082D1*
X1670196Y1698770D1*
X1668884Y1696801D1*
X1667571Y1694177D1*
X1666259Y1692208D1*
X1665603Y1690896D1*
X1664291Y1688927D1*
X1663634Y1687615D1*
X1662322Y1685647D1*
X1661666Y1684334D1*
X1661499Y1683560D1*
X1660972Y1682961D1*
X1660632Y1683072D1*
X1660354Y1683678D1*
X1659041Y1685647D1*
X1658385Y1686959D1*
X1657073Y1688927D1*
X1655760Y1691552D1*
X1654448Y1693521D1*
X1653792Y1694833D1*
X1652480Y1696801D1*
X1651167Y1699426D1*
X1649855Y1701395D1*
X1649199Y1702707D1*
X1647886Y1704675D1*
X1647230Y1705988D1*
X1640012D1*
G37*
G36*
X1744343D2*
Y1700738D1*
X1771246Y1700082D1*
X1769934Y1698770D1*
X1767965Y1696145D1*
X1765341Y1692208D1*
X1763372Y1689584D1*
X1762060Y1687615D1*
X1760091Y1684990D1*
X1757466Y1681053D1*
X1755498Y1678429D1*
X1752873Y1674492D1*
X1750905Y1671867D1*
X1749592Y1669898D1*
X1747624Y1667274D1*
X1744999Y1663337D1*
X1743031Y1660712D1*
Y1654150D1*
X1779120D1*
Y1659400D1*
X1749592Y1660056D1*
X1750905Y1661368D1*
X1752873Y1663993D1*
X1754186Y1665961D1*
X1756154Y1668586D1*
X1758779Y1672523D1*
X1760747Y1675148D1*
X1762060Y1677116D1*
X1764028Y1679741D1*
X1765341Y1681710D1*
X1767309Y1684334D1*
X1769934Y1688271D1*
X1771902Y1690896D1*
X1773215Y1692864D1*
X1775183Y1695489D1*
X1776495Y1697458D1*
X1778464Y1700082D1*
Y1705988D1*
X1744343D1*
G37*
G36*
X1857860Y1698114D2*
X1857204Y1697458D1*
X1850642Y1677773D1*
X1849986Y1676460D1*
X1842768Y1654807D1*
Y1654150D1*
X1849330D1*
X1851299Y1660056D1*
X1851955Y1662681D1*
X1853267Y1666618D1*
Y1667930D1*
X1860485Y1668586D1*
X1867703D1*
X1874921Y1667930D1*
Y1666618D1*
X1878858Y1654807D1*
X1879514Y1654150D1*
X1886075D1*
X1879514Y1673835D1*
X1878858Y1675148D1*
X1869015Y1704675D1*
X1868359Y1705988D1*
X1860485D1*
X1859829Y1705332D1*
X1857860Y1699426D1*
Y1698114D1*
X1863110D1*
X1863812Y1698505D1*
X1864382Y1698463D1*
X1865078Y1698114D1*
Y1696801D1*
X1872296Y1675148D1*
X1872952Y1674492D1*
X1867265Y1673835D1*
X1861578D1*
X1855892Y1674492D1*
Y1675804D1*
X1856548Y1676460D1*
X1861141Y1690240D1*
X1861797Y1692864D1*
X1863110Y1696801D1*
Y1698114D1*
X1857860D1*
G37*
G36*
X3882795Y1004544D2*
X3882138Y1003888D1*
Y987484D1*
X3865078Y986828D1*
X3864422Y986171D1*
Y981578D1*
X3882138Y980922D1*
Y963862D1*
X3882795Y963206D1*
X3887388D1*
Y980922D1*
X3905104Y981578D1*
Y986828D1*
X3887388Y987484D1*
Y1004544D1*
X3882795D1*
G37*
G36*
X1188569Y2902838D2*
Y2875279D1*
X1194474D1*
X1195787Y2876591D1*
X1201036Y2882497D1*
X1205629Y2887746D1*
X1216128Y2899557D1*
X1217440Y2901526D1*
Y2908744D1*
X1194474Y2909400D1*
Y2927116D1*
X1188569D1*
Y2909400D1*
X1182007Y2908744D1*
Y2903494D1*
X1188569Y2902838D1*
X1194474D1*
X1200380Y2903494D1*
X1206285D1*
X1212191Y2902838D1*
X1211535Y2902182D1*
X1206285Y2896276D1*
X1197099Y2885778D1*
X1195787Y2883809D1*
X1195091Y2883097D1*
X1194751Y2883203D1*
X1194474Y2883809D1*
Y2902838D1*
X1188569D1*
G37*
G36*
X808648Y2928429D2*
X806023Y2927773D1*
X802086Y2925804D1*
X798149Y2921867D1*
X796837Y2919898D1*
X795524Y2915961D1*
Y2907431D1*
X797493Y2903494D1*
X799461Y2901526D1*
X801430Y2900213D1*
X805367Y2898901D1*
X806023Y2898245D1*
X804054Y2897589D1*
X801430Y2896276D1*
X798149Y2892996D1*
X796837Y2890371D1*
X796180Y2888402D1*
Y2883809D1*
X796837Y2881841D1*
X798149Y2879216D1*
X800774Y2876591D1*
X803398Y2875279D1*
X805367Y2874623D1*
X807991Y2873967D1*
X815209D1*
X818490Y2874623D1*
X821115Y2875279D1*
X823083Y2875935D1*
X824396Y2876591D1*
X825052Y2877248D1*
Y2883809D1*
X823739Y2883153D1*
X823083Y2882497D1*
X821771Y2881841D1*
X815865Y2879872D1*
X813459Y2879216D1*
X811054D1*
X808648Y2879872D1*
X806679Y2880528D1*
X805367Y2881185D1*
X803398Y2883153D1*
Y2884465D1*
X802742Y2885122D1*
Y2889715D1*
X803398Y2890371D1*
X804054Y2891683D1*
Y2892339D1*
X805367Y2893652D1*
X807991Y2894964D1*
X809960Y2895620D1*
X815865Y2896276D1*
Y2901526D1*
X808648Y2902182D1*
X806679Y2902838D1*
X804054Y2904150D1*
X803276Y2904888D1*
X803398Y2905463D1*
X802742Y2906775D1*
X802086Y2909400D1*
X801430Y2910056D1*
Y2912681D1*
X802086Y2913337D1*
X802742Y2916618D1*
X803398Y2917930D1*
Y2918586D1*
X806023Y2921211D1*
X807335Y2921867D1*
X809304Y2922523D1*
X811928Y2923179D1*
X814553D1*
X817178Y2922523D1*
X821115Y2921211D1*
X826364Y2918586D1*
Y2925148D1*
X825708Y2925804D1*
X824396Y2926460D1*
X822427Y2927116D1*
X819802Y2927773D1*
X816522Y2928429D1*
X808648D1*
G37*
G36*
X836207Y2927116D2*
Y2922523D1*
X845393Y2921867D1*
Y2875279D1*
X850642D1*
X851299Y2877904D1*
X851955Y2879216D1*
Y2879872D1*
X854579Y2881185D1*
X856548Y2881841D1*
X861141Y2882497D1*
Y2886434D1*
X851955Y2887090D1*
Y2921867D1*
X861141Y2922523D1*
Y2927116D1*
X836207D1*
G37*
G36*
X683976Y2928429D2*
X678726Y2927116D1*
X674789Y2925804D1*
X672165Y2924492D1*
X671508Y2923835D1*
Y2901526D1*
X689225D1*
Y2906775D1*
X677414Y2907431D1*
Y2921211D1*
X679383Y2921867D1*
X685944Y2923179D1*
X689225D1*
X692506Y2922523D1*
X695131Y2921867D1*
X697755Y2920555D1*
X698411Y2919898D1*
X699724Y2919242D1*
X701036Y2917930D1*
Y2917274D1*
X703005Y2914649D1*
X703661Y2913337D1*
X704973Y2909400D1*
X705629Y2905463D1*
X706285Y2904807D1*
Y2896933D1*
X705629Y2896276D1*
X704973Y2892996D1*
X703661Y2889059D1*
X703005Y2887746D1*
X701036Y2885122D1*
Y2884465D1*
X699724Y2883153D1*
X698411Y2882497D1*
X697755Y2881841D1*
X695131Y2880528D1*
X693162Y2879872D1*
X690319Y2879216D1*
X687475D1*
X684632Y2879872D1*
X682007Y2880528D1*
X680039Y2881185D1*
X674789Y2883809D1*
X674133Y2884465D1*
X671508Y2886434D1*
Y2878560D1*
X672165Y2877904D1*
X674789Y2876591D1*
X678070Y2875279D1*
X680695Y2874623D1*
X683976Y2873967D1*
X691850D1*
X695131Y2874623D1*
X699068Y2875935D1*
X701692Y2877248D1*
X704317Y2879216D1*
X706942Y2881841D1*
X709566Y2885778D1*
X710222Y2887746D1*
X710879Y2889059D1*
X711535Y2891027D1*
X712191Y2893652D1*
X712847Y2897589D1*
Y2904807D1*
X712191Y2909400D1*
X711535Y2912024D1*
X710879Y2913993D1*
X708254Y2919242D1*
X703005Y2924492D1*
X701036Y2925804D1*
X697755Y2927116D1*
X695787Y2927773D1*
X692506Y2928429D1*
X683976D1*
G37*
G36*
X1035026D2*
X1029776Y2927116D1*
X1025839Y2925804D1*
X1023215Y2924492D1*
X1022558Y2923835D1*
Y2901526D1*
X1040275D1*
Y2906775D1*
X1028464Y2907431D1*
Y2921211D1*
X1030432Y2921867D1*
X1036994Y2923179D1*
X1040275D1*
X1043556Y2922523D1*
X1046180Y2921867D1*
X1048805Y2920555D1*
X1049461Y2919898D1*
X1050774Y2919242D1*
X1052086Y2917930D1*
Y2917274D1*
X1054054Y2914649D1*
X1054711Y2913337D1*
X1056023Y2909400D1*
X1056679Y2905463D1*
X1057335Y2904807D1*
Y2896933D1*
X1056679Y2896276D1*
X1056023Y2892996D1*
X1054711Y2889059D1*
X1054054Y2887746D1*
X1052086Y2885122D1*
Y2884465D1*
X1050774Y2883153D1*
X1049461Y2882497D1*
X1048805Y2881841D1*
X1046180Y2880528D1*
X1044212Y2879872D1*
X1041369Y2879216D1*
X1038525D1*
X1035682Y2879872D1*
X1033057Y2880528D1*
X1031089Y2881185D1*
X1025839Y2883809D1*
X1025183Y2884465D1*
X1022558Y2886434D1*
Y2878560D1*
X1023215Y2877904D1*
X1025839Y2876591D1*
X1029120Y2875279D1*
X1031745Y2874623D1*
X1035026Y2873967D1*
X1042900D1*
X1046180Y2874623D1*
X1050117Y2875935D1*
X1052742Y2877248D1*
X1055367Y2879216D1*
X1057991Y2881841D1*
X1060616Y2885778D1*
X1061272Y2887746D1*
X1061928Y2889059D1*
X1062585Y2891027D1*
X1063241Y2893652D1*
X1063897Y2897589D1*
Y2904807D1*
X1063241Y2909400D1*
X1062585Y2912024D1*
X1061928Y2913993D1*
X1059304Y2919242D1*
X1054054Y2924492D1*
X1052086Y2925804D1*
X1048805Y2927116D1*
X1046837Y2927773D1*
X1043556Y2928429D1*
X1035026D1*
G37*
G36*
X492375Y2930397D2*
X491718Y2929741D1*
X481876Y2910056D1*
X480564Y2908087D1*
X469409Y2885778D1*
Y2878560D1*
X502217D1*
Y2883809D1*
X475314Y2884465D1*
X475442Y2884931D1*
X475970Y2885778D1*
X477939Y2889715D1*
X479251Y2891683D1*
X489094Y2911368D1*
X490406Y2913337D1*
X498936Y2930397D1*
X492375D1*
G37*
G36*
X512060D2*
Y2925804D1*
X521246Y2925148D1*
Y2878560D1*
X526495D1*
X527152Y2881185D1*
X527808Y2882497D1*
Y2883153D1*
X530432Y2884465D1*
X532401Y2885122D1*
X536994Y2885778D1*
Y2889715D1*
X527808Y2890371D1*
Y2925148D1*
X536994Y2925804D1*
Y2930397D1*
X512060D1*
G37*
G36*
X348674Y2931710D2*
X343425Y2930397D1*
X339487Y2929085D1*
X336863Y2927773D1*
X336207Y2927116D1*
Y2904807D1*
X353923D1*
Y2910056D1*
X342112Y2910712D1*
Y2924492D1*
X344081Y2925148D1*
X350642Y2926460D1*
X353923D1*
X357204Y2925804D1*
X359829Y2925148D1*
X362453Y2923835D1*
X363110Y2923179D1*
X364422Y2922523D1*
X365734Y2921211D1*
Y2920555D1*
X367703Y2917930D1*
X368359Y2916618D1*
X369671Y2912681D1*
X370327Y2908744D1*
X370984Y2908087D1*
Y2900213D1*
X370327Y2899557D1*
X369671Y2896276D1*
X368359Y2892339D1*
X367703Y2891027D1*
X365734Y2888402D1*
Y2887746D1*
X364422Y2886434D1*
X363110Y2885778D1*
X362453Y2885122D1*
X359829Y2883809D1*
X357860Y2883153D1*
X355017Y2882497D1*
X352173D1*
X349330Y2883153D1*
X346705Y2883809D1*
X344737Y2884465D1*
X339487Y2887090D1*
X338831Y2887746D1*
X336207Y2889715D1*
Y2881841D1*
X336863Y2881185D1*
X339487Y2879872D1*
X342768Y2878560D1*
X345393Y2877904D1*
X348674Y2877248D1*
X356548D1*
X359829Y2877904D1*
X363766Y2879216D1*
X366390Y2880528D1*
X369015Y2882497D1*
X371640Y2885122D1*
X374264Y2889059D1*
X374921Y2891027D1*
X375577Y2892339D1*
X376233Y2894308D1*
X376889Y2896933D1*
X377545Y2900870D1*
Y2908087D1*
X376889Y2912681D1*
X376233Y2915305D1*
X375577Y2917274D1*
X372952Y2922523D1*
X367703Y2927773D1*
X365734Y2929085D1*
X362453Y2930397D1*
X360485Y2931053D1*
X357204Y2931710D1*
X348674D1*
G37*
G36*
X1539619Y2933022D2*
Y2927773D1*
X1565209Y2927116D1*
X1559304Y2921211D1*
X1557991Y2920555D1*
X1554054Y2916618D1*
X1548149Y2910056D1*
X1546180Y2907431D1*
X1544868Y2905463D1*
X1542900Y2901526D1*
X1542243Y2898901D1*
Y2889715D1*
X1542900Y2887746D1*
X1543556Y2886434D1*
X1544868Y2884465D1*
X1546180Y2883153D1*
X1548149Y2881841D1*
X1550774Y2880528D1*
X1553398Y2879872D1*
X1560616D1*
X1563897Y2880528D1*
X1566522Y2881185D1*
X1568490Y2881841D1*
X1569802Y2882497D1*
X1570459Y2883153D1*
Y2889715D1*
X1563897Y2886434D1*
X1561272Y2885778D1*
X1558866Y2885122D1*
X1556460D1*
X1554054Y2885778D1*
X1551430Y2887090D1*
X1549461Y2889059D1*
Y2889715D1*
X1548805Y2892339D1*
X1548149Y2892996D1*
Y2896276D1*
X1548805Y2896933D1*
X1549461Y2899557D1*
X1550117Y2901526D1*
X1550774Y2902838D1*
X1552086Y2904807D1*
X1554054Y2907431D1*
X1557335Y2911368D1*
X1571115Y2925804D1*
Y2933022D1*
X1539619D1*
G37*
G36*
X1581613D2*
Y2928429D1*
X1590800Y2927773D1*
Y2881185D1*
X1596049D1*
X1596705Y2883809D1*
X1597362Y2885122D1*
Y2885778D1*
X1599986Y2887090D1*
X1601955Y2887746D1*
X1606548Y2888402D1*
Y2892339D1*
X1597362Y2892996D1*
Y2927773D1*
X1606548Y2928429D1*
Y2933022D1*
X1581613D1*
G37*
G36*
X1417571Y2934334D2*
X1412322Y2933022D1*
X1408385Y2931710D1*
X1405760Y2930397D1*
X1405104Y2929741D1*
Y2907431D1*
X1422821D1*
Y2912681D1*
X1411010Y2913337D1*
Y2927116D1*
X1412978Y2927773D1*
X1419540Y2929085D1*
X1422821D1*
X1426102Y2928429D1*
X1428726Y2927773D1*
X1431351Y2926460D1*
X1432007Y2925804D1*
X1433320Y2925148D1*
X1434632Y2923835D1*
Y2923179D1*
X1436600Y2920555D1*
X1437257Y2919242D1*
X1438569Y2915305D1*
X1439225Y2911368D1*
X1439881Y2910712D1*
Y2902838D1*
X1439225Y2902182D1*
X1438569Y2898901D1*
X1437257Y2894964D1*
X1436600Y2893652D1*
X1434632Y2891027D1*
Y2890371D1*
X1433320Y2889059D1*
X1432007Y2888402D1*
X1431351Y2887746D1*
X1428726Y2886434D1*
X1426758Y2885778D1*
X1423914Y2885122D1*
X1421071D1*
X1418228Y2885778D1*
X1415603Y2886434D1*
X1413634Y2887090D1*
X1408385Y2889715D1*
X1407729Y2890371D1*
X1405104Y2892339D1*
Y2884465D1*
X1405760Y2883809D1*
X1408385Y2882497D1*
X1411666Y2881185D1*
X1414291Y2880528D1*
X1417571Y2879872D1*
X1425445D1*
X1428726Y2880528D1*
X1432663Y2881841D1*
X1435288Y2883153D1*
X1437913Y2885122D1*
X1440537Y2887746D1*
X1443162Y2891683D1*
X1443818Y2893652D1*
X1444474Y2894964D1*
X1445131Y2896933D1*
X1445787Y2899557D1*
X1446443Y2903494D1*
Y2910712D1*
X1445787Y2915305D1*
X1445131Y2917930D1*
X1444474Y2919898D1*
X1441850Y2925148D1*
X1436600Y2930397D1*
X1434632Y2931710D1*
X1431351Y2933022D1*
X1429383Y2933678D1*
X1426102Y2934334D1*
X1417571D1*
G37*
G36*
X876233Y1452051D2*
X878201Y1450082D1*
X890012Y1439584D1*
X895262Y1434990D1*
X901167Y1429741D1*
X908385D1*
Y1452051D1*
X926758Y1452707D1*
Y1459269D1*
X908385Y1459925D1*
Y1465174D1*
X903136D1*
Y1459925D1*
X874921Y1459269D1*
Y1453363D1*
X876233Y1452051D1*
X883451D1*
X890012Y1452707D1*
X896574D1*
X903136Y1452051D1*
Y1435647D1*
X902440Y1434934D1*
X902100Y1435040D1*
X901823Y1435647D1*
X897886Y1439584D1*
X887388Y1448770D1*
X883451Y1452051D1*
X876233D1*
G37*
G36*
X93425Y1543914D2*
X92768Y1543258D1*
X92112Y1541290D1*
X91456Y1539977D1*
X90800Y1536040D1*
Y1534072D1*
X91456Y1530791D1*
X92112Y1528822D1*
X92768Y1527510D1*
X94081Y1525542D1*
X96705Y1522917D1*
X98674Y1521605D1*
X102611Y1519636D1*
X104579Y1518980D1*
X107860Y1518324D1*
X116390D1*
X119671Y1518980D1*
X122296Y1519636D1*
X126233Y1521605D1*
X128201Y1522917D1*
X129514Y1524229D1*
X130826Y1526198D1*
X131482Y1527510D1*
X132138Y1529479D1*
Y1536696D1*
X129514Y1541946D1*
X127545Y1543914D1*
X130826Y1544570D1*
Y1551132D1*
X76364D1*
X75708Y1550476D1*
Y1545227D1*
X76364Y1544570D1*
X93425Y1543914D1*
X98018D1*
X106329Y1544570D1*
X114641D1*
X122952Y1543914D1*
X123481Y1543067D1*
X123608Y1542602D1*
X125577Y1538665D1*
X126233Y1538009D1*
Y1530791D1*
X125577Y1530135D1*
Y1529479D1*
X123608Y1527510D1*
X120984Y1526198D1*
X119015Y1525542D1*
X114422Y1524885D1*
X109829D1*
X105236Y1525542D1*
X101299Y1526854D1*
X100642Y1527510D1*
X99330Y1528166D1*
X98018Y1529479D1*
Y1530135D1*
X97362Y1531447D1*
X96705Y1533416D1*
X96049Y1534072D1*
Y1538009D1*
X96705Y1538665D1*
X97362Y1541290D1*
X98018Y1543258D1*
Y1543914D1*
X93425D1*
G37*
G36*
X105892Y1511762D2*
X100642Y1511106D1*
X98018Y1510450D1*
X96705Y1509794D1*
X94737Y1508481D1*
X93425Y1507169D1*
X92112Y1505200D1*
X91456Y1503888D1*
X90800Y1500607D1*
Y1498639D1*
X91456Y1495358D1*
X93425Y1491421D1*
X94737Y1489452D1*
X96049Y1488140D1*
Y1487484D1*
X92112Y1486828D1*
Y1481578D1*
X92768Y1480922D1*
X130826D1*
Y1486828D1*
X101955Y1487484D1*
X99330Y1490108D1*
Y1490765D1*
X98018Y1493389D1*
X97362Y1495358D1*
X96705Y1496014D1*
Y1499295D1*
X97362Y1499951D1*
X98018Y1501919D1*
X98145Y1502385D1*
X98674Y1503232D1*
X101299Y1504544D1*
X130826Y1505200D1*
Y1511762D1*
X105892D1*
G37*
G36*
X82270Y1472392D2*
X82054Y1471596D1*
X81613Y1471080D1*
X80301Y1468455D1*
X78989Y1464518D1*
X78333Y1461893D1*
X77676Y1457300D1*
Y1454019D1*
X78333Y1449426D1*
X78989Y1446801D1*
X79645Y1445489D1*
X80301Y1443521D1*
X81613Y1441552D1*
X82270Y1440240D1*
X86207Y1436303D1*
X88175Y1434990D1*
X93425Y1432366D1*
X95393Y1431710D1*
X98674Y1431053D1*
X111797D1*
X115078Y1431710D1*
X119015Y1433022D1*
X121640Y1434334D1*
X123608Y1435647D1*
X128201Y1440240D1*
X129514Y1442208D1*
X130170Y1443521D1*
X131482Y1447458D1*
X132138Y1450082D1*
Y1460581D1*
X130826Y1465830D1*
X130170Y1467799D1*
X129514Y1469111D1*
X128858Y1471080D1*
X128201Y1472392D1*
X105236D1*
Y1454019D1*
X110485D1*
Y1465830D1*
X115515Y1466486D1*
X120546D1*
X125577Y1465830D1*
Y1465174D1*
X126233Y1462549D1*
X126889Y1461893D1*
Y1450738D1*
X126233Y1450082D1*
X125577Y1448114D1*
X124921Y1446801D1*
X122952Y1444177D1*
X120327Y1441552D1*
X116390Y1439584D1*
X114422Y1438927D1*
X111797Y1438271D1*
X107204Y1437615D1*
X102611D1*
X98018Y1438271D1*
X95393Y1438927D1*
X93425Y1439584D1*
X90800Y1440896D1*
X90144Y1441552D1*
X88831Y1442208D1*
X86207Y1444833D1*
Y1445489D1*
X84894Y1447458D1*
X84238Y1448770D1*
X83582Y1452051D1*
X82926Y1452707D1*
Y1457300D1*
X83582Y1457956D1*
X84238Y1461237D1*
X84894Y1463206D1*
X87519Y1468455D1*
X90144Y1471736D1*
Y1472392D1*
X82270D1*
G37*
G36*
X1193818Y1543914D2*
X1193162Y1543258D1*
X1192506Y1541290D1*
X1191850Y1539977D1*
X1191194Y1536040D1*
Y1534072D1*
X1191850Y1530791D1*
X1192506Y1528822D1*
X1193162Y1527510D1*
X1194474Y1525542D1*
X1197099Y1522917D1*
X1199068Y1521605D1*
X1203005Y1519636D1*
X1204973Y1518980D1*
X1208254Y1518324D1*
X1216784D1*
X1220065Y1518980D1*
X1222690Y1519636D1*
X1226627Y1521605D1*
X1228595Y1522917D1*
X1229907Y1524229D1*
X1231220Y1526198D1*
X1231876Y1527510D1*
X1232532Y1529479D1*
Y1536696D1*
X1229907Y1541946D1*
X1227939Y1543914D1*
X1231220Y1544570D1*
Y1551132D1*
X1176758D1*
X1176102Y1550476D1*
Y1545227D1*
X1176758Y1544570D1*
X1193818Y1543914D1*
X1198411D1*
X1206723Y1544570D1*
X1215034D1*
X1223346Y1543914D1*
X1223874Y1543067D1*
X1224002Y1542602D1*
X1225970Y1538665D1*
X1226627Y1538009D1*
Y1530791D1*
X1225970Y1530135D1*
Y1529479D1*
X1224002Y1527510D1*
X1221377Y1526198D1*
X1219409Y1525542D1*
X1214816Y1524885D1*
X1210222D1*
X1205629Y1525542D1*
X1201692Y1526854D1*
X1201036Y1527510D1*
X1199724Y1528166D1*
X1198411Y1529479D1*
Y1530135D1*
X1197755Y1531447D1*
X1197099Y1533416D1*
X1196443Y1534072D1*
Y1538009D1*
X1197099Y1538665D1*
X1197755Y1541290D1*
X1198411Y1543258D1*
Y1543914D1*
X1193818D1*
G37*
G36*
X1206285Y1511762D2*
X1201036Y1511106D1*
X1198411Y1510450D1*
X1197099Y1509794D1*
X1195131Y1508481D1*
X1193818Y1507169D1*
X1192506Y1505200D1*
X1191850Y1503888D1*
X1191194Y1500607D1*
Y1498639D1*
X1191850Y1495358D1*
X1193818Y1491421D1*
X1195131Y1489452D1*
X1196443Y1488140D1*
Y1487484D1*
X1192506Y1486828D1*
Y1481578D1*
X1193162Y1480922D1*
X1231220D1*
Y1486828D1*
X1202348Y1487484D1*
X1199724Y1490108D1*
Y1490765D1*
X1198411Y1493389D1*
X1197755Y1495358D1*
X1197099Y1496014D1*
Y1499295D1*
X1197755Y1499951D1*
X1198411Y1501919D1*
X1198539Y1502385D1*
X1199068Y1503232D1*
X1201692Y1504544D1*
X1231220Y1505200D1*
Y1511762D1*
X1206285D1*
G37*
G36*
X1182663Y1472392D2*
X1182448Y1471596D1*
X1182007Y1471080D1*
X1180695Y1468455D1*
X1179383Y1464518D1*
X1178726Y1461893D1*
X1178070Y1457300D1*
Y1454019D1*
X1178726Y1449426D1*
X1179383Y1446801D1*
X1180039Y1445489D1*
X1180695Y1443521D1*
X1182007Y1441552D1*
X1182663Y1440240D1*
X1186600Y1436303D1*
X1188569Y1434990D1*
X1193818Y1432366D1*
X1195787Y1431710D1*
X1199068Y1431053D1*
X1212191D1*
X1215472Y1431710D1*
X1219409Y1433022D1*
X1222033Y1434334D1*
X1224002Y1435647D1*
X1228595Y1440240D1*
X1229907Y1442208D1*
X1230564Y1443521D1*
X1231876Y1447458D1*
X1232532Y1450082D1*
Y1460581D1*
X1231220Y1465830D1*
X1230564Y1467799D1*
X1229907Y1469111D1*
X1229251Y1471080D1*
X1228595Y1472392D1*
X1205629D1*
Y1454019D1*
X1210879D1*
Y1465830D1*
X1215909Y1466486D1*
X1220940D1*
X1225970Y1465830D1*
Y1465174D1*
X1226627Y1462549D1*
X1227283Y1461893D1*
Y1450738D1*
X1226627Y1450082D1*
X1225970Y1448114D1*
X1225314Y1446801D1*
X1223346Y1444177D1*
X1220721Y1441552D1*
X1216784Y1439584D1*
X1214816Y1438927D1*
X1212191Y1438271D1*
X1207598Y1437615D1*
X1203005D1*
X1198411Y1438271D1*
X1195787Y1438927D1*
X1193818Y1439584D1*
X1191194Y1440896D1*
X1190537Y1441552D1*
X1189225Y1442208D1*
X1186600Y1444833D1*
Y1445489D1*
X1185288Y1447458D1*
X1184632Y1448770D1*
X1183976Y1452051D1*
X1183320Y1452707D1*
Y1457300D1*
X1183976Y1457956D1*
X1184632Y1461237D1*
X1185288Y1463206D1*
X1187913Y1468455D1*
X1190537Y1471736D1*
Y1472392D1*
X1182663D1*
G37*
G36*
X1086207Y1521605D2*
X1085550Y1520948D1*
Y1512418D1*
X1086207Y1511762D1*
X1090800Y1509794D1*
X1096705Y1507169D1*
X1110485Y1501263D1*
X1112453Y1500607D1*
X1113766Y1499951D1*
X1114190Y1499063D1*
X1113766Y1498639D1*
X1111797Y1497982D1*
X1099986Y1492733D1*
X1092768Y1489452D1*
X1086863Y1486828D1*
X1085550Y1485515D1*
Y1476985D1*
X1137388D1*
Y1482891D1*
X1094737Y1484203D1*
X1098674Y1486171D1*
X1100642Y1486828D1*
X1106548Y1489452D1*
X1111141Y1491421D1*
X1122952Y1496670D1*
Y1501263D1*
X1118359Y1503232D1*
X1094737Y1513731D1*
X1137388Y1515043D1*
Y1521605D1*
X1086207D1*
G37*
G36*
X1085550Y1471080D2*
Y1464518D1*
X1128858Y1450082D1*
X1128201Y1449426D1*
X1086863Y1435647D1*
X1085550Y1434990D1*
Y1428429D1*
X1086863D1*
X1094737Y1431053D1*
X1136732Y1445489D1*
X1137388Y1446145D1*
Y1453363D1*
X1134107Y1454675D1*
X1092112Y1469111D1*
X1086207Y1471080D1*
X1085550D1*
G37*
G36*
X992375Y1502576D2*
Y1496670D1*
X993687Y1496014D1*
X996968Y1494702D1*
X1010091Y1490108D1*
X1019934Y1486828D1*
X1022558Y1485515D1*
X1021246Y1484859D1*
X1013372Y1482234D1*
X994999Y1475673D1*
X992375Y1474360D1*
Y1468455D1*
X993687D1*
X997624Y1469767D1*
X1029120Y1481578D1*
X1030432Y1482234D1*
X1031089Y1482891D1*
Y1488140D1*
X1030432Y1488796D1*
X998936Y1500607D1*
X995655Y1501919D1*
X993687Y1502576D1*
X992375D1*
G37*
G36*
X979251Y1463206D2*
Y1434990D1*
X1005498D1*
Y1436959D1*
X1004842Y1441552D1*
X1004186Y1442208D1*
Y1447458D1*
X1004842Y1448114D1*
X1005498Y1451395D1*
Y1452051D1*
X1008779Y1455332D1*
X1010091Y1455988D1*
X1013372Y1456644D1*
X1016653D1*
X1019934Y1455988D1*
X1021902Y1455332D1*
X1023215Y1454675D1*
X1026495Y1451395D1*
Y1450082D1*
X1027152Y1449426D1*
Y1442208D1*
X1026495Y1441552D1*
X1025183Y1437615D1*
X1023871Y1434990D1*
X1022558Y1433022D1*
X1029776D1*
X1031089Y1435647D1*
X1031745Y1437615D1*
X1032401Y1440896D1*
Y1450738D1*
X1031745Y1452707D1*
X1029776Y1456644D1*
X1026495Y1459925D1*
X1024527Y1461237D1*
X1021902Y1462549D1*
X1019278Y1463206D1*
X1010091D1*
X1008123Y1462549D1*
X1005498Y1461237D1*
X1001561Y1457300D1*
X1000249Y1454675D1*
X999592Y1452707D1*
X998936Y1448114D1*
Y1444833D1*
X999592Y1444177D1*
Y1441552D1*
X994562Y1440896D1*
X989531D1*
X984501Y1441552D1*
Y1463206D1*
X979251D1*
G37*
G36*
X813897Y1502576D2*
X811272Y1501919D1*
X809304Y1501263D1*
X807335Y1499951D1*
X805367Y1497982D1*
X803398Y1494045D1*
Y1492733D1*
X802598Y1492048D1*
X801840Y1492133D1*
X801430Y1492733D1*
Y1494045D1*
X800117Y1496670D1*
X797493Y1499295D1*
X793556Y1501263D1*
X786994D1*
X785026Y1500607D1*
X783057Y1499295D1*
X781089Y1497326D1*
X779776Y1495358D1*
X779120Y1494045D1*
X778464Y1492077D1*
X777808Y1487484D1*
Y1484859D1*
X778464Y1480266D1*
X779120Y1477641D1*
X780432Y1473704D1*
X781089Y1472392D1*
X787650D1*
Y1473048D1*
X786994Y1474360D1*
X785682Y1476329D1*
X784369Y1480266D1*
X783713Y1482891D1*
X783057Y1483547D1*
Y1487484D1*
X783713Y1488140D1*
X784369Y1490765D1*
Y1491421D1*
X786338Y1493389D1*
X787650Y1494045D1*
X790056Y1494702D1*
X792462D1*
X794868Y1494045D1*
X796180Y1493389D1*
X798805Y1490765D1*
Y1490108D1*
X799461Y1488796D1*
X800117Y1482234D1*
X800774Y1481578D1*
X805367D1*
X806023Y1487484D1*
X806679Y1490765D1*
X807335Y1492077D1*
X807463Y1492542D1*
X807991Y1493389D1*
X809304Y1494045D1*
X809960Y1494702D1*
X811928Y1495358D1*
X814334Y1496014D1*
X816740D1*
X819146Y1495358D1*
X821115Y1494702D1*
X823739Y1493389D1*
X825708Y1491421D1*
Y1490765D1*
X826364Y1488796D1*
X827020Y1488140D1*
Y1480266D1*
X826364Y1479610D1*
X825052Y1475673D1*
X824396Y1474360D1*
X823083Y1472392D1*
X822427Y1471080D1*
X828989D1*
X829645Y1471736D1*
X830957Y1474360D1*
X832270Y1479610D1*
Y1489452D1*
X831613Y1492077D1*
X829645Y1496014D1*
X826364Y1499295D1*
X824396Y1500607D1*
X823083Y1501263D1*
X821115Y1501919D1*
X818490Y1502576D1*
X813897D1*
G37*
G36*
X826364Y1461237D2*
Y1452707D1*
X779120Y1452051D1*
Y1447458D1*
X780432Y1446801D1*
X782401Y1446145D1*
X783713Y1445489D1*
X785682Y1443521D1*
Y1442208D1*
X786338Y1436303D1*
X790275D1*
Y1445489D1*
X802305Y1446145D1*
X814334D1*
X826364Y1445489D1*
Y1436303D1*
X830957D1*
Y1461237D1*
X826364D1*
G37*
G36*
X679383Y1503888D2*
Y1471736D1*
X680039Y1471080D1*
X684632D1*
Y1497326D1*
X685507Y1497982D1*
X686382D1*
X687257Y1497326D1*
X690537Y1495358D1*
X712191Y1484203D1*
X730564Y1475017D1*
X731220D1*
Y1481578D1*
X714816Y1490108D1*
X687257Y1503888D1*
X679383D1*
G37*
G36*
X726627Y1461237D2*
Y1452707D1*
X679383Y1452051D1*
Y1447458D1*
X680695Y1446801D1*
X682663Y1446145D1*
X683976Y1445489D1*
X685944Y1443521D1*
Y1442208D1*
X686600Y1436303D1*
X690537D1*
Y1445489D1*
X702567Y1446145D1*
X714597D1*
X726627Y1445489D1*
Y1436303D1*
X731220D1*
Y1461237D1*
X726627D1*
G37*
G36*
X628201Y1503232D2*
Y1478954D1*
X627506Y1478241D1*
X627166Y1478347D1*
X626889Y1478954D1*
X611797Y1494045D1*
X608516Y1496670D1*
X606548Y1497982D1*
X602611Y1499951D1*
X600642Y1500607D1*
X598018Y1501263D1*
X592112D1*
X589487Y1500607D1*
X585550Y1498639D1*
X583582Y1496670D1*
X582270Y1494702D1*
X581613Y1493389D1*
X580957Y1491421D1*
X580301Y1487484D1*
Y1484859D1*
X580957Y1480266D1*
X581613Y1477641D1*
X582926Y1473704D1*
X583582Y1473048D1*
X590144D1*
X589487Y1474360D1*
X588175Y1476329D1*
X586863Y1480266D1*
X586207Y1482891D1*
X585550Y1483547D1*
Y1486828D1*
X586207Y1487484D1*
X586863Y1490108D1*
Y1490765D1*
X588831Y1492733D1*
X591456Y1494045D1*
X593862Y1494702D1*
X596268D1*
X598674Y1494045D1*
X602611Y1492733D1*
X605236Y1491421D1*
X606548Y1490108D1*
X609173Y1488140D1*
X613766Y1484203D1*
X626889Y1471736D1*
X633451D1*
Y1503232D1*
X628201D1*
G37*
G36*
X628858Y1461237D2*
Y1452707D1*
X581613Y1452051D1*
Y1447458D1*
X582926Y1446801D1*
X584894Y1446145D1*
X586207Y1445489D1*
X588175Y1443521D1*
Y1442208D1*
X588831Y1436303D1*
X592768D1*
Y1445489D1*
X604798Y1446145D1*
X616828D1*
X628858Y1445489D1*
Y1436303D1*
X633451D1*
Y1461237D1*
X628858D1*
G37*
G36*
X1381482Y2407694D2*
X1377939Y2404150D1*
X1376758Y2401788D1*
X1375577Y2398245D1*
X1374396Y2391158D1*
Y2387615D1*
X1375577Y2381710D1*
X1376758Y2378166D1*
X1379120Y2373442D1*
X1387388Y2365174D1*
X1394474Y2361631D1*
X1399199Y2360450D1*
X1415734D1*
X1422821Y2362812D1*
X1426364Y2365174D1*
X1431089Y2369898D1*
X1433451Y2373442D1*
X1434632Y2375804D1*
X1435813Y2380528D1*
Y2394702D1*
X1434632Y2398245D1*
X1431089Y2405332D1*
X1429907Y2406513D1*
X1433057Y2407694D1*
X1436207D1*
X1439356Y2406513D1*
X1449986Y2402969D1*
X1451167Y2401788D1*
X1453529Y2400607D1*
X1460616Y2393521D1*
Y2392339D1*
X1461797Y2388796D1*
X1462978Y2387615D1*
Y2372261D1*
X1461797Y2371080D1*
Y2368717D1*
X1471246D1*
X1472427Y2369898D1*
Y2387615D1*
X1471246Y2392339D1*
X1466522Y2401788D1*
X1458254Y2410056D1*
X1454711Y2412418D1*
X1449986Y2414780D1*
X1442900Y2417143D1*
X1438175Y2418324D1*
X1432270Y2419505D1*
X1403923D1*
X1398018Y2418324D1*
X1394474Y2417143D1*
X1387388Y2413599D1*
X1383844Y2411237D1*
X1381482Y2408875D1*
Y2407694D1*
X1409829D1*
X1412978Y2408875D1*
X1416128D1*
X1419278Y2407694D1*
X1422821Y2405332D1*
X1423772Y2403807D1*
X1424002Y2402969D1*
X1425183Y2398245D1*
X1426364Y2397064D1*
Y2382891D1*
X1425183Y2381710D1*
Y2380528D1*
X1420459Y2375804D1*
X1415734Y2373442D1*
X1409435Y2372261D1*
X1403136D1*
X1396837Y2373442D1*
X1393293Y2374623D1*
X1390931Y2375804D1*
X1386207Y2380528D1*
Y2381710D1*
X1385026Y2385253D1*
X1383844Y2386434D1*
Y2392339D1*
X1385026Y2393521D1*
X1387388Y2398245D1*
Y2399426D1*
X1389750Y2401788D1*
X1392112Y2402969D1*
X1393293Y2404150D1*
X1400380Y2406513D1*
X1409829Y2407694D1*
X1381482D1*
G37*
G36*
X1380301Y2336828D2*
X1379120Y2335647D1*
X1375577Y2328560D1*
X1374396Y2321473D1*
Y2317930D1*
X1375577Y2310843D1*
X1379120Y2303757D1*
X1385026Y2297851D1*
X1392112Y2294308D1*
X1399199Y2291946D1*
X1406285Y2290765D1*
X1419278Y2289584D1*
X1427545D1*
X1441718Y2290765D1*
X1447624Y2291946D1*
X1452348Y2293127D1*
X1455892Y2294308D1*
X1460616Y2296670D1*
X1464159Y2299032D1*
X1467703Y2302576D1*
X1470065Y2306119D1*
X1471246Y2308481D1*
X1472427Y2312024D1*
Y2327379D1*
X1471246Y2330922D1*
X1470065Y2333284D1*
X1467703Y2336828D1*
X1464159Y2340371D1*
X1460616Y2342733D1*
X1455892Y2345095D1*
X1452348Y2346276D1*
X1447624Y2347458D1*
X1441718Y2348639D1*
X1427545Y2349820D1*
X1419278D1*
X1406285Y2348639D1*
X1400380Y2347458D1*
X1395655Y2346276D1*
X1392112Y2345095D1*
X1385026Y2341552D1*
X1380301Y2336828D1*
X1414553D1*
X1420459Y2338009D1*
X1426364D1*
X1432270Y2336828D1*
X1446443Y2335647D1*
X1451167Y2334465D1*
X1454711Y2333284D1*
X1457073Y2332103D1*
X1461797Y2327379D1*
Y2326198D1*
X1462978Y2325017D1*
Y2314387D1*
X1461797Y2313206D1*
Y2312024D1*
X1457073Y2307300D1*
X1454711Y2306119D1*
X1451167Y2304938D1*
X1446443Y2303757D1*
X1433451Y2302576D1*
X1427152Y2301395D1*
X1420852D1*
X1414553Y2302576D1*
X1401561Y2303757D1*
X1396837Y2304938D1*
X1393293Y2306119D1*
X1390931Y2307300D1*
X1385026Y2313206D1*
Y2315568D1*
X1383844Y2316749D1*
Y2322654D1*
X1385026Y2323835D1*
X1387388Y2328560D1*
X1390931Y2332103D1*
X1393293Y2333284D1*
X1396837Y2334465D1*
X1401561Y2335647D1*
X1414553Y2336828D1*
X1380301D1*
G37*
G36*
X1732270Y2330922D2*
X1731881Y2329489D1*
X1731089Y2328560D1*
X1729907Y2326198D1*
X1728726Y2322654D1*
X1727545Y2316749D1*
Y2312024D1*
X1728726Y2306119D1*
X1732270Y2299032D1*
X1739356Y2291946D1*
X1742900Y2289584D1*
X1745262Y2288402D1*
X1752348Y2286040D1*
X1757073Y2284859D1*
X1772427D1*
X1778333Y2286040D1*
X1781876Y2287221D1*
X1788963Y2290765D1*
X1794868Y2296670D1*
X1798411Y2303757D1*
Y2317930D1*
X1797230Y2321473D1*
X1793687Y2328560D1*
X1791325Y2330922D1*
X1796443Y2332103D1*
X1801561D1*
X1806679Y2330922D1*
X1810222Y2329741D1*
X1816128Y2323835D1*
Y2321473D1*
X1817309Y2320292D1*
Y2304938D1*
X1816128Y2303757D1*
X1814947Y2297851D1*
X1813766Y2294308D1*
X1812585Y2291946D1*
X1824396D1*
X1825577Y2295489D1*
X1826758Y2301395D1*
Y2321473D1*
X1824396Y2328560D1*
X1823215Y2330922D1*
X1816128Y2338009D1*
X1809041Y2341552D1*
X1804317Y2342733D1*
X1791325Y2343914D1*
X1731089D1*
X1729907Y2342733D1*
Y2333284D1*
X1732270Y2330922D1*
X1740537D1*
X1754711Y2332103D1*
X1768884D1*
X1783057Y2330922D1*
X1784008Y2329397D1*
X1784238Y2328560D1*
X1786600Y2325017D1*
X1787781Y2321473D1*
X1788963Y2320292D1*
Y2307300D1*
X1787781Y2306119D1*
Y2304938D1*
X1783057Y2300213D1*
X1775970Y2297851D1*
X1768096Y2296670D1*
X1760222D1*
X1752348Y2297851D1*
X1748805Y2299032D1*
X1746443Y2300213D1*
X1745262Y2301395D1*
X1742900Y2302576D1*
X1740537Y2304938D1*
Y2306119D1*
X1739356Y2308481D1*
X1738175Y2312024D1*
X1736994Y2313206D1*
Y2320292D1*
X1738175Y2321473D1*
X1739356Y2326198D1*
X1740537Y2329741D1*
Y2330922D1*
X1732270D1*
G37*
G36*
X1460616Y2277773D2*
Y2234072D1*
X1459364Y2232789D1*
X1458752Y2232981D1*
X1458254Y2234072D1*
X1431089Y2261237D1*
X1425183Y2265961D1*
X1421640Y2268324D1*
X1414553Y2271867D1*
X1411010Y2273048D1*
X1406285Y2274229D1*
X1395655D1*
X1390931Y2273048D1*
X1383844Y2269505D1*
X1380301Y2265961D1*
X1377939Y2262418D1*
X1376758Y2260056D1*
X1375577Y2256513D1*
X1374396Y2249426D1*
Y2244702D1*
X1375577Y2236434D1*
X1376758Y2231710D1*
X1379120Y2224623D1*
X1380301Y2223442D1*
X1392112D1*
X1390931Y2225804D1*
X1388569Y2229347D1*
X1386207Y2236434D1*
X1385026Y2241158D1*
X1383844Y2242339D1*
Y2248245D1*
X1385026Y2249426D1*
X1386207Y2254150D1*
Y2255332D1*
X1389750Y2258875D1*
X1394474Y2261237D1*
X1398805Y2262418D1*
X1403136D1*
X1407466Y2261237D1*
X1414553Y2258875D1*
X1419278Y2256513D1*
X1421640Y2254150D1*
X1426364Y2250607D1*
X1434632Y2243521D1*
X1458254Y2221080D1*
X1470065D1*
Y2277773D1*
X1460616D1*
G37*
G36*
X1733451Y2263599D2*
X1732270Y2262418D1*
X1729907Y2257694D1*
X1728726Y2254150D1*
X1727545Y2247064D1*
Y2243521D1*
X1728726Y2236434D1*
X1729907Y2232891D1*
X1732270Y2228166D1*
X1740537Y2219898D1*
X1747624Y2216355D1*
X1752348Y2215174D1*
X1758254Y2213993D1*
X1772427D1*
X1778333Y2215174D1*
X1785419Y2217536D1*
X1787781Y2218717D1*
X1791325Y2221080D1*
X1797230Y2226985D1*
X1799592Y2230528D1*
X1801955Y2237615D1*
Y2252969D1*
X1800774Y2256513D1*
X1797230Y2263599D1*
X1791325Y2269505D1*
X1781876Y2274229D1*
X1777152Y2275410D1*
X1770065Y2276591D1*
X1760616D1*
X1752348Y2275410D1*
X1745262Y2273048D1*
X1742900Y2271867D1*
X1739356Y2269505D1*
X1733451Y2263599D1*
X1753529D1*
X1761010Y2264780D1*
X1768490D1*
X1775970Y2263599D1*
X1780695Y2262418D1*
X1785419Y2260056D1*
X1791325Y2254150D1*
Y2252969D1*
X1792506Y2251788D1*
Y2238796D1*
X1791325Y2237615D1*
X1788963Y2234072D1*
X1788574Y2232639D1*
X1787781Y2231710D1*
X1785419Y2230528D1*
X1784238Y2229347D1*
X1777152Y2226985D1*
X1768884Y2225804D1*
X1760616D1*
X1752348Y2226985D1*
X1748805Y2228166D1*
X1744081Y2230528D1*
X1739356Y2235253D1*
Y2236434D1*
X1738175Y2241158D1*
X1736994Y2242339D1*
Y2248245D1*
X1738175Y2249426D1*
X1739356Y2252969D1*
X1740537Y2255332D1*
Y2256513D1*
X1742900Y2258875D1*
X1745262Y2260056D1*
X1753529Y2263599D1*
X1733451D1*
G37*
G36*
X1460616Y2206906D2*
Y2163206D1*
X1459364Y2161923D1*
X1458752Y2162115D1*
X1458254Y2163206D1*
X1431089Y2190371D1*
X1425183Y2195095D1*
X1421640Y2197458D1*
X1414553Y2201001D1*
X1411010Y2202182D1*
X1406285Y2203363D1*
X1395655D1*
X1390931Y2202182D1*
X1383844Y2198639D1*
X1380301Y2195095D1*
X1377939Y2191552D1*
X1376758Y2189190D1*
X1375577Y2185647D1*
X1374396Y2178560D1*
Y2173835D1*
X1375577Y2165568D1*
X1376758Y2160843D1*
X1379120Y2153757D1*
X1380301Y2152576D1*
X1392112D1*
X1390931Y2154938D1*
X1388569Y2158481D1*
X1386207Y2165568D1*
X1385026Y2170292D1*
X1383844Y2171473D1*
Y2177379D1*
X1385026Y2178560D1*
X1386207Y2183284D1*
Y2184465D1*
X1389750Y2188009D1*
X1394474Y2190371D1*
X1398805Y2191552D1*
X1403136D1*
X1407466Y2190371D1*
X1414553Y2188009D1*
X1419278Y2185647D1*
X1421640Y2183284D1*
X1426364Y2179741D1*
X1434632Y2172654D1*
X1458254Y2150213D1*
X1470065D1*
Y2206906D1*
X1460616D1*
G37*
G36*
X1702742Y2201001D2*
X1701561Y2199820D1*
Y2190371D1*
X1702742Y2189190D1*
X1799592D1*
Y2201001D1*
X1702742D1*
G37*
G36*
X1578726Y2180922D2*
X1578338Y2179489D1*
X1577545Y2178560D1*
X1576364Y2176198D1*
X1575183Y2169111D1*
Y2164387D1*
X1576364Y2158481D1*
X1577545Y2154938D1*
X1579907Y2150213D1*
X1580859Y2148689D1*
X1581089Y2147851D1*
X1578726Y2146670D1*
X1576364D1*
X1574002Y2147851D1*
X1569278Y2149032D1*
X1562191Y2151395D1*
X1561010Y2152576D1*
X1558648Y2153757D1*
X1551561Y2160843D1*
Y2162024D1*
X1550380Y2164387D1*
X1549199Y2169111D1*
X1548018Y2170292D1*
Y2178560D1*
X1549199Y2179741D1*
X1550380Y2184465D1*
Y2186828D1*
X1540931D1*
X1539750Y2185647D1*
X1538569Y2178560D1*
Y2173835D1*
X1539750Y2165568D1*
X1542112Y2158481D1*
X1543293Y2156119D1*
X1545655Y2152576D1*
X1553923Y2144308D1*
X1557466Y2141946D1*
X1562191Y2139584D1*
X1572821Y2136040D1*
X1578726Y2134859D1*
X1607073D1*
X1612978Y2136040D1*
X1616522Y2137221D1*
X1625970Y2141946D1*
X1631876Y2147851D1*
X1634238Y2151395D1*
X1635419Y2153757D1*
X1636600Y2158481D1*
Y2171473D1*
X1634238Y2178560D1*
X1631876Y2182103D1*
X1624789Y2189190D1*
X1617703Y2192733D1*
X1612978Y2193914D1*
X1595262D1*
X1591718Y2192733D1*
X1586994Y2190371D1*
X1579907Y2183284D1*
X1578726Y2180922D1*
X1595262D1*
X1601955Y2182103D1*
X1608648D1*
X1615341Y2180922D1*
X1618884Y2179741D1*
X1621246Y2178560D1*
X1624789Y2175017D1*
Y2173835D1*
X1625970Y2171473D1*
X1627152Y2170292D1*
Y2159662D1*
X1625970Y2158481D1*
Y2157300D1*
X1620065Y2151395D1*
X1617703Y2150213D1*
X1610616Y2147851D1*
X1603529Y2146670D1*
X1596443D1*
X1589356Y2147851D1*
Y2149032D1*
X1586994Y2153757D1*
X1585813Y2158481D1*
X1584632Y2159662D1*
Y2167930D1*
X1585813Y2169111D1*
X1588175Y2175017D1*
X1588405Y2175854D1*
X1589356Y2177379D1*
X1591718Y2178560D1*
X1595262Y2180922D1*
X1578726D1*
G37*
G36*
X1732270Y2158481D2*
X1731089Y2157300D1*
X1729907Y2153757D1*
X1728726Y2151395D1*
X1727545Y2144308D1*
Y2140765D1*
X1728726Y2134859D1*
X1729907Y2131316D1*
X1731089Y2128954D1*
X1733451Y2125410D1*
X1738175Y2120686D1*
X1741718Y2118324D1*
X1748805Y2114780D1*
X1752348Y2113599D1*
X1758254Y2112418D1*
X1773608D1*
X1779514Y2113599D1*
X1784238Y2114780D1*
X1791325Y2118324D1*
X1794868Y2120686D1*
X1797230Y2123048D1*
X1799592Y2126591D1*
X1800774Y2128954D1*
X1801955Y2132497D1*
Y2145489D1*
X1797230Y2154938D1*
X1793687Y2158481D1*
X1799592Y2159662D1*
Y2171473D1*
X1701561D1*
X1700380Y2170292D1*
Y2160843D1*
X1701561Y2159662D1*
X1732270Y2158481D1*
X1740537D1*
X1755498Y2159662D1*
X1770459D1*
X1785419Y2158481D1*
X1786371Y2156956D1*
X1786600Y2156119D1*
X1790144Y2149032D1*
X1791325Y2147851D1*
Y2134859D1*
X1790144Y2133678D1*
Y2132497D1*
X1786600Y2128954D1*
X1781876Y2126591D1*
X1778333Y2125410D1*
X1770065Y2124229D1*
X1761797D1*
X1753529Y2125410D1*
X1746443Y2127773D1*
X1745262Y2128954D1*
X1742900Y2130135D1*
X1740537Y2132497D1*
Y2133678D1*
X1739356Y2136040D1*
X1738175Y2139584D1*
X1736994Y2140765D1*
Y2147851D1*
X1738175Y2149032D1*
X1739356Y2153757D1*
X1740537Y2157300D1*
Y2158481D1*
X1732270D1*
G37*
G36*
X1382663Y2139584D2*
X1381482Y2138402D1*
X1379120Y2133678D1*
X1375577Y2123048D1*
X1374396Y2113599D1*
Y2108875D1*
X1375577Y2100607D1*
X1377939Y2093521D1*
X1379120Y2091158D1*
X1381482Y2087615D1*
X1390931Y2078166D1*
X1394474Y2075804D1*
X1399199Y2073442D1*
X1406285Y2071080D1*
X1411010Y2069898D1*
X1436994D1*
X1441718Y2071080D1*
X1448805Y2073442D1*
X1455892Y2076985D1*
X1460616Y2080528D1*
X1462978Y2082891D1*
X1466522Y2087615D1*
X1470065Y2094702D1*
X1472427Y2101788D1*
Y2120686D1*
X1471246Y2125410D1*
X1470065Y2128954D1*
X1468884Y2131316D1*
X1467703Y2134859D1*
X1465341Y2139584D1*
X1449986D1*
X1457073Y2131316D1*
X1460616Y2124229D1*
X1461797Y2120686D1*
X1462978Y2119505D1*
Y2104150D1*
X1461797Y2102969D1*
X1460616Y2099426D1*
X1458254Y2095883D1*
Y2094702D1*
X1453529Y2089977D1*
X1451167Y2088796D1*
X1449986Y2087615D1*
X1447624Y2086434D1*
X1444081Y2085253D1*
X1441718Y2084072D1*
X1436994Y2082891D1*
X1428333Y2081710D1*
X1419671D1*
X1411010Y2082891D1*
X1406285Y2084072D1*
X1402742Y2085253D1*
X1395655Y2088796D1*
X1388569Y2095883D1*
Y2097064D1*
X1386207Y2101788D1*
X1385026Y2106513D1*
X1383844Y2107694D1*
Y2115961D1*
X1385026Y2117143D1*
X1386207Y2121867D1*
X1387388Y2125410D1*
X1388569Y2127773D1*
X1390931Y2131316D1*
X1394474Y2136040D1*
X1396837Y2139584D1*
X1382663D1*
G37*
G36*
X1617703Y2115961D2*
Y2101788D1*
X1634238D1*
Y2115961D1*
X1617703D1*
G37*
G36*
X1702742Y2099426D2*
X1701561Y2098245D1*
Y2088796D1*
X1702742Y2087615D1*
X1799592D1*
Y2099426D1*
X1702742D1*
G37*
G36*
X1624789Y2082891D2*
Y2039190D1*
X1623537Y2037907D1*
X1622925Y2038099D1*
X1622427Y2039190D1*
X1595262Y2066355D1*
X1589356Y2071080D1*
X1585813Y2073442D1*
X1578726Y2076985D1*
X1575183Y2078166D1*
X1570459Y2079347D1*
X1559829D1*
X1555104Y2078166D1*
X1548018Y2074623D1*
X1544474Y2071080D1*
X1542112Y2067536D1*
X1540931Y2065174D1*
X1539750Y2061631D1*
X1538569Y2054544D1*
Y2049820D1*
X1539750Y2041552D1*
X1540931Y2036828D1*
X1543293Y2029741D1*
X1544474Y2028560D1*
X1556285D1*
X1555104Y2030922D1*
X1552742Y2034465D1*
X1550380Y2041552D1*
X1549199Y2046276D1*
X1548018Y2047458D1*
Y2053363D1*
X1549199Y2054544D1*
X1550380Y2059269D1*
Y2060450D1*
X1553923Y2063993D1*
X1558648Y2066355D1*
X1562978Y2067536D1*
X1567309D1*
X1571640Y2066355D1*
X1578726Y2063993D1*
X1583451Y2061631D1*
X1585813Y2059269D1*
X1590537Y2055725D1*
X1598805Y2048639D1*
X1622427Y2026198D1*
X1634238D1*
Y2082891D1*
X1624789D1*
G37*
G36*
X1706285Y2069898D2*
Y2058087D1*
X1716915D1*
Y2069898D1*
X1706285D1*
G37*
G36*
X1731089D2*
X1729907Y2068717D1*
Y2059269D1*
X1731089Y2058087D1*
X1799592D1*
Y2069898D1*
X1731089D1*
G37*
G36*
X1377939Y2054544D2*
X1376758Y2053363D1*
Y2038009D1*
X1377939Y2036828D1*
X1386207Y2033284D1*
X1396837Y2028560D1*
X1421640Y2017930D1*
X1425183Y2016749D1*
X1427545Y2015568D1*
X1428309Y2013969D1*
X1427545Y2013206D1*
X1424002Y2012024D1*
X1402742Y2002576D1*
X1389750Y1996670D1*
X1379120Y1991946D1*
X1376758Y1989584D1*
Y1974229D1*
X1470065D1*
Y1984859D1*
X1393293Y1987221D1*
X1400380Y1990765D1*
X1403923Y1991946D1*
X1414553Y1996670D1*
X1422821Y2000213D1*
X1444081Y2009662D1*
Y2017930D1*
X1435813Y2021473D1*
X1393293Y2040371D1*
X1470065Y2042733D1*
Y2054544D1*
X1377939D1*
G37*
G36*
X1729907Y2040371D2*
Y2029741D1*
X1784238Y2028560D1*
X1785190Y2027035D1*
X1785419Y2026198D1*
X1787781Y2022654D1*
X1790144Y2017930D1*
X1791325Y2016749D1*
Y2004938D1*
X1790144Y2003757D1*
Y2002576D1*
X1787781Y2000213D1*
X1785419Y1999032D1*
X1781876Y1997851D1*
X1729907Y1996670D1*
Y1986040D1*
X1784238D1*
X1791325Y1988402D1*
X1794868Y1990765D1*
X1799592Y1995489D1*
X1800774Y1997851D1*
X1801955Y2001395D1*
Y2014387D1*
X1798411Y2021473D1*
X1796049Y2025017D1*
X1792506Y2028560D1*
X1799592Y2029741D1*
Y2040371D1*
X1729907D1*
G37*
G36*
X1540931Y2017930D2*
Y2006119D1*
X1618884Y1980135D1*
X1617703Y1978954D1*
X1543293Y1954150D1*
X1540931Y1952969D1*
Y1941158D1*
X1543293D1*
X1557466Y1945883D1*
X1633057Y1971867D1*
X1634238Y1973048D1*
Y1986040D1*
X1628333Y1988402D1*
X1552742Y2014387D1*
X1542112Y2017930D1*
X1540931D1*
G37*
G36*
X1731089Y1960056D2*
X1730700Y1958623D1*
X1729907Y1957694D1*
X1728726Y1955332D1*
X1727545Y1949426D1*
Y1945883D1*
X1728726Y1939977D1*
X1729907Y1936434D1*
X1731089Y1934072D1*
X1735813Y1926985D1*
X1701561Y1924623D1*
Y1915174D1*
X1702742Y1913993D1*
X1799592D1*
Y1924623D1*
X1797230Y1925804D1*
X1797460Y1926641D1*
X1798411Y1928166D1*
X1800774Y1932891D1*
X1801955Y1936434D1*
Y1950607D1*
X1798411Y1957694D1*
X1796049Y1961237D1*
X1793687Y1963599D1*
X1786600Y1968324D1*
X1784238Y1969505D1*
X1780695Y1970686D1*
X1775970Y1971867D1*
X1768884Y1973048D1*
X1758254D1*
X1751167Y1971867D1*
X1746443Y1970686D1*
X1742900Y1969505D1*
X1740537Y1968324D1*
X1736994Y1965961D1*
X1731089Y1960056D1*
X1753529D1*
X1761404Y1961237D1*
X1769278D1*
X1777152Y1960056D1*
X1780695Y1958875D1*
X1785419Y1956513D1*
X1791325Y1950607D1*
Y1948245D1*
X1792506Y1947064D1*
Y1934072D1*
X1791325Y1932891D1*
X1790144Y1929347D1*
X1788963Y1926985D1*
Y1925804D1*
X1774789Y1924623D1*
X1760616D1*
X1746443Y1925804D1*
X1742900Y1929347D1*
Y1930528D1*
X1741718Y1932891D1*
X1739356Y1939977D1*
X1738175Y1941158D1*
Y1947064D1*
X1739356Y1948245D1*
X1740537Y1951788D1*
Y1952969D1*
X1744081Y1956513D1*
X1748805Y1958875D1*
X1753529Y1960056D1*
X1731089D1*
G37*
G36*
X1376758Y1963599D2*
Y1889190D1*
X1386207D1*
Y1919898D1*
X1470065Y1921080D1*
Y1931710D1*
X1386207Y1932891D1*
Y1963599D1*
X1376758D1*
G37*
G36*
X1732270Y1858481D2*
X1731881Y1857048D1*
X1731089Y1856119D1*
X1729907Y1852576D1*
X1728726Y1846670D1*
Y1843127D1*
X1729907Y1838402D1*
X1732270Y1833678D1*
X1734632Y1830135D1*
X1736994Y1827773D1*
X1740537Y1825410D1*
X1747624Y1821867D1*
X1752348Y1820686D1*
X1768884D1*
X1773608Y1821867D1*
X1777152Y1823048D1*
X1781876Y1825410D1*
X1787781Y1831316D1*
X1788963Y1833678D1*
X1790144Y1837221D1*
Y1849032D1*
X1787781Y1853757D1*
X1785419Y1857300D1*
X1783057Y1859662D1*
X1787781Y1860843D1*
X1790144Y1862024D1*
Y1888009D1*
X1788963Y1889190D1*
X1781876Y1892733D1*
X1774789Y1895095D1*
X1768884Y1896276D1*
X1746443D1*
X1740537Y1895095D1*
X1733451Y1892733D1*
X1726364Y1889190D1*
X1722821Y1886828D1*
X1716915Y1882103D1*
X1712191Y1876198D1*
X1709829Y1872654D1*
X1707466Y1867930D1*
X1706285Y1864387D1*
X1705104Y1859662D1*
X1703923Y1850213D1*
Y1844308D1*
X1705104Y1836040D1*
X1707466Y1828954D1*
X1711010Y1821867D1*
X1713372Y1818324D1*
X1718096Y1812418D1*
X1719278Y1811237D1*
X1726364Y1805332D1*
X1732270Y1801788D1*
X1734632Y1800607D1*
X1745262Y1797064D1*
X1752348Y1795883D1*
X1766522D1*
X1773608Y1797064D1*
X1778333Y1798245D1*
X1781876Y1799426D1*
X1791325Y1804150D1*
X1794868Y1806513D1*
X1804317Y1815961D1*
X1806679Y1819505D1*
X1811404Y1828954D1*
X1812585Y1832497D1*
X1813766Y1837221D1*
Y1860843D1*
X1812585Y1867930D1*
X1805498D1*
Y1863206D1*
X1806679Y1862024D1*
Y1837221D1*
X1805498Y1836040D1*
X1803136Y1828954D1*
X1801955Y1826591D1*
X1799592Y1823048D1*
Y1821867D1*
X1792506Y1814780D1*
X1790144Y1813599D1*
X1786600Y1811237D1*
X1785419Y1810056D1*
X1783057Y1808875D1*
X1775970Y1806513D1*
X1770065Y1805332D1*
X1762978Y1804150D1*
X1755892D1*
X1748805Y1805332D1*
X1742900Y1806513D1*
X1740537Y1807694D1*
X1736994Y1808875D1*
X1732270Y1811237D1*
X1731089Y1812418D1*
X1725183Y1817143D1*
X1722821Y1818324D1*
X1721420Y1819652D1*
X1721640Y1820686D1*
X1718096Y1825410D1*
X1715734Y1828954D1*
X1714553Y1831316D1*
X1713372Y1836040D1*
X1712191Y1841946D1*
X1711010Y1843127D1*
Y1852576D1*
X1712191Y1853757D1*
X1713372Y1860843D1*
X1714553Y1864387D1*
X1716915Y1869111D1*
X1720459Y1873835D1*
X1720688Y1874673D1*
X1721640Y1876198D1*
X1724002Y1877379D1*
X1728726Y1880922D1*
X1729907Y1882103D1*
X1734632Y1884465D1*
X1738175Y1885647D1*
X1742900Y1886828D1*
X1748805Y1888009D1*
X1755498Y1889190D1*
X1762191D1*
X1768884Y1888009D1*
X1777152Y1886828D1*
X1784238Y1884465D1*
Y1870292D1*
X1729907Y1869111D1*
Y1860843D1*
X1732270Y1858481D1*
X1740537D1*
X1752348Y1859662D1*
X1764159D1*
X1775970Y1858481D1*
X1779514Y1854938D1*
Y1853757D1*
X1780695Y1851395D1*
X1781876Y1850213D1*
Y1839584D1*
X1780695Y1838402D1*
Y1837221D1*
X1778333Y1834859D1*
X1773608Y1832497D1*
X1767703Y1831316D1*
X1762585Y1830135D1*
X1757466D1*
X1752348Y1831316D1*
X1747624Y1832497D1*
X1742900Y1834859D1*
X1739356Y1838402D1*
Y1839584D1*
X1738175Y1843127D1*
X1736994Y1844308D1*
Y1850213D1*
X1738175Y1851395D1*
X1739356Y1856119D1*
X1740537Y1858481D1*
X1732270D1*
G37*
G36*
X1400380Y1846670D2*
Y1836040D1*
X1403923Y1832497D1*
X1421640Y1820686D1*
X1426364Y1818324D1*
X1425976Y1816891D1*
X1425183Y1815961D1*
X1422821Y1814780D1*
X1408648Y1805332D1*
X1402742Y1801788D1*
X1400380Y1799426D1*
Y1786434D1*
X1402742Y1787615D1*
X1416915Y1797064D1*
X1421640Y1800607D1*
X1432270Y1807694D1*
X1433451Y1808875D1*
X1435026Y1810056D1*
X1436600D1*
X1438175Y1808875D1*
X1439356Y1807694D1*
X1442900Y1805332D1*
X1447624Y1801788D1*
X1454711Y1797064D1*
X1459435Y1793521D1*
X1470065Y1786434D1*
Y1799426D1*
X1462978Y1804150D1*
X1457073Y1807694D1*
X1446443Y1814780D1*
X1444081Y1815961D1*
Y1817143D1*
X1448805Y1819505D1*
X1459435Y1826591D1*
X1465341Y1830135D1*
X1468884Y1832497D1*
X1470065Y1833678D1*
Y1846670D1*
X1468884D1*
X1454711Y1837221D1*
X1449986Y1833678D1*
X1439356Y1826591D1*
X1438175Y1825410D1*
X1436207Y1824229D1*
X1434238D1*
X1432270Y1825410D1*
X1431089Y1826591D1*
X1424002Y1831316D1*
X1419278Y1834859D1*
X1412191Y1839584D1*
X1407466Y1843127D1*
X1403923Y1845489D1*
X1401561Y1846670D1*
X1400380D1*
G37*
G36*
X1379120Y1756906D2*
X1382663Y1753363D1*
X1403923Y1734465D1*
X1413372Y1726198D1*
X1424002Y1716749D1*
X1436994D1*
Y1756906D1*
X1470065Y1758087D1*
Y1769898D1*
X1436994Y1771080D1*
Y1780528D1*
X1427545D1*
Y1771080D1*
X1376758Y1769898D1*
Y1759269D1*
X1379120Y1756906D1*
X1392112D1*
X1403923Y1758087D1*
X1415734D1*
X1427545Y1756906D1*
Y1727379D1*
X1426293Y1726096D1*
X1425681Y1726288D1*
X1425183Y1727379D1*
X1418096Y1734465D1*
X1399199Y1751001D1*
X1392112Y1756906D1*
X1379120D1*
G37*
G36*
X3878529Y1121998D2*
Y1083940D1*
X3890341D1*
Y1121998D1*
X3878529D1*
G37*
G36*
X3660682Y803101D2*
Y765043D1*
X3672493D1*
Y803101D1*
X3660682D1*
G37*
X628956Y1221755D2*
D117*
X627530Y1224607D1*
X624645Y1227492D1*
X621793Y1228918D1*
X616056D1*
X613171Y1227492D1*
X610319Y1224607D1*
X608860Y1221755D1*
X607434Y1217444D1*
Y1210248D1*
X608860Y1205970D1*
X610319Y1203085D1*
X613171Y1200233D1*
X616056Y1198774D1*
X621793D1*
X624645Y1200233D1*
X627530Y1203085D1*
X628956Y1205970D1*
X638220Y1223148D2*
X641105Y1224607D1*
X645416Y1228885D1*
Y1198774D1*
X271891Y527577D2*
X269039Y526151D1*
X266154Y523266D1*
X264728Y520414D1*
Y514677D1*
X266154Y511792D1*
X269039Y508940D1*
X271891Y507481D1*
X276202Y506055D1*
X283398D1*
X287675Y507481D1*
X290561Y508940D1*
X293412Y511792D1*
X294872Y514677D1*
Y520414D1*
X293412Y523266D1*
X290561Y526151D1*
X287675Y527577D1*
X271924Y538300D2*
X270498D1*
X267613Y539726D1*
X266187Y541152D1*
X264761Y544037D1*
Y549774D1*
X266187Y552626D1*
X267613Y554052D1*
X270498Y555511D1*
X273350D1*
X276235Y554052D1*
X280513Y551200D1*
X294872Y536841D1*
Y556937D1*
X771891Y523640D2*
X769039Y522214D1*
X766154Y519329D1*
X764728Y516477D1*
Y510740D1*
X766154Y507855D1*
X769039Y505003D1*
X771891Y503544D1*
X776202Y502118D1*
X783398D1*
X787675Y503544D1*
X790561Y505003D1*
X793412Y507855D1*
X794872Y510740D1*
Y516477D1*
X793412Y519329D1*
X790561Y522214D1*
X787675Y523640D1*
X764761Y535789D2*
Y551541D1*
X776235Y542952D1*
Y547263D1*
X777661Y550115D1*
X779087Y551541D1*
X783398Y553000D1*
X786250D1*
X790561Y551541D1*
X793446Y548689D1*
X794872Y544378D1*
Y540067D1*
X793446Y535789D1*
X791987Y534363D1*
X789135Y532904D1*
X753297Y808637D2*
X751871Y811489D1*
X748986Y814374D1*
X746134Y815800D1*
X740397D1*
X737512Y814374D1*
X734660Y811489D1*
X733201Y808637D1*
X731775Y804326D1*
Y797130D1*
X733201Y792852D1*
X734660Y789967D1*
X737512Y787115D1*
X740397Y785656D1*
X746134D1*
X748986Y787115D1*
X751871Y789967D1*
X753297Y792852D1*
X776920Y785656D2*
Y815767D1*
X762561Y795704D1*
X784083D1*
X1212617Y1229629D2*
X1211191Y1232481D1*
X1208306Y1235366D1*
X1205454Y1236792D1*
X1199717D1*
X1196832Y1235366D1*
X1193980Y1232481D1*
X1192521Y1229629D1*
X1191095Y1225318D1*
Y1218122D1*
X1192521Y1213844D1*
X1193980Y1210959D1*
X1196832Y1208107D1*
X1199717Y1206648D1*
X1205454D1*
X1208306Y1208107D1*
X1211191Y1210959D1*
X1212617Y1213844D1*
X1239091Y1236759D2*
X1224765D1*
X1223339Y1223859D1*
X1224765Y1225285D1*
X1229076Y1226744D1*
X1233354D1*
X1237665Y1225285D1*
X1240550Y1222433D1*
X1241976Y1218122D1*
Y1215270D1*
X1240550Y1210959D1*
X1237665Y1208074D1*
X1233354Y1206648D1*
X1229076D1*
X1224765Y1208074D1*
X1223339Y1209533D1*
X1221880Y1212385D1*
X858505Y528307D2*
X855653Y526881D1*
X852768Y523996D1*
X851342Y521144D1*
Y515407D1*
X852768Y512522D1*
X855653Y509670D1*
X858505Y508211D1*
X862816Y506785D1*
X870012D1*
X874290Y508211D1*
X877175Y509670D1*
X880027Y512522D1*
X881486Y515407D1*
Y521144D1*
X880027Y523996D1*
X877175Y526881D1*
X874290Y528307D1*
X855653Y554781D2*
X852801Y553355D1*
X851375Y549044D1*
Y546192D1*
X852801Y541881D1*
X857112Y538996D1*
X864275Y537570D1*
X871438D1*
X877175Y538996D1*
X880060Y541881D1*
X881486Y546192D1*
Y547618D1*
X880060Y551896D1*
X877175Y554781D1*
X872864Y556207D1*
X871438D1*
X867127Y554781D1*
X864275Y551896D1*
X862849Y547618D1*
Y546192D1*
X864275Y541881D1*
X867127Y538996D1*
X871438Y537570D1*
X1370316Y527577D2*
X1367464Y526151D1*
X1364579Y523266D1*
X1363153Y520414D1*
Y514677D1*
X1364579Y511792D1*
X1367464Y508940D1*
X1370316Y507481D1*
X1374627Y506055D1*
X1381823D1*
X1386101Y507481D1*
X1388986Y508940D1*
X1391838Y511792D1*
X1393297Y514677D1*
Y520414D1*
X1391838Y523266D1*
X1388986Y526151D1*
X1386101Y527577D1*
X1393297Y542578D2*
X1363186Y556937D1*
Y536841D1*
X1346491Y807637D2*
X1345066Y810489D1*
X1342180Y813374D1*
X1339329Y814800D1*
X1333592D1*
X1330707Y813374D1*
X1327855Y810489D1*
X1326395Y807637D1*
X1324970Y803326D1*
Y796130D1*
X1326395Y791852D1*
X1327855Y788967D1*
X1330707Y786115D1*
X1333592Y784656D1*
X1339329D1*
X1342180Y786115D1*
X1345066Y788967D1*
X1346491Y791852D1*
X1362918Y814767D2*
X1358640Y813341D1*
X1357181Y810489D1*
Y807604D1*
X1358640Y804752D1*
X1361492Y803293D1*
X1367229Y801867D1*
X1371540Y800441D1*
X1374392Y797556D1*
X1375818Y794704D1*
Y790393D1*
X1374392Y787541D1*
X1372966Y786082D1*
X1368655Y784656D1*
X1362918D1*
X1358640Y786082D1*
X1357181Y787541D1*
X1355755Y790393D1*
Y794704D1*
X1357181Y797556D1*
X1360066Y800441D1*
X1364344Y801867D1*
X1370081Y803293D1*
X1372966Y804752D1*
X1374392Y807604D1*
Y810489D1*
X1372966Y813341D1*
X1368655Y814767D1*
X1362918D1*
X760723Y754350D2*
X759297Y757202D1*
X756412Y760087D1*
X753560Y761513D1*
X747823D1*
X744938Y760087D1*
X742086Y757202D1*
X740627Y754350D1*
X739201Y750039D1*
Y742843D1*
X740627Y738565D1*
X742086Y735680D1*
X744938Y732828D1*
X747823Y731369D1*
X753560D1*
X756412Y732828D1*
X759297Y735680D1*
X760723Y738565D1*
X788657Y751465D2*
X787198Y747154D1*
X784346Y744268D1*
X780035Y742843D1*
X778609D1*
X774298Y744268D1*
X771446Y747154D1*
X769987Y751465D1*
Y752891D1*
X771446Y757202D1*
X774298Y760053D1*
X778609Y761479D1*
X780035D1*
X784346Y760053D1*
X787198Y757202D1*
X788657Y751465D1*
Y744268D1*
X787198Y737106D1*
X784346Y732795D1*
X780035Y731369D1*
X777183D1*
X772872Y732795D1*
X771446Y735680D1*
X1353092Y754350D2*
X1351666Y757202D1*
X1348781Y760087D1*
X1345929Y761513D1*
X1340192D1*
X1337307Y760087D1*
X1334455Y757202D1*
X1332996Y754350D1*
X1331570Y750039D1*
Y742843D1*
X1332996Y738565D1*
X1334455Y735680D1*
X1337307Y732828D1*
X1340192Y731369D1*
X1345929D1*
X1348781Y732828D1*
X1351666Y735680D1*
X1353092Y738565D1*
X1362355Y755742D2*
X1365240Y757202D1*
X1369551Y761479D1*
Y731369D1*
X1387437Y761479D2*
X1383126Y760053D1*
X1380241Y755742D1*
X1378815Y748580D1*
Y744268D1*
X1380241Y737106D1*
X1383126Y732795D1*
X1387437Y731369D1*
X1390289D1*
X1394600Y732795D1*
X1397452Y737106D1*
X1398911Y744268D1*
Y748580D1*
X1397452Y755742D1*
X1394600Y760053D1*
X1390289Y761479D1*
X1387437D1*
X1397452Y755742D2*
X1380241Y737106D1*
X740226Y874211D2*
X738800Y877063D1*
X735915Y879948D1*
X733063Y881374D1*
X727326D1*
X724441Y879948D1*
X721589Y877063D1*
X720130Y874211D1*
X718704Y869900D1*
X718705Y862704D1*
X720131Y858426D1*
X721590Y855541D1*
X724442Y852689D1*
X727327Y851230D1*
X733064D1*
X735916Y852689D1*
X738801Y855541D1*
X740227Y858426D1*
X749490Y875604D2*
X752375Y877063D1*
X756686Y881341D1*
Y851231D1*
X765949Y875605D2*
X768835Y877064D1*
X773145Y881342D1*
X773146Y851231D1*
X326824Y730851D2*
X323972Y729425D1*
X321087Y726540D1*
X319661Y723688D1*
Y717951D1*
X321087Y715066D1*
X323972Y712214D1*
X326824Y710755D1*
X331135Y709329D1*
X338331D1*
X342609Y710755D1*
X345494Y712214D1*
X348346Y715066D1*
X349805Y717951D1*
Y723688D1*
X348346Y726540D1*
X345494Y729425D1*
X342609Y730851D1*
X325431Y740115D2*
X323972Y743000D1*
X319694Y747311D1*
X349805D1*
X326857Y758034D2*
X325431D1*
X322546Y759460D1*
X321120Y760886D1*
X319694Y763771D1*
Y769508D1*
X321120Y772360D1*
X322546Y773786D1*
X325431Y775245D1*
X328283D1*
X331168Y773786D1*
X335446Y770934D1*
X349805Y756575D1*
Y776671D1*
X1331340Y871212D2*
X1329914Y874064D1*
X1327029Y876949D1*
X1324177Y878375D1*
X1318440D1*
X1315555Y876949D1*
X1312703Y874064D1*
X1311244Y871212D1*
X1309818Y866901D1*
Y859705D1*
X1311244Y855427D1*
X1312703Y852542D1*
X1315555Y849690D1*
X1318440Y848231D1*
X1324177D1*
X1327029Y849690D1*
X1329914Y852542D1*
X1331340Y855427D1*
X1340603Y872605D2*
X1343488Y874064D1*
X1347799Y878342D1*
Y848231D1*
X1359948Y878342D2*
X1375700D1*
X1367111Y866868D1*
X1371422D1*
X1374274Y865442D1*
X1375700Y864016D1*
X1377159Y859705D1*
Y856853D1*
X1375700Y852542D1*
X1372848Y849657D1*
X1368537Y848231D1*
X1364226D1*
X1359948Y849657D1*
X1358522Y851116D1*
X1357063Y853968D1*
X904249Y730138D2*
X901397Y728712D1*
X898512Y725827D1*
X897086Y722975D1*
Y717238D1*
X898512Y714353D1*
X901397Y711502D1*
X904249Y710042D1*
X908560Y708616D1*
X915756D1*
X920034Y710042D1*
X922919Y711502D1*
X925771Y714353D1*
X927230Y717238D1*
Y722975D1*
X925771Y725827D1*
X922919Y728712D1*
X920034Y730138D1*
X902856Y739402D2*
X901397Y742287D1*
X897119Y746598D1*
X927230D1*
Y770221D2*
X897119D1*
X917182Y755862D1*
Y777384D1*
X3783521Y1259729D2*
X3782095Y1262581D1*
X3779210Y1265466D1*
X3776358Y1266892D1*
X3770621D1*
X3767736Y1265466D1*
X3764884Y1262581D1*
X3763425Y1259729D1*
X3761999Y1255418D1*
Y1248222D1*
X3763425Y1243944D1*
X3764884Y1241059D1*
X3767736Y1238207D1*
X3770621Y1236748D1*
X3776358D1*
X3779210Y1238207D1*
X3782095Y1241059D1*
X3783521Y1243944D1*
X3792784Y1261122D2*
X3795669Y1262581D1*
X3799980Y1266859D1*
Y1236748D1*
X3826455Y1266859D2*
X3812129D1*
X3810703Y1253959D1*
X3812129Y1255385D1*
X3816440Y1256844D1*
X3820718D1*
X3825029Y1255385D1*
X3827914Y1252533D1*
X3829340Y1248222D1*
Y1245370D1*
X3827914Y1241059D1*
X3825029Y1238174D1*
X3820718Y1236748D1*
X3816440D1*
X3812129Y1238174D1*
X3810703Y1239633D1*
X3809244Y1242485D1*
X1779920Y1233566D2*
X1778494Y1236418D1*
X1775608Y1239303D1*
X1772757Y1240729D1*
X1767020D1*
X1764135Y1239303D1*
X1761283Y1236418D1*
X1759824Y1233566D1*
X1758398Y1229255D1*
Y1222059D1*
X1759824Y1217781D1*
X1761283Y1214896D1*
X1764135Y1212044D1*
X1767020Y1210585D1*
X1772757D1*
X1775608Y1212044D1*
X1778494Y1214896D1*
X1779920Y1217781D1*
X1789183Y1234959D2*
X1792068Y1236418D1*
X1796379Y1240696D1*
Y1210585D1*
X1822854Y1236418D2*
X1821428Y1239270D1*
X1817117Y1240696D1*
X1814265D1*
X1809954Y1239270D1*
X1807069Y1234959D1*
X1805643Y1227796D1*
Y1220633D1*
X1807069Y1214896D1*
X1809954Y1212011D1*
X1814265Y1210585D1*
X1815691D1*
X1819969Y1212011D1*
X1822854Y1214896D1*
X1824280Y1219207D1*
Y1220633D1*
X1822854Y1224944D1*
X1819969Y1227796D1*
X1815691Y1229222D1*
X1814265D1*
X1809954Y1227796D1*
X1807069Y1224944D1*
X1805643Y1220633D1*
X1445119Y519347D2*
X1442267Y517921D1*
X1439382Y515036D1*
X1437956Y512185D1*
Y506448D1*
X1439382Y503562D1*
X1442267Y500711D1*
X1445119Y499251D1*
X1449430Y497825D1*
X1456626D1*
X1460904Y499251D1*
X1463789Y500711D1*
X1466641Y503562D1*
X1468100Y506448D1*
Y512185D1*
X1466641Y515036D1*
X1463789Y517921D1*
X1460904Y519347D1*
X1443726Y528611D2*
X1442267Y531496D1*
X1437989Y535807D1*
X1468100D1*
Y550808D2*
X1437989Y565167D1*
Y545071D1*
X1972678Y519364D2*
X1969826Y517938D1*
X1966941Y515053D1*
X1965515Y512201D1*
Y506464D1*
X1966941Y503579D1*
X1969826Y500727D1*
X1972678Y499268D1*
X1976989Y497842D1*
X1984185D1*
X1988463Y499268D1*
X1991348Y500727D1*
X1994200Y503579D1*
X1995659Y506464D1*
Y512201D1*
X1994200Y515053D1*
X1991348Y517938D1*
X1988463Y519364D1*
X1971285Y528628D2*
X1969826Y531513D1*
X1965548Y535824D1*
X1995659D1*
X1965548Y552250D2*
X1966974Y547972D1*
X1969826Y546513D1*
X1972711D1*
X1975563Y547972D1*
X1977022Y550824D1*
X1978448Y556561D1*
X1979874Y560872D1*
X1982759Y563724D1*
X1985611Y565150D1*
X1989922D1*
X1992774Y563724D1*
X1994233Y562298D1*
X1995659Y557987D1*
Y552250D1*
X1994233Y547972D1*
X1992774Y546513D1*
X1989922Y545087D1*
X1985611D1*
X1982759Y546513D1*
X1979874Y549398D1*
X1978448Y553676D1*
X1977022Y559413D1*
X1975563Y562298D1*
X1972711Y563724D1*
X1969826D1*
X1966974Y562298D1*
X1965548Y557987D1*
Y552250D1*
X1929509Y811574D2*
X1928083Y814426D1*
X1925198Y817311D1*
X1922346Y818737D1*
X1916609D1*
X1913724Y817311D1*
X1910872Y814426D1*
X1909413Y811574D1*
X1907987Y807263D1*
Y800067D1*
X1909413Y795789D1*
X1910872Y792904D1*
X1913724Y790052D1*
X1916609Y788593D1*
X1922346D1*
X1925198Y790052D1*
X1928083Y792904D1*
X1929509Y795789D1*
X1938773Y812967D2*
X1941658Y814426D1*
X1945969Y818704D1*
Y788593D1*
X1973902Y808689D2*
X1972443Y804378D1*
X1969591Y801493D1*
X1965280Y800067D1*
X1963854D1*
X1959543Y801493D1*
X1956692Y804378D1*
X1955232Y808689D1*
Y810115D1*
X1956692Y814426D1*
X1959543Y817278D1*
X1963854Y818704D1*
X1965280D1*
X1969591Y817278D1*
X1972443Y814426D1*
X1973902Y808689D1*
Y801493D1*
X1972443Y794330D1*
X1969591Y790019D1*
X1965280Y788593D1*
X1962429D1*
X1958118Y790019D1*
X1956692Y792904D1*
X2390850Y1233566D2*
X2389424Y1236418D1*
X2386539Y1239303D1*
X2383687Y1240729D1*
X2377950D1*
X2375065Y1239303D1*
X2372213Y1236418D1*
X2370754Y1233566D1*
X2369328Y1229255D1*
Y1222059D1*
X2370754Y1217781D1*
X2372213Y1214896D1*
X2375065Y1212044D1*
X2377950Y1210585D1*
X2383687D1*
X2386539Y1212044D1*
X2389424Y1214896D1*
X2390850Y1217781D1*
X2401573Y1233533D2*
Y1234959D1*
X2402999Y1237844D1*
X2404425Y1239270D1*
X2407310Y1240696D1*
X2413047D1*
X2415899Y1239270D1*
X2417325Y1237844D1*
X2418784Y1234959D1*
Y1232107D1*
X2417325Y1229222D1*
X2414473Y1224944D1*
X2400114Y1210585D1*
X2420210D1*
X2438095Y1240696D2*
X2433784Y1239270D1*
X2430899Y1234959D1*
X2429473Y1227796D1*
Y1223485D1*
X2430899Y1216322D1*
X2433784Y1212011D1*
X2438095Y1210585D1*
X2440947D1*
X2445258Y1212011D1*
X2448110Y1216322D1*
X2449569Y1223485D1*
Y1227796D1*
X2448110Y1234959D1*
X2445258Y1239270D1*
X2440947Y1240696D1*
X2438095D1*
X2448110Y1234959D2*
X2430899Y1216322D1*
X2039607Y519347D2*
X2036755Y517921D1*
X2033870Y515036D1*
X2032444Y512185D1*
Y506448D1*
X2033870Y503562D1*
X2036755Y500711D1*
X2039607Y499251D1*
X2043918Y497825D1*
X2051114D1*
X2055392Y499251D1*
X2058277Y500711D1*
X2061129Y503562D1*
X2062588Y506448D1*
Y512185D1*
X2061129Y515036D1*
X2058277Y517921D1*
X2055392Y519347D1*
X2039640Y530070D2*
X2038214D1*
X2035329Y531496D1*
X2033903Y532922D1*
X2032477Y535807D1*
Y541544D1*
X2033903Y544396D1*
X2035329Y545822D1*
X2038214Y547281D1*
X2041066D1*
X2043951Y545822D1*
X2048229Y542970D1*
X2062588Y528611D1*
Y548707D1*
X2038214Y557971D2*
X2036755Y560856D1*
X2032477Y565167D1*
X2062588D1*
X2462835Y512897D2*
X2459983Y511472D1*
X2457098Y508586D1*
X2455672Y505735D1*
Y499998D1*
X2457098Y497113D1*
X2459983Y494261D1*
X2462835Y492801D1*
X2467146Y491376D1*
X2474343D1*
X2478620Y492801D1*
X2481505Y494261D1*
X2484357Y497113D1*
X2485816Y499998D1*
Y505735D1*
X2484357Y508586D1*
X2481505Y511472D1*
X2478620Y512897D1*
X2462869Y523620D2*
X2461443D1*
X2458558Y525046D1*
X2457132Y526472D1*
X2455706Y529357D1*
Y535094D1*
X2457132Y537946D1*
X2458558Y539372D1*
X2461443Y540831D1*
X2464295D1*
X2467180Y539372D1*
X2471457Y536520D1*
X2485816Y522161D1*
Y542257D1*
X2462869Y552980D2*
X2461443D1*
X2458558Y554406D1*
X2457132Y555832D1*
X2455706Y558717D1*
Y564454D1*
X2457132Y567306D1*
X2458558Y568732D1*
X2461443Y570191D1*
X2464295D1*
X2467180Y568732D1*
X2471457Y565880D1*
X2485816Y551521D1*
Y571617D1*
X2524709Y811574D2*
X2523283Y814426D1*
X2520397Y817311D1*
X2517546Y818737D1*
X2511809D1*
X2508924Y817311D1*
X2506072Y814426D1*
X2504613Y811574D1*
X2503187Y807263D1*
Y800067D1*
X2504613Y795789D1*
X2506072Y792904D1*
X2508924Y790052D1*
X2511809Y788593D1*
X2517546D1*
X2520397Y790052D1*
X2523283Y792904D1*
X2524709Y795789D1*
X2535431Y811541D2*
Y812967D1*
X2536857Y815852D1*
X2538283Y817278D1*
X2541168Y818704D1*
X2546905D1*
X2549757Y817278D1*
X2551183Y815852D1*
X2552642Y812967D1*
Y810115D1*
X2551183Y807230D1*
X2548331Y802952D1*
X2533972Y788593D1*
X2554068D1*
X2566217Y818704D2*
X2581968D1*
X2573380Y807230D1*
X2577691D1*
X2580543Y805804D1*
X2581968Y804378D1*
X2583428Y800067D1*
Y797215D1*
X2581968Y792904D1*
X2579117Y790019D1*
X2574806Y788593D1*
X2570495D1*
X2566217Y790019D1*
X2564791Y791478D1*
X2563332Y794330D1*
X1931633Y748913D2*
X1930207Y751764D1*
X1927322Y754649D1*
X1924470Y756075D1*
X1918733D1*
X1915848Y754649D1*
X1912996Y751764D1*
X1911537Y748912D1*
X1910111Y744601D1*
X1910112Y737405D1*
X1911538Y733127D1*
X1912997Y730242D1*
X1915849Y727390D1*
X1918734Y725931D1*
X1924471D1*
X1927323Y727391D1*
X1930208Y730242D1*
X1931634Y733128D1*
X1942356Y748880D2*
Y750306D1*
X1943782Y753191D1*
X1945208Y754617D1*
X1948093Y756043D1*
X1953830D1*
X1956682Y754617D1*
X1958108Y753191D1*
X1959567Y750306D1*
Y747454D1*
X1958108Y744569D1*
X1955256Y740291D1*
X1940897Y725932D1*
X1960993D1*
X1984616Y725933D2*
X1984615Y756043D1*
X1970257Y735980D1*
X1991779Y735981D1*
X2523334Y754350D2*
X2521908Y757201D1*
X2519023Y760086D1*
X2516171Y761512D1*
X2510434D1*
X2507549Y760086D1*
X2504697Y757201D1*
X2503238Y754349D1*
X2501812Y750038D1*
X2501813Y742842D1*
X2503239Y738564D1*
X2504698Y735679D1*
X2507550Y732827D1*
X2510435Y731368D1*
X2516172D1*
X2519024Y732828D1*
X2521909Y735680D1*
X2523335Y738565D1*
X2534057Y754317D2*
Y755743D1*
X2535483Y758628D1*
X2536909Y760054D1*
X2539794Y761480D1*
X2545531D1*
X2548383Y760054D1*
X2549809Y758628D1*
X2551268Y755743D1*
Y752891D1*
X2549809Y750006D1*
X2546957Y745728D1*
X2532598Y731369D1*
X2552694D1*
X2579168Y761481D2*
X2564842Y761480D1*
X2563417Y748580D1*
X2564843Y750006D1*
X2569154Y751466D1*
X2573431D1*
X2577743Y750007D1*
X2580628Y747155D1*
X2582054Y742844D1*
Y739992D1*
X2580628Y735681D1*
X2577743Y732796D1*
X2573432Y731370D1*
X2569154D1*
X2564843Y732795D1*
X2563417Y734254D1*
X2561958Y737106D1*
X3290694Y1914232D2*
X3289268Y1917083D1*
X3286383Y1919969D1*
X3283531Y1921394D1*
X3277794D1*
X3274909Y1919969D1*
X3272057Y1917083D1*
X3270598Y1914232D1*
X3269172Y1909921D1*
Y1902724D1*
X3270598Y1898447D1*
X3272057Y1895561D1*
X3274909Y1892710D1*
X3277794Y1891250D1*
X3283531D1*
X3286383Y1892710D1*
X3289268Y1895561D1*
X3290694Y1898447D1*
X3301417Y1914198D2*
Y1915624D1*
X3302843Y1918509D1*
X3304269Y1919935D1*
X3307154Y1921361D1*
X3312891D1*
X3315743Y1919935D1*
X3317168Y1918509D1*
X3318628Y1915624D1*
Y1912772D1*
X3317168Y1909887D1*
X3314317Y1905609D1*
X3299958Y1891250D1*
X3320054D1*
X3346528Y1917083D2*
X3345102Y1919935D1*
X3340791Y1921361D1*
X3337939D1*
X3333628Y1919935D1*
X3330743Y1915624D1*
X3329317Y1908461D1*
Y1901298D1*
X3330743Y1895561D1*
X3333628Y1892676D1*
X3337939Y1891250D1*
X3339365D1*
X3343643Y1892676D1*
X3346528Y1895561D1*
X3347954Y1899873D1*
Y1901298D1*
X3346528Y1905609D1*
X3343643Y1908461D1*
X3339365Y1909887D1*
X3337939D1*
X3333628Y1908461D1*
X3330743Y1905609D1*
X3329317Y1901298D1*
X1912260Y870275D2*
X1910834Y873127D1*
X1907949Y876012D1*
X1905097Y877438D1*
X1899360D1*
X1896475Y876012D1*
X1893623Y873127D1*
X1892164Y870275D1*
X1890738Y865964D1*
Y858768D1*
X1892164Y854490D1*
X1893623Y851605D1*
X1896475Y848753D1*
X1899360Y847294D1*
X1905097D1*
X1907949Y848753D1*
X1910834Y851605D1*
X1912260Y854490D1*
X1922982Y870242D2*
Y871668D1*
X1924408Y874553D1*
X1925834Y875979D1*
X1928719Y877405D1*
X1934456D1*
X1937308Y875979D1*
X1938734Y874553D1*
X1940193Y871668D1*
Y868816D1*
X1938734Y865931D1*
X1935882Y861653D1*
X1921523Y847294D1*
X1941619D1*
X1956620D2*
X1970979Y877405D1*
X1950883D1*
X1489363Y730418D2*
X1486511Y728992D1*
X1483626Y726107D1*
X1482200Y723255D1*
Y717518D1*
X1483626Y714633D1*
X1486511Y711781D1*
X1489363Y710322D1*
X1493674Y708896D1*
X1500870D1*
X1505148Y710322D1*
X1508033Y711781D1*
X1510885Y714633D1*
X1512344Y717518D1*
Y723255D1*
X1510885Y726107D1*
X1508033Y728992D1*
X1505148Y730418D1*
X1489396Y741141D2*
X1487970D1*
X1485085Y742567D1*
X1483659Y743993D1*
X1482233Y746878D1*
Y752615D1*
X1483659Y755467D1*
X1485085Y756892D1*
X1487970Y758352D1*
X1490822D1*
X1493707Y756892D1*
X1497985Y754041D1*
X1512344Y739682D1*
Y759778D1*
X1482233Y776204D2*
X1483659Y771926D1*
X1486511Y770467D1*
X1489396D1*
X1492248Y771926D1*
X1493707Y774778D1*
X1495133Y780515D1*
X1496559Y784826D1*
X1499444Y787678D1*
X1502296Y789104D1*
X1506607D1*
X1509459Y787678D1*
X1510918Y786252D1*
X1512344Y781941D1*
Y776204D1*
X1510918Y771926D1*
X1509459Y770467D1*
X1506607Y769041D1*
X1502296D1*
X1499444Y770467D1*
X1496559Y773352D1*
X1495133Y777630D1*
X1493707Y783367D1*
X1492248Y786252D1*
X1489396Y787678D1*
X1486511D1*
X1483659Y786252D1*
X1482233Y781941D1*
Y776204D1*
X2476603Y874212D2*
X2475177Y877064D1*
X2472292Y879949D1*
X2469440Y881375D1*
X2463703D1*
X2460818Y879949D1*
X2457966Y877064D1*
X2456507Y874212D1*
X2455081Y869901D1*
Y862705D1*
X2456507Y858427D1*
X2457966Y855542D1*
X2460818Y852690D1*
X2463703Y851231D1*
X2469440D1*
X2472292Y852690D1*
X2475177Y855542D1*
X2476603Y858427D1*
X2487325Y874179D2*
Y875605D1*
X2488751Y878490D1*
X2490177Y879916D1*
X2493062Y881342D1*
X2498799D1*
X2501651Y879916D1*
X2503077Y878490D1*
X2504536Y875605D1*
Y872753D1*
X2503077Y869868D1*
X2500225Y865590D1*
X2485866Y851231D1*
X2505962D1*
X2533896Y871327D2*
X2532437Y867016D1*
X2529585Y864131D1*
X2525274Y862705D1*
X2523848D1*
X2519537Y864131D1*
X2516685Y867016D1*
X2515226Y871327D1*
Y872753D1*
X2516685Y877064D1*
X2519537Y879916D1*
X2523848Y881342D1*
X2525274D1*
X2529585Y879916D1*
X2532437Y877064D1*
X2533896Y871327D1*
Y864131D1*
X2532437Y856968D1*
X2529585Y852657D1*
X2525274Y851231D1*
X2522422D1*
X2518111Y852657D1*
X2516685Y855542D1*
X2082851Y724401D2*
X2079999Y722975D1*
X2077114Y720090D1*
X2075688Y717238D1*
Y711502D1*
X2077114Y708616D1*
X2079999Y705765D1*
X2082851Y704305D1*
X2087162Y702879D1*
X2094358D1*
X2098636Y704305D1*
X2101521Y705765D1*
X2104373Y708616D1*
X2105832Y711502D1*
Y717238D1*
X2104373Y720090D1*
X2101521Y722975D1*
X2098636Y724401D1*
X2075721Y736550D2*
Y752302D1*
X2087195Y743713D1*
Y748024D1*
X2088621Y750876D1*
X2090047Y752302D1*
X2094358Y753761D1*
X2097210D1*
X2101521Y752302D1*
X2104406Y749450D1*
X2105832Y745139D1*
Y740828D1*
X2104406Y736550D1*
X2102947Y735124D1*
X2100095Y733665D1*
X2075721Y771647D2*
X2077147Y767336D1*
X2081458Y764450D1*
X2088621Y763025D1*
X2092932D1*
X2100095Y764450D1*
X2104406Y767336D1*
X2105832Y771647D1*
Y774498D1*
X2104406Y778810D1*
X2100095Y781661D1*
X2092932Y783121D1*
X2088621D1*
X2081458Y781661D1*
X2077147Y778810D1*
X2075721Y774498D1*
Y771647D1*
X2081458Y781661D2*
X2100095Y764450D1*
X960056Y2212828D2*
X957204Y2211402D1*
X954319Y2208517D1*
X952893Y2205665D1*
Y2199928D1*
X954319Y2197043D1*
X957204Y2194191D1*
X960056Y2192732D1*
X964367Y2191306D1*
X971563D1*
X975841Y2192732D1*
X978726Y2194191D1*
X981578Y2197043D1*
X983037Y2199928D1*
Y2205665D1*
X981578Y2208517D1*
X978726Y2211402D1*
X975841Y2212828D1*
X952926Y2224976D2*
Y2240728D1*
X964400Y2232139D1*
Y2236450D1*
X965826Y2239302D1*
X967252Y2240728D1*
X971563Y2242187D1*
X974415D1*
X978726Y2240728D1*
X981611Y2237876D1*
X983037Y2233565D1*
Y2229254D1*
X981611Y2224976D1*
X980152Y2223550D1*
X977300Y2222091D1*
X958663Y2251451D2*
X957204Y2254336D1*
X952926Y2258647D1*
X983037D1*
X3146585Y2712655D2*
X3143733Y2711229D1*
X3140848Y2708343D1*
X3139422Y2705491D1*
Y2699755D1*
X3140848Y2696869D1*
X3143733Y2694018D1*
X3146585Y2692559D1*
X3150896Y2691133D1*
X3158092D1*
X3162370Y2692559D1*
X3165255Y2694018D1*
X3168107Y2696870D1*
X3169566Y2699755D1*
Y2705492D1*
X3168107Y2708344D1*
X3165255Y2711229D1*
X3162370Y2712655D1*
X3139455Y2724803D2*
X3139454Y2740555D1*
X3150929Y2731966D1*
Y2736277D1*
X3152354Y2739129D1*
X3153780Y2740555D1*
X3158091Y2742014D1*
X3160943D1*
X3165254Y2740555D1*
X3168139Y2737704D1*
X3169565Y2733393D1*
X3169566Y2729082D1*
X3168140Y2724804D1*
X3166681Y2723378D1*
X3163829Y2721918D1*
X3146617Y2752737D2*
X3145191D1*
X3142306Y2754163D1*
X3140880Y2755589D1*
X3139454Y2758474D1*
Y2764211D1*
X3140880Y2767063D1*
X3142306Y2768489D1*
X3145191Y2769948D1*
X3148043D1*
X3150928Y2768489D1*
X3155206Y2765637D1*
X3169565Y2751278D1*
Y2771374D1*
X2702008Y2706401D2*
X2699156Y2704975D1*
X2696271Y2702090D1*
X2694845Y2699238D1*
Y2693501D1*
X2696271Y2690616D1*
X2699156Y2687764D1*
X2702008Y2686305D1*
X2706319Y2684879D1*
X2713515D1*
X2717793Y2686305D1*
X2720678Y2687765D1*
X2723530Y2690617D1*
X2724989Y2693502D1*
Y2699239D1*
X2723530Y2702091D1*
X2720678Y2704976D1*
X2717793Y2706401D1*
X2694878Y2718550D2*
X2694877Y2734301D1*
X2706351Y2725713D1*
Y2730024D1*
X2707777Y2732876D1*
X2709203Y2734302D1*
X2713514Y2735761D1*
X2716366D1*
X2720677Y2734302D1*
X2723562Y2731450D1*
X2724988Y2727139D1*
Y2722828D1*
X2723563Y2718550D1*
X2722103Y2717124D1*
X2719252Y2715665D1*
X2694877Y2747909D2*
Y2763661D1*
X2706351Y2755072D1*
Y2759383D1*
X2707777Y2762235D1*
X2709203Y2763661D1*
X2713514Y2765120D1*
X2716365Y2765121D1*
X2720676Y2763662D1*
X2723562Y2760810D1*
X2724988Y2756499D1*
Y2752188D1*
X2723562Y2747910D1*
X2722103Y2746484D1*
X2719251Y2745025D1*
X3036939Y353465D2*
X3035513Y356317D1*
X3032628Y359202D1*
X3029776Y360628D1*
X3024039D1*
X3021154Y359202D1*
X3018302Y356317D1*
X3016843Y353465D1*
X3015417Y349154D1*
Y341958D1*
X3016843Y337680D1*
X3018302Y334795D1*
X3021154Y331943D1*
X3024039Y330484D1*
X3029776D1*
X3032628Y331943D1*
X3035513Y334795D1*
X3036939Y337680D1*
X3049088Y360595D2*
X3064840D1*
X3056251Y349121D1*
X3060562D1*
X3063414Y347695D1*
X3064840Y346269D1*
X3066299Y341958D1*
Y339106D1*
X3064840Y334795D1*
X3061988Y331910D1*
X3057677Y330484D1*
X3053366D1*
X3049088Y331910D1*
X3047662Y333369D1*
X3046203Y336221D1*
X3089921Y330484D2*
Y360595D1*
X3075562Y340532D1*
X3097084D1*
X2246286Y2693838D2*
X2243434Y2692412D1*
X2240549Y2689527D1*
X2239123Y2686675D1*
Y2680938D1*
X2240549Y2678053D1*
X2243434Y2675201D1*
X2246286Y2673742D1*
X2250597Y2672317D1*
X2257793D1*
X2262071Y2673743D1*
X2264956Y2675202D1*
X2267808Y2678054D1*
X2269267Y2680939D1*
Y2686676D1*
X2267808Y2689528D1*
X2264956Y2692413D1*
X2262071Y2693839D1*
X2239156Y2705987D2*
X2239155Y2721739D1*
X2250630Y2713150D1*
X2250629Y2717461D1*
X2252055Y2720313D1*
X2253481Y2721739D1*
X2257792Y2723198D1*
X2260644D1*
X2264955Y2721739D1*
X2267840Y2718887D1*
X2269266Y2714576D1*
Y2710265D1*
X2267841Y2705988D1*
X2266382Y2704562D1*
X2263530Y2703102D1*
X2239155Y2749672D2*
Y2735346D1*
X2252055Y2733921D1*
X2250629Y2735347D1*
X2249170Y2739658D1*
Y2743936D1*
X2250629Y2748247D1*
X2253481Y2751132D1*
X2257792Y2752558D1*
X2260644D1*
X2264955Y2751132D1*
X2267840Y2748247D1*
X2269266Y2743936D1*
Y2739658D1*
X2267840Y2735347D1*
X2266381Y2733921D1*
X2263529Y2732462D1*
X1759443Y2715965D2*
X1758017Y2718817D1*
X1755132Y2721702D1*
X1752280Y2723128D1*
X1746543D1*
X1743658Y2721702D1*
X1740806Y2718817D1*
X1739347Y2715965D1*
X1737921Y2711654D1*
Y2704458D1*
X1739347Y2700180D1*
X1740806Y2697295D1*
X1743658Y2694443D1*
X1746543Y2692984D1*
X1752280D1*
X1755132Y2694443D1*
X1758017Y2697295D1*
X1759443Y2700180D1*
X1771592Y2723095D2*
X1787344D1*
X1778755Y2711621D1*
X1783066D1*
X1785918Y2710195D1*
X1787344Y2708769D1*
X1788803Y2704458D1*
Y2701606D1*
X1787344Y2697295D1*
X1784492Y2694410D1*
X1780181Y2692984D1*
X1775870D1*
X1771592Y2694410D1*
X1770166Y2695869D1*
X1768707Y2698721D1*
X1815277Y2718817D2*
X1813851Y2721669D1*
X1809540Y2723095D1*
X1806688D1*
X1802377Y2721669D1*
X1799492Y2717358D1*
X1798066Y2710195D1*
Y2703032D1*
X1799492Y2697295D1*
X1802377Y2694410D1*
X1806688Y2692984D1*
X1808114D1*
X1812392Y2694410D1*
X1815277Y2697295D1*
X1816703Y2701606D1*
Y2703032D1*
X1815277Y2707343D1*
X1812392Y2710195D1*
X1808114Y2711621D1*
X1806688D1*
X1802377Y2710195D1*
X1799492Y2707343D1*
X1798066Y2703032D1*
X2700151Y180028D2*
X2698725Y182880D1*
X2695840Y185765D1*
X2692988Y187191D1*
X2687251D1*
X2684366Y185765D1*
X2681514Y182880D1*
X2680055Y180028D1*
X2678629Y175717D1*
Y168521D1*
X2680055Y164243D1*
X2681514Y161358D1*
X2684366Y158506D1*
X2687251Y157047D1*
X2692988D1*
X2695840Y158506D1*
X2698725Y161358D1*
X2700151Y164243D1*
X2712299Y187158D2*
X2728051D1*
X2719462Y175684D1*
X2723773D1*
X2726625Y174258D1*
X2728051Y172832D1*
X2729510Y168521D1*
Y165669D1*
X2728051Y161358D1*
X2725199Y158473D1*
X2720888Y157047D1*
X2716577D1*
X2712299Y158473D1*
X2710873Y159932D1*
X2709414Y162784D1*
X2744511Y157047D2*
X2758870Y187158D1*
X2738774D1*
X2700167Y373779D2*
X2698741Y376631D1*
X2695856Y379516D1*
X2693004Y380942D1*
X2687267D1*
X2684382Y379516D1*
X2681530Y376631D1*
X2680071Y373779D1*
X2678645Y369468D1*
Y362272D1*
X2680071Y357994D1*
X2681530Y355109D1*
X2684382Y352257D1*
X2687267Y350798D1*
X2693004D1*
X2695856Y352257D1*
X2698741Y355109D1*
X2700167Y357994D1*
X2712316Y380909D2*
X2728068D1*
X2719479Y369435D1*
X2723790D1*
X2726642Y368009D1*
X2728068Y366583D1*
X2729527Y362272D1*
Y359420D1*
X2728068Y355109D1*
X2725216Y352224D1*
X2720905Y350798D1*
X2716594D1*
X2712316Y352224D1*
X2710890Y353683D1*
X2709431Y356535D1*
X2745953Y380909D2*
X2741676Y379483D1*
X2740216Y376631D1*
Y373746D1*
X2741676Y370894D1*
X2744527Y369435D1*
X2750264Y368009D1*
X2754575Y366583D1*
X2757427Y363698D1*
X2758853Y360846D1*
Y356535D1*
X2757427Y353683D1*
X2756001Y352224D1*
X2751690Y350798D1*
X2745953D1*
X2741676Y352224D1*
X2740216Y353683D1*
X2738790Y356535D1*
Y360846D1*
X2740216Y363698D1*
X2743101Y366583D1*
X2747379Y368009D1*
X2753116Y369435D1*
X2756001Y370894D1*
X2757427Y373746D1*
Y376631D1*
X2756001Y379483D1*
X2751690Y380909D1*
X2745953D1*
X2744614Y636279D2*
X2743188Y639131D1*
X2740303Y642016D1*
X2737451Y643442D1*
X2731714D1*
X2728829Y642016D1*
X2725978Y639131D1*
X2724518Y636279D1*
X2723092Y631968D1*
Y624772D1*
X2724518Y620494D1*
X2725978Y617609D1*
X2728829Y614757D1*
X2731714Y613298D1*
X2737451D1*
X2740303Y614757D1*
X2743188Y617609D1*
X2744614Y620494D1*
X2756763Y643409D2*
X2772515D1*
X2763926Y631935D1*
X2768237D1*
X2771089Y630509D1*
X2772515Y629083D1*
X2773974Y624772D1*
Y621920D1*
X2772515Y617609D1*
X2769663Y614724D1*
X2765352Y613298D1*
X2761041D1*
X2756763Y614724D1*
X2755337Y616183D1*
X2753878Y619035D1*
X2801908Y633394D2*
X2800448Y629083D1*
X2797597Y626198D1*
X2793286Y624772D1*
X2791860D1*
X2787549Y626198D1*
X2784697Y629083D1*
X2783238Y633394D1*
Y634820D1*
X2784697Y639131D1*
X2787549Y641983D1*
X2791860Y643409D1*
X2793286D1*
X2797597Y641983D1*
X2800448Y639131D1*
X2801908Y633394D1*
Y626198D1*
X2800448Y619035D1*
X2797597Y614724D1*
X2793286Y613298D1*
X2790434D1*
X2786123Y614724D1*
X2784697Y617609D1*
X2736938Y830029D2*
X2735512Y832881D1*
X2732627Y835766D1*
X2729775Y837192D1*
X2724038D1*
X2721153Y835766D1*
X2718301Y832881D1*
X2716842Y830029D1*
X2715416Y825718D1*
Y818522D1*
X2716842Y814244D1*
X2718301Y811359D1*
X2721153Y808507D1*
X2724038Y807048D1*
X2729775D1*
X2732627Y808507D1*
X2735512Y811359D1*
X2736938Y814244D1*
X2760560Y807048D2*
Y837159D1*
X2746201Y817096D1*
X2767723D1*
X2785609Y837159D2*
X2781298Y835733D1*
X2778413Y831422D1*
X2776987Y824259D1*
Y819948D1*
X2778413Y812785D1*
X2781298Y808474D1*
X2785609Y807048D1*
X2788461D1*
X2792772Y808474D1*
X2795624Y812785D1*
X2797083Y819948D1*
Y824259D1*
X2795624Y831422D1*
X2792772Y835733D1*
X2788461Y837159D1*
X2785609D1*
X2795624Y831422D2*
X2778413Y812785D1*
X3172178Y141766D2*
X3170752Y144618D1*
X3167867Y147503D1*
X3165015Y148929D1*
X3159278D1*
X3156393Y147503D1*
X3153541Y144618D1*
X3152082Y141766D1*
X3150656Y137455D1*
Y130259D1*
X3152082Y125981D1*
X3153541Y123096D1*
X3156393Y120244D1*
X3159278Y118785D1*
X3165015D1*
X3167867Y120244D1*
X3170752Y123096D1*
X3172178Y125981D1*
X3195800Y118785D2*
Y148895D1*
X3181441Y128833D1*
X3202963D1*
X3212227Y143158D2*
X3215112Y144618D1*
X3219423Y148895D1*
Y118785D1*
X3277181Y179064D2*
X3274329Y177638D1*
X3271444Y174753D1*
X3270018Y171901D1*
Y166164D1*
X3271444Y163279D1*
X3274329Y160427D1*
X3277181Y158968D1*
X3281492Y157542D1*
X3288688D1*
X3292966Y158968D1*
X3295851Y160427D1*
X3298703Y163279D1*
X3300162Y166164D1*
Y171901D1*
X3298703Y174753D1*
X3295851Y177638D1*
X3292966Y179064D1*
X3300162Y202686D2*
X3270051D1*
X3290114Y188327D1*
Y209849D1*
X3277214Y220572D2*
X3275788D1*
X3272903Y221998D1*
X3271477Y223424D1*
X3270051Y226309D1*
Y232046D1*
X3271477Y234898D1*
X3272903Y236324D1*
X3275788Y237783D1*
X3278640D1*
X3281525Y236324D1*
X3285803Y233472D1*
X3300162Y219113D1*
Y239209D1*
X3493189Y1230770D2*
Y1200626D1*
X3503237D1*
X3507548Y1202085D1*
X3510433Y1204937D1*
X3511859Y1207822D1*
X3513285Y1212100D1*
Y1219296D1*
X3511859Y1223607D1*
X3510433Y1226459D1*
X3507548Y1229344D1*
X3503237Y1230770D1*
X3493189D1*
X3522549Y1225000D2*
X3525434Y1226459D1*
X3529745Y1230737D1*
Y1200626D1*
X3117151Y599077D2*
Y568933D1*
X3127199D1*
X3131511Y570392D1*
X3134396Y573244D1*
X3135822Y576129D1*
X3137247Y580407D1*
Y587603D1*
X3135822Y591914D1*
X3134396Y594766D1*
X3131511Y597651D1*
X3127199Y599077D1*
X3117151D1*
X3147970Y591881D2*
Y593307D1*
X3149396Y596192D1*
X3150822Y597618D1*
X3153707Y599044D1*
X3159444D1*
X3162296Y597618D1*
X3163722Y596192D1*
X3165181Y593307D1*
Y590455D1*
X3163722Y587570D1*
X3160870Y583292D1*
X3146511Y568933D1*
X3166607D1*
X530446Y284091D2*
Y261143D1*
X529020Y256832D1*
X527561Y255406D1*
X524709Y253947D1*
X521824D1*
X518972Y255406D1*
X517546Y256832D1*
X516087Y261143D1*
Y263995D1*
X539709Y278321D2*
X542594Y279780D1*
X546905Y284058D1*
Y253947D1*
X1110610Y284091D2*
Y261143D1*
X1109184Y256832D1*
X1107725Y255406D1*
X1104873Y253947D1*
X1101988D1*
X1099136Y255406D1*
X1097710Y256832D1*
X1096251Y261143D1*
Y263995D1*
X1121333Y276895D2*
Y278321D1*
X1122759Y281206D1*
X1124185Y282632D1*
X1127070Y284058D1*
X1132807D1*
X1135659Y282632D1*
X1137084Y281206D1*
X1138544Y278321D1*
Y275469D1*
X1137084Y272584D1*
X1134233Y268306D1*
X1119874Y253947D1*
X1139970D1*
X1969861Y1497185D2*
X1969862Y1474237D1*
X1968436Y1469926D1*
X1966977Y1468500D1*
X1964125Y1467041D1*
X1961240D1*
X1958388Y1468500D1*
X1956962Y1469926D1*
X1955503Y1474236D1*
Y1477088D1*
X1982010Y1497152D2*
X1997762Y1497153D1*
X1989173Y1485679D1*
X1993484D1*
X1996336Y1484253D1*
X1997762Y1482827D1*
X1999222Y1478516D1*
Y1475664D1*
X1997763Y1471353D1*
X1994911Y1468468D1*
X1990600Y1467042D1*
X1986289D1*
X1982011Y1468467D1*
X1980585Y1469926D1*
X1979126Y1472778D1*
X1969148Y1597185D2*
X1969149Y1574237D1*
X1967723Y1569926D1*
X1966264Y1568500D1*
X1963412Y1567041D1*
X1960527D1*
X1957675Y1568500D1*
X1956249Y1569925D1*
X1954790Y1574236D1*
Y1577088D1*
X1992772Y1567042D2*
X1992771Y1597153D1*
X1978413Y1577089D1*
X1999935Y1577090D1*
X1969861Y2497185D2*
X1969862Y2474237D1*
X1968436Y2469926D1*
X1966977Y2468500D1*
X1964125Y2467041D1*
X1961240D1*
X1958388Y2468500D1*
X1956962Y2469926D1*
X1955503Y2474236D1*
Y2477088D1*
X1996336Y2497153D2*
X1982010Y2497152D1*
X1980584Y2484252D1*
X1982010Y2485678D1*
X1986321Y2487138D1*
X1990599D1*
X1994910Y2485679D1*
X1997795Y2482827D1*
X1999222Y2478516D1*
Y2475664D1*
X1997796Y2471353D1*
X1994911Y2468468D1*
X1990600Y2467042D1*
X1986322D1*
X1982011Y2468467D1*
X1980585Y2469926D1*
X1979126Y2472778D1*
X1701891Y288028D2*
Y265080D1*
X1700465Y260769D1*
X1699006Y259343D1*
X1696154Y257884D1*
X1693269D1*
X1690417Y259343D1*
X1688991Y260769D1*
X1687532Y265080D1*
Y267932D1*
X1728365Y283717D2*
X1726939Y286569D1*
X1722628Y287995D1*
X1719776D1*
X1715465Y286569D1*
X1712580Y282258D1*
X1711154Y275095D1*
Y267932D1*
X1712580Y262195D1*
X1715465Y259310D1*
X1719776Y257884D1*
X1721202D1*
X1725480Y259310D1*
X1728365Y262195D1*
X1729791Y266506D1*
Y267932D1*
X1728365Y272243D1*
X1725480Y275095D1*
X1721202Y276521D1*
X1719776D1*
X1715465Y275095D1*
X1712580Y272243D1*
X1711154Y267932D1*
X2283838Y295902D2*
Y272954D1*
X2282412Y268643D1*
X2280953Y267217D1*
X2278101Y265758D1*
X2275216D1*
X2272364Y267217D1*
X2270938Y268643D1*
X2269479Y272954D1*
Y275806D1*
X2298839Y265758D2*
X2313198Y295869D1*
X2293102D1*
X1090136Y2710555D2*
Y2687607D1*
X1088710Y2683296D1*
X1087251Y2681870D1*
X1084399Y2680411D1*
X1081514D1*
X1078662Y2681870D1*
X1077236Y2683296D1*
X1075777Y2687607D1*
Y2690459D1*
X1106562Y2710521D2*
X1102284Y2709095D1*
X1100825Y2706244D1*
Y2703358D1*
X1102284Y2700507D1*
X1105136Y2699047D1*
X1110873Y2697622D1*
X1115184Y2696196D1*
X1118036Y2693310D1*
X1119462Y2690459D1*
Y2686148D1*
X1118036Y2683296D1*
X1116610Y2681837D1*
X1112299Y2680411D1*
X1106562D1*
X1102284Y2681837D1*
X1100825Y2683296D1*
X1099399Y2686148D1*
Y2690459D1*
X1100825Y2693310D1*
X1103710Y2696196D1*
X1107988Y2697622D1*
X1113725Y2699047D1*
X1116610Y2700507D1*
X1118036Y2703358D1*
Y2706244D1*
X1116610Y2709095D1*
X1112299Y2710521D1*
X1106562D1*
X757832Y2708397D2*
Y2685449D1*
X756406Y2681138D1*
X754947Y2679712D1*
X752095Y2678253D1*
X749210D1*
X746358Y2679712D1*
X744932Y2681138D1*
X743473Y2685449D1*
Y2688301D1*
X785766Y2698350D2*
X784307Y2694039D1*
X781455Y2691153D1*
X777144Y2689727D1*
X775718D1*
X771407Y2691153D1*
X768555Y2694038D1*
X767096Y2698349D1*
X767095Y2699775D1*
X768554Y2704086D1*
X771406Y2706938D1*
X775717Y2708364D1*
X777143D1*
X781454Y2706938D1*
X784306Y2704087D1*
X785766Y2698350D1*
Y2691154D1*
X784307Y2683991D1*
X781455Y2679679D1*
X777144Y2678253D1*
X774292D1*
X769981Y2679679D1*
X768555Y2682564D1*
X415519Y2694990D2*
Y2672042D1*
X414093Y2667731D1*
X412634Y2666305D1*
X409782Y2664846D1*
X406897D1*
X404045Y2666305D1*
X402619Y2667731D1*
X401160Y2672042D1*
Y2674894D1*
X424783Y2689220D2*
X427668Y2690679D1*
X431979Y2694957D1*
Y2664846D1*
X449864Y2694957D2*
X445553Y2693531D1*
X442668Y2689220D1*
X441242Y2682057D1*
Y2677746D1*
X442668Y2670583D1*
X445553Y2666272D1*
X449864Y2664846D1*
X452716D1*
X457027Y2666272D1*
X459879Y2670583D1*
X461338Y2677746D1*
Y2682057D1*
X459879Y2689220D1*
X457027Y2693531D1*
X452716Y2694957D1*
X449864D1*
X459879Y2689220D2*
X442668Y2670583D1*
X1496971Y2701241D2*
Y2678293D1*
X1495545Y2673982D1*
X1494085Y2672556D1*
X1491234Y2671097D1*
X1488348D1*
X1485497Y2672556D1*
X1484071Y2673982D1*
X1482612Y2678293D1*
Y2681145D1*
X1506234Y2695471D2*
X1509119Y2696930D1*
X1513430Y2701208D1*
Y2671097D1*
X1522694Y2695471D2*
X1525579Y2696930D1*
X1529890Y2701208D1*
Y2671097D1*
X3409270Y2690192D2*
Y2667244D1*
X3407844Y2662933D1*
X3406385Y2661507D1*
X3403533Y2660048D1*
X3400648D1*
X3397796Y2661507D1*
X3396370Y2662933D1*
X3394911Y2667244D1*
Y2670096D1*
X3418533Y2684422D2*
X3421419Y2685881D1*
X3425730Y2690159D1*
Y2660048D1*
X3436452Y2682996D2*
Y2684422D1*
X3437878Y2687307D1*
X3439304Y2688733D1*
X3442189Y2690159D1*
X3447926D1*
X3450778Y2688733D1*
X3452204Y2687307D1*
X3453663Y2684422D1*
Y2681570D1*
X3452204Y2678685D1*
X3449352Y2674407D1*
X3434993Y2660048D1*
X3455089D1*
X2959270Y2690192D2*
Y2667244D1*
X2957844Y2662933D1*
X2956385Y2661507D1*
X2953533Y2660048D1*
X2950648D1*
X2947796Y2661507D1*
X2946370Y2662933D1*
X2944911Y2667244D1*
Y2670096D1*
X2968533Y2684422D2*
X2971419Y2685881D1*
X2975730Y2690159D1*
Y2660048D1*
X2987878Y2690159D2*
X3003630D1*
X2995041Y2678685D1*
X2999352D1*
X3002204Y2677259D1*
X3003630Y2675833D1*
X3005089Y2671522D1*
Y2668670D1*
X3003630Y2664359D1*
X3000778Y2661474D1*
X2996467Y2660048D1*
X2992156D1*
X2987878Y2661474D1*
X2986452Y2662933D1*
X2984993Y2665785D1*
X2498714Y2690192D2*
Y2667244D1*
X2497288Y2662933D1*
X2495829Y2661507D1*
X2492977Y2660048D1*
X2490092D1*
X2487240Y2661507D1*
X2485815Y2662933D1*
X2484355Y2667244D1*
Y2670096D1*
X2507978Y2684422D2*
X2510863Y2685881D1*
X2515174Y2690159D1*
Y2660048D1*
X2538797D2*
Y2690159D1*
X2524438Y2670096D1*
X2545960D1*
X2059271Y2680350D2*
Y2657402D1*
X2057845Y2653091D1*
X2056386Y2651665D1*
X2053534Y2650206D1*
X2050649D1*
X2047797Y2651665D1*
X2046371Y2653091D1*
X2044912Y2657402D1*
Y2660254D1*
X2068535Y2674580D2*
X2071420Y2676039D1*
X2075731Y2680317D1*
Y2650206D1*
X2102205Y2680317D2*
X2087879D1*
X2086454Y2667417D1*
X2087879Y2668843D1*
X2092191Y2670302D1*
X2096468D1*
X2100779Y2668843D1*
X2103664Y2665991D1*
X2105090Y2661680D1*
Y2658828D1*
X2103664Y2654517D1*
X2100779Y2651632D1*
X2096468Y2650206D1*
X2092191D1*
X2087879Y2651632D1*
X2086454Y2653091D1*
X2084994Y2655943D1*
X3640957Y1028750D2*
X3663905D1*
X3668216Y1027324D1*
X3669642Y1025865D1*
X3671101Y1023013D1*
Y1020128D1*
X3669642Y1017276D1*
X3668216Y1015850D1*
X3663905Y1014391D1*
X3661053D1*
X3646727Y1038014D2*
X3645268Y1040899D1*
X3640990Y1045210D1*
X3671101D1*
X3645268Y1071684D2*
X3642416Y1070258D1*
X3640990Y1065947D1*
Y1063095D1*
X3642416Y1058784D1*
X3646727Y1055899D1*
X3653890Y1054473D1*
X3661053D1*
X3666790Y1055899D1*
X3669675Y1058784D1*
X3671101Y1063095D1*
Y1064521D1*
X3669675Y1068799D1*
X3666790Y1071684D1*
X3662479Y1073110D1*
X3661053D1*
X3656742Y1071684D1*
X3653890Y1068799D1*
X3652464Y1064521D1*
Y1063095D1*
X3653890Y1058784D1*
X3656742Y1055899D1*
X3661053Y1054473D1*
X1466701Y1498109D2*
X1466699Y1521056D1*
X1468125Y1525368D1*
X1469584Y1526794D1*
X1472435Y1528253D1*
X1475320D1*
X1478172Y1526794D1*
X1479598Y1525368D1*
X1481058Y1521058D1*
Y1518206D1*
X1457437Y1503878D2*
X1454552Y1502419D1*
X1450241Y1498141D1*
X1450239Y1528251D1*
X1435238Y1528250D2*
X1420881Y1498138D1*
X1440977Y1498140D1*
X3107426Y829145D2*
Y799001D1*
X3124637D1*
X3133900Y823375D2*
X3136785Y824834D1*
X3141096Y829112D1*
Y799001D1*
X1031066Y2501211D2*
X1061210D1*
Y2518422D1*
X1031066Y2546322D2*
Y2527685D1*
X1061210D1*
Y2546322D1*
X1045425Y2527685D2*
Y2539159D1*
X1031066Y2555585D2*
X1061210D1*
Y2565633D1*
X1059751Y2569945D1*
X1056899Y2572830D1*
X1054014Y2574256D1*
X1049736Y2575681D1*
X1042540D1*
X1038229Y2574256D1*
X1035377Y2572830D1*
X1032492Y2569945D1*
X1031066Y2565633D1*
Y2555585D1*
X1036836Y2584945D2*
X1035377Y2587830D1*
X1031099Y2592141D1*
X1061210D1*
X356066Y2503178D2*
X386210D1*
Y2520389D1*
X356066Y2548289D2*
Y2529652D1*
X386210D1*
Y2548289D1*
X370425Y2529652D2*
Y2541126D1*
X356066Y2557553D2*
X386210D1*
Y2567601D1*
X384751Y2571912D1*
X381899Y2574797D1*
X379014Y2576223D1*
X374736Y2577649D1*
X367540D1*
X363229Y2576223D1*
X360377Y2574797D1*
X357492Y2571912D1*
X356066Y2567601D1*
Y2557553D1*
X363262Y2588372D2*
X361836D1*
X358951Y2589797D1*
X357525Y2591223D1*
X356099Y2594109D1*
Y2599845D1*
X357525Y2602697D1*
X358951Y2604123D1*
X361836Y2605582D1*
X364688D1*
X367573Y2604123D1*
X371851Y2601271D1*
X386210Y2586912D1*
Y2607008D1*
X1412317Y2494761D2*
X1442461D1*
Y2511972D1*
X1412317Y2539872D2*
Y2521235D1*
X1442461D1*
Y2539872D1*
X1426676Y2521235D2*
Y2532709D1*
X1412317Y2549136D2*
X1442461D1*
Y2559184D1*
X1441002Y2563495D1*
X1438150Y2566380D1*
X1435265Y2567806D1*
X1430987Y2569232D1*
X1423791D1*
X1419480Y2567806D1*
X1416628Y2566380D1*
X1413743Y2563495D1*
X1412317Y2559184D1*
Y2549136D1*
X1412350Y2581380D2*
Y2597132D1*
X1423824Y2588543D1*
Y2592854D1*
X1425250Y2595706D1*
X1426676Y2597132D1*
X1430987Y2598591D1*
X1433839D1*
X1438150Y2597132D1*
X1441035Y2594280D1*
X1442461Y2589969D1*
Y2585658D1*
X1441035Y2581380D1*
X1439576Y2579954D1*
X1436724Y2578495D1*
X693566Y2502465D2*
X723710D1*
Y2519676D1*
X693566Y2547576D2*
Y2528939D1*
X723710D1*
Y2547576D1*
X707925Y2528939D2*
Y2540413D1*
X693566Y2556840D2*
X723710D1*
Y2566888D1*
X722251Y2571199D1*
X719399Y2574084D1*
X716514Y2575510D1*
X712236Y2576936D1*
X705040D1*
X700729Y2575510D1*
X697877Y2574084D1*
X694992Y2571199D1*
X693566Y2566888D1*
Y2556840D1*
X723710Y2600558D2*
X693599D1*
X713662Y2586199D1*
Y2607721D1*
X3208920Y1143237D2*
X3239064D1*
Y1160448D1*
X3208920Y1188348D2*
Y1169711D1*
X3239064D1*
Y1188348D1*
X3223280Y1169711D2*
Y1181185D1*
X3208920Y1197612D2*
X3239064D1*
Y1207660D1*
X3237605Y1211971D1*
X3234753Y1214856D1*
X3231868Y1216282D1*
X3227591Y1217708D1*
X3220394D1*
X3216083Y1216282D1*
X3213232Y1214856D1*
X3210346Y1211971D1*
X3208920Y1207660D1*
Y1197612D1*
X3208954Y1244182D2*
Y1229857D1*
X3221854Y1228431D1*
X3220428Y1229857D1*
X3218968Y1234168D1*
Y1238445D1*
X3220428Y1242756D1*
X3223280Y1245642D1*
X3227591Y1247067D1*
X3230442D1*
X3234753Y1245642D1*
X3237639Y1242756D1*
X3239064Y1238445D1*
Y1234168D1*
X3237639Y1229857D1*
X3236179Y1228431D1*
X3233328Y1226971D1*
X95145Y1245187D2*
Y1275331D1*
X83671Y1245187D1*
X72197Y1275331D1*
Y1245187D1*
X113031Y1275331D2*
X110146Y1273906D1*
X107294Y1271020D1*
X105834Y1268169D1*
X104409Y1263858D1*
Y1256661D1*
X105834Y1252384D1*
X107294Y1249499D1*
X110146Y1246647D1*
X113031Y1245187D1*
X118768D1*
X121619Y1246647D1*
X124505Y1249499D1*
X125930Y1252384D1*
X127356Y1256661D1*
Y1263858D1*
X125930Y1268169D1*
X124505Y1271020D1*
X121619Y1273906D1*
X118768Y1275331D1*
X113031D1*
X136620D2*
Y1245187D1*
X146668D1*
X150979Y1246647D1*
X153864Y1249499D1*
X155290Y1252384D1*
X156716Y1256661D1*
Y1263858D1*
X155290Y1268169D1*
X153864Y1271020D1*
X150979Y1273906D1*
X146668Y1275331D1*
X136620D1*
X165980Y1269561D2*
X168865Y1271020D1*
X173176Y1275298D1*
Y1245187D1*
X2262972Y2441436D2*
X2275871D1*
X2280182Y2442895D1*
X2281642Y2444321D1*
X2283068Y2447173D1*
Y2450058D1*
X2281642Y2452910D1*
X2280182Y2454369D1*
X2275871Y2455795D1*
X2262972D1*
Y2425651D1*
X2273020Y2441436D2*
X2283068Y2425651D1*
X2292331Y2450025D2*
X2295216Y2451484D1*
X2299527Y2455762D1*
Y2425651D1*
X596410Y400468D2*
Y413368D1*
X594950Y417679D1*
X593524Y419138D1*
X590673Y420564D1*
X587787D1*
X584936Y419138D1*
X583476Y417679D1*
X582051Y413368D1*
Y400468D1*
X612195D1*
X596410Y410516D2*
X612194Y420564D1*
X589246Y431286D2*
X587820D1*
X584935Y432712D1*
X583509Y434138D1*
X582083Y437023D1*
Y442760D1*
X583509Y445612D1*
X584935Y447038D1*
X587820Y448497D1*
X590672D1*
X593557Y447038D1*
X597835Y444186D1*
X612194Y429828D1*
Y449924D1*
X466489Y400468D2*
X466488Y413368D1*
X465029Y417679D1*
X463603Y419138D1*
X460751Y420564D1*
X457866Y420563D1*
X455014Y419137D1*
X453555Y417678D1*
X452129Y413367D1*
X452130Y400467D1*
X482274Y400468D1*
X466488Y410516D2*
X482273Y420564D1*
X452162Y432712D2*
Y448464D1*
X463636Y439875D1*
Y444186D1*
X465062Y447038D1*
X466488Y448464D1*
X470799Y449923D1*
X473651D1*
X477962Y448464D1*
X480847Y445612D1*
X482273Y441301D1*
Y436990D1*
X480847Y432713D1*
X479388Y431287D1*
X476536Y429827D1*
X1185433Y399756D2*
Y412656D1*
X1183974Y416967D1*
X1182548Y418426D1*
X1179696Y419852D1*
X1176811D1*
X1173959Y418426D1*
X1172500Y416967D1*
X1171074Y412656D1*
Y399756D1*
X1201218D1*
X1185433Y409804D2*
X1201218Y419852D1*
Y443475D2*
X1171107D1*
X1191170Y429116D1*
Y450638D1*
X1055618Y400469D2*
Y413369D1*
X1054159Y417680D1*
X1052733Y419139D1*
X1049881Y420565D1*
X1046996D1*
X1044144Y419139D1*
X1042685Y417680D1*
X1041259Y413369D1*
Y400469D1*
X1071403D1*
X1055618Y410517D2*
X1071403Y420565D1*
X1041292Y447040D2*
Y432714D1*
X1054192Y431288D1*
X1052766Y432714D1*
X1051307Y437025D1*
Y441303D1*
X1052766Y445614D1*
X1055618Y448499D1*
X1059929Y449925D1*
X1062781D1*
X1067092Y448499D1*
X1069977Y445614D1*
X1071403Y441303D1*
Y437025D1*
X1069977Y432714D1*
X1068518Y431288D1*
X1065666Y429829D1*
X1776773Y401199D2*
Y414099D1*
X1775314Y418410D1*
X1773888Y419869D1*
X1771036Y421295D1*
X1768151D1*
X1765299Y419869D1*
X1763840Y418410D1*
X1762414Y414099D1*
Y401199D1*
X1792558D1*
X1776773Y411247D2*
X1792558Y421295D1*
X1766725Y447769D2*
X1763873Y446343D1*
X1762447Y442032D1*
Y439180D1*
X1763873Y434869D1*
X1768184Y431984D1*
X1775347Y430558D1*
X1782510D1*
X1788247Y431984D1*
X1791132Y434869D1*
X1792558Y439180D1*
Y440606D1*
X1791132Y444884D1*
X1788247Y447769D1*
X1783936Y449195D1*
X1782510D1*
X1778199Y447769D1*
X1775347Y444884D1*
X1773921Y440606D1*
Y439180D1*
X1775347Y434869D1*
X1778199Y431984D1*
X1782510Y430558D1*
X1659915Y404406D2*
Y417306D1*
X1658456Y421617D1*
X1657030Y423076D1*
X1654178Y424502D1*
X1651293D1*
X1648441Y423076D1*
X1646982Y421617D1*
X1645556Y417306D1*
Y404406D1*
X1675700D1*
X1659915Y414454D2*
X1675700Y424502D1*
Y439503D2*
X1645589Y453862D1*
Y433766D1*
X2365060Y400486D2*
Y413386D1*
X2363601Y417697D1*
X2362175Y419156D1*
X2359323Y420582D1*
X2356438D1*
X2353586Y419156D1*
X2352127Y417697D1*
X2350701Y413386D1*
Y400486D1*
X2380845D1*
X2365060Y410534D2*
X2380845Y420582D1*
X2350734Y437008D2*
X2352160Y432730D1*
X2355012Y431271D1*
X2357897D1*
X2360749Y432730D1*
X2362208Y435582D1*
X2363634Y441319D1*
X2365060Y445630D1*
X2367945Y448482D1*
X2370797Y449908D1*
X2375108D1*
X2377960Y448482D1*
X2379419Y447056D1*
X2380845Y442745D1*
Y437008D1*
X2379419Y432730D1*
X2377960Y431271D1*
X2375108Y429845D1*
X2370797D1*
X2367945Y431271D1*
X2365060Y434156D1*
X2363634Y438434D1*
X2362208Y444171D1*
X2360749Y447056D1*
X2357897Y448482D1*
X2355012D1*
X2352160Y447056D1*
X2350734Y442745D1*
Y437008D1*
X2240407Y405119D2*
Y418019D1*
X2238948Y422330D1*
X2237522Y423789D1*
X2234670Y425215D1*
X2231785D1*
X2228933Y423789D1*
X2227474Y422330D1*
X2226048Y418019D1*
Y405119D1*
X2256192D1*
X2240407Y415167D2*
X2256192Y425215D1*
X2236096Y453149D2*
X2240407Y451690D1*
X2243292Y448838D1*
X2244718Y444527D1*
Y443101D1*
X2243292Y438790D1*
X2240407Y435938D1*
X2236096Y434479D1*
X2234670D1*
X2230359Y435938D1*
X2227507Y438790D1*
X2226081Y443101D1*
Y444527D1*
X2227507Y448838D1*
X2230359Y451690D1*
X2236096Y453149D1*
X2243292D1*
X2250455Y451690D1*
X2254766Y448838D1*
X2256192Y444527D1*
Y441675D1*
X2254766Y437364D1*
X2251881Y435938D1*
X903087Y1840231D2*
Y1853131D1*
X901627Y1857442D1*
X900202Y1858901D1*
X897350Y1860327D1*
X894465D1*
X891613Y1858901D1*
X890154Y1857442D1*
X888728Y1853131D1*
Y1840231D1*
X918872D1*
X903087Y1850279D2*
X918872Y1860327D1*
X894498Y1869591D2*
X893039Y1872476D1*
X888761Y1876787D1*
X918872D1*
X888761Y1894673D2*
X890187Y1890362D1*
X894498Y1887477D1*
X901661Y1886051D1*
X905972D1*
X913135Y1887477D1*
X917446Y1890362D1*
X918872Y1894673D1*
Y1897525D1*
X917446Y1901836D1*
X913135Y1904687D1*
X905972Y1906147D1*
X901661D1*
X894498Y1904687D1*
X890187Y1901836D1*
X888761Y1897525D1*
Y1894673D1*
X894498Y1904687D2*
X913135Y1887477D1*
X806360Y1844882D2*
Y1857782D1*
X804900Y1862093D1*
X803474Y1863552D1*
X800623Y1864978D1*
X797738D1*
X794886Y1863552D1*
X793426Y1862093D1*
X792001Y1857782D1*
Y1844882D1*
X822145D1*
X806360Y1854930D2*
X822145Y1864978D1*
X797771Y1874242D2*
X796312Y1877127D1*
X792034Y1881438D1*
X822145D1*
X797771Y1890701D2*
X796312Y1893586D1*
X792034Y1897897D1*
X822145D1*
X699625Y1838432D2*
Y1851332D1*
X698166Y1855643D1*
X696740Y1857102D1*
X693888Y1858528D1*
X691003D1*
X688151Y1857102D1*
X686692Y1855643D1*
X685266Y1851332D1*
Y1838432D1*
X715410D1*
X699625Y1848480D2*
X715410Y1858528D1*
X691036Y1867792D2*
X689577Y1870677D1*
X685299Y1874988D1*
X715410D1*
X692462Y1885710D2*
X691036D1*
X688151Y1887136D1*
X686725Y1888562D1*
X685299Y1891447D1*
Y1897184D1*
X686725Y1900036D1*
X688151Y1901462D1*
X691036Y1902921D1*
X693888D1*
X696773Y1901462D1*
X701051Y1898610D1*
X715410Y1884251D1*
Y1904347D1*
X601936Y1831982D2*
Y1844882D1*
X600477Y1849193D1*
X599051Y1850652D1*
X596199Y1852078D1*
X593314D1*
X590462Y1850652D1*
X589003Y1849193D1*
X587577Y1844882D1*
Y1831982D1*
X617721D1*
X601936Y1842030D2*
X617721Y1852078D1*
X593347Y1861342D2*
X591888Y1864227D1*
X587610Y1868538D1*
X617721D1*
X587610Y1880686D2*
Y1896438D1*
X599084Y1887849D1*
Y1892160D1*
X600510Y1895012D1*
X601936Y1896438D1*
X606247Y1897897D1*
X609099D1*
X613410Y1896438D1*
X616295Y1893586D1*
X617721Y1889275D1*
Y1884964D1*
X616295Y1880686D1*
X614836Y1879260D1*
X611984Y1877801D1*
X3178831Y2614738D2*
X3191731D1*
X3196042Y2616197D1*
X3197501Y2617623D1*
X3198927Y2620475D1*
Y2623360D1*
X3197501Y2626212D1*
X3196042Y2627671D1*
X3191731Y2629097D1*
X3178831D1*
Y2598953D1*
X3188879Y2614738D2*
X3198927Y2598953D1*
X3208190Y2623326D2*
X3211075Y2624786D1*
X3215386Y2629063D1*
Y2598953D1*
X3239009D2*
Y2629063D1*
X3224650Y2609001D1*
X3246172D1*
X2749255Y2635185D2*
X2762155D1*
X2766466Y2636644D1*
X2767925Y2638070D1*
X2769351Y2640922D1*
Y2643807D1*
X2767925Y2646659D1*
X2766466Y2648118D1*
X2762155Y2649544D1*
X2749255D1*
Y2619400D1*
X2759303Y2635185D2*
X2769351Y2619400D1*
X2778615Y2643774D2*
X2781500Y2645233D1*
X2785811Y2649511D1*
Y2619400D1*
X2812285Y2649511D2*
X2797959D1*
X2796533Y2636611D1*
X2797959Y2638037D1*
X2802270Y2639496D1*
X2806548D1*
X2810859Y2638037D1*
X2813744Y2635185D1*
X2815170Y2630874D1*
Y2628022D1*
X2813744Y2623711D1*
X2810859Y2620826D1*
X2806548Y2619400D1*
X2802270D1*
X2797959Y2620826D1*
X2796533Y2622285D1*
X2795074Y2625137D1*
X3167823Y2806962D2*
X3180723D1*
X3185034Y2808421D1*
X3186493Y2809847D1*
X3187919Y2812699D1*
Y2815584D1*
X3186493Y2818436D1*
X3185034Y2819895D1*
X3180723Y2821321D1*
X3167823D1*
Y2791177D1*
X3177871Y2806962D2*
X3187919Y2791177D1*
X3197183Y2815551D2*
X3200068Y2817010D1*
X3204379Y2821288D1*
Y2791177D1*
X3230853Y2817010D2*
X3229427Y2819862D1*
X3225116Y2821288D1*
X3222264D1*
X3217953Y2819862D1*
X3215068Y2815551D1*
X3213642Y2808388D1*
Y2801225D1*
X3215068Y2795488D1*
X3217953Y2792603D1*
X3222264Y2791177D1*
X3223690D1*
X3227968Y2792603D1*
X3230853Y2795488D1*
X3232279Y2799799D1*
Y2801225D1*
X3230853Y2805536D1*
X3227968Y2808388D1*
X3223690Y2809814D1*
X3222264D1*
X3217953Y2808388D1*
X3215068Y2805536D1*
X3213642Y2801225D1*
X2746718Y2810294D2*
X2759618Y2810295D1*
X2763929Y2811754D1*
X2765388Y2813180D1*
X2766814Y2816032D1*
X2766813Y2818917D1*
X2765387Y2821769D1*
X2763928Y2823228D1*
X2759617Y2824654D1*
X2746717Y2824653D1*
X2746719Y2794509D1*
X2756766Y2810294D2*
X2766815Y2794510D1*
X2776077Y2818884D2*
X2778962Y2820343D1*
X2783273Y2824622D1*
X2783274Y2794511D1*
X2798275D2*
X2812632Y2824623D1*
X2792536Y2824622D1*
X964992Y1668386D2*
Y1681286D1*
X963533Y1685597D1*
X962107Y1687056D1*
X959255Y1688482D1*
X956370D1*
X953518Y1687056D1*
X952059Y1685597D1*
X950633Y1681286D1*
Y1668386D1*
X980777D1*
X964992Y1678434D2*
X980777Y1688482D1*
X956403Y1697745D2*
X954944Y1700630D1*
X950666Y1704941D1*
X980777D1*
X950666Y1721368D2*
X952092Y1717090D1*
X954944Y1715631D1*
X957829D1*
X960681Y1717090D1*
X962140Y1719942D1*
X963566Y1725679D1*
X964992Y1729990D1*
X967877Y1732842D1*
X970729Y1734268D1*
X975040D1*
X977892Y1732842D1*
X979351Y1731416D1*
X980777Y1727105D1*
Y1721368D1*
X979351Y1717090D1*
X977892Y1715631D1*
X975040Y1714205D1*
X970729D1*
X967877Y1715631D1*
X964992Y1718516D1*
X963566Y1722794D1*
X962140Y1728531D1*
X960681Y1731416D1*
X957829Y1732842D1*
X954944D1*
X952092Y1731416D1*
X950666Y1727105D1*
Y1721368D1*
X855769Y1664957D2*
Y1677857D1*
X854310Y1682168D1*
X852884Y1683628D1*
X850032Y1685053D1*
X847147D1*
X844295Y1683628D1*
X842836Y1682168D1*
X841410Y1677857D1*
Y1664957D1*
X871554D1*
X855769Y1675005D2*
X871554Y1685053D1*
X847180Y1694317D2*
X845721Y1697202D1*
X841443Y1701513D1*
X871554D1*
X851458Y1729447D2*
X855769Y1727988D1*
X858654Y1725136D1*
X860080Y1720825D1*
Y1719399D1*
X858654Y1715088D1*
X855769Y1712236D1*
X851458Y1710777D1*
X850032D1*
X845721Y1712236D1*
X842869Y1715088D1*
X841443Y1719399D1*
Y1720825D1*
X842869Y1725136D1*
X845721Y1727988D1*
X851458Y1729447D1*
X858654D1*
X865817Y1727988D1*
X870128Y1725136D1*
X871554Y1720825D1*
Y1717973D1*
X870128Y1713662D1*
X867243Y1712236D1*
X752781Y1662607D2*
Y1675507D1*
X751322Y1679818D1*
X749896Y1681277D1*
X747044Y1682703D1*
X744159D1*
X741307Y1681277D1*
X739848Y1679818D1*
X738422Y1675507D1*
Y1662607D1*
X768566D1*
X752781Y1672655D2*
X768566Y1682703D1*
X745618Y1693426D2*
X744192D1*
X741307Y1694852D1*
X739881Y1696277D1*
X738455Y1699163D1*
Y1704900D1*
X739881Y1707751D1*
X741307Y1709177D1*
X744192Y1710636D1*
X747044D1*
X749929Y1709177D1*
X754207Y1706325D1*
X768566Y1691966D1*
Y1712062D1*
X738455Y1729948D2*
X739881Y1725637D1*
X744192Y1722752D1*
X751355Y1721326D1*
X755666D1*
X762829Y1722752D1*
X767140Y1725637D1*
X768566Y1729948D1*
Y1732800D1*
X767140Y1737111D1*
X762829Y1739963D1*
X755666Y1741422D1*
X751355D1*
X744192Y1739963D1*
X739881Y1737111D1*
X738455Y1732800D1*
Y1729948D1*
X744192Y1739963D2*
X762829Y1722752D1*
X554476Y1678682D2*
Y1691581D1*
X553017Y1695892D1*
X551591Y1697352D1*
X548739Y1698778D1*
X545854D1*
X543002Y1697352D1*
X541543Y1695892D1*
X540117Y1691581D1*
Y1678682D1*
X570261D1*
X554476Y1688730D2*
X570261Y1698778D1*
X547313Y1709500D2*
X545887D1*
X543002Y1710926D1*
X541576Y1712352D1*
X540150Y1715237D1*
Y1720974D1*
X541576Y1723826D1*
X543002Y1725252D1*
X545887Y1726711D1*
X548739D1*
X551624Y1725252D1*
X555902Y1722400D1*
X570261Y1708041D1*
Y1728137D1*
X545887Y1737401D2*
X544428Y1740286D1*
X540150Y1744597D1*
X570261D1*
X1223895Y2512361D2*
Y2525261D1*
X1222436Y2529572D1*
X1221010Y2531032D1*
X1218158Y2532457D1*
X1215273D1*
X1212421Y2531032D1*
X1210962Y2529572D1*
X1209536Y2525261D1*
Y2512361D1*
X1239680D1*
X1223895Y2522409D2*
X1239680Y2532457D1*
X1216732Y2543180D2*
X1215306D1*
X1212421Y2544606D1*
X1210995Y2546032D1*
X1209569Y2548917D1*
Y2554654D1*
X1210995Y2557506D1*
X1212421Y2558932D1*
X1215306Y2560391D1*
X1218158D1*
X1221043Y2558932D1*
X1225321Y2556080D1*
X1239680Y2541721D1*
Y2561817D1*
X1216732Y2572540D2*
X1215306D1*
X1212421Y2573966D1*
X1210995Y2575392D1*
X1209569Y2578277D1*
Y2584014D1*
X1210995Y2586866D1*
X1212421Y2588292D1*
X1215306Y2589751D1*
X1218158D1*
X1221043Y2588292D1*
X1225321Y2585440D1*
X1239680Y2571081D1*
Y2591177D1*
X542646Y2512361D2*
Y2525261D1*
X541187Y2529572D1*
X539761Y2531032D1*
X536909Y2532457D1*
X534024D1*
X531172Y2531032D1*
X529713Y2529572D1*
X528287Y2525261D1*
Y2512361D1*
X558431D1*
X542646Y2522409D2*
X558431Y2532457D1*
X535483Y2543180D2*
X534057D1*
X531172Y2544606D1*
X529746Y2546032D1*
X528320Y2548917D1*
Y2554654D1*
X529746Y2557506D1*
X531172Y2558932D1*
X534057Y2560391D1*
X536909D1*
X539794Y2558932D1*
X544072Y2556080D1*
X558431Y2541721D1*
Y2561817D1*
X528320Y2573966D2*
Y2589717D1*
X539794Y2581129D1*
Y2585440D1*
X541220Y2588292D1*
X542646Y2589717D1*
X546957Y2591177D1*
X549809D1*
X554120Y2589717D1*
X557005Y2586866D1*
X558431Y2582555D1*
Y2578244D1*
X557005Y2573966D1*
X555546Y2572540D1*
X552694Y2571081D1*
X1605144Y2518351D2*
Y2531251D1*
X1603685Y2535562D1*
X1602259Y2537021D1*
X1599407Y2538447D1*
X1596522D1*
X1593670Y2537021D1*
X1592211Y2535562D1*
X1590785Y2531251D1*
Y2518351D1*
X1620929D1*
X1605144Y2528399D2*
X1620929Y2538447D1*
X1597981Y2549169D2*
X1596555D1*
X1593670Y2550595D1*
X1592244Y2552021D1*
X1590818Y2554906D1*
Y2560643D1*
X1592244Y2563495D1*
X1593670Y2564921D1*
X1596555Y2566380D1*
X1599407D1*
X1602292Y2564921D1*
X1606570Y2562069D1*
X1620929Y2547710D1*
Y2567806D1*
Y2591429D2*
X1590818D1*
X1610881Y2577070D1*
Y2598592D1*
X873895Y2512361D2*
Y2525261D1*
X872436Y2529572D1*
X871010Y2531032D1*
X868158Y2532457D1*
X865273D1*
X862421Y2531032D1*
X860962Y2529572D1*
X859536Y2525261D1*
Y2512361D1*
X889680D1*
X873895Y2522409D2*
X889680Y2532457D1*
X866732Y2543180D2*
X865306D1*
X862421Y2544606D1*
X860995Y2546032D1*
X859569Y2548917D1*
Y2554654D1*
X860995Y2557506D1*
X862421Y2558932D1*
X865306Y2560391D1*
X868158D1*
X871043Y2558932D1*
X875321Y2556080D1*
X889680Y2541721D1*
Y2561817D1*
X859569Y2588292D2*
Y2573966D1*
X872469Y2572540D1*
X871043Y2573966D1*
X869584Y2578277D1*
Y2582555D1*
X871043Y2586866D1*
X873895Y2589751D1*
X878206Y2591177D1*
X881058D1*
X885369Y2589751D1*
X888254Y2586866D1*
X889680Y2582555D1*
Y2578277D1*
X888254Y2573966D1*
X886795Y2572540D1*
X883943Y2571081D1*
X2272434Y2623299D2*
X2285333D1*
X2289644Y2624758D1*
X2291104Y2626184D1*
X2292530Y2629036D1*
Y2631921D1*
X2291104Y2634773D1*
X2289644Y2636232D1*
X2285333Y2637658D1*
X2272434D1*
Y2607514D1*
X2282482Y2623299D2*
X2292530Y2607514D1*
X2303252Y2630462D2*
Y2631888D1*
X2304678Y2634773D1*
X2306104Y2636199D1*
X2308989Y2637625D1*
X2314726D1*
X2317578Y2636199D1*
X2319004Y2634773D1*
X2320463Y2631888D1*
Y2629036D1*
X2319004Y2626151D1*
X2316152Y2621873D1*
X2301793Y2607514D1*
X2321889D1*
X2348364Y2633347D2*
X2346938Y2636199D1*
X2342627Y2637625D1*
X2339775D1*
X2335464Y2636199D1*
X2332579Y2631888D1*
X2331153Y2624725D1*
Y2617562D1*
X2332579Y2611825D1*
X2335464Y2608940D1*
X2339775Y2607514D1*
X2341201D1*
X2345479Y2608940D1*
X2348364Y2611825D1*
X2349790Y2616136D1*
Y2617562D1*
X2348364Y2621873D1*
X2345479Y2624725D1*
X2341201Y2626151D1*
X2339775D1*
X2335464Y2624725D1*
X2332579Y2621873D1*
X2331153Y2617562D1*
X1735592Y2646269D2*
X1748492D1*
X1752803Y2647728D1*
X1754262Y2649154D1*
X1755688Y2652006D1*
Y2654891D1*
X1754262Y2657743D1*
X1752803Y2659202D1*
X1748492Y2660628D1*
X1735592D1*
Y2630484D1*
X1745640Y2646269D2*
X1755688Y2630484D1*
X1766411Y2653432D2*
Y2654858D1*
X1767837Y2657743D1*
X1769263Y2659169D1*
X1772148Y2660595D1*
X1777885D1*
X1780737Y2659169D1*
X1782163Y2657743D1*
X1783622Y2654858D1*
Y2652006D1*
X1782163Y2649121D1*
X1779311Y2644843D1*
X1764952Y2630484D1*
X1785048D1*
X1800049D2*
X1814408Y2660595D1*
X1794312D1*
X2270991Y2810295D2*
X2283891D1*
X2288202Y2811754D1*
X2289661Y2813180D1*
X2291087Y2816032D1*
Y2818917D1*
X2289661Y2821769D1*
X2288202Y2823228D1*
X2283891Y2824654D1*
X2270991D1*
Y2794510D1*
X2281039Y2810295D2*
X2291087Y2794510D1*
X2301810Y2817458D2*
Y2818884D1*
X2303236Y2821769D1*
X2304661Y2823195D1*
X2307547Y2824621D1*
X2313284D1*
X2316135Y2823195D1*
X2317561Y2821769D1*
X2319021Y2818884D1*
Y2816032D1*
X2317561Y2813147D1*
X2314709Y2808869D1*
X2300350Y2794510D1*
X2320446D1*
X2336873Y2824621D2*
X2332595Y2823195D1*
X2331136Y2820343D1*
Y2817458D1*
X2332595Y2814606D1*
X2335447Y2813147D1*
X2341184Y2811721D1*
X2345495Y2810295D1*
X2348347Y2807410D1*
X2349773Y2804558D1*
Y2800247D1*
X2348347Y2797395D1*
X2346921Y2795936D1*
X2342610Y2794510D1*
X2336873D1*
X2332595Y2795936D1*
X2331136Y2797395D1*
X2329710Y2800247D1*
Y2804558D1*
X2331136Y2807410D1*
X2334021Y2810295D1*
X2338299Y2811721D1*
X2344036Y2813147D1*
X2346921Y2814606D1*
X2348347Y2817458D1*
Y2820343D1*
X2346921Y2823195D1*
X2342610Y2824621D1*
X2336873D1*
X1736305Y2762656D2*
X1749205D1*
X1753516Y2764115D1*
X1754975Y2765541D1*
X1756401Y2768393D1*
Y2771278D1*
X1754975Y2774130D1*
X1753516Y2775589D1*
X1749205Y2777015D1*
X1736305D1*
Y2746871D1*
X1746353Y2762656D2*
X1756401Y2746871D1*
X1767124Y2769819D2*
Y2771245D1*
X1768550Y2774130D1*
X1769976Y2775556D1*
X1772861Y2776982D1*
X1778598D1*
X1781450Y2775556D1*
X1782876Y2774130D1*
X1784335Y2771245D1*
Y2768393D1*
X1782876Y2765508D1*
X1780024Y2761230D1*
X1765665Y2746871D1*
X1785761D1*
X1813695Y2766967D2*
X1812235Y2762656D1*
X1809384Y2759771D1*
X1805073Y2758345D1*
X1803647D1*
X1799336Y2759771D1*
X1796484Y2762656D1*
X1795025Y2766967D1*
Y2768393D1*
X1796484Y2772704D1*
X1799336Y2775556D1*
X1803647Y2776982D1*
X1805073D1*
X1809384Y2775556D1*
X1812235Y2772704D1*
X1813695Y2766967D1*
Y2759771D1*
X1812235Y2752608D1*
X1809384Y2748297D1*
X1805073Y2746871D1*
X1802221D1*
X1797910Y2748297D1*
X1796484Y2751182D1*
X2979770Y55042D2*
X2992670D1*
X2996981Y56501D1*
X2998440Y57927D1*
X2999866Y60779D1*
Y63664D1*
X2998440Y66516D1*
X2996981Y67975D1*
X2992670Y69401D1*
X2979770D1*
Y39257D1*
X2989818Y55042D2*
X2999866Y39257D1*
X3012015Y69368D2*
X3027767D1*
X3019178Y57894D1*
X3023489D1*
X3026341Y56468D1*
X3027767Y55042D1*
X3029226Y50731D1*
Y47879D1*
X3027767Y43568D1*
X3024915Y40683D1*
X3020604Y39257D1*
X3016293D1*
X3012015Y40683D1*
X3010589Y42142D1*
X3009130Y44994D1*
X3047111Y69368D2*
X3042800Y67942D1*
X3039915Y63631D1*
X3038489Y56468D1*
Y52157D1*
X3039915Y44994D1*
X3042800Y40683D1*
X3047111Y39257D1*
X3049963D1*
X3054274Y40683D1*
X3057126Y44994D1*
X3058585Y52157D1*
Y56468D1*
X3057126Y63631D1*
X3054274Y67942D1*
X3049963Y69368D1*
X3047111D1*
X3057126Y63631D2*
X3039915Y44994D1*
X3028049Y1207269D2*
Y1194369D1*
X3029508Y1190058D1*
X3030934Y1188599D1*
X3033786Y1187173D1*
X3036671D1*
X3039523Y1188599D1*
X3040982Y1190058D1*
X3042408Y1194369D1*
Y1207269D1*
X3012264D1*
X3028049Y1197221D2*
X3012264Y1187173D1*
X3042374Y1175024D2*
Y1159272D1*
X3030900Y1167861D1*
Y1163550D1*
X3029475Y1160698D1*
X3028049Y1159272D1*
X3023738Y1157813D1*
X3020886D1*
X3016575Y1159272D1*
X3013690Y1162124D1*
X3012264Y1166435D1*
Y1170746D1*
X3013690Y1175024D1*
X3015149Y1176450D1*
X3018001Y1177909D1*
X3036637Y1148550D2*
X3038097Y1145664D1*
X3042374Y1141353D1*
X3012264D1*
X2814923Y55781D2*
X2827823D1*
X2832134Y57240D1*
X2833593Y58666D1*
X2835019Y61518D1*
Y64403D1*
X2833593Y67255D1*
X2832134Y68714D1*
X2827823Y70140D1*
X2814923D1*
Y39996D1*
X2824971Y55781D2*
X2835019Y39996D1*
X2847168Y70107D2*
X2862920D1*
X2854331Y58633D1*
X2858642D1*
X2861494Y57207D1*
X2862920Y55781D1*
X2864379Y51470D1*
Y48618D1*
X2862920Y44307D1*
X2860068Y41422D1*
X2855757Y39996D1*
X2851446D1*
X2847168Y41422D1*
X2845742Y42881D1*
X2844283Y45733D1*
X2875101Y62944D2*
Y64370D1*
X2876527Y67255D1*
X2877953Y68681D1*
X2880838Y70107D1*
X2886575D1*
X2889427Y68681D1*
X2890853Y67255D1*
X2892312Y64370D1*
Y61518D1*
X2890853Y58633D1*
X2888001Y54355D1*
X2873642Y39996D1*
X2893738D1*
X3153948Y257454D2*
X3166848D1*
X3171159Y258913D1*
X3172618Y260339D1*
X3174044Y263191D1*
Y266076D1*
X3172618Y268928D1*
X3171159Y270387D1*
X3166848Y271813D1*
X3153948D1*
Y241669D1*
X3163996Y257454D2*
X3174044Y241669D1*
X3186193Y271780D2*
X3201945D1*
X3193356Y260306D1*
X3197667D1*
X3200519Y258880D1*
X3201945Y257454D1*
X3203404Y253143D1*
Y250291D1*
X3201945Y245980D1*
X3199093Y243095D1*
X3194782Y241669D1*
X3190471D1*
X3186193Y243095D1*
X3184767Y244554D1*
X3183308Y247406D1*
X3215552Y271780D2*
X3231304D1*
X3222715Y260306D1*
X3227026D1*
X3229878Y258880D1*
X3231304Y257454D1*
X3232763Y253143D1*
Y250291D1*
X3231304Y245980D1*
X3228452Y243095D1*
X3224141Y241669D1*
X3219830D1*
X3215552Y243095D1*
X3214126Y244554D1*
X3212667Y247406D1*
X3083049Y55042D2*
X3095949D1*
X3100260Y56501D1*
X3101719Y57927D1*
X3103145Y60779D1*
Y63664D1*
X3101719Y66516D1*
X3100260Y67975D1*
X3095949Y69401D1*
X3083049D1*
Y39257D1*
X3093097Y55042D2*
X3103145Y39257D1*
X3115294Y69368D2*
X3131046D1*
X3122457Y57894D1*
X3126768D1*
X3129620Y56468D1*
X3131046Y55042D1*
X3132505Y50731D1*
Y47879D1*
X3131046Y43568D1*
X3128194Y40683D1*
X3123883Y39257D1*
X3119572D1*
X3115294Y40683D1*
X3113868Y42142D1*
X3112409Y44994D1*
X3156127Y39257D2*
Y69368D1*
X3141768Y49305D1*
X3163290D1*
X3612138Y2034186D2*
X3609286Y2037071D1*
X3604975Y2038497D1*
X3599238D1*
X3594927Y2037071D1*
X3592042Y2034186D1*
Y2031334D1*
X3593502Y2028449D1*
X3594927Y2027023D1*
X3597779Y2025597D1*
X3606401Y2022712D1*
X3609286Y2021286D1*
X3610712Y2019827D1*
X3612138Y2016975D1*
Y2012664D1*
X3609286Y2009812D1*
X3604975Y2008353D1*
X3599238D1*
X3594927Y2009812D1*
X3592042Y2012664D1*
X3621402Y2038497D2*
Y2008353D1*
X3631450D1*
X3635761Y2009812D1*
X3638646Y2012664D1*
X3640072Y2015549D1*
X3641498Y2019827D1*
Y2027023D1*
X3640072Y2031334D1*
X3638646Y2034186D1*
X3635761Y2037071D1*
X3631450Y2038497D1*
X3621402D1*
X3650762Y2032727D2*
X3653647Y2034186D1*
X3657958Y2038464D1*
Y2008353D1*
X3811750Y481126D2*
X3841894D1*
X3811750Y471078D2*
Y491174D1*
Y500437D2*
X3841894D1*
Y513370D1*
X3840435Y517681D1*
X3839009Y519107D1*
X3836157Y520533D1*
X3831846D1*
X3828961Y519107D1*
X3827535Y517681D1*
X3826109Y513370D1*
X3824650Y517681D1*
X3823224Y519107D1*
X3820372Y520533D1*
X3817487D1*
X3814635Y519107D1*
X3813176Y517681D1*
X3811750Y513370D1*
Y500437D1*
X3826109D2*
Y513370D1*
X3817520Y529797D2*
X3816061Y532682D1*
X3811783Y536993D1*
X3841894D1*
X519610Y572650D2*
Y551128D1*
X521036Y546817D1*
X523921Y543965D1*
X528232Y542506D1*
X531084D1*
X535395Y543965D1*
X538280Y546817D1*
X539706Y551128D1*
Y572650D1*
X548970Y566880D2*
X551855Y568339D1*
X556166Y572617D1*
Y542506D1*
X1095843Y574779D2*
Y553257D1*
X1097269Y548946D1*
X1100154Y546094D1*
X1104465Y544635D1*
X1107317D1*
X1111628Y546094D1*
X1114513Y548946D1*
X1115939Y553257D1*
Y574779D1*
X1126662Y567584D2*
X1126661Y569009D1*
X1128087Y571895D1*
X1129513Y573321D1*
X1132398Y574747D1*
X1138135D1*
X1140987Y573321D1*
X1142413Y571895D1*
X1143872Y569010D1*
Y566158D1*
X1142413Y563273D1*
X1139562Y558995D1*
X1125203Y544636D1*
X1145299D1*
X1696394Y574777D2*
Y553255D1*
X1697820Y548944D1*
X1700705Y546092D1*
X1705016Y544633D1*
X1707868D1*
X1712179Y546092D1*
X1715064Y548944D1*
X1716490Y553255D1*
Y574777D1*
X1728638Y574744D2*
X1744390D1*
X1735801Y563270D1*
X1740112D1*
X1742964Y561844D1*
X1744390Y560418D1*
X1745849Y556107D1*
Y553255D1*
X1744390Y548944D1*
X1741538Y546059D1*
X1737227Y544633D1*
X1732916D1*
X1728638Y546059D1*
X1727212Y547518D1*
X1725753Y550370D1*
X2286236Y566903D2*
X2286237Y545381D1*
X2287663Y541070D1*
X2290548Y538218D1*
X2294859Y536759D1*
X2297711D1*
X2302022Y538218D1*
X2304907Y541070D1*
X2306333Y545381D1*
X2306332Y566903D1*
X2329955Y536759D2*
Y566870D1*
X2315596Y546807D1*
X2337118Y546808D1*
X745616Y2233774D2*
Y2212252D1*
X747042Y2207941D1*
X749927Y2205089D1*
X754238Y2203630D1*
X757090D1*
X761401Y2205089D1*
X764286Y2207941D1*
X765712Y2212252D1*
Y2233774D1*
X792187Y2233741D2*
X777861D1*
X776435Y2220841D1*
X777861Y2222267D1*
X782172Y2223726D1*
X786450D1*
X790761Y2222267D1*
X793646Y2219415D1*
X795072Y2215104D1*
Y2212252D1*
X793646Y2207941D1*
X790761Y2205056D1*
X786450Y2203630D1*
X782172D1*
X777861Y2205056D1*
X776435Y2206515D1*
X774976Y2209367D1*
X2938539Y120816D2*
Y99294D1*
X2939964Y94983D1*
X2942850Y92131D1*
X2947161Y90672D1*
X2950012D1*
X2954324Y92131D1*
X2957209Y94983D1*
X2958635Y99294D1*
Y120816D1*
X2985109Y116505D2*
X2983683Y119357D1*
X2979372Y120783D1*
X2976520D1*
X2972209Y119357D1*
X2969324Y115046D1*
X2967898Y107883D1*
Y100720D1*
X2969324Y94983D1*
X2972209Y92098D1*
X2976520Y90672D1*
X2977946D1*
X2982224Y92098D1*
X2985109Y94983D1*
X2986535Y99294D1*
Y100720D1*
X2985109Y105031D1*
X2982224Y107883D1*
X2977946Y109309D1*
X2976520D1*
X2972209Y107883D1*
X2969324Y105031D1*
X2967898Y100720D1*
M02*
